<?xml version="1.0" encoding="UTF-8"?> <svg xmlns="http://www.w3.org/2000/svg" id="Capa_1" viewBox="0 0 512 512"><style>.st0{fill:#c4e2ff}.st1{fill:#699dee}.st2{fill:#a5d5f9}.st3{fill:#508be2}.st4{fill:#4577e5}.st5{fill:#6489ed}.st6{fill:#96cced}.st7{fill:#eaf6ff}.st8{fill:#d8ecfe}.st9{fill:#819af7}.st10{fill:#333}.st11{fill:#acacac}.st12{fill:#5a5a5a}.st13{fill:#444}</style><path class="st0" d="M354.5 464.4H21.2c-6.5 0-11.7-5.3-11.7-11.7V130.9h356.8v321.7c-.1 6.5-5.3 11.8-11.8 11.8z"></path><path class="st1" d="M366.2 140.3H10v-30.8c0-6.5 5.3-11.7 11.7-11.7h332.7c6.5 0 11.7 5.3 11.7 11.7l.1 30.8z"></path><path class="st2" d="M366.2 140.3v312.3c0 6.5-5.2 11.7-11.7 11.7h-20.1c6.5 0 11.7-5.2 11.7-11.7V140.3h20.1z"></path><path class="st3" d="M366.2 109.5v30.8h-20.1v-30.8c0-6.5-5.3-11.7-11.7-11.7h20.1c6.5 0 11.7 5.2 11.7 11.7z"></path><path class="st4" d="M73.7 140.3H9.5v-30.8c0-6.5 5.3-11.7 11.7-11.7h52.5v42.5z"></path><path class="st5" d="M54.8 97.8h18.9v42.5H54.8V97.8z"></path><g><path class="st6" d="M113.4 191.4H54.8c-4.2 0-7.6-3.4-7.6-7.6s3.4-7.6 7.6-7.6h58.6c4.2 0 7.6 3.4 7.6 7.6s-3.4 7.6-7.6 7.6zM113.4 225.3H54.8c-4.2 0-7.6-3.4-7.6-7.6s3.4-7.6 7.6-7.6h58.6c4.2 0 7.6 3.4 7.6 7.6s-3.4 7.6-7.6 7.6zM113.4 259.2H54.8c-4.2 0-7.6-3.4-7.6-7.6s3.4-7.6 7.6-7.6h58.6c4.2 0 7.6 3.4 7.6 7.6s-3.4 7.6-7.6 7.6zM113.4 293H54.8c-4.2 0-7.6-3.4-7.6-7.6s3.4-7.6 7.6-7.6h58.6c4.2 0 7.6 3.4 7.6 7.6 0 4.2-3.4 7.6-7.6 7.6zM113.4 326.9H54.8c-4.2 0-7.6-3.4-7.6-7.6s3.4-7.6 7.6-7.6h58.6c4.2 0 7.6 3.4 7.6 7.6 0 4.2-3.4 7.6-7.6 7.6zM113.4 360.8H54.8c-4.2 0-7.6-3.4-7.6-7.6s3.4-7.6 7.6-7.6h58.6c4.2 0 7.6 3.4 7.6 7.6 0 4.1-3.4 7.6-7.6 7.6zM113.4 394.6H54.8c-4.2 0-7.6-3.4-7.6-7.6s3.4-7.6 7.6-7.6h58.6c4.2 0 7.6 3.4 7.6 7.6 0 4.2-3.4 7.6-7.6 7.6zM113.4 428.5H54.8c-4.2 0-7.6-3.4-7.6-7.6s3.4-7.6 7.6-7.6h58.6c4.2 0 7.6 3.4 7.6 7.6 0 4.2-3.4 7.6-7.6 7.6z"></path></g><g><path class="st7" d="M490.8 512H157.5c-6.5 0-11.7-5.3-11.7-11.7V206h356.8v294.2c-.1 6.5-5.3 11.8-11.8 11.8z"></path><path class="st1" d="M502.5 217H146.3v-30.8c0-6.5 5.3-11.7 11.7-11.7h332.7c6.5 0 11.7 5.3 11.7 11.7l.1 30.8z"></path><path class="st8" d="M502.5 217v283.3c0 6.5-5.2 11.7-11.7 11.7h-20.1c6.5 0 11.7-5.2 11.7-11.7V217h20.1z"></path><path class="st3" d="M502.5 186.2V217h-20.1v-30.8c0-6.5-5.3-11.7-11.7-11.7h20.1c6.5 0 11.7 5.2 11.7 11.7z"></path><path class="st4" d="M210 217h-64.2v-30.8c0-6.5 5.3-11.7 11.7-11.7H210V217z"></path><path class="st5" d="M191.1 174.5H210V217h-18.9v-42.5z"></path><path class="st9" d="M239.8 308.9c-3.7 0-7.3 1.4-10 4l-44.5 41.9c-5.6 5.3-5.6 14.2 0 19.4l44.5 41.9c2.7 2.6 6.3 4 10 4 13.2 0 19.6-16.1 10.1-25.2L220.8 367c-1.4-1.4-1.4-3.7 0-5.1l29.1-27.8c9.6-9.1 3.1-25.2-10.1-25.2zM408.4 308.9c3.7 0 7.3 1.4 10 4l44.5 41.9c5.6 5.3 5.6 14.2 0 19.4l-44.5 41.9c-2.7 2.6-6.3 4-10 4-13.2 0-19.6-16.1-10.1-25.2l29.1-27.8c1.4-1.4 1.4-3.7 0-5.1l-29.1-27.8c-9.5-9.2-3.1-25.3 10.1-25.3zM300.6 417.7c-11.4 0-18.9-11.8-14.2-22.2l45.1-77.6c2.6-5.5 8.1-9.1 14.2-9.1 11.4 0 18.9 11.8 14.2 22.2l-45.1 77.6c-2.6 5.6-8.1 9.1-14.2 9.1z"></path><g><path class="st4" d="M254.5 405.3c0 7.5-5.8 14.7-14.7 14.7-3.7 0-7.3-1.4-10-4l-1.2-1.1c2.3-2.7 3.5-6.1 3.5-9.7 0-3.7-1.4-7.5-4.6-10.5l-29-27.7c-1.4-1.4-1.4-3.7 0-5.1l29.1-27.8c6.1-5.9 5.7-14.6 1-20.1l1.2-1.1c2.7-2.6 6.3-4 10-4 13.2 0 19.6 16.1 10.1 25.2L220.8 362c-1.4 1.4-1.4 3.7 0 5.1l29.1 27.8c3.2 2.9 4.6 6.7 4.6 10.4zM463 374.2l-44.5 41.9c-2.7 2.6-6.3 4-10 4-4.7 0-8.5-2-11.1-5.1l43.3-40.7c5.6-5.3 5.6-14.2 0-19.4L397.3 314c2.6-3 6.4-5.1 11.1-5.1 3.7 0 7.3 1.4 10 4l44.5 41.9c5.7 5.2 5.7 14.1.1 19.4zM361.4 324.6c0 2.2-.5 4.4-1.5 6.5l-45.1 77.6c-2.5 5.5-8.1 9.1-14.2 9.1-3.2 0-6-.9-8.4-2.4 2.5-1.6 4.5-3.9 5.8-6.6l45.1-77.6c1-2.2 1.5-4.4 1.5-6.5 0-5.3-2.8-10.3-7.2-13.2 2.5-1.6 5.4-2.4 8.4-2.4 9-.2 15.6 7.2 15.6 15.5z"></path></g></g><g><path class="st10" d="M52.8 44.8c-4.2 0-7.6-3.4-7.6-7.6V14.3C45.2 6.4 51.6 0 59.5 0h95.3c4.2 0 7.6 3.4 7.6 7.6s-3.4 7.6-7.6 7.6H60.4v22c0 4.2-3.4 7.6-7.6 7.6zM370.9 57.3h-16.6c-4.2 0-7.6-3.4-7.6-7.6s3.4-7.6 7.6-7.6h16.6c4.2 0 7.6 3.4 7.6 7.6s-3.4 7.6-7.6 7.6z"></path><path class="st11" d="M54.8 37.2v25H22c-6.9 0-12.5-5.6-12.5-12.5S15.1 37.2 22 37.2h32.8z"></path><path class="st12" d="M336.4 31.8H45.2v30.7c0 2.8 2.2 5 5 5h286.2c9.9 0 17.9-8 17.9-17.9-.1-9.8-8.1-17.8-17.9-17.8z"></path><path class="st13" d="M354.2 49.7c0 9.9-8 17.9-17.9 17.9h-21.8c9.9 0 17.9-8 17.9-17.9 0-4.9-2-9.4-5.2-12.6-3.2-3.2-7.7-5.2-12.6-5.2h21.8c4.9 0 9.4 2 12.6 5.2s5.2 7.7 5.2 12.6z"></path><path class="st5" d="M165.2 67.5V31.8h35.3v35.7h-35.3z"></path><path class="st4" d="M182.9 67.5V31.8h17.7v35.7h-17.7z"></path><path class="st13" d="M144.9 31.8h20.3v35.7h-20.3V31.8z"></path></g></svg> 