<?xml version="1.0" encoding="UTF-8"?> <svg xmlns="http://www.w3.org/2000/svg" viewBox="0 0 314.3 442.6"><style>.st0{fill-rule:evenodd;clip-rule:evenodd;fill:#e0e0e0}.st1{fill:#f5f5f5}.st1,.st2{fill-rule:evenodd;clip-rule:evenodd}.st2,.st3{fill:#ebebeb}.st4{fill:#5776e0}.st5{fill:#263238}.st6{fill:#455a64}.st7{fill:#e0e0e0}.st8{fill:#fff}.st9{fill:#f5f5f5}.st10{fill:#8798f3}.st11{fill:#e8505b}.st12{fill:#ffbe9d}.st13{fill:#eb996e}.st14{opacity:.3}.st15{fill:#4f5fa3}.st16{fill:#fafafa}</style><g id="Floor"><path class="st0" d="M122.7 99.4l-6.9-4.5 4.7-12.8 8.2 1.1c1.7-2.5 3.8-4.7 6-6.6l-1.7-8.1 12.4-5.8 5.1 6.5c2.9-.5 5.9-.7 8.9-.4l4.5-6.9 12.8 4.7-1.1 8.2c2.5 1.7 4.7 3.8 6.6 6l8.1-1.7 5.8 12.4-6.5 5.1c.5 2.9.7 5.9.4 8.9l6.9 4.5-4.7 12.8-8.2-1.1c-1.7 2.5-3.8 4.7-6 6.6l1.7 8.1-12.4 5.8-5.1-6.5c-2.9.5-5.9.7-8.9.4l-4.5 6.9-12.8-4.7 1.1-8.2c-2.5-1.7-4.7-3.8-6.6-6l-8.1 1.7-5.8-12.4 6.5-5.1c-.5-2.9-.7-5.9-.4-8.9zm28.3 17.5c7.6 2.8 16-1.1 18.8-8.7 2.8-7.6-1.1-16-8.7-18.8-7.6-2.8-16 1.1-18.8 8.7-2.8 7.5 1.1 16 8.7 18.8z"></path><path class="st1" d="M127.7 24.8l-4.6-3 3.1-8.5 5.4.7c1.1-1.6 2.5-3.1 4-4.3l-1.1-5.3 8.2-3.8 3.3 4.3c1.9-.3 3.9-.4 5.9-.3l3-4.6 8.5 3.1-.7 5.4c1.6 1.1 3.1 2.5 4.3 4l5.3-1.2 3.8 8.2-4.3 3.3c.3 1.9.4 3.9.2 5.9l4.6 3-3.1 8.5-5.4-.7c-1.1 1.6-2.5 3.1-4 4.3l1.1 5.3-8.2 3.8-3.3-4.3c-1.9.3-3.9.4-5.9.3l-3 4.6-8.5-3.1.7-5.4c-1.6-1.1-3.1-2.5-4.3-4l-5.3 1.1-3.8-8.2 4.3-3.3c-.3-1.9-.4-3.9-.2-5.8zm18.7 11.5c5 1.8 10.6-.7 12.4-5.8 1.8-5-.7-10.6-5.8-12.4-5-1.8-10.6.7-12.4 5.8-1.8 5 .8 10.5 5.8 12.4zM69.2 123.3l-3.6-2.3 2.4-6.7 4.3.5c.9-1.3 2-2.4 3.1-3.4l-.9-4.2 6.5-3 2.6 3.4c1.5-.3 3.1-.3 4.6-.2l2.3-3.6 6.7 2.4-.5 4.3c1.3.9 2.4 2 3.4 3.1l4.2-.9 3 6.5-3.4 2.6c.3 1.5.3 3.1.2 4.6l3.6 2.3-2.4 6.7-4.3-.6c-.9 1.3-2 2.4-3.1 3.4l.9 4.2-6.5 3-2.6-3.4c-1.5.3-3.1.3-4.6.2l-2.3 3.6-6.7-2.4.5-4.3c-1.3-.9-2.4-2-3.4-3.1l-4.2.9-3-6.5 3.4-2.6c-.3-1.4-.3-2.9-.2-4.5zm14.8 9.1c4 1.5 8.4-.6 9.8-4.6 1.5-4-.6-8.4-4.6-9.8-4-1.5-8.4.6-9.8 4.6-1.4 3.9.6 8.3 4.6 9.8z"></path><path class="st2" d="M75.6 69.4l-4.1-2.7 2.8-7.7 4.9.6c1-1.5 2.3-2.8 3.6-3.9l-1-4.8 7.4-3.4 3 3.9c1.7-.3 3.5-.4 5.3-.2l2.7-4.1 7.7 2.8-.6 4.9c1.5 1 2.8 2.3 3.9 3.6l4.8-1 3.4 7.4-3.9 3c.3 1.7.4 3.5.2 5.3l4.1 2.7-2.8 7.7-4.9-.6c-1 1.5-2.2 2.8-3.6 3.9l1 4.8-7.4 3.4-3-3.9c-1.7.3-3.5.4-5.3.2l-2.7 4.1-7.7-2.8.6-4.9c-1.5-1-2.8-2.3-3.9-3.6l-4.8 1-3.4-7.4 3.9-3c-.3-1.7-.4-3.5-.2-5.3zm16.9 10.4c4.5 1.7 9.6-.7 11.2-5.2 1.7-4.5-.7-9.6-5.2-11.2-4.5-1.7-9.6.7-11.2 5.2-1.7 4.5.6 9.5 5.2 11.2zM270.1 198.5l-4.1-2.7 2.8-7.7 4.9.6c1-1.5 2.3-2.8 3.6-3.9l-1-4.8 7.4-3.4 3 3.9c1.7-.3 3.5-.4 5.3-.2l2.7-4.1 7.7 2.8-.6 4.9c1.5 1 2.8 2.3 3.9 3.6l4.8-1 3.4 7.4-3.9 3c.3 1.7.4 3.5.2 5.3l4.1 2.7-2.8 7.7-4.9-.6c-1 1.5-2.2 2.8-3.6 3.9l1 4.8-7.4 3.4-3-3.9c-1.7.3-3.5.4-5.3.2l-2.7 4.1-7.7-2.8.6-4.9c-1.5-1-2.8-2.3-3.9-3.6l-4.8 1-3.4-7.4 3.9-3c-.3-1.7-.4-3.5-.2-5.3zm16.9 10.4c4.5 1.7 9.6-.7 11.2-5.2 1.7-4.5-.7-9.6-5.2-11.2-4.5-1.7-9.6.7-11.2 5.2-1.7 4.5.7 9.6 5.2 11.2z"></path><path transform="rotate(-180 2.781 93.336)" class="st3" d="M0 88.1h5.6v10.5H0z"></path><path class="st4" d="M265.4 363.2c-4.1-2.1-8.9-2.4-13.5-1.6-2.4.4-5 1.1-6.6 3-1.7 1.8-2 5.1-.1 6.6 1.1.9 2.7 1.1 4.2 1.1 3.6 0 7.5-.7 10.3 1.5 1.6 1.2 2.7 3.2 4.6 3.8 1.9.6 4-.5 5-2.2 1-1.7 1-3.8.6-5.8.2 0-.3-4.2-4.5-6.4zM274.8 345.1c-2.5 3.6-7.4 2.4-9.6.2-2.3-2.2-3.2-5.3-4.1-8.4-2-6.9-4-14.1-2.5-21.1.4-2.1 1.2-4.2 2.7-5.7 1.5-1.6 3.7-2.5 5.8-1.9 2.5.6 4 3 5.1 5.3 3.2 6.7 5 14.2 5 21.6 0 3.5-.4 7.2-2.4 10M281.7 350.3c-2.7-3.2-3.2-7.9-2-12 1.2-4 3.9-7.5 7.1-10.3 3.7-3.3 8-5.8 12.7-7.5 1.8-.6 3.8-1.2 5.7-1 1.9.2 3.9 1.2 4.8 2.9 1.3 2.5.1 5.6-1.3 8.2-2.4 4.4-5.2 8.7-8.3 12.7-2.5 3.2-5.4 6.4-9.2 7.9-3.8 1.5-7.8 1.3-9.8-1.4"></path><path class="st5" d="M275 399s-.1-.6-.2-1.6c-.1-1.2-.3-2.7-.4-4.4-.2-1.9-.5-4.1-1-6.5-.5-2.4-1.3-5-2.4-7.7-1.1-2.6-2.4-5-3.9-6.9-1.5-1.9-3.3-3.3-5-4.1-1.7-.8-3.1-1.2-4.2-1.3-1-.1-1.6-.2-1.6-.2s.6-.1 1.6 0c1.1.1 2.6.3 4.3 1.1 1.8.8 3.6 2.2 5.2 4.2s3 4.4 4.1 7.1c1.1 2.7 1.9 5.3 2.3 7.8.5 2.5.7 4.7.9 6.6.1 1.9.2 3.4.2 4.5.1.8.1 1.4.1 1.4z"></path><path class="st5" d="M274.7 395.6v-.8-2.2c0-1.9 0-4.6-.1-7.9-.2-6.7-.7-13.9-1.9-24-1.1-9.5-2.5-20.6-4-27.8-.3-1.6-.6-3.1-.9-4.4-.3-1.3-.5-2.4-.8-3.3-.2-.9-.4-1.5-.5-2.1-.1-.5-.2-.7-.1-.7 0 0 .1.2.3.7.2.5.4 1.2.6 2.1.3.9.6 2 .9 3.3.3 1.3.7 2.8 1 4.4 1.5 6.5 3 15.7 4.2 25.8 1.1 10.2 1.6 19.4 1.7 26.1 0 3.3 0 6.1-.1 7.9-.1.9-.1 1.6-.1 2.2-.2.5-.2.7-.2.7z"></path><path class="st5" d="M274.6 377.8v-2.3c.1-1.4.3-3.5.7-6.1.4-2.6 1-5.6 2-8.9.4-1.5 1.4-5.1 3.7-10.5 3.1-7.3 7.3-13.3 10.9-17 .9-1 1.8-1.7 2.6-2.4.4-.3.7-.7 1.1-.9.4-.2.7-.5 1-.7 1.2-.8 1.9-1.3 1.9-1.2.1.1-2.7 1.8-6.2 5.5s-7.6 9.7-10.6 16.9c-1.7 3.9-2.9 7.4-3.7 10.4-1 3.3-1.6 6.3-2.1 8.8-.5 2.5-.7 4.6-.9 6-.2 1.6-.3 2.4-.4 2.4zM291.9 409.3l-1.8 24.4h-31.5l-1.8-24.4zM253.1 399.6h41.8v9.7h-41.8z"></path><g><path class="st6" d="M294.9 432.8v2.7h-41.1v-2.7z"></path></g><g><path class="st6" d="M291 440.2l2-4.7h-37.7l2.2 4.7z"></path></g><g><path class="st7" d="M257.4 417.3s0 .1.1.2c.1.2.3.4.5.6.4.6 1.1 1.4 1.8 2.3l.1.1.1-.1c1.2-1.6 2.7-3.7 4.5-6.2h-.3c1.3 1.9 2.8 4 4.4 6.3l.1.2.2-.2c1.6-1.9 3.4-4.1 5.3-6.3h-.3c.1.1.2.2.3.4 1.6 2 3.2 4 4.7 5.9l.2.2.1-.2c1.6-2.3 3.1-4.4 4.4-6.3h-.3c2.2 2.5 4 4.6 5.5 6.2l.1.1.1-.1c.7-1.2 1.3-2.2 1.7-2.9.2-.3.3-.6.4-.8.1-.2.1-.3.1-.3l-.2.2c-.1.2-.3.4-.5.7-.4.7-1 1.6-1.8 2.8h.2c-1.4-1.6-3.2-3.8-5.4-6.3l-.1-.2-.1.2c-1.4 1.9-2.9 4-4.5 6.2h.3c-1.5-1.9-3.1-3.9-4.7-5.9-.1-.1-.2-.2-.3-.4l-.1-.2v.5c-1.8 2.2-3.6 4.3-5.2 6.3h.3c-1.6-2.3-3.1-4.4-4.5-6.2l-.1-.2-.1.2c-1.8 2.5-3.3 4.7-4.4 6.3h.2c-.8-1-1.4-1.7-1.9-2.3-.2-.2-.4-.4-.5-.6-.3-.2-.4-.2-.4-.2z"></path></g><g><path class="st6" d="M256.4 409.1c0 .1 7.9.2 17.6.2 9.7 0 17.6-.1 17.6-.2s-7.9-.2-17.6-.2c-9.7 0-17.6.1-17.6.2z"></path></g><g><path class="st5" d="M254.8 435.8c0 .1 8.6.2 19.1.2 10.6 0 19.1-.1 19.1-.2s-8.6-.2-19.1-.2c-10.5 0-19.1 0-19.1.2z"></path></g><g><path class="st8" d="M174.4 35.6l17.7.1c2.4 0 4.3 2.1 4.3 4.5v3.2c0 2.5 1.9 4.5 4.3 4.5l34.6.3c2.4 0 4.3-2 4.3-4.5v-3.2c0-2.5 2-4.5 4.3-4.5l6.2.1 15.5.1c7.7.1 13.9 6.4 13.8 14.1L277.5 274c-.1 7.7-6.4 13.9-14.1 13.8l-91.2-.8c-7.7-.1-13.9-6.4-13.8-14.1l1.9-223.7c.1-7.5 6.4-13.7 14.1-13.6z"></path><path class="st5" d="M174.4 35.6h-.5c-.3 0-.8 0-1.4.1-1.2.1-3.1.5-5.2 1.8-1.1.6-2.2 1.5-3.2 2.6s-2 2.5-2.7 4.1c-.7 1.7-1.1 3.6-1.1 5.7s0 4.3-.1 6.6c-.2 18.6-.4 45.5-.7 78.7-.3 33.2-.7 72.8-1 116.7 0 5.5-.1 11.1-.1 16.7v4.2c0 1.4.1 2.9.5 4.3s.9 2.7 1.7 3.9c.8 1.2 1.8 2.3 2.9 3.2 2.3 1.8 5.1 3 8 3.2 2.9.1 5.8.1 8.8.1 5.9 0 11.8.1 17.8.1 12 .1 24.1.2 36.5.3 6.2.1 12.4.1 18.6.2 3.1 0 6.3.1 9.4.1 3.2.2 6.4-.6 9.1-2.4 2.7-1.8 4.7-4.5 5.6-7.6.5-1.5.6-3.1.6-4.7v-4.7c.1-6.3.1-12.5.2-18.7.1-12.3.2-24.5.3-36.5.2-23.9.4-47 .6-68.9.2-22 .4-42.8.5-62.4.1-9.8.2-19.2.2-28.3v-3.4c0-.6 0-1.1-.1-1.7-.1-.6-.1-1.1-.3-1.7-.5-2.2-1.5-4.2-2.9-5.9-1.4-1.7-3.2-3-5.1-3.9-2-.9-4.1-1.2-6.2-1.2-4.2 0-8.2-.1-12.2-.1h-8.7c-1-.1-2 .2-2.8.7-.8.5-1.4 1.3-1.7 2.2-.4.9-.3 1.9-.3 2.8v1.4c0 .5 0 .9-.1 1.3-.1.9-.5 1.7-1.1 2.3-.6.6-1.3 1.1-2.1 1.3-.4.1-.8.1-1.3.1h-6.3c-6.6 0-12.7-.1-18.4-.1-2.8 0-5.5 0-8.1-.1h-1.9c-.6-.1-1.2-.3-1.7-.6-1-.6-1.7-1.7-1.9-2.8-.1-.6-.1-1.1-.1-1.7v-1.7c0-.5 0-1.1-.1-1.6s-.3-1-.5-1.5c-.5-.9-1.3-1.6-2.2-2-.9-.4-1.9-.3-2.8-.3-3.6 0-6.6 0-9-.1h-5.6c-1.2-.2-1.8-.1-1.8-.1h1.9c1.3 0 3.1 0 5.6.1 2.4 0 5.5.1 9 .1.9 0 1.8-.1 2.7.3.9.4 1.7 1 2.1 1.9.2.4.4.9.5 1.5.1.5.1 1.1.1 1.6v1.7c0 .6 0 1.1.1 1.7.2 1.2.9 2.3 2 2.9.5.3 1.1.6 1.8.6.6.1 1.3 0 1.9 0 2.6 0 5.3 0 8.1.1 5.7.1 11.8.1 18.4.2h6.3c.4 0 .9 0 1.3-.1.9-.2 1.7-.7 2.3-1.4.6-.7 1-1.5 1.1-2.4.1-.5.1-.9.1-1.4v-1.4c0-.9-.1-1.8.3-2.7.3-.8.9-1.6 1.6-2.1.8-.5 1.7-.7 2.6-.7h2.9c1.9 0 3.9 0 5.8.1 4 0 8 .1 12.2.1 2.1 0 4.2.3 6.1 1.2 1.9.9 3.7 2.2 5 3.8 1.4 1.7 2.3 3.7 2.8 5.8.1.5.2 1.1.3 1.6 0 .6.1 1.1.1 1.7v3.4c-.1 9.1-.2 18.5-.3 28.3-.2 19.5-.4 40.4-.6 62.4a95608.211 95608.211 0 0 0-.9 105.4c-.1 6.2-.1 12.4-.2 18.7v4.7c0 1.6-.1 3.1-.6 4.6-.9 3-2.8 5.6-5.4 7.4-2.6 1.8-5.8 2.5-8.9 2.4-3.1 0-6.3-.1-9.4-.1-6.3-.1-12.5-.1-18.6-.2-12.3-.1-24.5-.2-36.5-.3-6 0-11.9-.1-17.8-.1-2.9 0-5.9 0-8.7-.1-2.9-.2-5.6-1.3-7.8-3.1-1.1-.9-2-2-2.8-3.2-.8-1.2-1.3-2.5-1.7-3.8-.4-1.4-.5-2.8-.5-4.2v-4.2c0-5.6.1-11.2.1-16.7.4-43.9.7-83.5 1-116.7.3-33.2.5-60.1.6-78.7v-6.6c0-2.1.4-4 1.1-5.6.7-1.6 1.6-3 2.7-4.1 1-1.1 2.1-2 3.2-2.5 2.1-1.2 4-1.6 5.2-1.8.6-.1 1.1-.1 1.4-.1h.4z"></path><path class="st5" d="M171.5 58.1c0 .1 2.3.1 5.1.2h5.2c0-.1-2.3-.1-5.1-.2h-5.2zM171.4 60.8c0 .1 2.3.1 5.1.2h5.2c0-.1-2.3-.1-5.1-.2-2.9-.1-5.2-.1-5.2 0zM171.4 63.4c0 .1 2.3.1 5.1.2h5.2c0-.1-2.3-.1-5.1-.2-2.9-.1-5.2-.1-5.2 0zM265.1 67.2h-.8c-.6 0-1.3 0-2.2-.1l.1.1v-1.6-.9c-.1-.3-.4-.6-.7-.7h-1.1c-.4 0-.7.4-.7.8v2.3l.1-.1c-.9 0-1.8 0-2.8-.1l.1.1c0-1.1 0-2.3.1-3.5v-.9c0-.3.2-.5.4-.7l1.2-1.2c.4-.4.8-.8 1.2-1.1l.6-.6c.2-.2.4-.4.6-.4.2-.1.5 0 .6.1.2.1.3.3.5.5l1 1c.6.7 1.3 1.3 1.7 1.8.2.3.1.7.1 1V62.8c0-.2 0-.4-.1-.6-.5-.6-1.1-1.2-1.7-1.9-.3-.3-.6-.7-1-1-.2-.2-.3-.4-.5-.5-.2-.2-.5-.2-.8-.2-.3.1-.5.3-.7.5l-.6.6c-.4.4-.8.8-1.2 1.1l-1.2 1.2-.3.3c-.1.1-.1.3-.1.5v.9c0 1.2 0 2.3-.1 3.5v.1h3v-.1-2.3c0-.3.3-.6.6-.7h1c.3 0 .5.3.6.5v2.6H264.9c.1-.1.2-.1.2-.1z"></path><path class="st9" d="M179.1 98.1l82.3.7c4.1 0 7.5-3.3 7.5-7.4v-2.8c0-4.1-3.3-7.5-7.4-7.5l-82.3-.7c-4.1 0-7.5 3.3-7.5 7.4v2.8c0 4.1 3.3 7.5 7.4 7.5z"></path><path class="st5" d="M179.1 98.1s-.2 0-.6-.1c-.4 0-.9-.1-1.6-.3-.7-.2-1.5-.6-2.3-1.3-.8-.6-1.6-1.6-2.2-2.8-.3-.6-.5-1.3-.6-2.1-.1-.7-.1-1.5 0-2.4 0-.8 0-1.7.1-2.6.2-.9.5-1.8 1-2.6 1-1.6 2.8-3 4.9-3.4 1.1-.2 2.2-.1 3.4-.1h3.6c19.7.2 46.8.4 76.8.7 1.8 0 3.6.7 4.9 2 1.3 1.2 2.1 3 2.3 4.7.1.9 0 1.8 0 2.7 0 .9 0 1.8-.3 2.6-.5 1.7-1.6 3.2-3.1 4.1-.7.5-1.5.8-2.4 1-.8.2-1.7.2-2.6.2h-5.2c-3.4 0-6.7-.1-10-.1-13-.1-24.7-.2-34.5-.3-9.8-.1-17.8-.1-23.3-.1h-7.9c-.2.2-.4.2-.4.2h2.2c1.5 0 3.6.1 6.3.1 5.5.1 13.4.2 23.3.3 9.8.1 21.5.2 34.5.3 3.2 0 6.6.1 10 .1h5.2c.9 0 1.8 0 2.6-.2.9-.2 1.7-.5 2.5-1 1.5-1 2.7-2.5 3.2-4.3.3-.9.3-1.8.3-2.7V88c-.1-1.9-1-3.7-2.4-5-1.4-1.3-3.3-2.1-5.2-2.1-30-.2-57.1-.5-76.8-.6h-3.6c-1.2 0-2.3-.1-3.4.1-2.2.4-4 1.8-5.1 3.5-.5.8-.8 1.8-1 2.7-.2.9-.1 1.8-.1 2.6s0 1.6.1 2.4c.1.8.3 1.5.6 2.1.6 1.3 1.4 2.2 2.3 2.9.8.7 1.7 1 2.4 1.2.7.2 1.3.3 1.6.3h.5z"></path><path class="st5" d="M177.7 88.8s0-.3.2-.8c.1-.5.5-1.2 1.2-1.7s1.8-.8 2.9-.4c1.1.4 2 1.5 2 2.9 0 1.3-.9 2.5-2 2.8-1.1.4-2.2.1-2.9-.4-.7-.5-1-1.2-1.2-1.7-.2-.4-.2-.7-.2-.7v.2c0 .1 0 .3.1.6.1.5.4 1.3 1.1 1.9.7.6 1.9 1 3.2.5 1.2-.4 2.3-1.7 2.3-3.1 0-1.5-1-2.8-2.2-3.2-1.2-.4-2.4-.1-3.2.5-.8.6-1.1 1.3-1.2 1.8-.1.3-.1.5-.1.6v.2z"></path><path class="st5" d="M175.9 94.3c.1.1.8-.6 1.6-1.4.8-.9 1.4-1.6 1.3-1.7-.1-.1-.8.6-1.6 1.4-.8.9-1.4 1.7-1.3 1.7z"></path><path class="st7" d="M255.9 92.6h-.5v-4.5h-1.7v-.5h4v.5H256l-.1 4.5zM250 90.7c0-1.1.8-1.9 1.8-1.9s1.8.8 1.8 1.9c0 1.1-.8 1.9-2 1.9-.6 0-1.1-.2-1.4-.6l.3-.3c.3.3.7.5 1.1.5.8 0 1.4-.5 1.5-1.3H250v-.2zm1.8-1.4c-.7 0-1.3.5-1.3 1.2h2.6c0-.7-.5-1.2-1.3-1.2zM246.2 92.6l1.5-1.9-1.4-1.8h.6l1.1 1.5 1.1-1.4h.6l-1.4 1.8 1.5 1.9h-.6l-1.2-1.6-1.2 1.5h-.6zM243.6 91.9c.1.1.3.2.5.2.4 0 .6-.2.6-.7v-2.2h-1.1v-.4h1.1V88h.5v.8h.7v.4h-.7v2.2c0 .7-.4 1.1-1.1 1.1-.3 0-.6-.1-.8-.3l.3-.3z"></path><path transform="matrix(-1 -.00882 .00882 -1 506.819 250.443)" class="st10" d="M243.3 113.5h21.3v21.3h-21.3z"></path><g><path class="st4" d="M202.4 115.1c0 .1 7.1.2 15.9.3 8.8.1 15.9.1 15.9 0s-7.1-.2-15.9-.3c-8.7-.1-15.9-.1-15.9 0z"></path><path class="st5" d="M177 121.5c0 .1 12.8.3 28.6.4 15.8.1 28.6.2 28.6.1s-12.8-.3-28.6-.4c-15.8-.2-28.6-.2-28.6-.1zM177.7 126.1c0 .1 12.6.3 28.2.4 15.6.1 28.2.2 28.2.1s-12.6-.3-28.2-.4c-15.6-.2-28.2-.2-28.2-.1zM200.7 130.8c0 .1 7.5.2 16.7.3 9.2.1 16.7.1 16.7 0s-7.5-.2-16.7-.3c-9.2-.1-16.7-.1-16.7 0z"></path></g><g><path transform="matrix(-1 -.00882 .00882 -1 505.885 321.09)" class="st10" d="M243 148.8h21.3v21.3H243z"></path></g><g><path class="st11" d="M202.1 150.6c0 .1 7.1.2 15.9.3 8.8.1 15.9.1 15.9 0s-7.1-.2-15.9-.3c-8.8-.1-15.9-.1-15.9 0z"></path><path class="st5" d="M176.7 156.9c0 .1 12.8.3 28.6.4 15.8.1 28.6.2 28.6.1s-12.8-.3-28.6-.4c-15.8-.1-28.6-.2-28.6-.1zM177.3 161.6c0 .1 12.6.3 28.2.4 15.6.1 28.2.2 28.2.1s-12.6-.3-28.2-.4c-15.5-.2-28.2-.2-28.2-.1zM200.4 166.2c0 .1 7.5.2 16.7.3 9.2.1 16.7.1 16.7 0s-7.5-.2-16.7-.3c-9.2-.1-16.7-.1-16.7 0z"></path></g><g><path transform="matrix(-1 -.00882 .00882 -1 504.946 392.027)" class="st6" d="M242.7 184.3H264v21.3h-21.3z"></path></g><g><path class="st11" d="M201.8 186.1c0 .1 7.1.2 15.9.3 8.8.1 15.9.1 15.9 0s-7.1-.2-15.9-.3c-8.8-.1-15.9-.1-15.9 0z"></path><path class="st5" d="M176.4 192.4c0 .1 12.8.3 28.6.4 15.8.1 28.6.2 28.6.1s-12.8-.3-28.6-.4c-15.8-.2-28.6-.2-28.6-.1zM177 197.1c0 .1 12.6.3 28.2.4 15.6.1 28.2.2 28.2.1s-12.6-.3-28.2-.4c-15.5-.2-28.2-.2-28.2-.1zM200.1 201.7c0 .1 7.5.2 16.7.3 9.2.1 16.7.1 16.7 0s-7.5-.2-16.7-.3c-9.2-.1-16.7-.1-16.7 0z"></path></g><g><path transform="matrix(-1 -.00882 .00882 -1 504.007 462.966)" class="st11" d="M242.4 219.7h21.3V241h-21.3z"></path></g><g><path class="st6" d="M201.5 221.6c0 .1 7.1.2 15.9.3 8.8.1 15.9.1 15.9 0s-7.1-.2-15.9-.3c-8.8-.2-15.9-.1-15.9 0z"></path><path class="st5" d="M176.1 227.9c0 .1 12.8.3 28.6.4 15.8.1 28.6.2 28.6.1s-12.8-.3-28.6-.4c-15.8-.2-28.6-.2-28.6-.1zM176.7 232.5c0 .1 12.6.3 28.2.4 15.6.1 28.2.2 28.2.1s-12.6-.3-28.2-.4c-15.5-.1-28.2-.2-28.2-.1zM199.8 237.2c0 .1 7.5.2 16.7.3 9.2.1 16.7.1 16.7 0s-7.5-.2-16.7-.3c-9.2-.1-16.7-.1-16.7 0z"></path></g><g><path transform="matrix(-1 -.00882 .00882 -1 503.068 533.903)" class="st7" d="M242.1 255.2h21.3v21.3h-21.3z"></path></g><g><path class="st7" d="M201.2 257c0 .1 7.1.2 15.9.3 8.8.1 15.9.1 15.9 0s-7.1-.2-15.9-.3c-8.8-.1-15.9-.1-15.9 0z"></path><path class="st3" d="M175.8 263.3c0 .1 12.8.3 28.6.4 15.8.1 28.6.2 28.6.1s-12.8-.3-28.6-.4c-15.8-.1-28.6-.2-28.6-.1zM176.4 268c0 .1 12.6.3 28.2.4 15.6.1 28.2.2 28.2.1s-12.6-.3-28.2-.4c-15.6-.2-28.2-.2-28.2-.1zM199.5 272.7c0 .1 7.5.2 16.7.3 9.2.1 16.7.1 16.7 0s-7.5-.2-16.7-.3c-9.2-.2-16.7-.1-16.7 0z"></path></g><g><path transform="matrix(-1 -.00882 .00882 -1 504.007 462.966)" class="st10" d="M242.4 219.7h21.3V241h-21.3z"></path></g></g><path class="st10" d="M167.5 124.2c0 .9.7 1.6 1.6 1.6.9 0 1.6-.7 1.6-1.6s-.7-1.6-1.6-1.6c-.9 0-1.6.7-1.6 1.6z"></path><g><path class="st12" d="M198.5 126.8l-5 6.5s-2.4 3.7-.5 4.5c1.7.7 2.7-1.4 2.7-1.4s1.1-4.8 3.1-3.6c.3.2-.2 3.5-.5 5.3-.1.6-.4 1.2-.9 1.6l-5.5 4.2c-1 .8-2.2 1.3-3.5 1.4l-1.9.2-1.6 3.2-8.9-3.6 7.1-9.1 3.8-5.8c.6-.5 1.3-.7 2.1-.5l.9.2.7-.7c.4-.4 1-.5 1.5-.4l.5.2 1.5-1.5c.5-.5 3.9-3.6 4.5-3.4-.1.1 1.1 1.1-.1 2.7z"></path><path class="st13" d="M188.5 132.9s.1-.3.5-.7c.4-.4 1-.8 1.8-1 .7-.6 1.1-1.2 1.5-1.6.3-.5.5-.8.4-.8 0 0-.2.3-.5.7-.3.4-.9 1-1.5 1.6-.2.1-.4.1-.6.2-.2.1-.4.2-.5.3-.3.2-.6.4-.7.7-.2.2-.3.4-.3.6-.1-.1-.2 0-.1 0zM187.4 131.6s.1-.2.3-.3c.2-.2.6-.3 1-.2l.1-.1c.7-.7 1.2-1.3 1.2-1.4 0 0-.6.5-1.3 1.3l-.1.1h.1c-.5-.1-.9 0-1.2.3-.1.1-.1.3-.1.3z"></path><path class="st10" d="M197.6 409.6l3.1 28.7-15.4 2-3.2-28.8z"></path><path class="st10" d="M193 438.2c-.1 0-.8-6.3-1.6-14-.7-7.8-1.3-14.1-1.1-14.1.1 0 .8 6.3 1.6 14 .7 7.8 1.2 14.1 1.1 14.1z"></path><path class="st10" d="M200.5 436.3l-15.5 1.9.3 2.1 15.4-2zM184.2 431.1s.1-.3.3-.7c.2-.4.6-1 1.2-1.6.6-.6 1.3-1.3 2.3-1.9 1-.6 2.2-1.1 3.5-1.2 2.7-.3 5.1.8 6.3 2 .6.6 1.1 1.2 1.3 1.6.2.4.3.7.3.7-.1.1-.6-.9-1.8-2-1.3-1.1-3.5-2-6.1-1.8-2.5.3-4.5 1.8-5.6 2.9-1.1 1.1-1.6 2-1.7 2z"></path><g class="st14"><path class="st10" d="M183 419.7l.3 3.2 15.5-2.1-.3-2.4z"></path></g><path class="st10" d="M219.8 411.5l-1.2 28.8-15.6-.3 1.2-28.9z"></path><path class="st10" d="M210.9 439c-.1 0 .1-6.3.5-14.1s.9-14.1 1-14.1c.1 0-.1 6.3-.5 14.1-.4 7.9-.8 14.2-1 14.1z"></path><path class="st10" d="M218.7 438.3l-15.6-.4-.1 2.1 15.6.3zM203.4 430.7s.1-.2.4-.6c.3-.4.8-.9 1.5-1.4.7-.5 1.5-1.1 2.6-1.6s2.3-.7 3.7-.7c2.7.1 4.9 1.6 5.9 2.9.5.7.9 1.3 1.1 1.7.2.4.2.7.2.7-.1 0-.4-1-1.5-2.2-1.1-1.3-3.2-2.5-5.7-2.7-2.5-.1-4.7 1.1-6 2-1.5 1.2-2.2 2-2.2 1.9z"></path><g class="st14"><path class="st10" d="M203.8 419.3l-.1 3.2 15.6.2.1-2.3z"></path></g><path class="st5" d="M202.4 348.1l.6-78.9h30.7s2.4 19.6 1.3 27.5c-1.2 7.9-9.3 51.5-9.3 51.5s-2.6 57.9-3.9 72.8l-19.1-1.7-.3-71.2z"></path><path class="st5" d="M183.6 252.5s-9.5 8.1-11.7 21.9 4.3 68.7 4.3 68.7l5.4 76.2h18.9l-.6-73.4 3.3-54.6 2.1-17.3-21.7-21.5z"></path><path class="st6" d="M200.4 342s0-.2.1-.5c0-.4.1-.8.1-1.4.1-1.3.2-3 .4-5 .3-4.2.6-10.1.9-16.6.3-6.5.5-12.3.6-16.6v-5-1.4-.5s0 .2-.1.5c0 .4 0 .8-.1 1.4 0 1.3-.1 3-.2 5-.2 4.3-.4 10.1-.7 16.6-.3 6.4-.6 12.3-.8 16.6-.1 2.1-.1 3.8-.2 5v1.9zM177.2 346.5c0 .1 1.1-.1 2.8-.2 1.7-.1 4.1-.2 6.7.1 2.6.2 4.9.7 6.6 1.2 1.7.4 2.7.8 2.7.7 0-.1-.9-.5-2.6-1-1.6-.5-4-1.1-6.6-1.3-2.6-.2-5-.1-6.7.1-1.8 0-2.9.3-2.9.4zM207.6 347.2c0 .1.9-.2 2.4-.4s3.5-.3 5.8.1c2.2.4 4.2 1.1 5.5 1.8 1.3.7 2.1 1.2 2.1 1.2s-.6-.7-1.9-1.5c-1.3-.8-3.3-1.6-5.6-2-2.3-.4-4.4-.2-5.9.1-1.6.2-2.4.6-2.4.7zM207.4 348.2c-.1.1 2.4 1.3 5.6 2.1 3.2.8 6 .9 6 .8 0-.2-2.6-.5-5.8-1.3-3.3-.8-5.8-1.8-5.8-1.6z"></path><path class="st6" d="M201.4 294.4s.2.3.7.8l.9.9c.4.3.8.7 1.3 1.1 1 .8 2.2 1.6 3.6 2.4 1.5.8 3.1 1.5 5.1 1.9.3.1.6.1.9.2 4 .9 7.7.5 10.3 0 1.3-.3 2.3-.6 3-.9.7-.3 1-.5 1-.5 0-.1-1.5.5-4.1 1-2.5.5-6.2.7-10.1-.1-.3-.1-.6-.1-.9-.2-1.8-.3-3.5-1-4.9-1.8-1.4-.7-2.6-1.6-3.6-2.3-2.1-1.6-3.2-2.6-3.2-2.5zM194.9 274.9s-.1.3-.2.9c-.1.6-.3 1.4-.5 2.4-.4 2.1-.9 5-1.6 8.4l.1-.2c-2.5.9-5.2 2-8.2 3.1l.3.1c-1.3-1.7-2.7-3.5-4.1-5.4-.3-.4-.7-.9-1-1.3l.1.2c.5-4.1.9-7.9 1.3-11.3l-.3.2c2 1 4 1.4 5.7 1.8 1.7.4 3.3.6 4.5.7 1.3.2 2.3.3 2.9.3.7.1 1 .1 1 .1s-.4-.1-1-.2c-.7-.1-1.7-.3-2.9-.4-1.3-.2-2.8-.5-4.5-.8-1.7-.4-3.7-.8-5.5-1.9l-.3-.2v.3c-.4 3.4-.9 7.2-1.3 11.3v.1l.1.1c.3.4.7.9 1 1.3 1.4 1.9 2.8 3.7 4.2 5.4l.1.1.2-.1c3-1.2 5.8-2.2 8.2-3.2h.1v-.1c.6-3.5 1-6.5 1.4-8.6.1-1 .3-1.7.3-2.3-.1-.5-.1-.8-.1-.8zM211.8 277.6v.8c0 .6.1 1.4.1 2.4.1 2.2.2 5.1.4 8.7v.1l.1.1c2.3 1.2 5 2.6 7.8 4.1l.2.1.1-.1c1.5-1.5 3.1-3.2 4.7-4.9.4-.4.8-.8 1.1-1.2l.1-.1v-.1c0-4.1-.1-8-.1-11.3v-.3l-.3.1c-2 .8-4 1-5.7 1.2-1.7.2-3.3.3-4.5.3-1.2 0-2.2.1-2.9.1h-1.1s.4.1 1 .1h3c1.3 0 2.8-.1 4.6-.2 1.8-.2 3.8-.4 5.8-1.2l-.3-.2v11.3l.1-.2c-.4.4-.8.8-1.1 1.2-1.6 1.7-3.2 3.4-4.7 4.9h.3c-2.9-1.5-5.5-2.8-7.8-4l.1.2c-.3-3.5-.5-6.4-.6-8.5-.1-1-.1-1.8-.2-2.4-.2-.6-.2-.9-.2-1zM202.9 291.1c.1 0 .3-.8.6-2.2.3-1.4.6-3.3.7-5.5.1-2.2.1-4.1 0-5.5-.1-1.4-.3-2.3-.3-2.3-.2 0 .1 3.5-.2 7.8-.3 4.2-1 7.7-.8 7.7zM177.2 295.8s.3.2.8.4 1.2.5 2.2.7c1.9.5 4.5 1 7.5 1s5.6-.5 7.5-1c.9-.3 1.7-.5 2.2-.7.5-.2.8-.3.8-.4 0-.1-1.2.3-3 .8-1.9.4-4.5.9-7.4.9-2.9 0-5.5-.4-7.4-.9-2-.5-3.1-.8-3.2-.8z"></path><path class="st4" d="M225 170.9s13.8 7.5 17.8 9.3l-5.5 26.4-8.7 31.6 5.8 33.4s-20.5 3.6-30.5 2.3c-13.7-1.8-31.2-6.8-31.2-6.8l13.6-40.7-3.5-28.1 5.9-23.7 14.3-1.7 22-2z"></path><g class="st14"><path d="M231.5 197.3c-.9 1.9-3.1 2.7-5.1 3.3s-4.1.9-5.7 2.3c-2.8 2.4-2.7 7-5.3 9.6-1.6 1.7-4.3 2.3-6.5 1.6-1.4-.5-2.7-1.5-4.2-1.6-1-.1-2.1.2-3.1.2-2.9-.2-4.6-3.3-5.8-6-1.2-2.8-2.4-5.7-2.1-8.7.4-4.5 4.2-8.1 4.8-12.6.2-1.7 0-3.4.2-5 .2-1.7.9-3.4 2.4-4.1"></path></g><path class="st4" d="M176.5 167.7l10.7-21.4-8.6-5.5s-10.7 11.1-12.8 13.2c0 0-12.3 11.4-9.1 16.9 2.7 4.7 7.1 8.3 7.1 8.3l12.7-11.5zM242.8 180.2c.2.6 28.7 40 30.2 44.2.1.2.2.5.2.7 1.7 5.5.2 11.4-3.6 15.7L246.1 267l-10.3-11.9 16.4-28.8-15.6-17.3 6.2-28.8z"></path><path class="st12" d="M225 256.9c1 .1 2.7 1.4 3.5 2 .3.2.6.3.9.3.5 0 1-.4 1.2-.9l1-3.4c1 .1 2 .7 2.5 1.6l1.1 1.9 2-1.9 9.2 10.5s-3.6 3.9-5.9 3.9c-2.3.1-13-8.8-13-8.8l-2.8-2.5c-.2 0-2.5-2.8.3-2.7z"></path><path class="st4" d="M195.3 173.9l-8.1.4-11.5-8.8-16.3 9s7.3 7.9 14.3 15.9c5.6 6.5 9.6 10.6 9.6 10.6l12-27.1z"></path><g><path class="st5" d="M187.7 243.3s.4.5 1.2 1.2c.8.8 1.9 1.8 3.4 3.1 2.9 2.6 7.2 5.8 12.3 8.9 5.1 3 10 5.3 13.7 6.6 1.8.7 3.3 1.2 4.4 1.5 1 .3 1.6.5 1.6.4 0 0-.5-.3-1.6-.6-1-.4-2.5-.9-4.3-1.7-3.6-1.5-8.5-3.7-13.5-6.7-5.1-3-9.4-6.3-12.3-8.7-1.5-1.2-2.7-2.3-3.5-3-.9-.6-1.4-1-1.4-1z"></path></g><g><path class="st5" d="M216 238.7c-.1.1 2.8 4.7 6.4 10.4 3.7 5.7 6.7 10.2 6.9 10.1.1-.1-2.8-4.7-6.4-10.4-3.7-5.7-6.7-10.2-6.9-10.1z"></path></g><g><path class="st5" d="M184.2 198.7c.1 0 .1-1.2.1-3 .1-1.9.2-4.4.5-7.3.3-2.8.6-5.4.9-7.2.3-1.8.7-2.9.6-3-.1 0-.6 1-1 2.9-.4 1.8-.8 4.4-1.1 7.3-.3 2.9-.4 5.4-.3 7.3.1 1.8.2 3 .3 3z"></path></g><g><path class="st5" d="M164.5 166.2c0 .1.7-.3 1.9-.8s2.8-1 4.7-1c1.9-.1 3.6.4 4.6 1.1 1.1.6 1.6 1.2 1.6 1.2s-.4-.7-1.4-1.5c-1-.8-2.8-1.3-4.8-1.3s-3.7.7-4.8 1.2c-1.2.6-1.8 1.1-1.8 1.1z"></path></g><g><path class="st5" d="M169.7 161.7c0 .2 2.3-.1 4.5 1.4s2.9 3.6 3.1 3.5c.1 0-.1-.6-.5-1.4-.4-.8-1.2-1.8-2.3-2.6-1.2-.8-2.4-1-3.3-1.1-.9 0-1.5.1-1.5.2z"></path></g><g class="st14"><path d="M215.1 233.9c.2-.9.8-1.9 1.7-2 1.1-.1 1.8 1.1 2.2 2.1l9.9 23.7.3 1.5c-4-6.4-8-12.5-12-18.9-1.1-1.9-2.4-4.1-2.1-6.4z"></path></g><g class="st14"><path class="st4" d="M177.3 166.3c-1.2-1.8-2.3-3.9-4.4-4.3-2.1-.4-4.5 0-6.3 1.1-.4.3-.8.7-.7 1.1.1.3.5.5.8.6 1.9.5 3.9-.1 5.8-.3 1.9-.3 3.4.6 4.7 2"></path></g><g><path class="st5" d="M238.3 204.9c.1 0 .5-1 1.2-2.7.6-1.7 1.4-4.2 2.1-6.9.7-2.7 1.1-5.3 1.3-7.1.2-1.8.2-3 .2-3-.1 0-.2 1.1-.5 2.9-.3 1.8-.8 4.3-1.4 7-.7 2.7-1.4 5.2-1.9 6.9-.7 1.8-1 2.8-1 2.9z"></path></g><g><path class="st12" d="M223.4 178.9l-20.2.3 1.9-18.3s-1.5.8-1.8-6.7c-.3-7.5-1-20.2-1-20.2 8.6-4 18.6-3 26.3 2.6l1.1.8-6.3 41.5z"></path><path class="st12" d="M227.6 146.6c.1-.1 5.1-1.7 5.1 3.5 0 5.1-5.2 4-5.2 3.9 0-.2.1-7.4.1-7.4zM203.5 146.2c-.1-.1-4.7-1.2-4.4 4 .3 5.1 5.4 3.8 5.4 3.6-.1-.2-1-7.6-1-7.6z"></path><path class="st5" d="M215.5 124.9s7-.3 9.5 1c4.2 2.1 7.4 8 7.4 15.3.1 7.3-3.3 17.2-8.6 22.1s-9.6 5.8-9.6 5.8-11.4-6.2-12.6-15.2-2.1-17.8 1.4-22.2c3.5-4.3 9.9-6.7 12.5-6.8z"></path><path class="st5" d="M231.5 146c.4-4.6.8-9.4-.7-13.9-1.5-4.4-5.3-8.4-9.9-8.6-1.5-.1-3 .3-4.5 0-1.3-.2-2.4-.9-3.6-1.3-2.1-.8-4.4-1.1-6.5-.4-2.1.7-3.8 2.6-3.9 4.9 0 .9.2 1.8-.1 2.7-.3.9-1.2 1.4-1.7 2.2-.9 1.1-1.2 2.7-1 4.2.1 1.5.7 2.9 1.2 4.2 1.3 3.4 2.5 6.8 3.8 10.2"></path><path class="st5" d="M219.8 148.6c-2.7-1.3-5.9-1.2-8.5.2-2.6 1.4-4.4 4.2-4.7 7.1-.3 3-.3 3.5-2.3 5.9-1.2 1.4-2.4 1.4-3.8 2.6-1.8 1.6-2.4 4.5-1.3 6.7-3.7-.2-7.1-.4-8.4 3 5.5-1.1 11 4 16.4 2.9 1.7-.4 3.5-.7 4.9-1.8 1.6-1.2 2.5-3.2 3.3-5 1.5-3.3 2.9-6.7 4.4-10 1-2.3 2-4.6 2-7 0-2.5-1.5-5.1-3.8-5.7"></path><path class="st10" d="M222 152c1-3.2-.1-6.8-2.7-8.5-2.5-1.8-6.3-1.6-9 .4-2 1.5-3.3 4-3.1 6.4.2 2.4 2.2 4.5 4.5 4.5"></path><path class="st5" d="M210 147c3.2-2.6 8-2.1 10.7.5 2.6 2.6 2.9 8 2.1 11.6-.9 3.9-3.2 7.7-2.4 11.6.5 2.4 2.1 4.8 1.2 7-.8 1.8-2.9 2.6-4.1 4.2-1.7 2.3-.9 5.6.3 8.2 1.1 2.6 2.6 5.5 1.8 8.3-.6 2.2-2.4 3.7-3.9 5.4-1.4 1.7-2.6 4.1-1.6 6.1-1.8 1.4-4.6 1.5-6.5.2-1.9-1.2-3-3.7-2.5-6-1.1 1.2-1.8 2.8-1.9 4.4-3.1-.3-6.1-2.3-7.5-5.1-1.4-2.8-1.2-6.4.5-9 1.2-1.9 3.2-3.5 3.7-5.8.5-2.7-1.5-5.3-1.2-8.1.2-2.5 2.2-4.4 4.1-5.8 2-1.5 4.2-2.8 5.5-4.9 2.1-3.4 1.1-7.7.3-11.6-1-3.8-1.4-8.4 1.4-11.2"></path><path class="st5" d="M221.8 149.4c2.8 1.9 2.9 5.8 2.6 9.2-.4 3.3-.9 7 1.1 9.7 1.4 1.8 3.8 2.8 4.5 5 .9 2.6-1.3 5.2-1.5 8-.2 2 .7 3.9 1.6 5.6 1 1.7 2.1 3.4 2.5 5.4.5 1.9.1 4.2-1.4 5.5-1 .8-2.3 1.1-3.5 1.2-4.4.7-8.9.7-13.3 0-1.3-5.4-2.6-10.9-2.6-16.5 0-11.1 5.2-21.7 5.4-32.8"></path><path class="st6" d="M214 206.3l.5-.5c.3-.4.7-.9 1.2-1.5 1.1-1.3 2.7-3.1 4.4-5.6.8-1.3 1.6-2.7 2.1-4.5.5-1.7.6-3.8-.1-5.7-.7-1.9-1.8-3.7-2.8-5.6-1-1.9-2-4-1.8-6.2.2-2.2 1.7-4.1 2.4-6.2.2-.5.3-1.1.3-1.6 0-.6-.1-1.1-.3-1.6-.4-1-1.1-1.9-1.7-2.6-.7-.7-1.3-1.4-1.8-2.2-.5-.8-.7-1.6-.7-2.5-.1-1.7.4-3.3.9-4.7.4-1.4.8-2.8.9-4 .1-1.2-.2-2.3-.6-3-.4-.8-.9-1.2-1.3-1.5-.4-.3-.6-.3-.6-.3-.1.1 1 .4 1.7 1.9.3.7.6 1.8.5 2.9-.1 1.2-.4 2.5-.9 3.9s-1 3-1 4.9c0 .9.3 1.9.8 2.7.5.9 1.2 1.6 1.8 2.3.6.7 1.3 1.5 1.6 2.4.2.5.2 1 .2 1.5s-.1 1-.3 1.5c-.6 2-2.1 3.8-2.4 6.3-.1 1.2.1 2.4.4 3.4.4 1.1.9 2.1 1.4 3 1.1 1.9 2.2 3.7 2.8 5.5.7 1.8.6 3.7.2 5.4-.5 1.7-1.2 3.1-2 4.4-1.6 2.5-3.2 4.4-4.2 5.7-.5.7-.9 1.2-1.2 1.6-.3.3-.4.4-.4.5z"></path><path class="st10" d="M224.9 167.7c.1 0-.7-1.3-1.1-3.7-.2-1.2-.2-2.6-.2-4.2s.2-3.4.1-5.3-.5-3.7-1.3-5.1c-.8-1.5-1.9-2.5-3-3.1-1.1-.6-2.1-.8-2.8-.7-.3 0-.6.1-.8.1-.2 0-.3.1-.3.1 0 .1.4 0 1 0 .7 0 1.6.2 2.7.8 1 .6 2.1 1.6 2.8 3 .7 1.4 1.1 3.1 1.2 5 .1 1.8 0 3.6 0 5.2s.1 3.1.3 4.3c.2 1.2.6 2.2.9 2.8.3.5.5.8.5.8z"></path><path class="st6" d="M195.5 203.5s0-.2-.1-.6v-1.8c.2-1.6.5-3.9 1.6-6.5.6-1.3 1.5-2.6 2.1-4.2.3-.8.6-1.6.8-2.5.2-.9.1-1.9 0-2.8-.1-.9-.4-1.9-.5-2.9-.1-1-.1-2 .1-2.9.4-2 1.3-3.9 2.9-5.4 1.5-1.5 3.7-2.2 5.2-3.6 1.6-1.5 2.4-3.5 2.7-5.3.4-1.9.3-3.7.2-5.4-.1-1.7-.3-3.2-.4-4.7-.1-1.4-.1-2.7 0-3.8.2-1.1.6-2 1.1-2.6 1-1.2 2.1-1.2 2-1.2 0 0-.2 0-.6.1-.4.1-1 .4-1.6 1-.6.6-1 1.6-1.2 2.7-.2 1.1-.2 2.5-.1 3.9s.3 3 .4 4.7c.1 1.7.2 3.5-.2 5.3-.4 1.8-1.1 3.7-2.6 5.1-1.4 1.4-3.6 2.1-5.2 3.6s-2.7 3.6-3 5.7c-.2 1-.2 2.1-.1 3.1s.4 1.9.5 2.9c.1.9.2 1.8.1 2.7-.1.9-.4 1.7-.7 2.4-.6 1.5-1.5 2.8-2.1 4.2-1 2.7-1.3 5-1.4 6.7 0 .8 0 1.4.1 1.9 0 .2.1.4.1.5l-.1-.3z"></path><path class="st6" d="M199.5 175.3s-.3-.4-.4-1.2c-.2-.8-.3-2.1.2-3.5s1.7-2.9 3.4-3.8c.9-.4 2-.9 2.7-1.8.8-.9 1.2-2 1.7-3 .9-2.3.8-4.6.8-6.6s.1-3.8.6-5.3c.5-1.4 1.3-2.4 2-2.9s1.1-.7 1.1-.7-.1 0-.3.1c-.2.1-.5.2-.9.5-.7.5-1.6 1.4-2.2 2.9-.6 1.5-.8 3.4-.8 5.4 0 2 .1 4.3-.8 6.4-.5 1-1 2.1-1.6 2.9-.3.4-.7.7-1.2 1-.4.3-.9.4-1.4.7-1.9 1-3.1 2.6-3.6 4.1-.4 1.5-.3 2.8-.1 3.7.1.4.3.7.4.9.3.1.3.2.4.2zM223.4 148.2s.9-.3 2.1-1.2c1.2-.9 2.6-2.5 3.6-4.5s1.4-4.1 1.5-5.6c.1-1.5-.2-2.4-.2-2.4-.1 0 0 .9-.2 2.4-.1 1.4-.6 3.4-1.6 5.4-1 2-2.3 3.5-3.4 4.5-1.1.8-1.9 1.3-1.8 1.4zM224.3 149.6c.1.1 1.7-.6 3.5-1.8 1.8-1.3 3-2.6 2.9-2.7-.1-.1-1.5 1-3.2 2.2-1.7 1.2-3.2 2.1-3.2 2.3zM202.4 136.4c-.1 0 .1 2.9 1.8 5.9 1.7 3.1 4 4.8 4 4.7.1-.1-2-2-3.6-4.9-1.6-3-2-5.7-2.2-5.7z"></path><g><path class="st6" d="M200.8 140.4c-.1 0 .3 2.3 1.5 4.8 1.2 2.6 2.6 4.4 2.7 4.3.1-.1-1.1-2-2.2-4.5-1.2-2.5-1.9-4.6-2-4.6z"></path></g><g><path class="st6" d="M203.2 127.4c.1 0 .4-.7 1-1.9.3-.6.7-1.2 1.4-1.8.6-.6 1.5-.9 2.4-.9 2 0 3.4 1.3 4.4 2.1.9.9 1.5 1.5 1.6 1.5 0 0-.4-.7-1.3-1.7-.5-.5-1-1.1-1.8-1.5-.8-.5-1.7-.9-2.8-.9-1.1 0-2.1.4-2.8 1.1-.7.6-1.1 1.4-1.4 2-.6 1.2-.8 2-.7 2z"></path></g><g><path class="st6" d="M205.2 205.6s.2-.1.5-.4l1.3-1.3c.5-.6 1.1-1.3 1.7-2.3.6-.9 1.2-2.1 1.3-3.6 0-.7 0-1.5-.3-2.2-.2-.7-.6-1.5-1-2.2-.8-1.4-1.8-2.9-1.9-4.7-.1-1.8.6-3.6 1.6-5.3 1-1.7 2.4-3.3 3.5-5.1 1.2-1.8 2.1-3.8 2.4-5.8.3-2 .3-4 .1-5.8-.4-3.7-1.1-6.9-1.2-9.7-.2-2.8.2-5 .6-6.5.5-1.5.9-2.2.9-2.2s-.1.2-.3.5c-.2.4-.5.9-.7 1.6-.5 1.5-.9 3.8-.8 6.6.1 2.8.8 6.1 1.1 9.7.2 1.8.2 3.8-.1 5.7-.3 2-1.1 3.9-2.3 5.6-1.2 1.8-2.5 3.3-3.6 5.1-1 1.8-1.7 3.7-1.6 5.6.1 2 1.2 3.5 2 4.9.4.7.8 1.4 1 2.1.2.7.3 1.4.3 2.1-.1 1.4-.6 2.5-1.1 3.5-.6.9-1.2 1.7-1.6 2.3-.5.6-.9 1-1.2 1.3-.5.3-.6.5-.6.5z"></path></g></g></g><g><path class="st5" d="M161.8 412.2v-.3-.9-3.3-2.3-1.3-1.4c-.1-1-.4-1.9-.9-2.6-.5-.7-1.2-1.2-1.9-1.3-.7-.1-1.4.3-2 .9-.6.6-.9 1.5-1.1 2.4-.1.5-.1.9-.1 1.4V404.8c0-.8-.1-1.7.1-2.6.2-.9.5-1.7 1-2.3.5-.6 1.2-.9 1.9-.8.7.1 1.3.5 1.8 1.2s.7 1.6.8 2.5v9.1c.4.2.4.3.4.3z"></path><path class="st5" d="M158.2 412.2v-.3-.9-3.3-2.3-1.3-1.4c-.1-1-.4-1.9-.9-2.6-.5-.7-1.2-1.2-1.9-1.3-.7-.1-1.4.3-2 .9-.6.6-.9 1.5-1.1 2.4-.1.5-.1.9-.1 1.4V404.8c0-.8-.1-1.7.1-2.6.2-.9.5-1.7 1-2.3.5-.6 1.2-.9 1.9-.8.7.1 1.3.5 1.8 1.2s.7 1.6.8 2.5v9.1c.4.2.4.3.4.3z"></path><path class="st10" d="M166.1 409.8l2.5 32.8H152l-2.1-32.8z"></path><path class="st11" d="M149.9 409.8h-3.4l-3 32.8h8.5z"></path><path class="st15" d="M149.9 409.8h-3.4l-3 32.8h8.5z"></path><g><path class="st16" d="M166.8 419l-15.9 6.6.8 12.7 16.1-6.3z"></path></g></g></g></svg> 