<?xml version="1.0" encoding="UTF-8"?> <svg xmlns="http://www.w3.org/2000/svg" id="Capa_1" viewBox="0 0 512 512"><style>.st0{fill:#acacac}.st1{fill:#9c9c9c}.st2{fill:#c4e2ff}.st3{fill:#a5d5f9}.st4{fill:#5a5a5a}.st5{fill:#eaf6ff}.st6{fill:#d8ecfe}.st7{fill:#4577e5}.st8{fill:#819af7}.st9{fill:#96cced}.st10{fill:#444}.st11{fill:#333}</style><path class="st0" d="M324.3 437.4v-41.1H187.7v41.1c.6 34.2-18.9 67.1-18.9 67.1h174.4s-19.4-32.9-18.9-67.1z"></path><path class="st1" d="M187.7 404.5h136.7v20.3H187.7v-20.3z"></path><path class="st0" d="M495.7 404.5H16.3C9.5 404.5 4 399 4 392.1V97.4c0-6.8 5.5-12.3 12.3-12.3h479.4c6.8 0 12.3 5.5 12.3 12.3v294.7c0 6.9-5.5 12.4-12.3 12.4z"></path><path class="st1" d="M508 97.4v294.7c0 6.8-5.5 12.3-12.3 12.3h-20.3c6.8 0 12.3-5.5 12.3-12.3V97.4c0-6.8-5.5-12.3-12.3-12.3h20.3c6.8 0 12.3 5.5 12.3 12.3z"></path><path class="st2" d="M43.2 345.6v-213c0-6.2 4.8-11.3 10.8-11.3h404c5.9 0 10.8 5.1 10.8 11.3v213H43.2z"></path><path class="st3" d="M468.8 132.6v213h-20.3v-213c0-6.2-4.8-11.3-10.8-11.3H458c6 0 10.8 5.1 10.8 11.3z"></path><g><path class="st4" d="M371.9 512H140.1c-4.1 0-7.5-3.4-7.5-7.5s3.4-7.5 7.5-7.5h231.8c4.1 0 7.5 3.4 7.5 7.5s-3.3 7.5-7.5 7.5z"></path></g><g><path class="st5" d="M422.4 345.6H89.6V8.3c0-4.6 3.7-8.3 8.3-8.3h316.2c4.6 0 8.3 3.7 8.3 8.3v337.3z"></path><path class="st6" d="M422.4 8.3v337.4h-20.3V8.3c0-4.6-3.7-8.3-8.3-8.3h20.3c4.6 0 8.3 3.7 8.3 8.3z"></path><path class="st7" d="M215.8 54.4c-9.8 0-17.7 7.9-17.7 17.7v69.5c0 2.5 0 7.3-9.3 11.9-2.6 1.3-5.4 1.9-8.7 1.9-3.5 0-6.4-.8-9.1-2.5-7.1-4.5-7.7-7.8-7.7-11.3V72.1c0-9.8-7.9-17.7-17.7-17.7s-17.7 7.9-17.7 17.7v69.6c0 17.1 8.1 31 24.1 41.2 8.4 5.4 17.9 8.1 28.2 8.1h.1c8.8 0 17.1-1.9 24.6-5.7 18.6-9.4 28.8-24.9 28.8-43.6V72.1c-.2-9.8-8.1-17.7-17.9-17.7zM380.6 163.3l-33.5-44.2 27.9-37c5.9-7.8 4.3-18.9-3.5-24.8s-19-4.3-24.8 3.5l-21.8 29-22-29c-5.9-7.8-17.1-9.3-24.9-3.4s-9.3 17.1-3.4 24.9l28.1 37-31.9 42.4c-5.9 7.8-4.3 18.9 3.5 24.8 3.2 2.4 6.9 3.6 10.7 3.6 5.4 0 10.7-2.4 14.2-7.1l25.9-34.3 27.5 36.2c3.5 4.6 8.8 7 14.1 7 3.7 0 7.5-1.2 10.7-3.6 7.6-6.1 9.2-17.2 3.2-25z"></path><path class="st8" d="M233.5 72.1v69.5c0 18.8-10.2 34.3-28.8 43.6-7.5 3.8-15.8 5.7-24.6 5.7h-.1c-3.2 0-6.4-.3-9.5-.8 5.2-.9 10.2-2.5 14.9-4.9 18.6-9.4 28.8-24.9 28.8-43.6V72.1c0-6.2-3.2-11.7-8.1-14.9 2.8-1.8 6.1-2.9 9.6-2.9 9.9.1 17.8 8 17.8 17.8zM377.2 188.1c-3.2 2.4-7 3.6-10.7 3.6-3.4 0-6.8-1-9.7-2.9.4-.2.7-.5 1.1-.8 7.8-5.9 9.3-17.1 3.4-24.9l-30.8-40.5c-1.6-2.2-1.6-5.1 0-7.3L355.6 82c5.9-7.8 4.3-19-3.5-24.9-.3-.3-.7-.5-1-.7 6.1-3.9 14.2-3.9 20.3.7 7.8 5.9 9.4 17 3.5 24.9L347 119l33.5 44.2c6.1 7.9 4.5 19-3.3 24.9z"></path><g><path class="st9" d="M384.3 237.7H127.7c-4.1 0-7.5-3.4-7.5-7.5s3.4-7.5 7.5-7.5h256.5c4.1 0 7.5 3.4 7.5 7.5.1 4.1-3.3 7.5-7.4 7.5zM384.3 268.6H127.7c-4.1 0-7.5-3.4-7.5-7.5s3.4-7.5 7.5-7.5h256.5c4.1 0 7.5 3.4 7.5 7.5.1 4.1-3.3 7.5-7.4 7.5zM384.3 299.4H127.7c-4.1 0-7.5-3.4-7.5-7.5s3.4-7.5 7.5-7.5h256.5c4.1 0 7.5 3.4 7.5 7.5.1 4.2-3.3 7.5-7.4 7.5z"></path></g></g><g><path class="st4" d="M508 345.6v46.5c0 6.8-5.5 12.3-12.3 12.3H16.3C9.5 404.5 4 399 4 392.2v-46.5h504v-.1z"></path></g><g><path class="st10" d="M508 345.6v46.5c0 6.8-5.5 12.3-12.3 12.3h-20.3c6.8 0 12.3-5.5 12.3-12.3v-46.5H508z"></path></g><g><path class="st11" d="M271.2 382.5h-30.5c-4.1 0-7.5-3.4-7.5-7.5s3.4-7.5 7.5-7.5h30.5c4.1 0 7.5 3.4 7.5 7.5 0 4.2-3.3 7.5-7.5 7.5z"></path></g></svg> 