<?xml version="1.0" encoding="UTF-8"?> <svg xmlns="http://www.w3.org/2000/svg" id="Capa_1" viewBox="0 0 512 512"><style>.st0{fill:#e5eef8}.st1{fill:#d5e2f3}.st2{fill:#ebebf0}.st3{fill:#819af7}.st4{fill:#6489ed}.st5{fill:#699dee}.st6{fill:#f93442}.st7{fill:#fcb64d}.st8{fill:#05f2a7}.st9{fill:#99bce4}.st10{fill:#7daadd}.st11{fill:#c5e1ff}.st12{fill:#4577e5}</style><path class="st0" d="M366.7 450.5H167.1c-6.4 0-11.5-5.2-11.5-11.5v-55.2h222.6V439c.1 6.3-5.1 11.5-11.5 11.5z"></path><path class="st1" d="M155.6 384.3h222.6v39.2H155.6v-39.2z"></path><path class="st2" d="M155.6 327.7h225.5v52.5H155.6v-52.5z"></path><path class="st3" d="M506.4 373.1c11 9.2 4.5 27.2-9.8 27.2H102.3c-8.5 0-15.4-6.9-15.4-15.4v-308c0-13 15.2-20.2 25.2-11.8l44.4 34.7 224.6 175.4 125.3 97.9zM126.1 361h301.1l-44.8-35-1.3-1-225.5-176.1-29.5-23V361z"></path><path class="st4" d="M156.5 99.8L133.7 82v49.8l21.9 17.1L381.1 325l1.3 1 20.6 16.1v-49.8l-21.9-17.1L156.5 99.8z"></path><path class="st0" d="M381.1 346.6H155.6v-270c0-8.3 6.7-15 15-15H366c8.3 0 15 6.7 15 15v270h.1z"></path><path class="st5" d="M366.1 61.5H170.7c-8.3 0-15 6.7-15 15v28h225.5v-28c-.1-8.2-6.8-15-15.1-15z"></path><circle class="st6" cx="186.4" cy="83.6" r="7.7"></circle><circle class="st7" cx="217.5" cy="83.6" r="7.7"></circle><circle class="st8" cx="248.7" cy="83.6" r="7.7"></circle><path class="st0" d="M28.8 448.4H17.3c-9.5 0-17.3-7.7-17.3-17.3V97.6c0-.8.2-1.5.6-2.1l19-30.4c1.6-2.5 5.2-2.5 6.8 0l19 30.4c.4.6.6 1.4.6 2.1v333.5c0 9.6-7.7 17.3-17.2 17.3z"></path><path class="st1" d="M24.9 431.2V97.6c0-.8.2-1.5.6-2.1l9.9-15.9-9.1-14.5a4.02 4.02 0 0 0-6.8 0L.5 95.5c-.3.6-.5 1.4-.5 2.1v333.5c0 9.5 7.7 17.3 17.3 17.3h11.5c2.4 0 4.6-.5 6.7-1.4-6.2-2.5-10.6-8.7-10.6-15.8z"></path><path class="st9" d="M0 368.5h46v27.3H0v-27.3z"></path><path class="st10" d="M0 368.5h24.9v27.3H0v-27.3z"></path><path class="st9" d="M26.4 65.1a4.02 4.02 0 0 0-6.8 0L.6 95.5c-.4.6-.6 1.4-.6 2.1v14.3h46V97.6c0-.8-.2-1.5-.6-2.1l-19-30.4z"></path><path class="st10" d="M24.9 97.6c0-.8.2-1.5.6-2.1l9.9-15.9-9.1-14.5a4.02 4.02 0 0 0-6.8 0L.5 95.5c-.3.6-.5 1.4-.5 2.1v14.3h24.9V97.6z"></path><path class="st11" d="M315.6 310.8h-94.7c-4.3 0-7.7-3.5-7.7-7.7 0-4.3 3.5-7.7 7.7-7.7h94.7c4.3 0 7.7 3.5 7.7 7.7.1 4.2-3.4 7.7-7.7 7.7zM205.7 295.5c-4.3 0-7.7-3.5-7.7-7.7v-94.7c0-4.3 3.5-7.7 7.7-7.7 4.3 0 7.7 3.5 7.7 7.7v94.7c0 4.3-3.5 7.7-7.7 7.7zM315.6 185.6h-94.7c-4.3 0-7.7-3.5-7.7-7.7 0-4.3 3.5-7.7 7.7-7.7h94.7c4.3 0 7.7 3.5 7.7 7.7.1 4.2-3.4 7.7-7.7 7.7zM330.9 295.5c-4.3 0-7.7-3.5-7.7-7.7v-94.7c0-4.3 3.5-7.7 7.7-7.7 4.3 0 7.7 3.5 7.7 7.7v94.7c0 4.3-3.4 7.7-7.7 7.7z"></path><path class="st12" d="M215.4 193.1h-19.5c-3 0-5.5-2.5-5.5-5.5v-19.5c0-3 2.5-5.5 5.5-5.5h19.5c3 0 5.5 2.5 5.5 5.5v19.5c0 3-2.4 5.5-5.5 5.5zM340.6 193.1h-19.5c-3 0-5.5-2.5-5.5-5.5v-19.5c0-3 2.5-5.5 5.5-5.5h19.5c3 0 5.5 2.5 5.5 5.5v19.5c.1 3-2.4 5.5-5.5 5.5zM215.4 318.3h-19.5c-3 0-5.5-2.5-5.5-5.5v-19.5c0-3 2.5-5.5 5.5-5.5h19.5c3 0 5.5 2.5 5.5 5.5v19.5c0 3-2.4 5.5-5.5 5.5zM340.6 318.3h-19.5c-3 0-5.5-2.5-5.5-5.5v-19.5c0-3 2.5-5.5 5.5-5.5h19.5c3 0 5.5 2.5 5.5 5.5v19.5c.1 3-2.4 5.5-5.5 5.5z"></path></svg> 