<?xml version="1.0" encoding="UTF-8"?> <svg xmlns="http://www.w3.org/2000/svg" id="Capa_1" viewBox="0 0 512 512"><style>.st0{fill:#d8ecfe}.st1{fill:#c4e2ff}.st2{fill:#699dee}.st3{fill:#478aea}.st4{fill:#4577e5}.st5{fill:#819af7}.st6{fill:#5a5a5a}.st7{fill:#444}.st8{fill:#26a6fe}.st9{fill:#96cced}</style><path class="st0" d="M473 465.3H39c-7.7 0-14-6.3-14-14V42.9h462v408.4c0 7.7-6.3 14-14 14z"></path><path class="st1" d="M487 55.7v395.6c0 7.7-6.3 14-14 14h-21.7c7.7 0 14-6.3 14-14V55.7H487z"></path><path class="st2" d="M487 55.8H25V14.1c0-7.8 6.3-14 14-14h433.9c7.8 0 14 6.3 14 14l.1 41.7z"></path><path class="st3" d="M487 14v41.7h-21.6V14c0-7.8-6.3-14-14-14H473c7.7 0 14 6.3 14 14z"></path><path class="st4" d="M101.9 55.8H25V14.1c0-7.8 6.3-14 14-14h62.8l.1 55.7z"></path><path class="st5" d="M80.3 0h21.6v55.8H80.3V0z"></path><g><path class="st6" d="M382.1 404.9v-38.1c0-4.2-3.4-7.7-7.7-7.7h-19.7c-3.3 0-6.2-2.1-7.3-5.2-1.2-3.5-2.6-6.9-4.2-10.2-1.4-3-.9-6.5 1.4-8.8l13.9-13.9c3-3 3-7.9 0-10.8l-26.9-26.9c-3-3-7.9-3-10.8 0l-13.9 13.9c-2.3 2.3-5.8 2.9-8.8 1.4-3.3-1.6-6.7-3-10.2-4.2-3.1-1.1-5.2-4-5.2-7.3v-19.7c0-4.2-3.4-7.7-7.7-7.7h-38c-4.2 0-7.7 3.4-7.7 7.7v19.7c0 3.3-2.1 6.2-5.2 7.3-3.5 1.2-6.9 2.6-10.2 4.2-3 1.4-6.5.9-8.8-1.4l-13.9-13.9c-3-3-7.9-3-10.8 0l-26.9 26.9c-3 3-3 7.9 0 10.8l13.9 13.9c2.3 2.3 2.9 5.8 1.4 8.8-1.6 3.3-3 6.7-4.2 10.2-1.1 3.1-4 5.2-7.3 5.2h-19.7c-4.2 0-7.7 3.4-7.7 7.7v38.1c0 4.2 3.4 7.7 7.7 7.7h19.7c3.3 0 6.2 2.1 7.3 5.2 1.2 3.5 2.6 6.9 4.2 10.2 1.4 3 .9 6.5-1.4 8.8l-13.9 13.9c-3 3-3 7.9 0 10.8l26.9 26.9c3 3 7.9 3 10.8 0l13.9-13.9c2.3-2.3 5.8-2.9 8.8-1.4 3.3 1.6 6.7 3 10.2 4.2 3.1 1.1 5.2 4 5.2 7.3v19.7c0 4.2 3.4 7.7 7.7 7.7h38c4.2 0 7.7-3.4 7.7-7.7v-19.7c0-3.3 2.1-6.2 5.2-7.3 3.5-1.2 6.9-2.6 10.2-4.2 3-1.4 6.5-.9 8.8 1.4l13.9 13.9c3 3 7.9 3 10.8 0l26.9-26.9c3-3 3-7.9 0-10.8l-13.9-13.9c-2.3-2.3-2.9-5.8-1.4-8.8 1.6-3.3 3-6.7 4.2-10.2 1.1-3.1 4-5.2 7.3-5.2h19.7c4.3 0 7.7-3.5 7.7-7.7z"></path><path class="st7" d="M382.1 366.8v38.1c0 4.2-3.4 7.7-7.7 7.7h-19.7c-3.3 0-6.2 2.1-7.3 5.2-1.2 3.5-2.6 6.9-4.2 10.2-1.4 3-.9 6.5 1.4 8.8l13.9 13.9c3 3 3 7.9 0 10.9l-26.9 26.9c-3 3-7.9 3-10.9 0l-13.9-13.9c-2.3-2.3-5.8-2.8-8.8-1.4-3.3 1.6-6.7 3-10.2 4.2-3.1 1.1-5.2 4-5.2 7.3v19.7c0 4.2-3.4 7.7-7.7 7.7h-19.5c4.2 0 7.7-3.4 7.7-7.7v-26.6c0-3.3 2.1-6.2 5.2-7.3 15.2-5.1 29.8-12.8 41.5-23.8 26.6-25 33.4-66.8 18-99.7-1.2-3.5-2.6-6.9-4.2-10.2-1.4-3-.9-6.5 1.4-8.8l23.3-23.3c.9-.9 1.5-1.9 1.8-2.9l8.3 8.3c3 3 3 7.8 0 10.8l-13.9 13.9c-2.3 2.3-2.8 5.8-1.4 8.8 1.6 3.3 3 6.7 4.2 10.2 1.1 3.1 4 5.2 7.3 5.2h19.7c4.4.2 7.8 3.6 7.8 7.8z"></path><circle class="st4" cx="256" cy="385.9" r="58.4"></circle><path class="st8" d="M314.4 385.9c0 32.3-26.1 58.4-58.4 58.4-16.8 0-31.9-7.1-42.5-18.4 7.8 3.9 16.5 6 25.8 6 32.3 0 58.4-26.1 58.4-58.4 0-15.5-6-29.5-15.8-40 19.2 9.5 32.5 29.4 32.5 52.4z"></path></g><g><path class="st4" d="M422.5 219.9h-333c-3.4 0-6.1-2.7-6.1-6.1V107.5c0-3.4 2.7-6.1 6.1-6.1h333.1c3.4 0 6.1 2.7 6.1 6.1v106.4c-.1 3.3-2.8 6-6.2 6z"></path><path class="st5" d="M428.7 107.5v106.4c0 3.4-2.7 6.1-6.1 6.1h-21.3c3.4 0 6.1-2.7 6.1-6.1V107.5c0-3.4-2.7-6.1-6.1-6.1h21.3c3.3-.1 6.1 2.7 6.1 6.1z"></path><path class="st9" d="M130.1 289.5H83.3c-4.3 0-7.7-3.5-7.7-7.7s3.5-7.7 7.7-7.7h46.8c4.3 0 7.7 3.5 7.7 7.7s-3.4 7.7-7.7 7.7zM108.9 328H83.3c-4.3 0-7.7-3.5-7.7-7.7s3.5-7.7 7.7-7.7h25.6c4.3 0 7.7 3.5 7.7 7.7s-3.4 7.7-7.7 7.7zM98.1 366.5H83.3c-4.3 0-7.7-3.5-7.7-7.7s3.5-7.7 7.7-7.7h14.8c4.3 0 7.7 3.5 7.7 7.7s-3.4 7.7-7.7 7.7zM98.1 405H83.3c-4.3 0-7.7-3.5-7.7-7.7s3.5-7.7 7.7-7.7h14.8c4.3 0 7.7 3.5 7.7 7.7s-3.4 7.7-7.7 7.7z"></path><g><path class="st9" d="M428.6 289.5h-46.8c-4.3 0-7.7-3.5-7.7-7.7s3.5-7.7 7.7-7.7h46.8c4.3 0 7.7 3.5 7.7 7.7s-3.4 7.7-7.7 7.7zM428.6 328H403c-4.3 0-7.7-3.5-7.7-7.7s3.5-7.7 7.7-7.7h25.6c4.3 0 7.7 3.5 7.7 7.7s-3.4 7.7-7.7 7.7zM428.6 366.5h-14.8c-4.3 0-7.7-3.5-7.7-7.7s3.5-7.7 7.7-7.7h14.8c4.3 0 7.7 3.5 7.7 7.7s-3.4 7.7-7.7 7.7zM428.6 405h-14.8c-4.3 0-7.7-3.5-7.7-7.7s3.5-7.7 7.7-7.7h14.8c4.3 0 7.7 3.5 7.7 7.7s-3.4 7.7-7.7 7.7z"></path></g></g></svg> 