<svg xmlns="http://www.w3.org/2000/svg" width="84.656" height="65.167" viewBox="0 0 84.656 65.167">
  <g id="arrow" transform="matrix(0.602, -0.799, 0.799, 0.602, 0, 32.998)">
    <path id="Path_237" data-name="Path 237" d="M21.533,23.415A41.963,41.963,0,0,1,3.335,7.989q.29,9.611.084,19.222C3.377,29.193.3,29.2.337,27.211Q.6,14.375,0,1.539C-.066.078,2.244-.653,2.873.758A39.334,39.334,0,0,0,23.087,20.753C24.909,21.542,23.338,24.2,21.533,23.415Z" transform="translate(0 0)"/>
    <path id="Path_238" data-name="Path 238" d="M47.116,43.177C31.438,37.669,18.186,26.953,8.084,13.9A111.692,111.692,0,0,1,.224,2.3,1.542,1.542,0,0,1,2.886.744c8.045,13.629,19.046,25.781,32.8,33.792A71.394,71.394,0,0,0,47.939,40.2C49.8,40.851,48.989,43.832,47.116,43.177Z" transform="translate(7.512 20.152)"/>
  </g>
</svg>
