<?xml version="1.0" encoding="UTF-8"?> <svg xmlns="http://www.w3.org/2000/svg" width="1440" height="127.42" viewBox="0 0 1440 127.42"><g id="Group_11892" data-name="Group 11892" transform="translate(0 -3856)"><rect id="Rectangle_277" data-name="Rectangle 277" width="1440" height="93" transform="translate(0 3856)" fill="#ebccf7"></rect><g id="Group_11282" data-name="Group 11282" transform="translate(-500 -11)"><path id="Icon_awesome-instagram" data-name="Icon awesome-instagram" d="M35.8,19.673a18.35,18.35,0,1,0,18.35,18.35A18.321,18.321,0,0,0,35.8,19.673Zm0,30.28a11.93,11.93,0,1,1,11.93-11.93A11.951,11.951,0,0,1,35.8,49.953Zm23.38-31.03a4.28,4.28,0,1,1-4.28-4.28A4.27,4.27,0,0,1,59.176,18.923ZM71.33,23.266c-.271-5.733-1.581-10.812-5.781-15-4.184-4.184-9.263-5.494-15-5.781-5.909-.335-23.62-.335-29.529,0-5.717.271-10.8,1.581-15,5.765s-5.494,9.263-5.781,15c-.335,5.909-.335,23.62,0,29.529.271,5.733,1.581,10.812,5.781,15s9.263,5.494,15,5.781c5.909.335,23.62.335,29.529,0,5.733-.271,10.812-1.581,15-5.781,4.184-4.184,5.494-9.263,5.781-15,.335-5.909.335-23.6,0-29.513ZM63.7,59.12a12.078,12.078,0,0,1-6.8,6.8C52.181,67.791,41,67.36,35.8,67.36s-16.4.415-21.1-1.437a12.078,12.078,0,0,1-6.8-6.8c-1.869-4.711-1.437-15.89-1.437-21.1s-.415-16.4,1.437-21.1a12.078,12.078,0,0,1,6.8-6.8c4.711-1.869,15.89-1.437,21.1-1.437s16.4-.415,21.1,1.437a12.078,12.078,0,0,1,6.8,6.8c1.869,4.711,1.437,15.89,1.437,21.1S65.565,54.424,63.7,59.12Z" transform="translate(550.91 3922.502) rotate(-13)" fill="#270c54" opacity="0.315"></path><path id="Icon_awesome-instagram-2" data-name="Icon awesome-instagram" d="M22.473,13.185A11.521,11.521,0,1,0,33.995,24.706,11.5,11.5,0,0,0,22.473,13.185Zm0,19.012a7.49,7.49,0,1,1,7.49-7.49,7.5,7.5,0,0,1-7.49,7.49Zm14.68-19.483a2.687,2.687,0,1,1-2.687-2.687A2.681,2.681,0,0,1,37.153,12.714Zm7.631,2.727c-.17-3.6-.993-6.788-3.63-9.416S35.338,2.576,31.739,2.4c-3.71-.211-14.83-.211-18.54,0-3.59.17-6.778.993-9.416,3.62S.333,11.831.153,15.431c-.211,3.71-.211,14.83,0,18.54.17,3.6.993,6.788,3.63,9.416S9.6,46.836,13.2,47.017c3.71.211,14.83.211,18.54,0,3.6-.17,6.788-.993,9.416-3.63s3.449-5.816,3.63-9.416c.211-3.71.211-14.82,0-18.53ZM39.991,37.952a7.583,7.583,0,0,1-4.272,4.272c-2.958,1.173-9.977.9-13.246.9s-10.3.261-13.246-.9a7.583,7.583,0,0,1-4.272-4.272c-1.173-2.958-.9-9.977-.9-13.246s-.261-10.3.9-13.246A7.583,7.583,0,0,1,9.227,7.189c2.958-1.173,9.977-.9,13.246-.9s10.3-.261,13.246.9a7.583,7.583,0,0,1,4.272,4.272c1.173,2.958.9,9.977.9,13.246S41.164,35,39.991,37.952Z" transform="matrix(0.995, 0.105, -0.105, 0.995, 657.379, 3937.897)" fill="#270c54" opacity="0.315"></path><path id="Icon_awesome-instagram-3" data-name="Icon awesome-instagram" d="M17.563,10.793a9,9,0,1,0,9,9A8.99,8.99,0,0,0,17.563,10.793Zm0,14.858A5.854,5.854,0,1,1,23.417,19.8a5.865,5.865,0,0,1-5.854,5.854ZM29.036,10.425a2.1,2.1,0,1,1-2.1-2.1A2.1,2.1,0,0,1,29.036,10.425ZM35,12.557c-.133-2.813-.776-5.305-2.837-7.359S27.617,2.5,24.8,2.361c-2.9-.165-11.59-.165-14.49,0-2.806.133-5.3.776-7.359,2.829S.259,9.735.118,12.549c-.165,2.9-.165,11.59,0,14.49.133,2.813.776,5.305,2.837,7.359s4.545,2.7,7.359,2.837c2.9.165,11.59.165,14.49,0,2.813-.133,5.305-.776,7.359-2.837s2.7-4.545,2.837-7.359c.165-2.9.165-11.583,0-14.482ZM31.253,30.15a5.927,5.927,0,0,1-3.338,3.338c-2.312.917-7.8.705-10.352.705s-8.048.2-10.352-.705A5.927,5.927,0,0,1,3.872,30.15c-.917-2.312-.705-7.8-.705-10.352s-.2-8.048.705-10.352A5.927,5.927,0,0,1,7.21,6.107c2.312-.917,7.8-.705,10.352-.705s8.048-.2,10.352.705a5.927,5.927,0,0,1,3.338,3.338c.917,2.312.705,7.8.705,10.352S32.17,27.846,31.253,30.15Z" transform="translate(715.493 3917.642)" fill="#270c54" opacity="0.315"></path><path id="Icon_awesome-instagram-4" data-name="Icon awesome-instagram" d="M24.6,14.219A12.609,12.609,0,1,0,37.2,26.828,12.589,12.589,0,0,0,24.6,14.219Zm0,20.807a8.2,8.2,0,1,1,8.2-8.2,8.213,8.213,0,0,1-8.2,8.2ZM40.662,13.7a2.941,2.941,0,1,1-2.941-2.941A2.934,2.934,0,0,1,40.662,13.7Zm8.351,2.985c-.187-3.94-1.086-7.429-3.973-10.3s-6.365-3.775-10.3-3.973c-4.06-.23-16.231-.23-20.291,0C10.516,2.6,7.026,3.5,4.14,6.372S.365,12.737.168,16.677c-.23,4.06-.23,16.231,0,20.291.187,3.94,1.086,7.429,3.973,10.3s6.365,3.775,10.3,3.973c4.06.23,16.231.23,20.291,0,3.94-.187,7.429-1.086,10.3-3.973s3.775-6.365,3.973-10.3c.23-4.06.23-16.22,0-20.28ZM43.767,41.324A8.3,8.3,0,0,1,39.093,46c-3.237,1.284-10.919.988-14.5.988s-11.27.285-14.5-.988a8.3,8.3,0,0,1-4.675-4.675c-1.284-3.237-.988-10.919-.988-14.5s-.285-11.27.988-14.5A8.3,8.3,0,0,1,10.1,7.656c3.237-1.284,10.919-.988,14.5-.988s11.27-.285,14.5.988a8.3,8.3,0,0,1,4.675,4.675c1.284,3.237.988,10.919.988,14.5S45.051,38.1,43.767,41.324Z" transform="translate(786.409 3910.612) rotate(21)" fill="#270c54" opacity="0.315"></path><path id="Icon_awesome-instagram-5" data-name="Icon awesome-instagram" d="M18.624,11.31a9.548,9.548,0,1,0,9.548,9.548A9.533,9.533,0,0,0,18.624,11.31Zm0,15.756a6.208,6.208,0,1,1,6.208-6.208,6.219,6.219,0,0,1-6.208,6.208ZM30.79,10.92a2.227,2.227,0,1,1-2.227-2.227A2.222,2.222,0,0,1,30.79,10.92Zm6.324,2.26c-.141-2.983-.823-5.626-3.008-7.8s-4.82-2.859-7.8-3.008c-3.075-.175-12.291-.175-15.365,0-2.975.141-5.618.823-7.8,3s-2.859,4.82-3.008,7.8c-.175,3.075-.175,12.291,0,15.365.141,2.983.823,5.626,3.008,7.8s4.82,2.859,7.8,3.008c3.075.175,12.291.175,15.365,0,2.983-.141,5.626-.823,7.8-3.008s2.859-4.82,3.008-7.8c.175-3.075.175-12.282,0-15.357ZM33.142,31.836a6.285,6.285,0,0,1-3.54,3.54c-2.451.972-8.269.748-10.978.748s-8.534.216-10.978-.748a6.285,6.285,0,0,1-3.54-3.54c-.972-2.451-.748-8.269-.748-10.978s-.216-8.534.748-10.978a6.285,6.285,0,0,1,3.54-3.54c2.451-.972,8.269-.748,10.978-.748s8.534-.216,10.978.748a6.285,6.285,0,0,1,3.54,3.54c.972,2.451.748,8.269.748,10.978S34.114,29.393,33.142,31.836Z" transform="translate(842.436 3948.604) rotate(-22)" fill="#270c54" opacity="0.315"></path></g></g></svg> 