<?xml version="1.0" encoding="UTF-8"?> <svg xmlns="http://www.w3.org/2000/svg" xmlns:xlink="http://www.w3.org/1999/xlink" id="Layer_1" viewBox="0 0 922 216"><defs><style>.cls-1{fill:none;}.cls-2{clip-path:url(#clippath);}.cls-3{fill:#e50000;}.cls-4{clip-path:url(#clippath-1);}.cls-5{clip-path:url(#clippath-3);}.cls-6{clip-path:url(#clippath-2);}</style><clipPath id="clippath"><rect class="cls-1" x="-78.98" y="-428.98" width="1080" height="1080"></rect></clipPath><clipPath id="clippath-1"><path class="cls-1" d="m773.94,157.76l-33.75-58.45c-1.65-2.86-1.65-6.43,0-9.29l28.42-49.24c1.64-2.86,4.71-4.62,8.04-4.62h47.63c.59,0,.98.66.66,1.17l-33.13,57.36,10.55,18.26h21.09l33.13-57.35c.32-.51,1.06-.51,1.34,0l23.83,41.24c1.65,2.86,1.65,6.39,0,9.26l-28.42,49.23c-1.69,2.86-4.71,4.63-8.04,4.63l-67.51.04c-1.57,0-3.06-.86-3.84-2.24m-12.19-150.23c-6.86,0-13.21,3.65-16.62,9.61l-45.87,79.42c-3.45,5.96-3.45,13.25,0,19.21l36.66,63.47,17.41-30.19c.16-.24.55-.24.71,0l12.47,21.61c.79,1.37,2.24,2.23,3.84,2.23h26.58c.31,0,.47.36.31.59l-17.4,30.18h71.7c6.82,0,13.17-3.64,16.58-9.6l45.91-79.42c3.41-5.96,3.41-13.25,0-19.21l-45.24-78.29c-3.41-5.96-9.76-9.61-16.62-9.61h-90.41Z"></path></clipPath><clipPath id="clippath-2"><rect class="cls-1" x="-78.98" y="-428.98" width="1080" height="1080"></rect></clipPath><clipPath id="clippath-3"><rect class="cls-1" x="-78.98" y="-428.98" width="1080" height="1080"></rect></clipPath></defs><g class="cls-2"><path d="m93.58,43.14h-27.53c-1.07,0-1.7.5-1.88,1.48,4.03,13.97,7.43,29.21,10.21,45.74,3.67,22.92,5.5,42.35,5.5,58.28h-33.3c0-10.23-1.21-24.35-3.63-42.35-2.87-21.34-6.13-37.13-9.8-47.36l19.74-15.49v-.3H15.29L26.17,8.76h67.41v34.38Z"></path><rect x="108.82" y="8.76" width="32.76" height="139.88"></rect><path d="m270.29,82.09c0,22.62-5.91,39.79-17.73,51.49-10.02,10.03-22.83,15.05-38.4,15.05h-61.63v-33.79h32.77c-4.21-11.51-8.91-28.43-14.1-50.76-4.74-21.15-8.32-39.59-10.74-55.33h33.57c3.49,29.02,10.29,59.12,20.41,90.3l-17.59,13.87v1.92h15.04c10.3,0,17.27-2.56,20.95-7.67,3.31-4.43,4.97-12.05,4.97-22.87V8.76h32.5v73.33Z"></path><rect x="288.21" y="8.76" width="32.77" height="139.88"></rect><path d="m438.34,148.64h-32.36V59.22c0-10.72-4.7-16.08-14.1-16.08h-56.4l10.47-34.38h39.61c35.18,0,52.78,20.12,52.78,60.35v79.53Z"></path><path d="m532.33,148.64h-33.97v-30.54c-3.85,0-8.64,2.41-14.37,7.23-6.45,5.51-13.97,14.66-22.56,27.44h-5.24v-40.43c3.3-7.18,8.99-12.89,17.05-17.11,4.03-2.07,10.25-3.1,18.67-3.1h6.04v-34.09c0-5.51-.8-9.37-2.42-11.58-1.6-2.21-4.83-3.32-9.66-3.32h-29.14l9.13-34.38h23.37c13.6,0,24.19,4.77,31.75,14.31,7.57,9.54,11.35,23.51,11.35,41.91v83.66Z"></path><path d="m675.47,128.42l-24.71,24.35-58.95-73.04c-3.41,2.46-5.51,6.88-6.31,13.28-.18,2.07-.27,7.53-.27,16.38v39.25h-33.58v-32.9c0-12.1.67-21.1,2.02-27,1.78-9.05,5.64-15.15,11.54-18.3h19.47l-35.99-41.76,24.44-24.49,55.32,68.02c3.67-5.21,5.5-14.41,5.5-27.59V8.76h33.57v30.25c0,21.94-4.61,36.3-13.83,43.08h-17.32l39.08,46.33Z"></path><path class="cls-3" d="m773.94,157.76l-33.75-58.45c-1.65-2.86-1.65-6.43,0-9.29l28.42-49.24c1.65-2.86,4.71-4.62,8.04-4.62h47.63c.59,0,.98.67.66,1.17l-33.12,57.36,10.54,18.26h21.09l33.12-57.35c.32-.51,1.06-.51,1.34,0l23.83,41.24c1.65,2.86,1.65,6.39,0,9.26l-28.42,49.24c-1.68,2.86-4.71,4.63-8.04,4.63l-67.51.04c-1.57,0-3.06-.86-3.84-2.24m-12.19-150.23c-6.86,0-13.21,3.65-16.62,9.61l-45.87,79.42c-3.45,5.96-3.45,13.25,0,19.21l36.66,63.47,17.41-30.19c.16-.23.55-.23.7,0l12.47,21.61c.79,1.37,2.24,2.23,3.85,2.23h26.58c.31,0,.47.36.31.59l-17.4,30.18h71.7c6.82,0,13.17-3.64,16.59-9.6l45.91-79.42c3.41-5.96,3.41-13.25,0-19.21l-45.24-78.29c-3.41-5.96-9.76-9.61-16.62-9.61h-90.41Z"></path></g><g class="cls-4"><rect class="cls-3" x="695.81" y="7.53" width="221.62" height="196.13"></rect></g><g class="cls-6"><path d="m16.62,132.92c4.24,0,6.36,1.89,6.36,5.66,0,1.05-.1,1.89-.32,2.53h-4.18c.25-.49.37-1.11.37-1.84,0-1.64-.66-2.46-1.99-2.46h-4.39c-1.7,0-2.55.79-2.55,2.37v1.76c0,.68.05,1.15.14,1.41.17.41.5.77,1,1.06h11.64v3.9h-11.05c-.78,0-1.44.13-1.97.39-.29.16-.7.47-1.23.93h-.28l-2.71-3.18c.8-.98,1.84-1.59,3.13-1.84l-1.08-.65c-1.07-.65-1.61-1.83-1.61-3.54v-.91c0-3.72,2.17-5.57,6.5-5.57h4.22Z"></path><path d="m8.1,123.5c2.11.23,4.21,1.04,6.29,2.41v1.22l-.1.19c-2.18-.65-4.13-.97-5.84-.97h-2.41v-2.85h2.06Zm0,4.29c2.11.23,4.21,1.04,6.29,2.41v1.22l-.1.19c-2.18-.65-4.13-.97-5.84-.97h-2.41v-2.85h2.06Z"></path><path d="m14.78,107.77c2.7,0,4.74.71,6.14,2.11,1.19,1.19,1.79,2.71,1.79,4.57v7.34h-4.02v-3.9c-1.37.5-3.39,1.06-6.05,1.68-2.52.57-4.71.99-6.59,1.28v-4c3.46-.41,7.04-1.23,10.76-2.43l1.65,2.1h.23v-1.8c0-1.23-.3-2.06-.91-2.5-.53-.4-1.43-.59-2.73-.59H6.04v-3.87h8.74Z"></path><path d="m18.68,91.85l4.02,1.01v12.5h-4.02v-7.84h-6.63c-.68,0-1.14.07-1.37.19-.37.2-.55.59-.55,1.15v6.39l-4.1-1.23v-4.72c0-3.77,2.16-5.65,6.47-5.65l6.17-.03v-1.76Z"></path></g><g class="cls-5"><path d="m36.65,204.2h-7.46v-19.4c0-1.86-.98-2.78-2.94-2.78h-6.9v13.3c0,6.21-3.04,9.31-9.13,9.31-.76,0-1.84-.19-3.22-.56v-7.18c1.05.27,1.83.4,2.35.4,1.09,0,1.79-.09,2.1-.28.33-.21.49-.66.49-1.36v-13.64h-4.52l2.16-7.15h15.53c7.67,0,11.51,3.93,11.51,11.79v17.54Zm11.83,0h-7.55v-29.33h7.55v29.33Zm18.32,0h-14.97v-7.15h7.55v-12.44c0-1.69-.83-2.54-2.48-2.54h-4.73l2.01-7.21h2.85c6.52,0,9.78,3.53,9.78,10.58v18.75Zm11.72,0h-7.55v-29.33h7.55v29.33Zm25.77,0h-7.46v-18.75c0-2.25-1.08-3.37-3.25-3.37h-12.99l2.41-7.21h9.13c8.1,0,12.16,4.22,12.16,12.65v16.68Zm32.03,0h-7.46v-19.4c0-1.86-.98-2.78-2.94-2.78h-6.9v13.3c0,6.21-3.04,9.31-9.13,9.31-.76,0-1.84-.19-3.22-.56v-7.18c1.05.27,1.83.4,2.35.4,1.09,0,1.79-.09,2.1-.28.33-.21.49-.66.49-1.36v-13.64h-4.52l2.17-7.15h15.53c7.67,0,11.51,3.93,11.51,11.79v17.54Zm29.84-12.34c0,8.23-4,12.34-12,12.34h-12.72v-7.02h13.18c1.69,0,2.78-.32,3.28-.96.39-.54.59-1.68.59-3.43v-7.7c0-1.44-.34-2.4-1.02-2.88-.54-.41-1.51-.62-2.91-.62h-4.76c-1.86,0-2.78.97-2.78,2.91v.19c0,1.05.23,1.71.68,1.98.45.25,1.39.37,2.82.37.31,0,.71-.02,1.19-.06.49-.04,1.06-.1,1.72-.19l-1.7,6.28c-.95.21-1.82.31-2.6.31-6.56,0-9.84-2.82-9.84-8.45,0-3.44,1.29-6.15,3.87-8.11,2.19-1.65,5.31-2.47,9.37-2.47,4.62,0,8,1.04,10.15,3.12,2.33,2.23,3.5,5.37,3.5,9.44v4.95Zm38.1-8.26c0,9.22-4.1,16.4-12.28,21.53l-4.83-5.82c3.49-2.08,5.95-4.26,7.39-6.53,1.49-2.31,2.23-5.24,2.23-8.79v-1.92h-16.21v-13.98h7.61v6.78h16.09v8.72Zm20.57,13.46v.31h3.62c4.74,0,7.12-1.95,7.12-5.85v-16.64h7.52v14.57c0,4.39-1.31,7.9-3.93,10.52-2.93,2.99-7.34,4.49-13.24,4.49h-1.64c-5.49,0-9.56-1.39-12.22-4.17-2.41-2.43-3.62-5.86-3.62-10.27v-15.13h7.49v16.77c0,3.44,1.73,5.33,5.2,5.66.58.08.87-.2.87-.83v-21.6h7.49v18.69l-4.64,3.5Zm62.06,7.15h-26.88v-29.33h14.08c8.54,0,12.81,4.2,12.81,12.59v16.74Zm-7.49-7.15v-11.29c0-2.46-1.12-3.68-3.37-3.68h-8.48v14.97h11.85Zm33.55-13.46c0,9.22-4.09,16.4-12.28,21.53l-4.83-5.82c3.48-2.08,5.95-4.26,7.39-6.53,1.49-2.31,2.23-5.24,2.23-8.79v-1.92h-16.21v-13.98h7.61v6.78h16.09v8.72Zm11.94,20.6h-7.55v-29.33h7.55v29.33Zm29.95-13.95c0,4.77-1.36,8.36-4.08,10.8-2.33,2.1-5.28,3.15-8.85,3.15h-14.2v-7.08h7.55c-.95-2.39-2.03-5.94-3.25-10.64-.54-2.23-1.01-4.3-1.42-6.22-.41-1.92-.76-3.71-1.05-5.38h7.73c.8,6.04,2.37,12.35,4.7,18.93l-4.05,2.91v.4h3.46c2.39,0,4-.54,4.83-1.61.76-.91,1.14-2.51,1.14-4.8v-15.84h7.49v15.38Zm35.4,2.75h-17.91v-6.34h17.91v6.34Zm45.36,11.2h-7.46v-19.4c0-1.86-.98-2.78-2.94-2.78h-6.9v13.3c0,6.21-3.04,9.31-9.13,9.31-.76,0-1.83-.19-3.22-.56v-7.18c1.05.27,1.84.4,2.35.4,1.09,0,1.79-.09,2.1-.28.33-.21.49-.66.49-1.36v-13.64h-4.52l2.17-7.15h15.53c7.67,0,11.51,3.93,11.51,11.79v17.54Zm11.49-12.68h-7.55v-16.64h7.55v16.64Zm18.21,12.68h-14.97v-7.15h7.55v-12.44c0-1.69-.82-2.54-2.47-2.54h-4.73l2.01-7.21h2.85c6.52,0,9.78,3.53,9.78,10.58v18.75Zm25.54-13.3c0,4.72-1.26,8.23-3.77,10.52-2.14,1.86-5,2.78-8.57,2.78h-11.01l2.2-7.21h9.47c1.82,0,2.95-.38,3.4-1.14.29-.47.43-1.64.43-3.5v-5.63c0-1.67-.28-2.87-.84-3.59-.52-.7-1.73-1.05-3.65-1.05h-9.62v-7.21h9.62c3.98,0,6.98.93,9,2.78,2.23,2.15,3.34,5.65,3.34,10.52v2.72Zm30.5,1.33c0,4.31-1,7.43-3,9.37-2.06,2.06-5.41,3.09-10.05,3.09h-1.08c-4.62,0-7.94-.89-9.96-2.66-1.98-1.75-2.97-4.82-2.97-9.19v-17.97h7.55v18.56c0,1.69.44,2.83,1.33,3.4.68.43,2.01.65,3.99.65h1.64c1.83,0,3.14-.3,3.93-.9.93-.68,1.39-1.95,1.39-3.81v-11.08c-2.85.35-5.02,1.81-6.53,4.36h-.9v-8.17c2.15-2.02,5.67-3.03,10.58-3.03h4.08v17.36Zm41.86,11.97h-7.49v-18.75c0-2.25-1.07-3.37-3.22-3.37h-15.53l2.41-7.21h11.66c8.11,0,12.16,4.01,12.16,12.03v17.29Zm-17.66,0h-7.55v-15.28h7.55v15.28Zm48.17-19.95c0,4.45-.67,8.23-2.01,11.32-1.57,3.42-4.15,6.45-7.73,9.07l-5.13-5.38c3.03-2.12,5.1-4.46,6.22-7.02.8-1.98,1.21-4.72,1.21-8.23v-1.92h-20.67l2.29-7.21h25.83v9.37Zm-18.87,26.92l-7.49,3.15v-26.57h7.49v23.42Zm48.83-19.3c0,8.23-4,12.34-12,12.34h-12.72v-7.02h13.18c1.69,0,2.79-.32,3.28-.96.39-.54.59-1.68.59-3.43v-7.7c0-1.44-.34-2.4-1.02-2.88-.54-.41-1.51-.62-2.91-.62h-4.77c-1.86,0-2.78.97-2.78,2.91v.19c0,1.05.23,1.71.68,1.98.45.25,1.39.37,2.82.37.31,0,.71-.02,1.19-.06.48-.04,1.06-.1,1.72-.19l-1.7,6.28c-.95.21-1.81.31-2.6.31-6.56,0-9.84-2.82-9.84-8.45,0-3.44,1.29-6.15,3.87-8.11,2.18-1.65,5.31-2.47,9.37-2.47,4.62,0,8,1.04,10.15,3.12,2.33,2.23,3.5,5.37,3.5,9.44v4.95Zm30.73-.65c0,4.17-1.25,7.47-3.74,9.9-2.49,2.43-5.62,3.65-9.37,3.65h-1.86c-3.78,0-6.89-1.22-9.34-3.65-2.48-2.43-3.71-5.73-3.71-9.9v-2.91c0-4.66,1.42-8.25,4.27-10.77,2.39-2.08,5.41-3.12,9.07-3.12h1.52c3.57,0,6.54,1.04,8.91,3.12,2.85,2.52,4.27,6.11,4.27,10.77v2.91Zm-7.55-2.91c0-2.83-.43-4.67-1.3-5.54-.87-.87-2.59-1.3-5.17-1.3s-4.37.43-5.2,1.3c-.85.89-1.27,2.73-1.27,5.54v2.48c0,2.7.43,4.52,1.3,5.44.87.93,2.53,1.39,4.98,1.39h.37c2.45,0,4.11-.44,4.98-1.33.87-.89,1.3-2.72,1.3-5.51v-2.48Zm38.8,11.66l-5.69,5.1-13.58-15.31c-.79.54-1.27,1.46-1.46,2.79-.02.23-.04.62-.05,1.19-.01.57-.02,1.32-.02,2.24v8.23h-7.73v-6.9c0-2.54.16-4.42.46-5.66.41-1.9,1.3-3.18,2.66-3.84h4.49l-8.29-8.75,5.63-5.14,12.75,14.26c.85-1.09,1.27-3.02,1.27-5.79v-7.52h7.74v6.34c0,4.6-1.06,7.61-3.19,9.03h-3.99l9,9.71Z"></path></g></svg> 