<?xml version="1.0" encoding="UTF-8"?> <svg xmlns="http://www.w3.org/2000/svg" width="717.797" height="178.152" viewBox="0 0 717.797 178.152"><g id="Group_12970" data-name="Group 12970" transform="translate(-48 -6)"><g id="Group_11984" data-name="Group 11984" transform="translate(48 6)"><g id="Group_11985" data-name="Group 11985" transform="translate(0 29.111)"><path id="Path_24" data-name="Path 24" d="M56.755,332.374l23.431,61.267H33.5Zm-10.76-15.1L0,433.038H19.092l9.373-23.951H85.218l9.373,23.951h19.092L67.69,317.274Z" transform="translate(0 -313.202)"></path><path id="Path_25" data-name="Path 25" d="M215.465,388.561H193.771v44.605H176.414V317.4h48.772c22.042,0,37.142,14.233,37.142,35.58,0,20.827-14.059,31.935-28.811,33.844l29.678,46.341H243.061Zm7.464-55.886H193.771v40.613h29.157c12.5,0,21.521-8.158,21.521-20.306s-9.024-20.306-21.521-20.306" transform="translate(-46.414 -313.235)"></path><path id="Path_26" data-name="Path 26" d="M376.374,311.748c21.695,0,36.1,9.892,45.819,22.91l-14.058,8.158a39.919,39.919,0,0,0-31.761-15.622c-24.125,0-42.176,18.4-42.176,44.431,0,25.862,18.051,44.605,42.176,44.605a44.9,44.9,0,0,0,29.331-11.454V383.949H368.564V368.677h54.5V411.2a61.6,61.6,0,0,1-46.687,20.48c-33.151,0-60.053-23.953-60.053-60.053s26.9-59.878,60.053-59.878" transform="translate(-83.222 -311.748)"></path><path id="Path_27" data-name="Path 27" d="M541.63,311.748c34.539,0,58.316,25.514,58.316,59.878S576.169,431.5,541.63,431.5s-58.316-25.514-58.316-59.879,23.779-59.878,58.316-59.878m0,15.446c-24.819,0-40.439,18.919-40.439,44.431,0,25.34,15.62,44.431,40.439,44.431,24.473,0,40.44-19.091,40.44-44.431,0-25.512-15.967-44.431-40.44-44.431" transform="translate(-127.154 -311.748)"></path></g><path id="Path_28" data-name="Path 28" d="M288.991,0a89.076,89.076,0,1,0,89.076,89.076A89.178,89.178,0,0,0,288.991,0m82.1,92.527a82.4,82.4,0,0,1-78.645,78.645V92.527ZM292.443,33.641V6.981a82.4,82.4,0,0,1,78.645,78.645H292.443V40.544h38.765v-6.9ZM214.459,54.484a82.844,82.844,0,0,1,71.081-47.5v47.5ZM206.9,85.625a81.653,81.653,0,0,1,4.725-24.239h73.92V85.625Zm78.645,44.96v40.587A82.4,82.4,0,0,1,206.9,92.527H285.54v31.155h-27.3v6.9Z" transform="translate(339.73)"></path></g></g></svg> 