<?xml version="1.0" encoding="UTF-8"?> <svg xmlns="http://www.w3.org/2000/svg" width="227.15" height="46.192" viewBox="0 0 227.15 46.192"><g id="beautics_logo" data-name="beautics logo" transform="translate(-305.912 -103.738)"><g id="Group_13315" data-name="Group 13315" transform="translate(306.037 103.863)"><path id="Path_30" data-name="Path 30" d="M187.342,194.808s.25-.218,0-.65c-.015.01-.138.065-.454-.241h0c-.01-.008-.018-.018-.028-.028s-.02-.018-.029-.028c-.319-.307-.272-.434-.263-.447h0c-.436-.224-.641.031-.641.031l-.961.993s-.361.3.387,1.011c.733.723,1.026.353,1.026.353l.961-.993Z" transform="translate(-170.704 -164.148)" fill="#aaa" stroke="#000" stroke-miterlimit="10" stroke-width="0.5"></path><path id="Path_31" data-name="Path 31" d="M196.182,186.719l1.458-1.592h0a.121.121,0,0,0,.033-.088c0-.067-.034-.182-.218-.354l-.018-.018c-.169-.163-.281-.192-.345-.189a.127.127,0,0,0-.085.036h0v0l-1.548,1.507h0c0,.018-.021.146.286.432l.029.029c.278.27.392.242.408.236h0Z" transform="translate(-179.559 -156.742)" stroke="#000" stroke-miterlimit="10" stroke-width="0.25"></path><path id="Path_32" data-name="Path 32" d="M164.357,214.648s-.25.218-.007.65c.015-.008.137-.065.454.241h0l.028.028c.01.008.02.018.029.028.319.307.271.434.265.447h0c.436.224.642-.031.642-.031l.961-.993s.361-.306-.387-1.013c-.733-.723-1.024-.353-1.024-.353l-.959.993Z" transform="translate(-153.418 -181.092)" fill="#141414" stroke="#000" stroke-miterlimit="10" stroke-width="0.25"></path><path id="Path_33" data-name="Path 33" d="M157.341,224.442l-1.457,1.592h0a.127.127,0,0,0-.034.088c0,.067.036.182.219.354a.179.179,0,0,1,.018.018c.169.164.281.193.345.189a.127.127,0,0,0,.085-.036h0v0l1.548-1.507h0c0-.018.021-.145-.286-.432l-.029-.029c-.278-.268-.392-.242-.408-.236h0Z" transform="translate(-146.389 -190.204)" stroke="#000" stroke-miterlimit="10" stroke-width="0.25"></path><path id="Path_34" data-name="Path 34" d="M165.912,193.249s-.218-.25-.65,0c.008.015.065.137-.241.454h0c-.008.01-.018.02-.028.029s-.018.02-.028.029c-.307.319-.434.271-.447.263h0c-.223.436.031.642.031.642l.995.961s.3.361,1.011-.387c.723-.733.351-1.024.351-1.024l-.993-.961Z" transform="translate(-153.572 -163.992)" fill="#d6d6d6" stroke="#000" stroke-miterlimit="10" stroke-width="0.5"></path><path id="Path_35" data-name="Path 35" d="M157.837,186.241l-1.592-1.457h0a.12.12,0,0,0-.086-.034c-.067,0-.182.034-.354.218l-.018.018c-.164.169-.192.281-.189.345a.127.127,0,0,0,.036.085h0l1.505,1.548h0c.018,0,.145.021.432-.285.01-.01.02-.02.028-.029.268-.278.242-.393.236-.408h0Z" transform="translate(-146.179 -156.969)" stroke="#000" stroke-miterlimit="10" stroke-width="0.25"></path><path id="Path_36" data-name="Path 36" d="M186.426,216.913s.218.25.65,0c-.008-.015-.065-.137.241-.454h0c.008-.01.018-.02.028-.029s.018-.02.028-.029c.307-.317.434-.272.449-.263h0c.223-.436-.031-.641-.031-.641l-.995-.961s-.3-.361-1.011.387c-.723.733-.353,1.024-.353,1.024l.993.961Z" transform="translate(-171.082 -181.844)" fill="#707070" stroke="#000" stroke-miterlimit="10" stroke-width="0.5"></path><path id="Path_37" data-name="Path 37" d="M196.232,225.759l1.592,1.457h0a.12.12,0,0,0,.086.034c.067,0,.182-.034.354-.218l.018-.018c.163-.169.192-.281.189-.345a.14.14,0,0,0-.036-.086h0l-1.505-1.546h0c-.018-.007-.145-.023-.431.285-.01.01-.02.02-.028.029-.27.278-.242.392-.237.408h0Z" transform="translate(-180.205 -190.704)" stroke="#000" stroke-miterlimit="10" stroke-width="0.25"></path><path id="Path_38" data-name="Path 38" d="M201.94,210.6a.293.293,0,1,1,0-.415.293.293,0,0,1,0,.415Z" transform="translate(-184.569 -178.199)"></path><path id="Path_39" data-name="Path 39" d="M161.43,210.213a.293.293,0,1,1,0-.415A.293.293,0,0,1,161.43,210.213Z" transform="translate(-150.645 -177.872)"></path><path id="Path_40" data-name="Path 40" d="M181.077,230.652a.294.294,0,1,1,.416,0,.293.293,0,0,1-.416,0Z" transform="translate(-167.444 -194.989)"></path><path id="Path_41" data-name="Path 41" d="M181.466,190.143a.3.3,0,0,1,0-.416.294.294,0,1,1,0,.416Z" transform="translate(-167.77 -161.066)"></path><path id="Path_42" data-name="Path 42" d="M243.724,138.421s.25-.218.007-.65c-.015.008-.138.065-.454-.241h0c-.008-.01-.018-.02-.028-.029l-.029-.028c-.319-.307-.272-.434-.265-.449h0c-.434-.224-.642.031-.642.031l-.961.993s-.361.3.387,1.013,1.026.353,1.026.353l.961-.993Z" transform="translate(-217.918 -116.925)" fill="#e383ed" stroke="#000" stroke-miterlimit="10" stroke-width="0.5"></path><path id="Path_43" data-name="Path 43" d="M252.582,130.363l1.458-1.59h0a.122.122,0,0,0,.033-.088c0-.067-.033-.182-.218-.354l-.018-.018c-.169-.163-.281-.193-.345-.187a.119.119,0,0,0-.085.036h0v0l-1.548,1.5h0c0,.018-.021.146.286.432l.029.029c.278.268.392.242.408.236h0Z" transform="translate(-226.79 -109.55)" stroke="#000" stroke-miterlimit="10" stroke-width="0.25"></path><path id="Path_44" data-name="Path 44" d="M220.729,158.266s-.25.218,0,.65c.015-.008.137-.067.454.241h0c.01.008.018.018.028.028s.02.018.029.028c.317.307.27.434.265.449h0c.436.224.641-.031.641-.031l.961-.993s.361-.3-.387-1.013c-.732-.723-1.024-.353-1.024-.353l-.962.993Z" transform="translate(-200.627 -133.878)" fill="#8b2f9b" stroke="#000" stroke-miterlimit="10" stroke-width="0.5"></path><path id="Path_45" data-name="Path 45" d="M213.7,168.061l-1.458,1.59h0a.126.126,0,0,0-.034.088c0,.067.036.182.219.354l.018.018c.169.163.281.193.345.189a.119.119,0,0,0,.085-.036h0l1.548-1.505h0c0-.018.021-.146-.286-.432l-.029-.029c-.276-.268-.392-.242-.408-.236h0Z" transform="translate(-193.587 -142.99)" stroke="#000" stroke-miterlimit="10" stroke-width="0.25"></path><path id="Path_46" data-name="Path 46" d="M222.312,136.859s-.218-.25-.65,0c.008.015.065.137-.241.454h0c-.008.01-.018.018-.028.029l-.028.029c-.307.317-.434.271-.447.263h0c-.223.436.031.641.031.641l.993.961s.3.361,1.013-.387.353-1.026.353-1.026l-.993-.961Z" transform="translate(-200.803 -116.77)" fill="#f8c5ff" stroke="#000" stroke-miterlimit="10" stroke-width="0.5"></path><path id="Path_47" data-name="Path 47" d="M214.226,129.841l-1.592-1.458h0a.12.12,0,0,0-.086-.034c-.067,0-.182.034-.354.218a.1.1,0,0,1-.018.018c-.164.169-.193.281-.189.345a.127.127,0,0,0,.036.085h0l1.505,1.548h0c.018,0,.145.021.432-.284.01-.01.02-.02.029-.028.27-.278.242-.393.236-.408Z" transform="translate(-193.4 -109.737)" stroke="#000" stroke-miterlimit="10" stroke-width="0.25"></path><path id="Path_48" data-name="Path 48" d="M242.8,160.544s.218.25.65.006c-.008-.015-.065-.137.242-.454h0c.008-.01.018-.02.028-.029s.018-.02.028-.029c.307-.317.434-.271.447-.263h0c.224-.436-.031-.641-.031-.641l-.993-.962s-.3-.361-1.013.387c-.723.732-.353,1.024-.353,1.024l.992.961Z" transform="translate(-218.288 -134.639)" fill="#bf59ce" stroke="#000" stroke-miterlimit="10" stroke-width="0.5"></path><path id="Path_49" data-name="Path 49" d="M252.6,169.392l1.59,1.458h0a.122.122,0,0,0,.088.034c.065,0,.182-.034.354-.218a.194.194,0,0,1,.018-.018c.164-.169.193-.281.189-.345a.147.147,0,0,0-.036-.086h0L253.3,168.67h0c-.018,0-.145-.023-.431.285-.01.01-.02.02-.028.029-.268.278-.242.392-.237.408h0Z" transform="translate(-227.412 -143.502)" stroke="#000" stroke-miterlimit="10" stroke-width="0.25"></path><path id="Path_50" data-name="Path 50" d="M259.411,155.591a.294.294,0,1,1,0-.416.291.291,0,0,1,0,.416Z" transform="translate(-232.697 -132.128)"></path><path id="Path_51" data-name="Path 51" d="M218.891,155.2a.293.293,0,1,1,0-.413.293.293,0,0,1,0,.413Z" transform="translate(-198.764 -131.801)"></path><path id="Path_52" data-name="Path 52" d="M238.533,175.646a.3.3,0,0,1,0-.416.294.294,0,1,1,0,.415Z" transform="translate(-215.561 -148.926)"></path><path id="Path_53" data-name="Path 53" d="M238.943,135.133a.294.294,0,1,1,.415,0A.294.294,0,0,1,238.943,135.133Z" transform="translate(-215.904 -115.001)"></path><path id="Path_54" data-name="Path 54" d="M300.164,82.11s.252-.216.01-.65c-.015.008-.138.065-.452-.244h0l-.028-.028-.029-.028c-.315-.309-.268-.436-.262-.449h0c-.434-.228-.642.026-.642.026l-.967.988s-.363.3.379,1.014,1.023.359,1.023.359l.967-.988Z" transform="translate(-265.182 -69.765)" fill="#96a6ea" stroke="#000" stroke-miterlimit="10" stroke-width="0.5"></path><path id="Path_55" data-name="Path 55" d="M309.07,74.094l1.468-1.583h0a.127.127,0,0,0,.034-.088c0-.067-.034-.182-.216-.356a.18.18,0,0,0-.018-.018c-.167-.164-.28-.193-.345-.19a.127.127,0,0,0-.085.036h0v0l-1.556,1.5h0c0,.018-.021.146.283.434.01.01.02.019.029.028.276.271.39.245.406.239h0Z" transform="translate(-274.099 -62.431)" stroke="#000" stroke-miterlimit="10" stroke-width="0.25"></path><path id="Path_56" data-name="Path 56" d="M277.058,101.812s-.252.216-.01.65c.015-.008.138-.065.452.244h0c.008.01.018.018.028.028s.02.018.029.028c.315.309.268.436.262.449h0c.434.228.642-.026.642-.026l.967-.988s.362-.3-.38-1.014-1.023-.359-1.023-.359l-.966.987Z" transform="translate(-247.796 -86.607)" fill="#314d91" stroke="#000" stroke-miterlimit="10" stroke-width="0.5"></path><path id="Path_57" data-name="Path 57" d="M269.962,111.571l-1.468,1.582h0a.127.127,0,0,0-.034.088c0,.067.034.182.216.356a.18.18,0,0,1,.018.016c.167.166.28.2.343.192a.119.119,0,0,0,.085-.036h0v0l1.557-1.5h0c0-.018.021-.145-.283-.432l-.029-.029c-.276-.271-.39-.245-.406-.239h0Z" transform="translate(-240.692 -95.684)" stroke="#000" stroke-miterlimit="10" stroke-width="0.25"></path><path id="Path_58" data-name="Path 58" d="M278.755,80.418s-.216-.252-.65-.01c.008.015.065.138-.244.452h0c-.008.01-.018.02-.028.029l-.028.029c-.309.317-.436.268-.449.262h0c-.226.434.028.641.028.641l.988.966s.3.363,1.014-.38.358-1.023.358-1.023l-.987-.967Z" transform="translate(-248.064 -69.502)" fill="#b6c4ef" stroke="#000" stroke-miterlimit="10" stroke-width="0.5"></path><path id="Path_59" data-name="Path 59" d="M270.731,73.331l-1.582-1.468h0a.122.122,0,0,0-.088-.034c-.067,0-.182.033-.356.216a.093.093,0,0,1-.018.018c-.164.167-.2.28-.19.343a.112.112,0,0,0,.036.085h0v0l1.5,1.557h0c.018,0,.145.023.434-.283.01-.01.019-.02.028-.029.27-.276.246-.39.239-.406h0Z" transform="translate(-240.723 -62.406)" stroke="#000" stroke-miterlimit="10" stroke-width="0.25"></path><path id="Path_60" data-name="Path 60" d="M299.109,104.2s.216.252.65.01c-.008-.015-.065-.138.244-.452h0c.008-.01.018-.02.028-.029s.02-.02.028-.029c.309-.315.436-.268.449-.262h0c.228-.434-.026-.642-.026-.642l-.988-.967s-.3-.363-1.014.38c-.728.728-.359,1.023-.359,1.023l.987.966Z" transform="translate(-265.451 -87.451)" fill="#576fbc" stroke="#000" stroke-miterlimit="10" stroke-width="0.5"></path><path id="Path_61" data-name="Path 61" d="M308.883,113.122l1.582,1.468h0a.122.122,0,0,0,.088.034c.067,0,.182-.033.356-.216l.018-.018c.164-.167.193-.281.19-.343a.118.118,0,0,0-.036-.085h0l-1.5-1.556h0c-.018-.007-.145-.023-.434.281-.01.01-.019.02-.028.029-.27.276-.244.39-.239.406h0Z" transform="translate(-274.543 -96.385)" stroke="#000" stroke-miterlimit="10" stroke-width="0.25"></path><path id="Path_62" data-name="Path 62" d="M315.328,98.6a.293.293,0,1,1,.007-.415A.294.294,0,0,1,315.328,98.6Z" transform="translate(-279.525 -84.407)"></path><path id="Path_63" data-name="Path 63" d="M274.821,97.955a.293.293,0,1,1,.007-.415A.293.293,0,0,1,274.821,97.955Z" transform="translate(-245.603 -83.863)"></path><path id="Path_64" data-name="Path 64" d="M294.337,118.523a.294.294,0,0,1,.423-.41.293.293,0,0,1-.421.408Z" transform="translate(-262.293 -101.092)"></path><path id="Path_65" data-name="Path 65" d="M294.981,78.018a.293.293,0,1,1,.421-.408.293.293,0,1,1-.421.408Z" transform="translate(-262.831 -67.173)"></path><path id="Path_66" data-name="Path 66" d="M129.539,136.98s.247-.221,0-.65c-.015.01-.137.067-.455-.236h0c-.01-.008-.02-.018-.029-.028l-.029-.028c-.32-.3-.275-.432-.268-.445h0c-.437-.219-.642.037-.642.037l-.951,1s-.358.307.4,1.008,1.029.341,1.029.341l.951-1Z" transform="translate(-122.296 -115.729)" fill="#f4984d" stroke="#000" stroke-miterlimit="10" stroke-width="0.5"></path><path id="Path_67" data-name="Path 67" d="M138.322,128.806l1.442-1.606h0a.121.121,0,0,0,.033-.088c0-.067-.037-.182-.221-.351a.185.185,0,0,0-.018-.018c-.171-.161-.283-.19-.346-.185a.129.129,0,0,0-.085.037h0v0l-1.533,1.522h0c0,.018-.02.146.289.429.01.01.02.02.029.028.28.267.4.239.41.232h0Z" transform="translate(-131.1 -108.237)" stroke="#000" stroke-miterlimit="10" stroke-width="0.25"></path><path id="Path_68" data-name="Path 68" d="M106.741,157.052s-.249.221,0,.65c.015-.008.137-.067.457.236h0c.008.008.02.018.028.028s.02.018.029.028c.32.3.276.432.268.444h0c.437.221.641-.036.641-.036l.951-1s.358-.309-.4-1.01-1.027-.341-1.027-.341l-.951,1Z" transform="translate(-105.171 -132.85)" fill="#bf5004" stroke="#000" stroke-miterlimit="10" stroke-width="0.5"></path><path id="Path_69" data-name="Path 69" d="M99.845,166.888l-1.442,1.6h0a.123.123,0,0,0-.033.089c0,.067.036.182.221.351l.018.016c.171.163.283.19.346.185a.124.124,0,0,0,.085-.037h0v0l1.533-1.522h0c0-.018.02-.145-.289-.429l-.029-.029c-.28-.267-.4-.239-.41-.231h0Z" transform="translate(-98.254 -142.004)" stroke="#000" stroke-miterlimit="10" stroke-width="0.25"></path><path id="Path_70" data-name="Path 70" d="M108.09,135.641s-.221-.249-.65,0c.008.015.067.137-.236.457h0c-.008.01-.018.018-.028.029s-.018.02-.028.029c-.3.32-.432.275-.445.268h0c-.219.437.037.641.037.641l1,.951s.307.358,1.008-.4.341-1.029.341-1.029l-1-.951Z" transform="translate(-105.158 -115.751)" fill="#fcba88" stroke="#000" stroke-miterlimit="10" stroke-width="0.5"></path><path id="Path_71" data-name="Path 71" d="M99.906,128.736l-1.6-1.442h0a.122.122,0,0,0-.088-.034c-.067,0-.182.036-.353.221a.093.093,0,0,1-.018.018c-.163.171-.19.283-.185.346a.127.127,0,0,0,.036.085h0l1.52,1.533h0c.018,0,.145.021.429-.289.01-.01.02-.02.028-.029.267-.28.239-.4.232-.411h0Z" transform="translate(-97.657 -108.825)" stroke="#000" stroke-miterlimit="10" stroke-width="0.25"></path><path id="Path_72" data-name="Path 72" d="M128.834,159.117s.221.249.652,0c-.01-.015-.067-.137.236-.455h0c.008-.01.018-.02.028-.029s.018-.02.028-.029c.3-.32.432-.275.445-.268h0c.219-.437-.037-.641-.037-.641l-1-.951s-.309-.358-1.008.4c-.715.74-.343,1.029-.343,1.029l1,.951Z" transform="translate(-122.845 -133.445)" fill="#dd660e" stroke="#000" stroke-miterlimit="10" stroke-width="0.5"></path><path id="Path_73" data-name="Path 73" d="M138.679,167.9l1.6,1.442h0a.127.127,0,0,0,.088.034c.067,0,.182-.036.353-.221a.186.186,0,0,1,.018-.018c.161-.171.189-.283.184-.346a.124.124,0,0,0-.037-.085h0l-1.52-1.533h0c-.018,0-.145-.021-.429.289-.01.01-.02.02-.028.029-.267.281-.239.4-.232.411h0Z" transform="translate(-132.007 -142.246)" stroke="#000" stroke-miterlimit="10" stroke-width="0.25"></path><path id="Path_74" data-name="Path 74" d="M144.179,152.645a.293.293,0,1,1,0-.415A.291.291,0,0,1,144.179,152.645Z" transform="translate(-136.196 -129.665)"></path><path id="Path_75" data-name="Path 75" d="M103.675,152.639a.293.293,0,1,1,0-.415A.291.291,0,0,1,103.675,152.639Z" transform="translate(-102.278 -129.658)"></path><path id="Path_76" data-name="Path 76" d="M123.51,172.9a.293.293,0,0,1,.415-.415.293.293,0,0,1-.415.415Z" transform="translate(-119.236 -146.628)"></path><path id="Path_77" data-name="Path 77" d="M123.51,132.395a.293.293,0,0,1,.415-.415.291.291,0,0,1,0,.415.3.3,0,0,1-.416,0Z" transform="translate(-119.236 -112.707)"></path><path id="Path_78" data-name="Path 78" d="M242.324,24.248s.249-.219,0-.65c-.013.008-.137.067-.455-.237h0c-.01-.008-.018-.018-.028-.028s-.02-.018-.029-.028c-.32-.306-.275-.432-.267-.447h0c-.437-.221-.642.036-.642.036l-.954,1s-.359.306.393,1.01,1.027.346,1.027.346l.954-1Z" transform="translate(-216.744 -21.321)" fill="#f9f903" stroke="#000" stroke-miterlimit="10" stroke-width="0.5"></path><path id="Path_79" data-name="Path 79" d="M251.138,16.112l1.447-1.6h0a.131.131,0,0,0,.031-.089c0-.067-.034-.182-.219-.353a.19.19,0,0,1-.018-.018c-.171-.163-.283-.19-.346-.185a.127.127,0,0,0-.085.036h0v0l-1.536,1.517h0c0,.018-.019.146.289.431.01.01.02.02.029.028.28.267.393.239.41.234h0Z" transform="translate(-225.576 -13.867)" stroke="#000" stroke-miterlimit="10" stroke-width="0.25"></path><path id="Path_80" data-name="Path 80" d="M219.481,44.255s-.249.219,0,.65c.015-.008.137-.067.455.237h0l.028.028c.01.008.02.018.029.028.32.306.275.432.267.447h0c.437.221.641-.036.641-.036l.954-1s.358-.307-.393-1.01c-.738-.719-1.027-.346-1.027-.346l-.954,1Z" transform="translate(-199.583 -38.395)" fill="#f4aa08" stroke="#000" stroke-miterlimit="10" stroke-width="0.5"></path><path id="Path_81" data-name="Path 81" d="M212.539,54.085l-1.447,1.6h0a.13.13,0,0,0-.033.088c0,.065.036.182.221.353l.018.018c.169.163.283.19.346.185a.116.116,0,0,0,.085-.037h0l1.538-1.517h0c0-.018.02-.145-.289-.429l-.029-.029c-.28-.267-.393-.239-.41-.234h0Z" transform="translate(-192.624 -47.543)" stroke="#000" stroke-miterlimit="10" stroke-width="0.25"></path><path id="Path_82" data-name="Path 82" d="M220.9,22.841s-.219-.249-.65,0c.008.015.067.137-.237.455h0c-.008.01-.018.02-.028.029l-.028.029c-.306.32-.432.273-.445.267h0c-.221.436.036.641.036.641l1,.954s.306.359,1.01-.393.345-1.027.345-1.027l-1-.954Z" transform="translate(-199.623 -21.289)" fill="#fcf983" stroke="#000" stroke-miterlimit="10" stroke-width="0.5"></path><path id="Path_83" data-name="Path 83" d="M212.741,15.909l-1.6-1.447h0a.117.117,0,0,0-.088-.033c-.067,0-.182.036-.353.219a.093.093,0,0,1-.018.018c-.163.171-.192.283-.185.346a.127.127,0,0,0,.036.085h0v0l1.515,1.538h0c.018,0,.145.021.429-.288.01-.01.02-.02.028-.029.267-.28.241-.393.234-.41h0Z" transform="translate(-192.151 -14.338)" stroke="#000" stroke-miterlimit="10" stroke-width="0.25"></path><path id="Path_84" data-name="Path 84" d="M241.555,46.355s.219.249.65,0c-.008-.015-.067-.137.237-.455h0l.028-.029c.008-.01.018-.02.028-.029.306-.32.432-.273.447-.267h0c.221-.437-.036-.642-.036-.642l-1-.954s-.307-.359-1.01.393c-.719.738-.346,1.027-.346,1.027l1,.954Z" transform="translate(-217.242 -39.011)" fill="#f7ce06" stroke="#000" stroke-miterlimit="10" stroke-width="0.5"></path><path id="Path_85" data-name="Path 85" d="M251.406,55.186l1.6,1.447h0a.122.122,0,0,0,.088.034c.067,0,.182-.036.353-.219a.183.183,0,0,0,.018-.018c.163-.171.19-.283.185-.346a.123.123,0,0,0-.037-.085h0L252.1,54.461h0c-.018,0-.145-.021-.429.288-.01.01-.02.02-.028.029-.267.28-.239.393-.232.41h0Z" transform="translate(-226.41 -47.86)" stroke="#000" stroke-miterlimit="10" stroke-width="0.25"></path><path id="Path_86" data-name="Path 86" d="M256.685,40.488a.294.294,0,1,1,0-.415A.294.294,0,0,1,256.685,40.488Z" transform="translate(-230.413 -35.74)"></path><path id="Path_87" data-name="Path 87" d="M216.175,40.348a.293.293,0,0,1-.415,0,.3.3,0,0,1,0-.416.294.294,0,0,1,.415.416Z" transform="translate(-196.488 -35.623)"></path><path id="Path_88" data-name="Path 88" d="M235.95,60.668a.3.3,0,0,1,0-.416.294.294,0,1,1,0,.416Z" transform="translate(-213.396 -52.639)"></path><path id="Path_89" data-name="Path 89" d="M236.08,20.165a.293.293,0,1,1,.415,0A.294.294,0,0,1,236.08,20.165Z" transform="translate(-213.505 -18.722)"></path><path id="Path_90" data-name="Path 90" d="M185.919,80.6s.247-.221,0-.65c-.015.008-.137.067-.457-.236h0l-.028-.028c-.01-.01-.02-.018-.031-.028-.32-.3-.275-.431-.268-.445h0c-.437-.221-.641.037-.641.037l-.951,1s-.358.309.4,1.01,1.029.343,1.029.343l.951-1Z" transform="translate(-169.51 -68.512)" fill="#fc0842" stroke="#000" stroke-miterlimit="10" stroke-width="0.5"></path><path id="Path_91" data-name="Path 91" d="M194.694,72.409l1.442-1.606h0a.123.123,0,0,0,.033-.089c0-.067-.036-.182-.221-.353l-.018-.018c-.171-.161-.284-.19-.348-.185a.124.124,0,0,0-.085.037h0v0l-1.533,1.52h0c0,.018-.02.146.289.429.01.01.02.02.029.028.281.267.4.237.411.232h0Z" transform="translate(-178.306 -61.006)" stroke="#000" stroke-miterlimit="10" stroke-width="0.25"></path><path id="Path_92" data-name="Path 92" d="M163.121,100.678s-.249.221,0,.65c.015-.008.137-.067.457.237h0a.222.222,0,0,1,.028.028c.01.008.02.018.029.028.32.3.275.431.268.444h0c.437.221.641-.036.641-.036l.951-1s.358-.307-.4-1.008-1.027-.341-1.027-.341l-.951,1Z" transform="translate(-152.385 -85.645)" fill="#871337" stroke="#000" stroke-miterlimit="10" stroke-width="0.5"></path><path id="Path_93" data-name="Path 93" d="M156.225,110.5l-1.442,1.6h0a.132.132,0,0,0-.033.089c0,.067.036.182.221.351a.185.185,0,0,1,.018.018c.171.163.283.19.346.185a.116.116,0,0,0,.085-.037h0v0l1.533-1.522h0c0-.018.02-.145-.289-.429l-.029-.029c-.28-.267-.4-.239-.411-.232h0Z" transform="translate(-145.468 -94.786)" stroke="#000" stroke-miterlimit="10" stroke-width="0.25"></path><path id="Path_94" data-name="Path 94" d="M164.461,79.251s-.221-.249-.65,0c.008.015.067.137-.237.455h0c-.008.01-.018.02-.028.029l-.028.029c-.3.322-.432.275-.445.268h0c-.219.437.037.642.037.642l1,.951s.309.358,1.008-.4c.715-.74.341-1.027.341-1.027l-1-.951Z" transform="translate(-152.364 -68.528)" fill="#f95d8a" stroke="#000" stroke-miterlimit="10" stroke-width="0.5"></path><path id="Path_95" data-name="Path 95" d="M156.286,72.354l-1.6-1.442h0a.117.117,0,0,0-.088-.033c-.067,0-.182.036-.353.221a.185.185,0,0,0-.018.018c-.163.171-.19.285-.185.346a.124.124,0,0,0,.037.085h0v0l1.52,1.533h0c.018,0,.145.021.429-.289.01-.01.019-.02.028-.029.265-.28.239-.4.232-.411h0Z" transform="translate(-144.871 -61.611)" stroke="#000" stroke-miterlimit="10" stroke-width="0.25"></path><path id="Path_96" data-name="Path 96" d="M185.216,102.737s.221.249.65,0c-.008-.015-.067-.137.236-.455h0c.008-.01.018-.02.028-.029s.018-.02.028-.029c.3-.32.432-.276.445-.268h0c.219-.437-.037-.641-.037-.641l-1-.951s-.309-.358-1.008.4c-.715.74-.343,1.029-.343,1.029l1,.951Z" transform="translate(-170.059 -86.231)" fill="#c11e4c" stroke="#000" stroke-miterlimit="10" stroke-width="0.5"></path><path id="Path_97" data-name="Path 97" d="M195.078,111.517l1.6,1.442h0a.122.122,0,0,0,.088.034c.067,0,.182-.036.351-.221l.018-.018c.161-.171.19-.285.185-.346a.124.124,0,0,0-.037-.085h0v0l-1.52-1.531h0c-.018,0-.145-.021-.428.289-.01.01-.02.02-.028.029-.267.281-.239.4-.232.411h0Z" transform="translate(-179.238 -95.032)" stroke="#000" stroke-miterlimit="10" stroke-width="0.25"></path><path id="Path_98" data-name="Path 98" d="M200.849,97.277a.294.294,0,1,1,0-.416.293.293,0,0,1,0,.416Z" transform="translate(-183.653 -83.296)"></path><path id="Path_99" data-name="Path 99" d="M160.345,97.277a.293.293,0,0,1-.415,0,.294.294,0,0,1,.416-.416.291.291,0,0,1,0,.415Z" transform="translate(-149.735 -83.296)"></path><path id="Path_100" data-name="Path 100" d="M180.174,117.533a.294.294,0,1,1,.416,0,.293.293,0,0,1-.416,0Z" transform="translate(-166.687 -100.26)"></path><path id="Path_101" data-name="Path 101" d="M180.174,77.017a.293.293,0,0,1,0-.416.294.294,0,1,1,.416.415.291.291,0,0,1-.415,0Z" transform="translate(-166.687 -66.33)"></path><path id="Path_102" data-name="Path 102" d="M245.068,252.556s.252-.218.008-.65c-.015.008-.138.065-.454-.242h0l-.028-.028c-.01-.008-.02-.018-.029-.028-.317-.309-.27-.436-.263-.449h0c-.436-.226-.642.029-.642.029l-.964.992s-.363.3.384,1.013,1.024.356,1.024.356l.964-.99Z" transform="translate(-219.043 -212.504)" fill="#f2caa2" stroke="#000" stroke-miterlimit="10" stroke-width="0.5"></path><path id="Path_103" data-name="Path 103" d="M253.96,244.513l1.463-1.587h0a.13.13,0,0,0,.033-.088c0-.067-.033-.182-.216-.354a.176.176,0,0,0-.018-.018c-.169-.164-.281-.193-.345-.189a.127.127,0,0,0-.085.036h0v0l-1.551,1.5h0c0,.018-.021.146.285.432l.029.029c.276.27.392.244.408.237h0Z" transform="translate(-227.948 -205.144)" stroke="#000" stroke-miterlimit="10" stroke-width="0.25"></path><path id="Path_104" data-name="Path 104" d="M222.024,272.338s-.25.218-.008.65c.015-.008.137-.065.454.242h0a.223.223,0,0,1,.028.028l.029.028c.317.309.27.436.263.449h0c.434.224.642-.029.642-.029l.964-.99s.363-.3-.384-1.013c-.73-.725-1.024-.356-1.024-.356l-.964.992Z" transform="translate(-201.71 -229.408)" fill="#c68352" stroke="#000" stroke-miterlimit="10" stroke-width="0.5"></path><path id="Path_105" data-name="Path 105" d="M214.975,282.1l-1.462,1.587h0a.122.122,0,0,0-.034.088c0,.067.034.182.216.354a.183.183,0,0,0,.018.018c.169.164.281.193.345.19a.127.127,0,0,0,.085-.036h0l1.553-1.5h0c0-.018.021-.145-.285-.432-.01-.01-.02-.02-.028-.029-.276-.27-.392-.244-.408-.237Z" transform="translate(-194.65 -238.49)" stroke="#000" stroke-miterlimit="10" stroke-width="0.25"></path><path id="Path_106" data-name="Path 106" d="M223.659,250.924s-.218-.25-.65-.008c.008.015.065.138-.242.454h0c-.008.01-.018.02-.028.029s-.018.02-.028.029c-.307.317-.436.27-.449.262h0c-.224.434.029.642.029.642l.992.964s.3.363,1.013-.384c.725-.73.356-1.024.356-1.024l-.99-.964Z" transform="translate(-201.928 -212.29)" fill="#f9e4d2" stroke="#000" stroke-miterlimit="10" stroke-width="0.5"></path><path id="Path_107" data-name="Path 107" d="M215.6,243.867l-1.587-1.463h0a.12.12,0,0,0-.086-.034c-.067,0-.182.034-.356.216l-.018.018c-.164.169-.193.281-.19.345a.14.14,0,0,0,.036.086h0l1.5,1.553h0c.018,0,.145.023.432-.285l.028-.028c.27-.276.244-.392.237-.408h0Z" transform="translate(-194.549 -205.221)" stroke="#000" stroke-miterlimit="10" stroke-width="0.25"></path><path id="Path_108" data-name="Path 108" d="M244.09,274.652s.218.25.65.007c-.008-.015-.065-.138.242-.452h0c.008-.01.018-.02.028-.029s.018-.02.028-.029c.309-.317.436-.27.449-.262h0c.224-.434-.029-.642-.029-.642l-.992-.964s-.3-.361-1.013.384c-.725.73-.356,1.024-.356,1.024l.99.964Z" transform="translate(-219.373 -230.195)" fill="#e2b186" stroke="#000" stroke-miterlimit="10" stroke-width="0.5"></path><path id="Path_109" data-name="Path 109" d="M253.866,283.544l1.587,1.463h0a.122.122,0,0,0,.088.034c.067,0,.182-.034.354-.216a.094.094,0,0,1,.018-.018c.164-.167.193-.281.189-.345a.132.132,0,0,0-.036-.085h0l-1.5-1.551h0c-.018-.007-.145-.023-.432.283-.01.01-.02.019-.029.028-.27.278-.242.392-.237.408h0Z" transform="translate(-228.466 -239.099)" stroke="#000" stroke-miterlimit="10" stroke-width="0.25"></path><path id="Path_110" data-name="Path 110" d="M259.26,268.8a.293.293,0,1,1,0-.415A.295.295,0,0,1,259.26,268.8Z" transform="translate(-232.57 -226.933)"></path><path id="Path_111" data-name="Path 111" d="M218.736,268.275a.294.294,0,1,1-.411-.421.294.294,0,0,1,.41.421Z" transform="translate(-198.633 -226.493)"></path><path id="Path_112" data-name="Path 112" d="M238.324,288.787a.294.294,0,1,1,.416,0A.293.293,0,0,1,238.324,288.787Z" transform="translate(-215.386 -243.676)"></path><path id="Path_113" data-name="Path 113" d="M238.84,248.274a.293.293,0,1,1,.415,0,.293.293,0,0,1-.415,0Z" transform="translate(-215.817 -209.749)"></path><path id="Path_114" data-name="Path 114" d="M357.875,139.825s.25-.216.008-.65c-.015.008-.138.065-.452-.244h0l-.028-.028-.029-.028c-.315-.309-.268-.436-.262-.45h0c-.434-.226-.641.026-.641.026l-.967.988s-.363.3.38,1.014,1.023.358,1.023.358Z" transform="translate(-313.511 -118.097)" fill="#92d6ba" stroke="#000" stroke-miterlimit="10" stroke-width="0.5"></path><path id="Path_115" data-name="Path 115" d="M366.776,131.811l1.468-1.582h0a.127.127,0,0,0,.034-.088c0-.067-.033-.182-.215-.356l-.018-.018c-.167-.164-.281-.2-.343-.19a.119.119,0,0,0-.085.036h0v0l-1.557,1.5h0c0,.018-.021.146.283.434l.029.029c.276.27.392.245.406.239h0Z" transform="translate(-322.424 -110.766)" stroke="#000" stroke-miterlimit="10" stroke-width="0.25"></path><path id="Path_116" data-name="Path 116" d="M334.768,159.53s-.252.216-.01.65c.015-.008.138-.065.454.244h0l.028.028.029.028c.315.309.268.436.26.449h0c.434.228.642-.026.642-.026l.967-.987s.362-.3-.38-1.014-1.023-.359-1.023-.359l-.967.988Z" transform="translate(-296.124 -134.944)" fill="#2f664d" stroke="#000" stroke-miterlimit="10" stroke-width="0.5"></path><path id="Path_117" data-name="Path 117" d="M327.672,169.265l-1.468,1.582h0a.127.127,0,0,0-.034.088c0,.067.034.182.216.356a.191.191,0,0,1,.018.018c.167.164.28.2.343.19a.119.119,0,0,0,.085-.036h0v0l1.557-1.5h0c0-.018.021-.145-.283-.434-.01-.01-.019-.02-.028-.029-.276-.27-.39-.245-.406-.239h0Z" transform="translate(-289.02 -143.996)" stroke="#000" stroke-miterlimit="10" stroke-width="0.25"></path><path id="Path_118" data-name="Path 118" d="M336.465,138.128s-.216-.252-.65-.01c.008.015.065.138-.244.452h0c-.008.01-.018.018-.028.029l-.028.029c-.309.315-.436.268-.449.262h0c-.226.434.028.641.028.641l.988.967s.3.363,1.014-.38c.728-.728.358-1.023.358-1.023l-.987-.967Z" transform="translate(-296.392 -117.83)" fill="#c7f2e1" stroke="#000" stroke-miterlimit="10" stroke-width="0.5"></path><path id="Path_119" data-name="Path 119" d="M328.461,131.041l-1.582-1.468h0a.12.12,0,0,0-.086-.034c-.067,0-.182.034-.356.216a.186.186,0,0,1-.018.018c-.164.167-.193.281-.19.343a.118.118,0,0,0,.036.085h0l1.5,1.557h0c.018,0,.145.023.434-.283.01-.01.02-.02.029-.028.27-.276.244-.392.239-.408h0Z" transform="translate(-289.069 -110.734)" stroke="#000" stroke-miterlimit="10" stroke-width="0.25"></path><path id="Path_120" data-name="Path 120" d="M356.819,161.915s.216.252.65.01c-.01-.015-.065-.137.244-.452h0c.008-.01.018-.018.028-.028s.018-.02.028-.029c.309-.315.436-.268.449-.262h0c.226-.434-.026-.642-.026-.642l-.988-.967s-.3-.363-1.014.38c-.728.728-.359,1.023-.359,1.023l.988.967Z" transform="translate(-313.778 -135.787)" fill="#59aa87" stroke="#000" stroke-miterlimit="10" stroke-width="0.5"></path><path id="Path_121" data-name="Path 121" d="M366.589,170.832l1.582,1.468h0a.127.127,0,0,0,.088.036c.067,0,.182-.033.356-.216l.018-.018c.164-.169.2-.281.19-.345a.118.118,0,0,0-.036-.085h0l-1.5-1.556h0c-.018-.007-.145-.023-.432.283-.01.01-.019.02-.029.028-.272.276-.245.392-.239.406h0Z" transform="translate(-322.866 -144.713)" stroke="#000" stroke-miterlimit="10" stroke-width="0.25"></path><path id="Path_122" data-name="Path 122" d="M372.543,155.818a.294.294,0,1,1,0-.415.295.295,0,0,1,0,.415Z" transform="translate(-327.437 -132.319)"></path><path id="Path_123" data-name="Path 123" d="M332.038,155.168a.293.293,0,1,1,.007-.415A.293.293,0,0,1,332.038,155.168Z" transform="translate(-293.518 -131.775)"></path><path id="Path_124" data-name="Path 124" d="M351.557,175.738a.293.293,0,1,1,.415.008.294.294,0,0,1-.415-.008Z" transform="translate(-310.211 -149.006)"></path><path id="Path_125" data-name="Path 125" d="M352.2,135.223a.294.294,0,1,1,.415,0,.291.291,0,0,1-.415-.007Z" transform="translate(-310.752 -115.077)"></path><path id="Path_126" data-name="Path 126" d="M301.433,196.13s.25-.218,0-.65c-.015.008-.137.067-.454-.241h0c-.008-.01-.018-.018-.028-.029s-.02-.018-.029-.028c-.319-.307-.272-.434-.263-.447h0c-.436-.224-.642.031-.642.031l-.961.993s-.361.3.387,1.013,1.026.353,1.026.353l.961-.993Z" transform="translate(-266.246 -165.253)" fill="#f2ea8f" stroke="#000" stroke-miterlimit="10" stroke-width="0.5"></path><path id="Path_127" data-name="Path 127" d="M310.282,188.059l1.458-1.592h0a.122.122,0,0,0,.032-.088c0-.067-.034-.182-.218-.354l-.018-.018c-.169-.164-.281-.192-.345-.189a.127.127,0,0,0-.085.036h0l-1.548,1.507h0c0,.018-.021.146.284.432l.029.029c.278.268.392.242.408.236h0Z" transform="translate(-275.109 -157.864)" stroke="#000" stroke-miterlimit="10" stroke-width="0.25"></path><path id="Path_128" data-name="Path 128" d="M278.439,215.959s-.25.218,0,.65c.015-.008.137-.065.454.241h0c.01.008.018.018.028.028s.02.018.029.028c.319.307.272.434.263.447h0c.436.224.642-.031.642-.031l.961-.995s.361-.3-.387-1.013c-.732-.723-1.024-.353-1.024-.353l-.961.993Z" transform="translate(-248.955 -182.189)" fill="#a39633" stroke="#000" stroke-miterlimit="10" stroke-width="0.5"></path><path id="Path_129" data-name="Path 129" d="M271.422,225.762l-1.458,1.59h0a.136.136,0,0,0-.034.088c0,.067.034.182.218.354l.018.018c.169.164.281.193.345.189a.132.132,0,0,0,.085-.036h0v0l1.548-1.505h0c0-.018.021-.146-.286-.432l-.029-.029c-.278-.268-.392-.242-.408-.236h0Z" transform="translate(-241.923 -191.309)" stroke="#000" stroke-miterlimit="10" stroke-width="0.25"></path><path id="Path_130" data-name="Path 130" d="M280.008,194.569s-.218-.25-.65,0c.008.015.065.137-.241.454h0l-.028.028c-.008.01-.018.02-.028.029-.307.317-.434.271-.447.263h0c-.224.436.031.641.031.641l.993.961s.3.361,1.011-.387c.723-.733.353-1.024.353-1.024l-.993-.961Z" transform="translate(-249.118 -165.098)" fill="#fff8c5" stroke="#000" stroke-miterlimit="10" stroke-width="0.5"></path><path id="Path_131" data-name="Path 131" d="M271.929,187.552l-1.592-1.458h0a.115.115,0,0,0-.088-.034c-.067,0-.182.034-.354.218a.1.1,0,0,1-.018.018c-.163.169-.192.281-.189.345a.127.127,0,0,0,.036.085h0v0l1.505,1.548h0c.018,0,.146.023.432-.285.01-.01.02-.019.028-.029.268-.278.242-.393.236-.408h0Z" transform="translate(-241.721 -158.066)" stroke="#000" stroke-miterlimit="10" stroke-width="0.25"></path><path id="Path_132" data-name="Path 132" d="M300.516,218.243s.218.25.65,0c-.008-.015-.065-.137.241-.454h0c.008-.01.018-.018.028-.029s.018-.02.028-.029c.307-.319.434-.271.449-.263h0c.224-.434-.031-.641-.031-.641l-.995-.961s-.3-.361-1.011.387c-.723.733-.353,1.026-.353,1.026l.993.961Z" transform="translate(-266.624 -182.958)" fill="#d1c65d" stroke="#000" stroke-miterlimit="10" stroke-width="0.5"></path><path id="Path_133" data-name="Path 133" d="M310.327,227.1l1.592,1.458h0a.122.122,0,0,0,.088.034c.067,0,.182-.034.354-.218a.18.18,0,0,1,.018-.018c.163-.169.192-.281.189-.345a.127.127,0,0,0-.036-.085h0v0l-1.505-1.548h0c-.018,0-.145-.021-.431.284l-.029.029c-.268.278-.242.392-.236.408h0Z" transform="translate(-275.752 -191.83)" stroke="#000" stroke-miterlimit="10" stroke-width="0.25"></path><path id="Path_134" data-name="Path 134" d="M316.153,212.806a.294.294,0,1,1,0-.415A.293.293,0,0,1,316.153,212.806Z" transform="translate(-280.212 -180.042)"></path><path id="Path_135" data-name="Path 135" d="M275.643,212.4a.294.294,0,1,1,0-.416.295.295,0,0,1,0,.416Z" transform="translate(-246.288 -179.702)"></path><path id="Path_136" data-name="Path 136" d="M295.287,232.861a.293.293,0,1,1,.416,0,.291.291,0,0,1-.416,0Z" transform="translate(-263.087 -196.841)"></path><path id="Path_137" data-name="Path 137" d="M295.7,192.349a.294.294,0,1,1,.415,0,.291.291,0,0,1-.415,0Z" transform="translate(-263.429 -162.915)"></path></g><g id="Group_13314" data-name="Group 13314" transform="translate(362.925 103.863)"><path id="Path_22" data-name="Path 22" d="M62.143,376.23H54.33V353.16h6.044a10.539,10.539,0,0,1,4.459.769,5.521,5.521,0,0,1,3.289,5.228q0,3.4-3.519,4.874a7.115,7.115,0,0,1,4.022,2.082,5.427,5.427,0,0,1,1.493,3.833,5.649,5.649,0,0,1-.908,3.156,6.546,6.546,0,0,1-2.667,2.262,9.821,9.821,0,0,1-4.4.875ZM60.475,356.1H57.633v6.938h2.2a5.581,5.581,0,0,0,3.759-1.009,3.365,3.365,0,0,0,1.115-2.612q0-3.317-4.229-3.317Zm.249,9.877H57.638v7.315H60.89a10.589,10.589,0,0,0,3.676-.424,3.5,3.5,0,0,0,1.552-1.313,3.42,3.42,0,0,0,.585-1.916,3.327,3.327,0,0,0-.617-1.93,3.662,3.662,0,0,0-1.76-1.3,11.037,11.037,0,0,0-3.6-.428Z" transform="translate(-54.33 -352.856)"></path><path id="Path_23" data-name="Path 23" d="M103.01,353.16h13.078V356.1h-9.775v7.034h9.448v2.957h-9.448v7.168H116.4V376.2H103.01V353.16Z" transform="translate(-80.585 -352.856)"></path><path id="Path_24" data-name="Path 24" d="M151.449,352.87h2.322l10.346,23.2h-3.381l-3.073-6.836h-9.844l-2.884,6.836h-3.4ZM156.3,366.3l-3.722-8.356-3.45,8.356H156.3Z" transform="translate(-101.366 -352.7)"></path><path id="Path_25" data-name="Path 25" d="M217.389,353.16h3.321v13.1a15.589,15.589,0,0,1-.387,4.012,8.557,8.557,0,0,1-.958,2.253,7.248,7.248,0,0,1-1.4,1.612A10.589,10.589,0,0,1,210.8,376.5a10.8,10.8,0,0,1-7.232-2.345,7.405,7.405,0,0,1-1.4-1.626,8.37,8.37,0,0,1-.94-2.207,16.249,16.249,0,0,1-.373-4.1V353.16h3.321v13.1a9.743,9.743,0,0,0,.742,4.524,5.3,5.3,0,0,0,2.262,2.041,7.86,7.86,0,0,0,3.584.769,7.265,7.265,0,0,0,4.791-1.534,4.767,4.767,0,0,0,1.4-1.949,12,12,0,0,0,.428-3.847v-13.1Z" transform="translate(-133.359 -352.856)"></path><path id="Path_26" data-name="Path 26" d="M256.96,353.09h19.274v2.939h-8.043v20.163H264.87V356.029h-7.91Z" transform="translate(-163.616 -352.818)"></path><path id="Path_27" data-name="Path 27" d="M312.98,353.16h3.3v23.07h-3.3Z" transform="translate(-193.83 -352.856)"></path><path id="Path_28" data-name="Path 28" d="M357.446,370.521v3.635a17.234,17.234,0,0,1-8.389,1.981,12.9,12.9,0,0,1-6.555-1.552,11.445,11.445,0,0,1-4.261-4.28,11.617,11.617,0,0,1-1.571-5.9,11.254,11.254,0,0,1,3.593-8.472,12.332,12.332,0,0,1,8.859-3.436,20.765,20.765,0,0,1,8.075,1.9v3.552a15.884,15.884,0,0,0-7.91-2.312,9.263,9.263,0,0,0-6.583,2.5,8.831,8.831,0,0,0-.041,12.507,9.185,9.185,0,0,0,6.587,2.446,15.245,15.245,0,0,0,8.191-2.575Z" transform="translate(-206.607 -352.5)"></path><path id="Path_29" data-name="Path 29" d="M402.283,366.22l-2.511-1.525a11.45,11.45,0,0,1-3.363-2.838,5.36,5.36,0,0,1-1-3.211,5.686,5.686,0,0,1,1.889-4.427,7.073,7.073,0,0,1,4.915-1.7,9.087,9.087,0,0,1,5.3,1.622v3.75a7.646,7.646,0,0,0-5.367-2.4,4.446,4.446,0,0,0-2.658.746,2.265,2.265,0,0,0-1.041,1.916,2.935,2.935,0,0,0,.765,1.939,9.619,9.619,0,0,0,2.465,1.9l2.524,1.493q4.222,2.522,4.22,6.417a5.881,5.881,0,0,1-1.857,4.51,6.8,6.8,0,0,1-4.832,1.732,10.16,10.16,0,0,1-6.228-2.1v-4.2q2.674,3.393,6.191,3.39a3.861,3.861,0,0,0,2.584-.866,2.708,2.708,0,0,0,1.032-2.165q0-2.108-3.04-3.994Z" transform="translate(-238.287 -352.511)"></path><path id="Path_138" data-name="Path 138" d="M8.91,431.66h2.466a4.559,4.559,0,0,1,2.939.813,2.746,2.746,0,0,1,1,2.248,2.882,2.882,0,0,1-1.7,2.64q2.734.593,2.736,3a2.786,2.786,0,0,1-1.072,2.3,4.528,4.528,0,0,1-2.9.854H8.91Zm.913.765v4.725h1.272q3.228,0,3.228-2.359c0-1.571-1.087-2.366-3.261-2.366H9.827Zm0,5.5v4.828h2.447a3.527,3.527,0,0,0,2.3-.654,2.155,2.155,0,0,0,.787-1.749q0-2.429-3.49-2.429H9.823Z" transform="translate(-8.91 -397.726)"></path><path id="Path_139" data-name="Path 139" d="M40.271,431.66v.765H34.733v4.743h5.394v.773H34.733v4.81h5.675v.765H33.82V431.664h6.455Z" transform="translate(-24.611 -397.726)"></path><path id="Path_140" data-name="Path 140" d="M61.2,431.43l5.468,11.938h-.961l-1.871-4.1H58.055l-1.863,4.1H55.23L60.7,431.43h.5Zm2.288,7.076-2.551-5.583-2.54,5.583Z" transform="translate(-38.105 -397.581)"></path><path id="Path_141" data-name="Path 141" d="M95.394,431.654h.913v6.466a5.679,5.679,0,0,1-1.379,4.1,5.159,5.159,0,0,1-7.139.015,5.373,5.373,0,0,1-1.379-3.9V431.65h.924v6.644a4.638,4.638,0,0,0,1.124,3.316,4.119,4.119,0,0,0,5.819-.011,4.862,4.862,0,0,0,1.124-3.431V431.65Z" transform="translate(-57.758 -397.72)"></path><path id="Path_142" data-name="Path 142" d="M126.147,431.66v.765h-4.437v11.091h-.924V432.425H116.35v-.765Z" transform="translate(-76.629 -397.726)"></path><path id="Path_143" data-name="Path 143" d="M156.172,431.66l-4.6,5.49v6.363h-.913V437.15l-4.6-5.49h1.105l3.956,4.7,3.934-4.7Z" transform="translate(-95.354 -397.726)"></path><path id="Path_144" data-name="Path 144" d="M193.009,438h.972a13.43,13.43,0,0,1-1.634,3.361l2.414,2.547H193.59l-1.778-1.856a5.238,5.238,0,0,1-4.07,2.008,3.2,3.2,0,0,1-2.24-.776,2.626,2.626,0,0,1-.85-2.033q0-2.335,2.932-3.616a4.293,4.293,0,0,1-1.475-2.765,2.4,2.4,0,0,1,.813-1.837,2.847,2.847,0,0,1,2-.75,2.581,2.581,0,0,1,1.852.7,2.319,2.319,0,0,1,.732,1.749q0,1.88-2.462,3.135l2.669,2.817a11.194,11.194,0,0,0,1.3-2.68Zm-1.819,3.4-3-3.131a5.8,5.8,0,0,0-1.937,1.231,2.284,2.284,0,0,0-.614,1.619,1.994,1.994,0,0,0,.606,1.534,2.4,2.4,0,0,0,1.682.551,4.217,4.217,0,0,0,3.261-1.808Zm-2.747-4.167q2.213-.926,2.215-2.418a1.6,1.6,0,0,0-.507-1.205,1.788,1.788,0,0,0-1.279-.484,1.942,1.942,0,0,0-1.335.488,1.555,1.555,0,0,0-.536,1.2,3.554,3.554,0,0,0,1.446,2.418Z" transform="translate(-119.677 -398.117)"></path><path id="Path_145" data-name="Path 145" d="M238,432.247v1a8.961,8.961,0,0,0-4.218-1.146,4.959,4.959,0,0,0-3.682,1.5,5.131,5.131,0,0,0-1.483,3.753,5.042,5.042,0,0,0,1.49,3.741,5.193,5.193,0,0,0,3.8,1.468,9.027,9.027,0,0,0,4.207-1.213v.95a8.923,8.923,0,0,1-4.192,1.113,6.233,6.233,0,0,1-4.5-1.734,6.079,6.079,0,0,1,.037-8.673,6.14,6.14,0,0,1,4.377-1.749,10.012,10.012,0,0,1,4.159.991Z" transform="translate(-146.761 -397.474)"></path><path id="Path_146" data-name="Path 146" d="M265.708,431.25a6.149,6.149,0,0,1,4.448,1.767,6.009,6.009,0,0,1,0,8.622,6.452,6.452,0,0,1-8.88,0,6.026,6.026,0,0,1,0-8.622A6.114,6.114,0,0,1,265.708,431.25Zm.033,11.309a5.232,5.232,0,1,0,0-10.463,5.155,5.155,0,0,0-3.753,1.516,5.266,5.266,0,0,0,0,7.431A5.143,5.143,0,0,0,265.741,442.559Z" transform="translate(-166.829 -397.468)"></path><path id="Path_147" data-name="Path 147" d="M304,432v1.009a5.461,5.461,0,0,0-2.651-.91,2.5,2.5,0,0,0-1.782.647,2.086,2.086,0,0,0-.717,1.608,1.985,1.985,0,0,0,.421,1.238,4.106,4.106,0,0,0,1.771,1.061,16.075,16.075,0,0,1,1.963.85,2.985,2.985,0,0,1,1.05.983,2.943,2.943,0,0,1,.433,1.671,3.051,3.051,0,0,1-1,2.307,3.421,3.421,0,0,1-2.44.943,5.53,5.53,0,0,1-3.032-1.035v-1.076a5.344,5.344,0,0,0,2.98,1.264,2.5,2.5,0,0,0,1.775-.684,2.206,2.206,0,0,0,.725-1.675,2.249,2.249,0,0,0-.447-1.361,4.1,4.1,0,0,0-1.819-1.135,17.9,17.9,0,0,1-1.959-.85,2.927,2.927,0,0,1-1-.921,2.667,2.667,0,0,1-.41-1.538,2.92,2.92,0,0,1,1-2.226,3.424,3.424,0,0,1,2.407-.921A5.546,5.546,0,0,1,304,432Z" transform="translate(-191.033 -397.468)"></path><path id="Path_148" data-name="Path 148" d="M326.785,437.165l4.5-5.5h.924v11.853h-.924V433l-4.5,5.542L322.263,433v10.515h-.913V431.66h.917l4.522,5.5Z" transform="translate(-205.838 -397.726)"></path><path id="Path_149" data-name="Path 149" d="M364.561,431.66v.765h-5.538v4.743h5.394v.773h-5.394v4.81H364.7v.765H358.11V431.664h6.455Z" transform="translate(-229.008 -397.726)"></path><path id="Path_150" data-name="Path 150" d="M390.331,431.66v.765h-4.436v11.091h-.924V432.425h-4.44v-.765Z" transform="translate(-243.139 -397.726)"></path><path id="Path_151" data-name="Path 151" d="M411.823,431.66v11.853h-.913V431.66Z" transform="translate(-262.287 -397.726)"></path><path id="Path_152" data-name="Path 152" d="M457.31,432v1.009a5.461,5.461,0,0,0-2.651-.91,2.5,2.5,0,0,0-1.782.647,2.086,2.086,0,0,0-.717,1.608,1.966,1.966,0,0,0,.425,1.238,4.129,4.129,0,0,0,1.771,1.061,16.456,16.456,0,0,1,1.967.85,3.017,3.017,0,0,1,1.05.983,2.943,2.943,0,0,1,.433,1.671,3.051,3.051,0,0,1-1,2.307,3.421,3.421,0,0,1-2.44.943,5.53,5.53,0,0,1-3.032-1.035v-1.076a5.344,5.344,0,0,0,2.98,1.264,2.5,2.5,0,0,0,1.775-.684,2.206,2.206,0,0,0,.725-1.675,2.249,2.249,0,0,0-.447-1.361,4.1,4.1,0,0,0-1.819-1.135,17.9,17.9,0,0,1-1.959-.85,2.884,2.884,0,0,1-1-.921,2.667,2.667,0,0,1-.41-1.538,2.92,2.92,0,0,1,1-2.226,3.424,3.424,0,0,1,2.407-.921,5.546,5.546,0,0,1,2.736.747Z" transform="translate(-287.669 -397.468)"></path><path id="Path_153" data-name="Path 153" d="M428.684,432.247v1a8.961,8.961,0,0,0-4.218-1.146,4.959,4.959,0,0,0-3.682,1.5,5.131,5.131,0,0,0-1.482,3.753,5.042,5.042,0,0,0,1.49,3.741,5.193,5.193,0,0,0,3.8,1.468,9.028,9.028,0,0,0,4.207-1.213v.95a8.923,8.923,0,0,1-4.193,1.113,6.218,6.218,0,0,1-4.5-1.734,6.079,6.079,0,0,1,.037-8.673,6.134,6.134,0,0,1,4.377-1.749,10,10,0,0,1,4.159.991Z" transform="translate(-266.951 -397.474)"></path></g></g></svg> 