<?xml version="1.0" encoding="UTF-8"?> <svg xmlns="http://www.w3.org/2000/svg" width="1160.229" height="380.071" viewBox="0 0 1160.229 380.071"><g id="header_logo_" data-name="header logo " transform="translate(-4293.432 -246.952)"><path id="Path_32" data-name="Path 32" d="M273.585,71.506h49.827q39.2,0,59.428,16.44,20.182,16.433,20.188,45.384,0,34.568-34.417,53.24,55.323,12.008,55.311,60.632,0,29.1-21.656,46.287-21.675,17.249-58.655,17.226H273.585Zm18.51,15.421v95.362h25.66q65.248,0,65.26-47.594,0-47.791-65.919-47.768Zm0,110.945v97.421h49.481q30.628,0,46.564-13.165,15.9-13.206,15.919-35.285,0-48.954-70.536-48.971Z" transform="translate(4019.847 175.458)"></path><path id="Path_33" data-name="Path 33" d="M305.792,71.505h61.3Q405.62,71.505,426,88.2q20.338,16.729,20.372,45.13,0,41.44-45.558,58.214Q412.637,197.2,432.68,228l54.1,82.717H464.887l-41.648-65.561q-20.91-32.885-32.52-41.023c-7.775-5.438-19.147-8.121-34.094-8.121H324.28v114.7H305.792ZM324.28,86.926v93.661h39.739q30.3,0,46.3-12.24c10.678-8.144,16.034-19.736,16.034-34.683q0-22.091-16.289-34.417Q393.82,86.909,363.324,86.926Z" transform="translate(4360.244 175.447)"></path><path id="Path_34" data-name="Path 34" d="M522.522,310.715V101.631L341.088,310.715H325.436V71.506h18.5V280.555L525.784,71.506h15.2V310.715Z" transform="translate(4567.852 175.452)"></path><rect id="Rectangle_8" data-name="Rectangle 8" width="18.51" height="239.209" transform="translate(5161.21 246.952)"></rect><path id="Path_35" data-name="Path 35" d="M510.833,71.506,396.324,191,521.79,310.715H498.27L373,191.209V310.715h-18.51V71.506H373v119l114.74-119Z" transform="translate(4874.95 175.454)"></path><rect id="Rectangle_9" data-name="Rectangle 9" width="18.499" height="239.209" transform="translate(5435.163 246.952)"></rect><rect id="Rectangle_10" data-name="Rectangle 10" width="130.485" height="15.421" transform="translate(4478.063 246.952)"></rect><rect id="Rectangle_11" data-name="Rectangle 11" width="130.485" height="15.41" transform="translate(4478.063 358.858)"></rect><rect id="Rectangle_12" data-name="Rectangle 12" width="130.485" height="15.421" transform="translate(4478.063 470.74)"></rect><path id="Path_37" data-name="Path 37" d="M313.892,127.05l-4.882-2.973a22.672,22.672,0,0,1-6.548-5.518,10.555,10.555,0,0,1-1.932-6.247,11.062,11.062,0,0,1,3.678-8.63,13.826,13.826,0,0,1,9.557-3.3,18.2,18.2,0,0,1,10.32,3.147v7.3q-4.859-4.651-10.448-4.662a8.6,8.6,0,0,0-5.171,1.458,4.42,4.42,0,0,0-2.036,3.737,5.765,5.765,0,0,0,1.493,3.771,18.9,18.9,0,0,0,4.8,3.7l4.906,2.892c5.482,3.274,8.225,7.427,8.225,12.506a11.421,11.421,0,0,1-3.609,8.758,13.174,13.174,0,0,1-9.406,3.367,19.788,19.788,0,0,1-12.124-4.073V134.1c3.471,4.419,7.5,6.606,12.056,6.606a7.567,7.567,0,0,0,5.032-1.666,5.288,5.288,0,0,0,2-4.223c0-2.73-1.967-5.31-5.911-7.763" transform="translate(4304.632 480.665)"></path><rect id="Rectangle_13" data-name="Rectangle 13" width="6.432" height="44.899" transform="translate(4659.854 581.627)"></rect><path id="Path_38" data-name="Path 38" d="M344.1,100.434h6.1v44.9h-5.518l-30.021-34.591v34.591h-6.039v-44.9h5.206L344.1,135.3Z" transform="translate(4390.078 481.197)"></path><path id="Path_39" data-name="Path 39" d="M355.247,135.449v7.057a33.476,33.476,0,0,1-16.324,3.853,25.278,25.278,0,0,1-12.761-3.008,22.3,22.3,0,0,1-8.294-8.33,22.558,22.558,0,0,1-3.054-11.476,22,22,0,0,1,6.988-16.5,24.047,24.047,0,0,1,17.249-6.664,40.627,40.627,0,0,1,15.711,3.69v6.918a30.843,30.843,0,0,0-15.4-4.512,17.8,17.8,0,0,0-12.807,4.882,16.162,16.162,0,0,0-5.079,12.182c0,4.94,12.623,16.914,17.828,16.914a29.176,29.176,0,0,0,15.942-5.009" transform="translate(4455.584 480.665)"></path><path id="Path_40" data-name="Path 40" d="M320.915,100.434h25.451v5.7H327.348v13.7H345.73v5.75H327.348v13.964H346.98v5.715H320.915Z" transform="translate(4520.069 481.197)"></path><path id="Path_41" data-name="Path 41" d="M329.186,100.434h25.452v5.7h-19.02v13.7H354v5.75H335.618v13.964H355.25v5.715H329.186Z" transform="translate(4607.488 481.197)"></path><path id="Path_42" data-name="Path 42" d="M366.9,100.434h6.409l-18.984,45.072H352.87l-19.343-45.072h6.455l13.512,31.525Z" transform="translate(4653.363 481.197)"></path><path id="Path_43" data-name="Path 43" d="M339.313,100.434h25.463v5.7H345.745v13.7h18.382v5.75H345.745v13.964h19.633v5.715H339.313Z" transform="translate(4714.522 481.197)"></path><path id="Path_44" data-name="Path 44" d="M344.1,145.334v-44.9h11.257c4.535,0,8.144,1.111,10.817,3.367a11.358,11.358,0,0,1,3.992,9.139,11.738,11.738,0,0,1-1.956,6.779,11.62,11.62,0,0,1-5.622,4.257,20.335,20.335,0,0,1,4.21,3.853,79.406,79.406,0,0,1,5.785,8.526q2.342,3.835,3.76,5.738l2.372,3.24h-7.636l-1.954-2.962c-.081-.1-.208-.289-.394-.555l-1.261-1.77-1.978-3.274-2.151-3.505a36.728,36.728,0,0,0-3.655-4.408,12.984,12.984,0,0,0-2.986-2.337,9.877,9.877,0,0,0-4.488-.729H350.53v19.54Zm8.365-39.438H350.53v14.172h2.441c3.25,0,5.494-.289,6.71-.845a6.139,6.139,0,0,0,2.822-2.51,7.465,7.465,0,0,0,1.018-3.864,6.8,6.8,0,0,0-1.146-3.829,5.98,5.98,0,0,0-3.146-2.418,22.8,22.8,0,0,0-6.768-.706" transform="translate(4765.083 481.204)"></path></g></svg> 