<?xml version="1.0" encoding="UTF-8"?> <svg xmlns="http://www.w3.org/2000/svg" id="Layer_1" data-name="Layer 1" viewBox="0 0 110.92 127.94"><title>LOGO</title><path d="M110.65,52.09c-.3-.9-.68-1.78-1-2.65a14.72,14.72,0,0,1-1.21-2.76,3.82,3.82,0,0,1,.2-2.68,7.85,7.85,0,0,0,.38-.77,5.49,5.49,0,0,0,.39-1.25,11,11,0,0,0-.6-4.68,34.46,34.46,0,0,0-1.87-3.87,2.89,2.89,0,0,0-1.5-1.46,4,4,0,0,1-2.12-2.15c-.52-1.08-1.08-2.15-1.6-3.23a1.24,1.24,0,0,1,0-.66,7.37,7.37,0,0,0-1.85-6.1A32.27,32.27,0,0,0,96,16.44a1,1,0,0,0-1.07-.18,1.48,1.48,0,0,1-1.37-.14,5.84,5.84,0,0,1-1-.71,30.6,30.6,0,0,0-2.93-2.65,3.19,3.19,0,0,1-1.34-2.47.66.66,0,0,0-.06-.34,2.22,2.22,0,0,0-1.18-1.66,11.44,11.44,0,0,0-1.55-.72,22.13,22.13,0,0,1-4.63-2.28,1.47,1.47,0,0,0-1.52-.17A6.69,6.69,0,0,1,75,5a5.62,5.62,0,0,1-2.87-1.8c-.17-.18-.35-.35-.53-.52a5.43,5.43,0,0,0-1.72-1.12A9.62,9.62,0,0,0,66.77,1C65.55,1,64.32.94,63.1.88a1.68,1.68,0,0,0-.88.18,11.73,11.73,0,0,1-1.4.63A8.64,8.64,0,0,1,57,2.14a2.82,2.82,0,0,1-1.91-.93c-.2-.23-.42-.44-.63-.67A1.6,1.6,0,0,0,53.18,0H48.76a12.55,12.55,0,0,0-1.94.1,4,4,0,0,0-3.07,1.66c-.17.24-.36.45-.53.68a3.24,3.24,0,0,1-2.78,1.42.89.89,0,0,1-.68-.23.44.44,0,0,0-.62-.09h0a.73.73,0,0,1-.81-.06l-.53-.34a2.61,2.61,0,0,0-1.36-.44,8,8,0,0,0-3.35.66c-1.94.77-3.65,1.93-5.65,2.54a.41.41,0,0,0-.25.28,4.06,4.06,0,0,1-.93,2,1.51,1.51,0,0,0-.32.66,1.7,1.7,0,0,1-.82,1.31c-.43.35-.88.68-1.33,1-1,.72-2.11,1.38-3.09,2.17a2.8,2.8,0,0,1-2.08.85,1.27,1.27,0,0,0-1.08.43,68,68,0,0,0-4.49,5.52,1.14,1.14,0,0,0-.22.56c-.09,1-.15,2-.2,3a5.38,5.38,0,0,1-1.1,3.13,6.91,6.91,0,0,0-1.32,2.13.56.56,0,0,1-.32.3A7.12,7.12,0,0,0,6.78,31.6a9.45,9.45,0,0,0-2.12,4.21c-.18.93-.22,1.89-.32,2.84-.08.7-.12,1.41-.24,2.1A2.16,2.16,0,0,1,3.66,42,3.26,3.26,0,0,0,3,43.17a10.64,10.64,0,0,1-1.74,3.4,3.65,3.65,0,0,0-1,2.13,2.79,2.79,0,0,1-.07.4,9.15,9.15,0,0,0-.08,3.42c.19,1.4.49,2.78.75,4.17a28.81,28.81,0,0,1,.68,4.24c0,1,0,1.91.05,2.87a12.52,12.52,0,0,0,.21,1.93,6.82,6.82,0,0,0,1.45,2.7q1.81,2.37,3.66,4.72a17.92,17.92,0,0,0,4.59,4.35A15.45,15.45,0,0,0,18.44,80c1.18.1,2.37,0,3.55.08a15.69,15.69,0,0,1,1.94.15,6.85,6.85,0,0,1,4.65,3A16.18,16.18,0,0,1,30.68,88c.38,1.12.69,2.26,1,3.39a7.09,7.09,0,0,1,.44,2.7c-.08,1-.17,2-.29,3.08a28.11,28.11,0,0,0-.29,4,2.61,2.61,0,0,0,.49,1.5,5.41,5.41,0,0,0,.91,1,2.85,2.85,0,0,0,3.73.17,1.39,1.39,0,0,1,.73-.27c.84-.08,1.68-.11,2.52-.15,2.33-.11,4.66.12,7,.17h.28c1.74.15,3.47.29,5.2.45s3.43.34,5.14.53c.77.08,1.55.22,2.33.29a6.36,6.36,0,0,0,3-.25,1.76,1.76,0,0,1,.79-.09c.82,0,1.64.08,2.46.12a17.52,17.52,0,0,0,6.66-.93c1.74-.58,3.47-1.18,5.2-1.77l1.8-.58c.18-.06.36-.11.38-.37.08-1.21-.15-2.79-1.56-3.41a1.43,1.43,0,0,1-.84-.89,4.82,4.82,0,0,1-.22-1,8.33,8.33,0,0,1,.49-3.6c.4-1.14.88-2.25,1.26-3.38A14,14,0,0,0,80,86,1.76,1.76,0,0,1,81,84.59a4.4,4.4,0,0,1,.56-.31L85,83.09A6.72,6.72,0,0,0,88,81.16a1.17,1.17,0,0,1,.52-.32c1.14-.37,2.3-.69,3.44-1.07a5,5,0,0,0,2.23-1.25A2.79,2.79,0,0,1,96,77.61a5,5,0,0,0,2.85-1.32,5,5,0,0,1,1.86-1.11.77.77,0,0,0,.38-.31,59.8,59.8,0,0,0,5.69-9.67,33.46,33.46,0,0,1,1.89-3.79,3.26,3.26,0,0,0,.37-1c.17-.69.27-1.39.44-2.07a5.48,5.48,0,0,1,1.12-2.55.83.83,0,0,0,.19-.4A7.82,7.82,0,0,0,110.65,52.09Zm-4.08,10.76A29.1,29.1,0,0,1,103.75,68c-1.08,1.69-2.1,3.42-3.15,5.13a1.36,1.36,0,0,1-.36.43c-1.06.76-2.12,1.51-3.2,2.23a6.18,6.18,0,0,1-2.48,1,1.24,1.24,0,0,0-1,.8.57.57,0,0,1-.44.39A46.59,46.59,0,0,0,88,79.81c-.5.19-1,.31-1.53.46s-.48.14-.37.62a1,1,0,0,1,0,.25c-.58.26-1.17.56-1.79.79-1.26.46-2.52.89-3.8,1.29a1.69,1.69,0,0,0-1,.81c-.18.32-.34.66-.49,1a18.83,18.83,0,0,0-.86,3.38,17.57,17.57,0,0,1-1.36,4.48,5.24,5.24,0,0,0,.28,4.85,7.37,7.37,0,0,0,1.36,2,3.91,3.91,0,0,1,.3.41c-.66.26-1.29.49-1.9.74-1.19.48-2.36,1-3.55,1.46a20.58,20.58,0,0,1-3.27,1,9.85,9.85,0,0,1-3.59.1,33.12,33.12,0,0,0-7.38-.2,40.55,40.55,0,0,1-4.93,0,28.24,28.24,0,0,1-2.89-.39.44.44,0,0,1-.16-.06,5.75,5.75,0,0,0-2.88-.63,21.14,21.14,0,0,1-4.18-.65,1.23,1.23,0,0,0-.66,0,8.36,8.36,0,0,1-2.76.45c-1.1,0-2.21.07-3.32.14a4.61,4.61,0,0,0-2.59,1,.94.94,0,0,1-.22.12,3.26,3.26,0,0,1-1.28-2.35,17.26,17.26,0,0,1,0-2.69c.08-1.16.3-2.31.4-3.47.07-.84,0-1.68.06-2.52a1.05,1.05,0,0,0-.13-.49,28.25,28.25,0,0,1-1.87-5.59c-.27-1-.52-2-.81-3a1.39,1.39,0,0,0-.41-.66,19,19,0,0,0-6.26-3.61A9.44,9.44,0,0,0,21,78.37c-.67,0-1.34,0-2,.06A7.47,7.47,0,0,1,16.18,78a21.78,21.78,0,0,1-4.56-2,10.7,10.7,0,0,1-3.18-3.14c-.25-.36-.5-.72-.74-1.09a5.07,5.07,0,0,0-1.39-1.49,1.17,1.17,0,0,1-.42-.46,14.4,14.4,0,0,0-2-3.06,8.38,8.38,0,0,1-.79-1.32,2.07,2.07,0,0,1,.44-2.33,5.21,5.21,0,0,0,2.22.63.73.73,0,0,1,.39.22L7.8,65.29a1.3,1.3,0,0,1,.23.18,2.41,2.41,0,0,0,1.36.82.73.73,0,0,1,.38.24,30.8,30.8,0,0,0,7.07,5.13c1.33.78,2.67,1.58,4,2.39.57.35,1.1.76,1.65,1.15l.45.27a3.29,3.29,0,0,0-.55-1.34,7.19,7.19,0,0,0-2.94-2.35c-.89-.45-1.79-.87-2.68-1.31a9.65,9.65,0,0,1-2.69-1.92,29.29,29.29,0,0,0-4.88-3.7,23.54,23.54,0,0,0-5.5-2.68c-.18-.06-.35-.14-.53-.19a.36.36,0,0,1-.3-.37,6.52,6.52,0,0,0-.44-2,6.34,6.34,0,0,1-.19-.84,1,1,0,0,1,.41-1,2.32,2.32,0,0,1,.39.44c.22.45.5.72,1.07.51l.07,1c.48-.07.63-.77,1.23-.55a1.11,1.11,0,0,0,.08.36c.11.17.23.38.39.44a1,1,0,0,1,.75.74l.57-.3.31,1.07L8,61.09c.28-.2.51-.12.59.22a1.14,1.14,0,0,0,0,.45.63.63,0,0,0,.31.37c.19.1.32-.06.39-.23s.2-.33.38-.22.15.28.21.43,0,.07,0,.11c0,.6.13.72.69.52.07,0,.13-.09.2-.09a.94.94,0,0,1,.47,0c.06,0,0,.27,0,.42v.1s-.08.38,0,.41a.88.88,0,0,0,.48.07,2.77,2.77,0,0,0,.41-.12,2.19,2.19,0,0,0,.72.93,3.32,3.32,0,0,1,.47.76l.34-.23c.32-.19.46-.13.7.18a2.74,2.74,0,0,0,.62.56c.33.23.71.39.86.83h.57c0,.06.1.1.11.15a1.21,1.21,0,0,0,.69.92c.25.17.48.36.77.58.44-.18.74.08,1,.45a5.89,5.89,0,0,0,2.16,1.63,3.55,3.55,0,0,1,.9.58c2.42,2.18,4.77,4.42,7.15,6.55a4.41,4.41,0,0,1,.47.58c.18.26.34.55.54.81a2,2,0,0,0,1.41.89,2.86,2.86,0,0,0-.15-.41A20.24,20.24,0,0,0,28.07,75c-1.66-1.58-3.37-3.12-5.13-4.59-2.27-1.89-4.59-3.75-7-5.54A36.77,36.77,0,0,0,9.85,61a6.84,6.84,0,0,1-1-.69,13.83,13.83,0,0,0-1.41-1c-1.57-.84-3.15-1.63-4.75-2.42a1,1,0,0,1-.61-.81c-.13-1-.32-2-.4-3s-.1-2.14-.12-3.21a1.34,1.34,0,0,1,.17-.51,3.88,3.88,0,0,1,.3-.48c.22-.37.42-.42.81-.2l.24.15C5.15,50.09,7,51.64,9,53.09c1.07.8,2.18,1.54,3.27,2.32a8.27,8.27,0,0,1,.79.65c.94.88,1.86,1.77,2.8,2.63s1.65,1.48,2.5,2.2c.54.45,1.12.86,1.67,1.3a5.47,5.47,0,0,1,1.39,1.64,1.42,1.42,0,0,0,.6.59,4.17,4.17,0,0,1,.82.69,4.33,4.33,0,0,0,1.44,1.18c.14,0,.24.23.35.36l5.45,6.74c.44.55.83,1.14,1.26,1.7a25.6,25.6,0,0,0,1.61,2A2.82,2.82,0,0,0,34.3,78c-.06-.18-.07-.3-.12-.41a19.85,19.85,0,0,0-2-3.11c-.75-1-1.5-2.08-2.26-3.11a4.27,4.27,0,0,0-.57-.63A9.83,9.83,0,0,1,27.23,68a2.3,2.3,0,0,0-.47-.64q-4.43-4.55-9.1-8.83A96.69,96.69,0,0,0,7.44,50.36c-.63-.44-1.3-.8-2-1.2a9.24,9.24,0,0,1-2.2-1.63c-.41-.46-.38-.45-.12-1,.71-1.46,1.42-2.92,2.09-4.4a10.9,10.9,0,0,0,.23-1.27,3.12,3.12,0,0,1,.39-.8A.37.37,0,0,1,6.18,40c.08,0,.11.23.1.34a4,4,0,0,0-.11.5.53.53,0,0,0,.15.33,1.33,1.33,0,0,0,.28-.1,2.16,2.16,0,0,0,.33-.27c.19.37,0,.64-.09.92s-.12.49.2.67L7.61,42a1.53,1.53,0,0,0,.12.6.25.25,0,0,0,.27.21h.08l.63-.26a1.34,1.34,0,0,1,0,.4c0,.14-.16.26-.21.4a3.18,3.18,0,0,0-.06.43h.48c.23,0,.42-.31.68-.1a9.91,9.91,0,0,1-.12,1.08l.89-.18a4,4,0,0,0-.14.57,1,1,0,0,0,.06.41c.06.07.27,0,.41,0a2.11,2.11,0,0,0,.34-.16A3.11,3.11,0,0,0,11,46a.52.52,0,0,0,.16.33.42.42,0,0,0,.36-.07c.19-.13.35-.46.6-.19s-.08.44-.2.64a2.07,2.07,0,0,0-.15.34l1.16.1c.18.26.06.52,0,.77s-.14.52.15.75l.46-.37c.31.06.33.27.3.49s-.08.36-.13.6a2,2,0,0,0,.49,0c.19,0,.4-.16.52,0s0,.32,0,.48a4.08,4.08,0,0,1-.12.68l.63-.07c.37-.08.41,0,.53.29a5.69,5.69,0,0,0,.4.87c.1.2.25.38.35.59.2.44.19.44.68.26h.24l-.33,1.25.81-.19c.1.39.2.74.31,1.17a3.33,3.33,0,0,1,.39-.36.36.36,0,0,1,.51,0h0a.67.67,0,0,1,.08.46c0,.12-.13.23-.18.35-.13.31,0,.48.33.47a2.85,2.85,0,0,0,.65-.11,4.64,4.64,0,0,1-.11.51c-.17.47-.16.53.3.75l1.16.51a1.86,1.86,0,0,1-.09.47c-.11.5,0,.61.5.57H22a2.59,2.59,0,0,0,.09.4c.06.41.21.73.7.76a.55.55,0,0,1,.49.55.88.88,0,0,0,.69.82.42.42,0,0,1,.38.43v.07a.92.92,0,0,0,.38,1,2.11,2.11,0,0,1,.38.35c.13.21.22.45.37.75a.62.62,0,0,1,.34.13c.08.08.07.28.08.43a2.67,2.67,0,0,1,0,.4.38.38,0,0,0,.34.4,3,3,0,0,1,.48.16.79.79,0,0,1,.55.84v.47l.78.11v.4a.85.85,0,0,0,.45.75c.5.31.5.31.38.89v.21a1.4,1.4,0,0,1,1,1c0,.12.13.24.18.36a1.21,1.21,0,0,0,.92.8c.25.4-.17.68-.1,1,.28.08.55.14.81.24a.73.73,0,0,1,.5.81.83.83,0,0,0,.52.94,3.38,3.38,0,0,1,1.07,1.09c.59.93,1.11,1.91,1.64,2.88a1,1,0,0,1,.08.48,1,1,0,0,0,.38,1,11.75,11.75,0,0,0,1,.87A3.08,3.08,0,0,1,38,81.86,6.17,6.17,0,0,0,38.39,83a1.08,1.08,0,0,0,1.09.66,1.24,1.24,0,0,0-.11-.36,115.92,115.92,0,0,0-8.44-14.24c-2.22-3.32-4.39-6.68-6.58-10a5.13,5.13,0,0,0-.47-.65c-2.19-2.32-4.1-4.89-6.14-7.34-1.1-1.27-2.23-2.52-3.35-3.77a1.55,1.55,0,0,1-.41-.78,2.26,2.26,0,0,0-.68-1.28c-1.26-1.14-2.49-2.32-3.73-3.49A20.61,20.61,0,0,1,6,37.59a1,1,0,0,1-.11-1,8.23,8.23,0,0,1,1.32-2.71c.33-.4.71-.74,1.08-1.12l-.08-.65a2.63,2.63,0,0,1,1.81.41,9.71,9.71,0,0,1,1.45,1.1A25,25,0,0,1,15,37.92c.6.88,1.19,1.78,1.8,2.66a6.16,6.16,0,0,0,.77.92,18.6,18.6,0,0,1,4.11,6,3.67,3.67,0,0,0,.89,1.31,5,5,0,0,1,.83,1c.52.78,1,1.59,1.51,2.37A14,14,0,0,0,26,53.52a1.37,1.37,0,0,1,.39.68,4.47,4.47,0,0,0,.77,1.58A4.89,4.89,0,0,1,28,57.55c0,.12.14.22.22.32a4.69,4.69,0,0,1,.72.94,66.77,66.77,0,0,0,3.69,6.48c.85,1.53,1.66,3.09,2.46,4.66a16.61,16.61,0,0,1,.65,1.65,2.21,2.21,0,0,0,.52.8,5.38,5.38,0,0,1,.89,1.18c.42.77.78,1.58,1.16,2.37a2.85,2.85,0,0,0,1.11,1.34,2.74,2.74,0,0,0-.09-.39,83.14,83.14,0,0,0-5.3-11.11c-1.66-3-3.27-6-4.91-9.07a6.93,6.93,0,0,0-.43-.75,47.66,47.66,0,0,1-3-4.68,10.33,10.33,0,0,0-.74-1,6.92,6.92,0,0,1-.52-.69c-1.06-1.64-2.06-3.31-3.17-4.91-.92-1.33-2-2.59-3-3.86a24.18,24.18,0,0,1-1.73-2.54,22.18,22.18,0,0,0-1.31-2,2.39,2.39,0,0,0-.74-.6,1.39,1.39,0,0,1-.72-.77,3.54,3.54,0,0,0-1.39-1.77,4.59,4.59,0,0,1-1.6-2.64.53.53,0,0,1,.1-.42c.74-1.06,1.48-2.13,2.27-3.16a3.09,3.09,0,0,0,.65-1.38A2.47,2.47,0,0,1,14,24.9c.06-.12.22-.2.33-.31l.14.09-.24,1.07.13.08.86-.8c.31.68-.5,1.09-.24,1.69.45,0,.61-.77,1.19-.41a3.77,3.77,0,0,0-.28.57,2.94,2.94,0,0,0-.05.66l.38-.06.29-.11c.06.06.11.09.11.11-.09.42-.13.82.37,1.05.06,0,.07.24.07.37a4.17,4.17,0,0,1-.08.49l.59-.1v1.35c0,.12.07.33.12.34a1,1,0,0,0,.41-.12s.08-.1.12-.11l.47-.06a1.48,1.48,0,0,1,0,.42c0,.12-.12.24-.15.37a2.29,2.29,0,0,0,0,.37c.35.19.58-.26.9,0l-.56,1c.21.39.49.13.73.21s0,.43,0,.64-.07.23-.06.34a4.21,4.21,0,0,0,.12.48,2.44,2.44,0,0,0,.46-.14c.2-.12.37-.32.7-.14-.32.42-.76.77-.53,1.43l.71-.26a.33.33,0,0,1,0,.47H21a.18.18,0,0,0-.2.11c0,.11-.23.27-.19.35a.42.42,0,0,0,.35.22,5.29,5.29,0,0,0,.79-.08c.2.18.11.38.06.58a4.21,4.21,0,0,0-.16.61.33.33,0,0,0,.11.28A.42.42,0,0,0,22,38c.19-.1.28-.38.58-.28.08.31-.18.39-.34.52s-.5.3-.42.68c.49.34,1-.37,1.52,0-.11.14-.23.28-.35.41s-.3.24-.42.38a.48.48,0,0,0,0,.67l.54-.13a3.12,3.12,0,0,1,.44-.09c.35,0,.48.26.28.54a5,5,0,0,1-.39.41c-.22.23-.21.23-.23.68l1.14-.16c.22.67.2.72-.33,1,0,0-.12,0-.15.07a2.71,2.71,0,0,1-.24.35,1.11,1.11,0,0,0,.37.2h.73l.13.09c-.19.37-.56.66-.51,1.16.38.23.78-.37,1.19,0-.15.37-.78.56-.51,1.15l.56-.08c-.05.2-.09.36-.14.51a1.69,1.69,0,0,0-.15.43.44.44,0,0,0,.18.31.32.32,0,0,0,.3,0,3.07,3.07,0,0,0,.38-.34.48.48,0,0,1,.27.61,8.85,8.85,0,0,0-.16.87l1,.36c-.08.24-.15.43-.22.62a.35.35,0,0,0,.12.48h.12a1.06,1.06,0,0,1,.72.82c.16.45.27.92.41,1.37s.27.86.89.92c-.21.34-.37.61-.57,1a2.42,2.42,0,0,1,.45.1c.53,0,.7.25.57.77-.06.25-.21.5,0,.79l.3-.07c.33,0,.49.1.53.44s.08.79.16,1.18a2,2,0,0,0,1,1.32c.45.27.45.37.13.8s-.26.53.24.6a.66.66,0,0,1,.34.06c.3.1.36.21.26.52-.17.53-.18.53-.09.93H33a.27.27,0,0,1,.29.25h0a3.38,3.38,0,0,1,0,.45.84.84,0,0,0,.33.74,1.88,1.88,0,0,1,.49.75c.16.43.25.88.39,1.32a1.49,1.49,0,0,0,.69,1,.49.49,0,0,1,.3.61,2,2,0,0,0-.06.34c.11.08.21.13.29.2a2,2,0,0,1,.7.94c.32.89.73,1.76,1.13,2.63s1,1.91,1.35,2.9a19.27,19.27,0,0,1,.59,2.23,4.88,4.88,0,0,0,.2.65c.48,1,1,2.07,1.45,3.11s.85,1.88,1.3,2.8a9.43,9.43,0,0,0,.64,1,.65.65,0,0,0,.28-.74,2.57,2.57,0,0,0-.23-.76,37.68,37.68,0,0,1-2-4.93Q39.27,71.6,37,67c-1.59-3.36-3-6.81-4.52-10.21l-4.31-9.29c-.35-.76-.77-1.5-1.19-2.22a6.63,6.63,0,0,1-.84-2.6,1.67,1.67,0,0,0-.33-.88,7.81,7.81,0,0,1-1.46-3.11,4.66,4.66,0,0,0-1.28-2.35A.72.72,0,0,1,22.9,36a27.35,27.35,0,0,0-2.46-4.82A35.86,35.86,0,0,1,18,26.67a1.82,1.82,0,0,0-.47-.56,2.64,2.64,0,0,1-.93-1.54,1.17,1.17,0,0,0-.27-.42c-.24-.27-.49-.53-.74-.78s-.57-.55-.85-.84a.85.85,0,0,1-.21-.37,3.6,3.6,0,0,1,.6-2.51,9.89,9.89,0,0,1,.64-.81c.66-.72,1.32-1.43,2-2.14a1.35,1.35,0,0,1,1.63-.35,1.1,1.1,0,0,1,.49.53,73.51,73.51,0,0,1,3.88,7.28C26.31,29.51,28.57,35,30.7,40.51c.82,2.13,1.51,4.32,2.27,6.48.58,1.62,1.19,3.23,1.75,4.85.38,1.08.68,2.19,1,3.28a5.87,5.87,0,0,0,.37.9,57.09,57.09,0,0,1,2.6,6.27,72.23,72.23,0,0,1,2.21,7.35,16.21,16.21,0,0,0,.5,1.68,1.51,1.51,0,0,0,.38.56A1.57,1.57,0,0,1,42.39,73a8.54,8.54,0,0,0,1.24,3.83,5.91,5.91,0,0,1,.67,2A6.63,6.63,0,0,0,44.65,80a3.27,3.27,0,0,0,.39.58A2.52,2.52,0,0,0,45.11,79c-.47-1.53-1-3.06-1.39-4.61-.48-1.74-.88-3.52-1.39-5.26-.34-1.16-.82-2.3-1.25-3.44C38.94,60,36.83,54.29,34.69,48.58c-.79-2.09-1.64-4.15-2.43-6.24-1.19-3.13-2.32-6.27-3.5-9.4A64.1,64.1,0,0,0,24,22.74a4.94,4.94,0,0,1-.52-2,1.77,1.77,0,0,0-.34-.88,21.25,21.25,0,0,1-2.6-4.44,2.81,2.81,0,0,1-.1-.31s.05-.11.08-.11a5.69,5.69,0,0,0,1.81-1.17,4.75,4.75,0,0,1,1.79-1.1,1.2,1.2,0,0,0,.55-.47,6,6,0,0,1,1.81-1.59,1.2,1.2,0,0,1,.9-.19c.23.59-.36.95-.48,1.49l.51.07c.08,0,.21.08.22.14a.44.44,0,0,1-.09.29c-.11.11-.28.15-.37.27a.39.39,0,0,0-.1.34c0,.07.22.11.34.11s.2-.11.31-.13h.47c.09,0,0,.34-.14.48a2.42,2.42,0,0,0-.31.33,1.93,1.93,0,0,0-.19.38l1.16.1a.41.41,0,0,1-.16.54c-.13.11-.28.2-.41.31a.49.49,0,0,0-.17.64h.37c.15,0,.3-.06.46-.06s.42.06.44.28a.68.68,0,0,1-.21.42c-.1.11-.28.15-.38.25a.78.78,0,0,0-.24.42c0,.23.24.19.41.19h.84c0,.77-.78,1.06-.89,1.73.43.26.92,0,1.35.2.07.35-.17.47-.4.6s-.49.26-.39.66l.82.14c.08.55-.71.45-.61,1l1,.06a1.8,1.8,0,0,1-.08.39,2.75,2.75,0,0,1-.19.28c-.1.19-.4.36-.19.58s.38.06.58.06H31a1.22,1.22,0,0,1-.14.33,3.92,3.92,0,0,1-.32.25c-.17.14-.3.31-.18.54s.32.16.5.11.15-.08.22-.07.26,0,.29.1a.36.36,0,0,1,0,.35,3.67,3.67,0,0,1-.52.44c-.25.19-.43.39-.23.71,1-.12,1-.12,1.14.59l-.79.71c.33.38.72.11,1,.28.11.2,0,.32-.15.43a2.54,2.54,0,0,0-.43.37.38.38,0,0,0,0,.36,1,1,0,0,0,.29.07c.1,0,.19-.08.28-.08s.3,0,.35.08a.4.4,0,0,1,0,.37c-.12.25-.28.48-.47.79l.5.1h.39c.14.37-.12.5-.33.65s-.47.27-.46.68l1.27.07c-.27.54-.93.63-1,1.3h1.06a.44.44,0,0,1,.37.45c0,.13-.17.27-.29.37l-.36.18a.29.29,0,0,0-.16.36V34l.53-.06c.23.51-.39.6-.46,1h.81c.39,0,.5.22.29.56a1.8,1.8,0,0,1-.33.4l-.35.39a.36.36,0,0,0,.45.24h0c.11,0,.22-.08.33-.08s.32,0,.35.1a.61.61,0,0,1,0,.42c-.07.13-.22.22-.31.34s-.19.3-.33.51a3.63,3.63,0,0,0,.45.1c.43.06.53.17.46.6a3.06,3.06,0,0,1-.1.51c.21.06.38.1.53.16.32.12.37.29.19.57a3.09,3.09,0,0,0-.33.39,1.14,1.14,0,0,0-.07.41c.12,0,.25.08.35,0a.38.38,0,0,1,.52.13h0a.76.76,0,0,1,0,.59c-.14.28-.42.51-.25.92l.59.17c-.15.39-.29.78-.45,1.22l.84.14c.16.44-.5.56-.3,1l.79.12a4.18,4.18,0,0,0,0,1,5.49,5.49,0,0,0,.5,1c-.14.21-.54.35-.48.84a2.82,2.82,0,0,1,.57.09.54.54,0,0,1,.45.29,1.09,1.09,0,0,1-.19.49c-.1.16-.24.2-.3.33a.4.4,0,0,0,.06.56.41.41,0,0,0,.35.08,1.58,1.58,0,0,0,.52-.12c.25.56-.41.77-.32,1.27l.76.13c.09.58-.74.5-.74,1.08l.54.07a.56.56,0,0,1,.52.39c.06.24-.08.39-.25.53s-.14.08-.18.14a1.14,1.14,0,0,0-.1.19,1.14,1.14,0,0,1-.1.19l.17.08.17.08h.18c.46.09.54.2.42.67a2.47,2.47,0,0,1-.21.65,2.85,2.85,0,0,0-.14.5c-.13.76,0,.88.72,1H40c.25.42-.62.58-.23,1.06l.59-.17c.08.55-.64.91-.28,1.46.22.16.59-.21.75.2a2.52,2.52,0,0,0-.32.58,2,2,0,0,0,0,.6l.49-.08c.28,0,.41.08.34.35a1.7,1.7,0,0,1-.24.44c-.11.15-.24.29-.41.5l.72.37c-.06.71-.13,1.42-.2,2.2l1.15.11c-.12.24-.19.4-.28.55s-.19.19-.24.31a.29.29,0,0,0,.08.4h.21c.65.1.66.11.51.75a4.15,4.15,0,0,1-.14.61,1.1,1.1,0,0,0,.24,1,4.17,4.17,0,0,1,.92,2.6c0,.29,0,.58.32.71a.26.26,0,0,1,.14.17,10.19,10.19,0,0,1,.52,1.62c.17,1.17.25,2.35.4,3.53a5.76,5.76,0,0,0,.3,1.29,24.92,24.92,0,0,0,1,2.52,5.4,5.4,0,0,0,.55,1,.67.67,0,0,0,.75.35,2.54,2.54,0,0,0,0-.39,55.57,55.57,0,0,1-1.62-6.62c-.36-1.66-.78-3.3-1.17-5-.28-1.21-.53-2.43-.83-3.63a11.93,11.93,0,0,0-.64-2,18.35,18.35,0,0,1-1.2-4.18c-.42-2.06-.82-4.19-1.33-6.32-.39-1.51-1-3-1.53-4.44-.27-.77-.54-1.54-.83-2.31a2.92,2.92,0,0,1-.13-1,1,1,0,0,0-.26-.89,1.84,1.84,0,0,1-.32-.66c-1.07-3.87-2.17-7.72-3.2-11.6-.56-2.08-1-4.2-1.49-6.3a18.68,18.68,0,0,0-1-3.1,10.9,10.9,0,0,1-.85-3.32,18.58,18.58,0,0,0-1.33-5.08,32,32,0,0,1-1.36-5.28A10.44,10.44,0,0,0,28.26,8a.93.93,0,0,1,.36-1.1,4.19,4.19,0,0,1,1.88-.79L32,5.76a4.49,4.49,0,0,0,2-.9,1.15,1.15,0,0,1,1.57-.06.75.75,0,0,1,.36.55c.34,1.27.73,2.53,1,3.83.54,2.79,1,5.6,1.48,8.41.42,2.56.73,5.14,1.2,7.7.34,1.85.83,3.69,1.33,5.51a84.41,84.41,0,0,1,2,8.6c.5,3,1,6.11,1.47,9.17.47,2.8,1,5.61,1.47,8.41.15.8.39,1.6.55,2.4.13.62.24,1.24.32,1.86.37,2.88.73,5.76,1.1,8.65.27,2.08.53,4.17.8,6.25.09.7.21,1.4.28,2.1s.07,1.3.09,2v1a.92.92,0,0,0,.69.87,2.7,2.7,0,0,0,.06-.41c-.09-2.12-.14-4.24-.3-6.36s-.38-4.26-.64-6.39c-.23-1.84-.53-3.67-.82-5.5-.26-1.62-.54-3.24-.82-4.86-.25-1.45-.52-2.89-.79-4.34s-.56-3-.85-4.45-.58-2.84-.85-4.27a23.13,23.13,0,0,1-.72-5.24v-1.2a3.06,3.06,0,0,0-.39-1.48,1.19,1.19,0,0,1-.16-.48,18.75,18.75,0,0,0-1.14-4.84q-.44-1.48-.72-3c-.37-1.82-.71-3.64-1-5.46s-.57-3.43-.85-5.15-.54-3.4-.84-5.09c-.38-2.14-.8-4.28-1.19-6.42a1.82,1.82,0,0,0-.1-.45,1.91,1.91,0,0,1,.17-1.63,13,13,0,0,0,6.89-1.61,5.4,5.4,0,0,1-.31,2.64c.85.26.88.28,1,.49-.21.28-.71.25-.77.77l.88.39-1,.86a.76.76,0,0,0,.75.39,1,1,0,0,1,.34.15c-.06.12-.1.29-.2.37s-.51.27-.43.65.39.43.7.48l.15.09c.06.3-.18.38-.35.52s-.28.26-.25.33a.61.61,0,0,0,.35.3c.23.08.45.16.46.44s-.2.4-.41.49a.92.92,0,0,0-.63.55l.65.33c.49.23.51.32.2.75a5.28,5.28,0,0,0-.27.53,3,3,0,0,1,.52.11,1,1,0,0,1,.4.34.9.9,0,0,1-.25.39c-.11.11-.25.13-.33.22a.88.88,0,0,0-.26.46c0,.11.21.24.34.32s.33.1.48.18.14.17.22.26c-.29.39-.93.4-1,1.07l.68.19c.11,0,.29.11.3.18a.42.42,0,0,1-.16.33c-.15.13-.34.19-.48.31-.3.25-.26.48.1.64a.63.63,0,0,1,.27.1.48.48,0,0,1,.26.63h0a.45.45,0,0,1-.2.23L46.2,21c-.23.16-.25.31,0,.5s.43.36.68.56l-.91,1,.54.33c.35.23.37.35.13.68s-.45.48-.37.87a2.38,2.38,0,0,1,.45.23.66.66,0,0,1,.26.89,1.78,1.78,0,0,0-.2.93c0,.47-.07.93-.11,1.42l.78.22c-.13.15-.26.3-.4.44-.33.32-.36.48-.15.91a1.09,1.09,0,0,0,.08.15c.09.21.26.42.25.62s-.28.27-.41.43a2.55,2.55,0,0,0-.23.43,6.09,6.09,0,0,1,.61.17c.34.12.38.34.12.6s-.41.38-.65.6l.58.5c-.13.2-.25.36-.35.54s-.16.37-.28.63l1.11.14a6.81,6.81,0,0,1-.26.76,1.1,1.1,0,0,0,.13,1.28c.24.3.17.43-.2.57l-.27.09c-.2.09-.33.26-.23.46a.61.61,0,0,0,.39.25,1.88,1.88,0,0,0,.58,0c.24.7-.51.83-.69,1.3.15.32.49.28.85.39a3.53,3.53,0,0,1-.28.5c-.1.14-.25.24-.34.38a.3.3,0,0,0,0,.41.29.29,0,0,0,.16.07h.23c.36.09.42.3.14.55a.82.82,0,0,0-.39.89l.64.09c-.07.21-.12.38-.19.54s-.14.18-.2.28c-.18.34-.1.51.27.62l.32,0-.52.65c0,.07,0,.11.07.13.61.39.61.4.24,1l-.18.3c-.24.41-.21.47.28.6h.13c.18.46-.24.8-.31,1.25l.47.26s.06.09,0,.11a2.51,2.51,0,0,0,0,1.79,1.47,1.47,0,0,1,0,.78.55.55,0,0,0,.09.63.44.44,0,0,1,.14.59.32.32,0,0,1-.14.14,1.14,1.14,0,0,0-.16.31l.27.23a.34.34,0,0,1,.13.46h0c-.26.39-.09.74,0,1.09a3.22,3.22,0,0,0,.31.68c.17.39.15.46-.18.72l-.55.44c.09.1.13.18.18.2.49.12.6.44.58.9a4.69,4.69,0,0,0,.16.91c0,.2-.22.47-.16.69s.34.36.54.56a.77.77,0,0,1-.1.25.82.82,0,0,0-.07,1.14l.07.07a.64.64,0,0,1,0,.54,1.74,1.74,0,0,0,0,1.23,8.52,8.52,0,0,1,.23,1,1.06,1.06,0,0,1,0,.56,1.67,1.67,0,0,0,0,1.28c.07.25.16.5.23.75-.14.17-.26.31-.38.47a.81.81,0,0,0,.1.21,1,1,0,0,1,.25,1c-.08.34-.15.68.17.94a3.55,3.55,0,0,0-.21.44.54.54,0,0,0,0,.43,2.26,2.26,0,0,1,.32,1.77,24.37,24.37,0,0,0,.47,5.59A8.76,8.76,0,0,1,51,79.55a5.57,5.57,0,0,0,0,1c0,.41.23.63.69.87a1.53,1.53,0,0,0,.08-.37c0-2.27-.09-4.55-.16-6.82q-.07-2.61-.24-5.22c-.21-3.2-.44-6.41-.68-9.61-.2-2.55-.42-5.1-.63-7.66-.13-1.6-.28-3.2-.41-4.8-.18-2.13-.34-4.27-.5-6.4-.14-1.75-.28-3.51-.4-5.26-.12-1.58-.21-3.17-.31-4.75q-.27-4.32-.52-8.65c-.08-1.35-.14-2.71-.25-4.06-.13-1.7-.28-3.39-.47-5.08S46.8,9.59,46.56,8,46,4.82,45.7,3.23a3.82,3.82,0,0,0-.11-.57c-.09-.52,0-.66.45-.81a2.59,2.59,0,0,1,1.07-.14,6.18,6.18,0,0,0,3-.46A5.66,5.66,0,0,1,52.63,1c.44,0,.51.09.57.49a50.08,50.08,0,0,1,.6,5.18c.25,3.69.18,7.38.2,11.07V32.54a15.37,15.37,0,0,1-.08,1.66,20.63,20.63,0,0,0,0,4.58A11.09,11.09,0,0,1,54,39.93c0,4.68.13,9.37.08,14,0,4.91-.27,9.83-.34,14.74V81.41a1,1,0,0,0,.57-.92v-5c.11-1.62.31-3.23.43-4.85.08-1,.11-2,.12-3,.08-8.07.2-16.14.21-24.21,0-6.33-.13-12.66-.2-19-.08-7-.11-14,0-20.94V3c0-.13.09-.06.1,0a31,31,0,0,0,4.52.17,1.9,1.9,0,0,1,1.3.4c-.33.32-.9.31-1.07.85l.77.37c-.06.12-.06.2-.1.22a1.5,1.5,0,0,0-.67,1.54v.71a3,3,0,0,1-.28,2c.35.1.62.16.87.26a2.16,2.16,0,0,1,.4.27,2.79,2.79,0,0,1-.3.38c-.13.11-.3.17-.44.27a.5.5,0,0,0-.22.54c.41.24,1.12-.11,1.25.71-.29.06-.57.1-.84.18a2.07,2.07,0,0,0-.71.32c-.31.24-.22.57.17.66s.53.09.79.14a1,1,0,0,1,.38.11.24.24,0,0,1,.14.31h0a.21.21,0,0,1-.13.13,2.62,2.62,0,0,1-.53.2,5.16,5.16,0,0,0-.77.21.39.39,0,0,0-.27.48.41.41,0,0,0,.27.27c.23.13.5.18.73.31s.17.22.25.33a2.62,2.62,0,0,1-.34.24H60c-.73,0-1,.41-.81,1.13a.41.41,0,0,0,.47.32,2.42,2.42,0,0,0,.45-.1.36.36,0,0,1,.22.67h-.06c-.2.06-.4.1-.61.15s-.25,0-.33,0a.8.8,0,0,0-.31.37.61.61,0,0,0,.25.34,4.68,4.68,0,0,0,.48.18,1.25,1.25,0,0,1,.4.2.52.52,0,0,1,.11.4c0,.12-.2.22-.33.25a1.74,1.74,0,0,1-.45-.06.37.37,0,0,0-.46.23.45.45,0,0,0,.16.61l.53.34c-.26.19-.45.31-.61.45a2.62,2.62,0,0,0-.53.57c-.16.29,0,.48.3.51a3.32,3.32,0,0,0,.63,0,.79.79,0,0,1,.42.15.53.53,0,0,1,.13.4c0,.08-.17.17-.29.2a3.19,3.19,0,0,0-.62.08,1,1,0,0,0-.59,1.28h0a.41.41,0,0,0,.33.15,1.36,1.36,0,0,0,.44-.11c.21-.08.41-.17.51.13a.45.45,0,0,1-.25.58h-.1a1.49,1.49,0,0,0-.51.06c-.17.06-.47.11-.49.4a.53.53,0,0,0,.43.54,2,2,0,0,1,.47.21.27.27,0,0,1,0,.5l-.48.18a2.39,2.39,0,0,0-.37.15.38.38,0,0,0-.24.48.41.41,0,0,0,.24.24c.16.09.36.12.53.21s.24.12.24.52a1.42,1.42,0,0,0-1.45,1c.19.09.38.16.56.26a2.63,2.63,0,0,1,.56.38c.21.22.15.41-.15.52a2.66,2.66,0,0,1-.39.07,1.32,1.32,0,0,0-.44.08.74.74,0,0,0-.34.4c0,.09.18.27.31.34s.53.12.68.38-.17.31-.35.39a3.06,3.06,0,0,0-.51.26.37.37,0,0,0-.13.28c0,.08.15.15.25.19s.36,0,.48.13a.81.81,0,0,1,.25.46,1.27,1.27,0,0,1-.36.2,2.16,2.16,0,0,0-.62.09c-.2.09-.23.14-.23.21a.49.49,0,0,0,.15.34,2.76,2.76,0,0,0,.47.2c.53.23.58.65.13,1-.17.12-.36.22-.52.35a.53.53,0,0,0-.22.62,2.09,2.09,0,0,1,.5,0,.76.76,0,0,1,.47.24,1.11,1.11,0,0,1-.16.44,3.09,3.09,0,0,1-.39.33,2,2,0,0,0-.34.31.36.36,0,0,0,0,.51h0a.34.34,0,0,0,.16.1c.1.06.24.06.32.13a2.16,2.16,0,0,1,.27.33,1.59,1.59,0,0,1-.33.25c-.57.17-.6.27-.25.77l.06.14-.65,1c.22.08.36.11.49.17s.25.15.26.23a.4.4,0,0,1-.17.33,3.8,3.8,0,0,1-.47.18c-.09,0-.2.15-.21.24s.08.19.16.26.33.22.53.36l-.82.8c.24.16.41.26.57.38s.23.29,0,.45c-.57.43-.58.48-.15,1.07l.18.24c-.27.36-.81.41-.93.91l.57.38c-.11.19-.21.36-.3.54a.36.36,0,0,0,.1.49H57a.47.47,0,0,1,.27.61h0a.45.45,0,0,1-.21.24,2.59,2.59,0,0,0-.47.32c-.18.19-.13.37.1.5.52.28.54.36.25.85-.16.26-.31.51-.48.81l.62.26c.13.56-.74.65-.55,1.25l.5.17v.13a3.22,3.22,0,0,0-.37,1.85v1.2a4.37,4.37,0,0,1-.19,1.07c-.11.3-.2.52.12.74a.39.39,0,0,1,.13.35,1.8,1.8,0,0,1-.13.61,1.57,1.57,0,0,0-.2,1.48c.14.31-.17.47-.37.72l.61.81-.72.63V63c.52.42.53.45.19,1l-.27.48.34.22c.32.25.3.51,0,.72a.54.54,0,0,0-.2.1.37.37,0,0,0,.08.67l.3.1a3,3,0,0,0-.11.32A8.41,8.41,0,0,0,56,67.76a6.17,6.17,0,0,0,0,.86,4.56,4.56,0,0,1-.18,1.76.77.77,0,0,0,.18.89.63.63,0,0,1,.16.64c-.07.32-.16.63-.21,1a17.84,17.84,0,0,0-.13,4.38c.07,1,.13,1.91.2,2.86a4.13,4.13,0,0,0,.07.49h.13c.14-.45.31-.91.41-1.37a24.3,24.3,0,0,0,.6-5.64c-.07-3.6.23-7.18.45-10.77.21-3.26.53-6.51.46-9.79a38.14,38.14,0,0,1,.21-4c.25-2.8.55-5.6.85-8.39s.61-5.55.91-8.32c.43-4.07.89-8.07,1.32-12.07.52-5.54.91-11.09,1-16.66,0-.84,0-.85.85-1a9.28,9.28,0,0,1,5.09.27A14.68,14.68,0,0,1,70,3.57,5,5,0,0,1,70.7,4c-.14.87-.28,1.72-.42,2.57l-1,6.27c-.26,1.6-.55,3.2-.8,4.81s-.45,3.1-.68,4.65c-.27,1.85-.54,3.71-.82,5.56-.2,1.36-.39,2.72-.63,4.08s-.55,2.69-.82,4-.56,2.58-.79,3.87a9,9,0,0,0-.2,1.46,16.49,16.49,0,0,1-.84,4.77,36.17,36.17,0,0,0-.79,3.69c-.29,1.62-.55,3.24-.82,4.86q-.54,3.22-1,6.45c-.29,1.91-.56,3.82-.83,5.73-.24,1.73-.44,3.45-.64,5.18s-.43,3.65-.63,5.47c-.25,2.36-.31,4.73-.37,7.1a2,2,0,0,0,.06.35.86.86,0,0,0,.58-.69A3.45,3.45,0,0,0,59.39,83a13.11,13.11,0,0,1,.15-3.37q.51-3.66,1-7.32c.25-1.64.55-3.28.8-4.92s.44-3.14.67-4.71c.27-1.91.54-3.82.83-5.73s.56-3.71.85-5.55c.22-1.44.47-2.87.7-4.31a.78.78,0,0,1,.43-.62c.13-.07.25-.17.41-.28a1.89,1.89,0,0,1-.33-1.51,24.73,24.73,0,0,1,.9-5.13,58.69,58.69,0,0,0,1.4-7.08q.4-3.59.93-7.16a19.86,19.86,0,0,1,1.36-4.89.71.71,0,0,0-.1-.88.74.74,0,0,1-.16-.75c.09-.37.21-.74.28-1.11.25-1.3.5-2.59.7-3.89a59.62,59.62,0,0,1,.93-5.94c.2-.76.5-1.48.76-2.22a3.23,3.23,0,0,1,.22-.41,6.59,6.59,0,0,0,.85.51c.79.28,1.59.53,2.4.74s1.57.34,2.35.52a3,3,0,0,1,.49.2c-.32.43-1,.22-1.17.89l.46.06h.4c.21.06.4.16.41.42s-.21.34-.42.38h-1c-.31.08-.38.3-.17.56.08.1.21.17.28.28a2.58,2.58,0,0,1,.22.44l-.56.1a.58.58,0,0,0-.56.42c-.06.26.09.42.28.58l.4.4a8.45,8.45,0,0,0-1,.21c-.15.06-.23.27-.34.41.13.09.26.19.4.27l.22.07c.19.08.22.24.2.43a.32.32,0,0,1-.34.3h-.64a.42.42,0,0,0-.5.32v.1c.3.33.86.37,1,.91-.09.32-.42.33-.67.45s-.57.23-.55.61a2,2,0,0,1,.59.4c.09.14,0,.39,0,.66-.25-.09-.43-.14-.6-.21a.29.29,0,0,0-.4.1h0a.4.4,0,0,0,0,.52l.34.22a.37.37,0,0,1,.18.49h-.58a1.15,1.15,0,0,0-.48.13.34.34,0,0,0-.19.44.3.3,0,0,0,.19.19c.13.07.29.1.42.18a.34.34,0,0,1,.09.46.2.2,0,0,1-.09.09.88.88,0,0,0-.53,1.13h0v.09l-.66.23c-.18.07-.39.17-.33.39s.21.25.35.33.42.19.76.34c-.23.1-.32.16-.41.19a2.18,2.18,0,0,0-.44.11c-.36.19-.36.47,0,.71a1.68,1.68,0,0,1,.34.2,3.18,3.18,0,0,1,.23.4l-.73.12a2.61,2.61,0,0,0-.68.11.42.42,0,0,0-.32.5v.09a1.62,1.62,0,0,1,.44,0,2.39,2.39,0,0,1,.58.22.34.34,0,0,1,.22.43h0c0,.1-.23.16-.37.2a3.43,3.43,0,0,0-.56.08c-.37.09-.44.37-.17.63.1.09.23.14.33.23a.31.31,0,0,1,.1.43h0a.47.47,0,0,1-.1.1c-.64.52-.64.52-.39,1.26-.19.27-.76.14-.72.7l.33.14c.33.16.37.37.08.6a2.94,2.94,0,0,1-.55.3c-.17.11-.42.29-.28.62l.69.19c-.22.18-.34.3-.49.4a2.21,2.21,0,0,0-.34.18.38.38,0,0,0-.1.53h0a.36.36,0,0,0,.21.15c.13.06.27.1.4.15,0,.41-.22.47-.52.49s-.58-.08-.77.23c.16.48.77.43,1,.85-.21.76-.21.76-.82.76-.21,0-.44,0-.51.24a.46.46,0,0,0,.24.58l.15.1a1,1,0,0,1,.22.35c0,.06-.18.16-.29.22s-.22.07-.32.12c-.48.26-.5.51-.08.84.14.13.27.27.4.41a3.88,3.88,0,0,1-.45.14h-.4c-.37,0-.56.21-.55.47s.21.41.49.46c.11,0,.3.11.3.17a.59.59,0,0,1-.15.4,2,2,0,0,1-.38.26l-.59.38c.22.19.36.33.51.45a.47.47,0,0,1,.22.54c-.07.26-.26.31-.49.32h-.45a.39.39,0,0,0-.37.37h0a.36.36,0,0,0,.12.27,2.45,2.45,0,0,0,.41.31c.39.28.37.5,0,.7l-.43.16c-.15.06-.3.15-.46.23.14.43.83.55.51,1.17H67c-.19,0-.44,0-.46.22s.16.31.27.45.2.11.29.17c.29.21.28.44,0,.64-.11.08-.24.11-.35.18a5.72,5.72,0,0,0-.49.37,1.93,1.93,0,0,0,.36.28.39.39,0,0,1,.29.43c0,.21-.16.29-.35.32a.79.79,0,0,0-.22.06c-.29.14-.35.34-.16.6s.31.42,0,.73a.45.45,0,0,0-.09.62.77.77,0,0,1-.13,1c-.32.35-.29.36-.08.78a.61.61,0,0,1,0,.42c-.13.32-.31.61-.45.92a1.88,1.88,0,0,0-.19,1.6.6.6,0,0,1-.09.41,6,6,0,0,1-.36.52,1.66,1.66,0,0,0-.14,1.8,4.07,4.07,0,0,0-.8,2.8,16.94,16.94,0,0,1-.63,4,55,55,0,0,0-1.42,6.84c-.19,1.33-.44,2.65-.57,4-.15,1.55-.21,3.12-.3,4.69a6.4,6.4,0,0,0,.08.87h.13a1.22,1.22,0,0,0,.14-.33c.45-2.52.86-5,1.35-7.56.41-2.13.9-4.26,1.36-6.39.53-2.5,1.07-5,1.58-7.51s1-5.32,1.59-8c.37-1.76.73-3.52,1.2-5.25A32.06,32.06,0,0,1,69.61,41a33.48,33.48,0,0,0,1.63-5.18c.4-1.75.83-3.49,1.23-5.25.23-1,.41-2,.63-3.08a1.08,1.08,0,0,1,.22-.44A2,2,0,0,0,73.86,26c.28-1.28.49-2.59.85-3.86q.93-3.3,2-6.56C77.56,13,78.48,10.5,79.38,8a2.07,2.07,0,0,1,.67-1,.38.38,0,0,1,.47,0,29.51,29.51,0,0,0,4,1.84,6.19,6.19,0,0,1,2.13,1.48.84.84,0,0,1,.16.93c-.88,2.35-1.89,4.65-3,6.9a57.52,57.52,0,0,0-2.57,6.31c-.18.56-.32,1.14-.49,1.71a.92.92,0,0,1-.24.43,2.29,2.29,0,0,0-.68,1,71.44,71.44,0,0,0-3.09,8.27,142.28,142.28,0,0,1-5.3,13.66c-.39.87-.8,1.74-1.14,2.63a16.61,16.61,0,0,0-.59,2.09c-.56,2.32-1.24,4.61-2,6.88-1.16,3.59-2.26,7.19-3.24,10.78q-.41,1.5-.78,3a3.47,3.47,0,0,0-.09.91,10.3,10.3,0,0,1-.9,3.94c-.34.87-.65,1.75-.91,2.65a3.77,3.77,0,0,0,0,2,2.6,2.6,0,0,0,.3-.36,14.52,14.52,0,0,0,1.09-3.13c.38-1.5.72-3,1.09-4.51A8.31,8.31,0,0,1,64.74,75,20,20,0,0,0,66,71.35c.39-1.51.84-3,1.31-4.51a48.67,48.67,0,0,0,1.57-5.55,31.15,31.15,0,0,1,1.56-5Q72.5,50.7,74.53,45.1c.26-.7.46-1.42.65-2.14a27.07,27.07,0,0,1,1.26-3.28c1.18-2.82,2.31-5.66,3.49-8.48C81,28.64,81.78,26,82.72,23.38a39.45,39.45,0,0,1,1.72-3.88,47.17,47.17,0,0,0,2.17-5,4.7,4.7,0,0,1,.6-1.1,4,4,0,0,1,.67-.57c1.87,1.85,3.69,3.64,5.51,5.42h0a2.66,2.66,0,0,1-.39-.07c-.13,0-.25-.1-.38-.13a.53.53,0,0,0-.25,0,.34.34,0,0,0,0,.31,3.73,3.73,0,0,0,.36.43c.13.15.29.33.13.5s-.31.06-.46,0a3.26,3.26,0,0,1-.63-.18c-.44.63.29.85.4,1.32h-.41a2.66,2.66,0,0,1-.55-.16.35.35,0,0,0-.45.2.38.38,0,0,0,.17.5c.16.1.34.17.5.27a2.76,2.76,0,0,1,.39.28.57.57,0,0,1-.76.22l-.64-.23a.39.39,0,0,0-.53.16h0a.8.8,0,0,0,.17.44c.1.12.34.26.46.42a.54.54,0,0,1,.13.46c-.06.19-.28.23-.48.16l-.6-.21c-.24-.08-.46-.11-.58.18s0,.42.27.55a1.58,1.58,0,0,1,.39.24.34.34,0,0,1,.13.46h0c-.13.21-.32.16-.49,0a3.08,3.08,0,0,0-.48-.32c-.17-.1-.55-.08-.53.26a1.64,1.64,0,0,0,.27.67c.14.2.36.35.49.55a.58.58,0,0,1,.09.48c0,.1-.29.15-.44.16h-.86a.54.54,0,0,0-.37.27.75.75,0,0,0,.2.37c.1.1.3.17.43.28a.23.23,0,0,1,.07.25.24.24,0,0,1-.21.14,2.44,2.44,0,0,1-.66-.15c-.42-.13-.63-.12-.73.08s0,.37.41.59l.24.15a.34.34,0,0,1,.11.47h0a.39.39,0,0,1-.17.14,1.92,1.92,0,0,1-.48.15,2.13,2.13,0,0,0-.43.13.25.25,0,0,0-.17.31h0a.26.26,0,0,0,.11.14,1,1,0,0,0,.24.15.36.36,0,0,1,.26.44h0a.41.41,0,0,1-.37.38c-.23,0-.46.05-.68.09-.46.07-.53.26-.26.64.09.12.14.25.27.47H85a.7.7,0,0,0-.49.2.39.39,0,0,0,.13.54h0a.41.41,0,0,1,.16.16c.19.25.09.48-.23.5s-.42,0-.63,0a.51.51,0,0,0-.35.22.72.72,0,0,0,.18.36,1.8,1.8,0,0,0,.43.29l-.65.22a2.25,2.25,0,0,0-.44.14c-.26.15-.26.34,0,.53a.33.33,0,0,1,.24.14c0,.07.19.26.17.38a.34.34,0,0,1-.41.19,4.05,4.05,0,0,0-.5-.12,1,1,0,0,0-.39.11l.28.39a.57.57,0,0,1,0,.81h0l-.1.14a1.8,1.8,0,0,0-.56,1.47h-.45a.43.43,0,0,0-.43.43h0v.13l.12.71c-.39.11-.71.21-1,.32l-.13.23a2.36,2.36,0,0,1,.36.26c.1.1.23.22.24.34s-.18.27-.35.31h-.28c-.15.07-.38.15-.39.26a.76.76,0,0,0,.19.48,2,2,0,0,0,.4.36l-.34.57-.8-.25c-.23.26-.23.49,0,.7s.35.31.16.63h-.75c-.2,0-.43-.07-.5.15s.09.3.15.45.06,0,.08.08l.12.24a1.89,1.89,0,0,0,.11.25l-.5.2-.51.19.51.87a1.61,1.61,0,0,0-.38-.08,1,1,0,0,0-.43,0c-.35.13-.39.38-.15.67.39.46.32.72-.25.9-.36.11-.75.13-1,.47.15.45.86.48.75,1.12l-.44.06c-.42.06-.55.26-.42.67,0,.12.1.24.18.44l-.49-.07c-.11,0-.24-.09-.33-.06a.54.54,0,0,0-.33.26.62.62,0,0,0,.16.36c.09.09.25.09.37.15a.41.41,0,0,1,.25.46c-.07.23-.27.22-.47.18a1.24,1.24,0,0,0-.38-.09.36.36,0,0,0-.28.65,2.44,2.44,0,0,0,.43.28c.35.25.33.56-.08.72a2.52,2.52,0,0,1-.61.11c-.31,0-.31,0-.61.44l.62.37-.23.63-.79.08c-.15.37.22.53.27.84-.52.17-.66.58-.72,1.09,0,.23-.23.44-.4.74l.3.65-.25.16c-.4.27-.47.43-.28.86a.72.72,0,0,1,0,.75,34.24,34.24,0,0,0-3.47,7.31c-.93,2.65-1.84,5.31-2.68,8a43.33,43.33,0,0,0-1,4.23c-.22,1-.35,2-.51,3.06a4.69,4.69,0,0,0,0,.53l.19.1a5,5,0,0,0,.44-.48,3.64,3.64,0,0,0,.56-1.52,18.11,18.11,0,0,1,.6-2.91c1-2.93,2.13-5.81,3.16-8.73,1.3-3.7,2.86-7.28,4.41-10.88.35-.82.58-1.7.88-2.54a2.93,2.93,0,0,1,.25-.64A65.74,65.74,0,0,0,78,49.1c.81-1.69,1.66-3.35,2.54-5a12.45,12.45,0,0,1,1.1-1.68,2.85,2.85,0,0,0,.54-1.71,2.32,2.32,0,0,1,.34-1.2c2.78-4.78,5.52-9.57,8.32-14.33,1-1.63,2.07-3.17,3.12-4.74a7.32,7.32,0,0,0,1-1.68c.15-.43.18-.42.64-.68,1.54,1.25,3.16,2.44,4,4.33a7.76,7.76,0,0,1,.62,2.37.81.81,0,0,1-.16.47c-.25.34-.52.66-.79,1A155.92,155.92,0,0,0,87.81,42.44c-2.56,4.08-5.13,8.16-7.67,12.25-.35.56-.6,1.19-.93,1.77-.53.93-1.08,1.85-1.62,2.77a3,3,0,0,0-.3.56,56.46,56.46,0,0,1-3.39,6.5c-1.29,2.26-2.6,4.51-3.68,6.87-.29.65-.55,1.3-.81,2a1.08,1.08,0,0,0-.09.5,2.65,2.65,0,0,1-.54,1.78,28.6,28.6,0,0,0-2.9,6.34c-.15.39-.32.78-.46,1.17a2.9,2.9,0,0,0-.23.76,3.3,3.3,0,0,0,.08.77c.18-.2.28-.28.36-.38A15,15,0,0,0,67.44,83a2.45,2.45,0,0,0,.24-1,3.26,3.26,0,0,1,.54-1.71c.34-.55.7-1.09,1.06-1.64a5.29,5.29,0,0,0,1-3,1.7,1.7,0,0,1,.24-.76c1.54-3.22,3.31-6.32,5.09-9.43.67-1.17,1.33-2.36,2-3.53a2.48,2.48,0,0,0,.4-1.18,1.13,1.13,0,0,1,.2-.59c2.33-3.34,4.23-6.87,6.38-10.32.52-.83,1.13-1.59,1.71-2.37a1.16,1.16,0,0,0,.28-.84,1.27,1.27,0,0,1,.29-.9c1.24-1.77,2.49-3.54,3.69-5.33.52-.78.93-1.62,1.4-2.43a3.83,3.83,0,0,1,.54-.73,10.8,10.8,0,0,0,2-2.79c.09-.17.18-.33.26-.51a9.85,9.85,0,0,1,1.87-2.57,30.74,30.74,0,0,0,2.32-3c.36-.46.69-1,1-1.43a1.74,1.74,0,0,1,1.14,1.1,5.17,5.17,0,0,1,.33,1.1,1.79,1.79,0,0,0,.45.9,10.13,10.13,0,0,1,2,3.09c.11.3.1.48-.2.66a5.54,5.54,0,0,0-.71.57c-.34.26-.35.29-.12.64,0,.08.11.15.2.27l-.56.28c-.2-.21-.37-.44-.58-.63s-.29-.12-.35-.07a.55.55,0,0,0-.16.38,1.28,1.28,0,0,0,.17.42,1.76,1.76,0,0,1,.17.37c0,.13,0,.34-.08.41s-.28,0-.42,0-.22-.16-.34-.2-.44-.12-.66-.16v.59c0,.16.1.21.13.32.11.39,0,.53-.41.52h-.46c-.13,0-.26.11-.45.18l.38.69c-.2.33-.33.39-.73.32a4.15,4.15,0,0,0-.61-.14.83.83,0,0,0-.5.18c-.16.17,0,.36.09.51l.34.47c-.53.29-1.17-.1-1.59.47a3.32,3.32,0,0,1,.37.47c.07.12.14.31.09.41s-.24.16-.38.18-.42,0-.62,0a.32.32,0,0,0-.32.32.38.38,0,0,0,0,.15c.3.68.29.69-.47.69a4.26,4.26,0,0,0-.5.06,3.78,3.78,0,0,0,.07.89l-.5.24c-.35.17-.44.29-.36.66a.39.39,0,0,1-.22.49,2,2,0,0,0-1.19,1.15,1.21,1.21,0,0,1-.47.4.92.92,0,0,0-.52.83.67.67,0,0,1-.32.58,7.85,7.85,0,0,1-.92.57c-.63.34-.67.41-.52,1.13v.16H88.52c.3.61,0,.87-.5,1.09a5.09,5.09,0,0,0-.5.3l.33.59a1,1,0,0,0-.93.77c0,.11-.26.19-.41.22-.56.09-.62.16-.45.7s.13.48-.24.77l-.3.23c-.39.22-.69.49-.54,1h-.37a.5.5,0,0,0-.55.42h0a3.07,3.07,0,0,1-1.17,1.79c-.47.37-.89.72-.72,1.37a2.61,2.61,0,0,0-.78.48c-.15.18-.13.51-.2.86A2.69,2.69,0,0,0,80,61.69a4,4,0,0,1-1.38,2,1.16,1.16,0,0,0-.4,1c-.66,0-.89.56-1.17,1-1.39,2.39-2.8,4.78-4.2,7.17a32.07,32.07,0,0,0-3.13,7c-.2.68-.35,1.37-.5,2.06a2,2,0,0,1-.42.86,3.59,3.59,0,0,0-.85,2.32,1.13,1.13,0,0,0,0,.26.32.32,0,0,0,.43-.1.76.76,0,0,0,.11-.32,5.24,5.24,0,0,1,.69-2q2.22-4.71,4.42-9.5a4.89,4.89,0,0,1,.26-.51c1.3-1.91,2.58-3.84,3.92-5.72.48-.69,1.1-1.27,1.64-1.91a2.91,2.91,0,0,0,.53-.72,17.57,17.57,0,0,1,3.25-5c.59-.68,1.21-1.34,1.77-2,1-1.24,1.94-2.51,2.91-3.76.52-.67,1-1.32,1.59-2A7.7,7.7,0,0,0,91,49.5a1,1,0,0,1,.28-.35c2.28-2.2,4.32-4.61,6.45-6.93A68.5,68.5,0,0,1,103,36.77a20.28,20.28,0,0,1,1.67-1.4,1.22,1.22,0,0,0,.48-.75.7.7,0,0,1,.33-.42c.2-.11.34.09.46.24a9.13,9.13,0,0,1,1.92,4.23,6.14,6.14,0,0,1,0,2.56,2.75,2.75,0,0,1-2,2.23,1,1,0,0,0-.68.55,2.45,2.45,0,0,1-.63.73c-.38.32-.8.58-1.2.87a2.81,2.81,0,0,0-.65.48,5,5,0,0,1-2.34,1.43.75.75,0,0,0-.32.23,54.44,54.44,0,0,1-5.31,4.64,21,21,0,0,0-3,2.88,14.72,14.72,0,0,0-1,1.35,5.29,5.29,0,0,1-1,1.21,80.87,80.87,0,0,0-6,6c-1.48,1.65-3,3.27-4.55,4.88a9.65,9.65,0,0,0-.62.81,18.11,18.11,0,0,1-1.2,1.67,25.81,25.81,0,0,0-3.56,5q-1.6,2.91-3.12,5.87a12.13,12.13,0,0,0-1.16,3.25,1.66,1.66,0,0,1-.06.54h.11a3.18,3.18,0,0,0,.23-.4,61.06,61.06,0,0,1,6-10.28C77.34,73,79,71,80.69,69c3.17-3.69,6.64-7.09,10.12-10.48a6.88,6.88,0,0,0,.7-.82A17.19,17.19,0,0,1,94,54.91l4.67-4.24c.11-.11.23-.21.33-.32a10.32,10.32,0,0,1,2.7-2.17,26.15,26.15,0,0,0,2.58-2,18.37,18.37,0,0,1,1.89-1.39,6.13,6.13,0,0,1,1-.48,2,2,0,0,1,0,.35,8.6,8.6,0,0,0,.23,2.9c.12.62.18,1.25.28,1.87a.5.5,0,0,1-.24.53,2.47,2.47,0,0,1-1.75.4l-.67-.07-.1.71c-.51.22-.94-.46-1.45,0l.14.61-1.06.07-.29.62a1.48,1.48,0,0,1-1.86.89c-.35-.08-.45,0-.5.33a1.13,1.13,0,0,0,0,.26c-.45.23-.86.42-1.25.64s-.29.17-1,.16a2.78,2.78,0,0,0,.16.4c.07.12.19.19.26.3a1.55,1.55,0,0,1,.13.36,1.12,1.12,0,0,1-.4.1c-.21,0-.41-.09-.62-.11-.52,0-.64.16-.43.64a1,1,0,0,1,0,.24H95.2a2.22,2.22,0,0,0,.2.41c.4.44.4.44,0,1l-.62-.2c-.43-.12-.57,0-.45.46a2.7,2.7,0,0,0,.08.41,1.37,1.37,0,0,0-1,.68c-.27.39-.68.36-1.15.35l-.36.9-.67-.06a3.11,3.11,0,0,0-.44-.07c-.22,0-.3.18-.19.37s.16.17.22.26.2.31.17.44-.29.19-.48.2h-.67c-.1.3-.19.59-.28.88s-.27.58-.69.52a.49.49,0,0,0-.6.35h0a2.3,2.3,0,0,1-1.18,1.29,8.62,8.62,0,0,0-1.7,1.49c-2.12,2.6-4.63,4.83-7,7.23a16.6,16.6,0,0,0-3,3.92c-.45.84-.9,1.68-1.41,2.49a10.43,10.43,0,0,1-1.17,1.48,2.23,2.23,0,0,0-.61,2,.84.84,0,0,1-.44,1,1.07,1.07,0,0,0-.68,1,1.42,1.42,0,0,1-.28.61L69.48,88c-.23.08-.6.12-.79.33s-.12.55-.18.93c-.3.24-.69-.24-1.09,0a.63.63,0,0,0,.1.62.58.58,0,0,1,.12.4c-.06.21-.28.21-.48.19a1.34,1.34,0,0,0-.4,0c-.28,0-.36.2-.22.44s.2.23.27.36a.25.25,0,0,1-.1.34h-.14c-.24,0-.39-.14-.6-.17a.85.85,0,0,0-.35.08,1.71,1.71,0,0,0,.09.3,3,3,0,0,0,.31.39l-.45.09a.38.38,0,0,0-.45.28c-.06.28.1.38.29.49a1.66,1.66,0,0,1,.3.22c-.2.21-.3,0-.42,0A3,3,0,0,0,64.8,93a.33.33,0,0,0-.3.09.55.55,0,0,0,0,.36,3.17,3.17,0,0,0,.3.34c.11.14.21.29.3.42-.2.28-.38.19-.56.12s-.3-.23-.46-.06,0,.32,0,.47v.15h-.54a1.54,1.54,0,0,0-.94.38c-.39.33-.34.55.13.76.11,0,.26.21.24.25a.7.7,0,0,1-.29.3h-.29l-.34-.08h-.31c-.13,0,0,.22,0,.31a.72.72,0,0,0,.06.29H60.07c-.1.38.16.51.3.7s.3.4.06.66c-.4-.21-.49-.84-1.16-.73l.63,1.16a.84.84,0,0,1-.92-.11c-.42-.26-.84-.54-1.24-.83a3.43,3.43,0,0,0-2.83-.52,4.22,4.22,0,0,0-2.27,1.26,1,1,0,0,1-.76.31,3.32,3.32,0,0,1-3.12-1.72c-.36-.58-.63-1.22-1-1.83a2.85,2.85,0,0,0-.38-.63,25,25,0,0,1-2.77-4,2.3,2.3,0,0,0-1-1,21.61,21.61,0,0,1-4.29-2.94,33.88,33.88,0,0,1-2.59-2.35,33.34,33.34,0,0,0-3.54-2.84c-1.23-.93-2.46-1.88-3.71-2.79a13.13,13.13,0,0,0-3.22-1.72,5.9,5.9,0,0,0-1.72-.34A4.26,4.26,0,0,0,26,78.07c.71.42,1.42.82,2.16,1.18a18.9,18.9,0,0,1,4.62,3.37c1,.93,2,1.9,3,2.79.74.63,1.57,1.15,2.35,1.73a4.21,4.21,0,0,1,.81.71,23.3,23.3,0,0,0,3.2,3c.71.6,1.4,1.24,2.07,1.9a7.41,7.41,0,0,1,1.64,2.66,1.42,1.42,0,0,0,.36.57,7.49,7.49,0,0,1,1.63,2,4.29,4.29,0,0,0,.42.68,3.18,3.18,0,0,0,.58.52c.32.24.68.43,1,.68a2.24,2.24,0,0,0,2.72.2,7.84,7.84,0,0,0,1.38-.91A2.71,2.71,0,0,1,57.44,99c.5.34,1,.7,1.53,1a3.35,3.35,0,0,0,1.69.43,1.3,1.3,0,0,0,1.06-.46,1.89,1.89,0,0,1,1.4-.7c.16,0,.33-.18.45-.32A22,22,0,0,0,66,95.61c.94-1.55,1.85-3.13,2.8-4.67a17.86,17.86,0,0,1,3.3-4,1.24,1.24,0,0,1,.22-.18,4.1,4.1,0,0,0,1.39-1.56,5.1,5.1,0,0,1,1.92-1.77c.74-.47,1.5-.91,2.25-1.36a6.56,6.56,0,0,0,1.68-1.38,1.53,1.53,0,0,1,.92-.52A8.22,8.22,0,0,0,83.16,79c.87-.56,1.73-1.13,2.6-1.68a3.13,3.13,0,0,1,.65-.35A3.57,3.57,0,0,0,88,75.81a41.73,41.73,0,0,1,4.92-4.38c2.4-1.93,4.83-3.82,7.25-5.72a1.44,1.44,0,0,1,.54-.3,3.68,3.68,0,0,0,2.11-1.4,1.33,1.33,0,0,1,.78-.51,2.67,2.67,0,0,0,1.47-.84,2.43,2.43,0,0,0,.2-.35h-.37a21,21,0,0,0-6,3.19c-1.75,1.23-3.52,2.44-5.28,3.66a2.83,2.83,0,0,0-.28.2c-.44.45-.87.9-1.3,1.36a1.15,1.15,0,0,0-.37.5A1.3,1.3,0,0,1,91,72a48.31,48.31,0,0,0-4.56,3.37,34.7,34.7,0,0,1-5,3.32,5.06,5.06,0,0,1-2,.61h-.84a2.07,2.07,0,0,1,1.19-.86c.4-.2.83-.36,1.25-.55a1.22,1.22,0,0,0,0-.27.48.48,0,0,1,.16-.66h0c.66-.5,1.31-1,1.94-1.52l9.58-7.78a71.45,71.45,0,0,1,10.38-7.12c1.39-.77,2.82-1.45,4.24-2.16a1.71,1.71,0,0,1,.3-.09,1.36,1.36,0,0,1,.06.29A15.15,15.15,0,0,1,106.57,62.85Zm-30.95,19h0A2.61,2.61,0,0,1,78.07,80c-.9.53-1.44,1.48-2.45,1.89Zm33.06-25.92c-.52.44-1,.89-1.59,1.3a.86.86,0,0,1-.58.16,2,2,0,0,0-1.27.41c-1.84,1.16-3.71,2.28-5.56,3.43-1.68,1-3.39,2.07-5,3.18-1,.71-2,1.57-3,2.35-2,1.62-4.07,3.23-6.09,4.86-1,.78-1.89,1.61-2.84,2.41s-2.15,1.84-3.24,2.74a11.6,11.6,0,0,1-1.26.79l-.49-.33a1.56,1.56,0,0,0-.69,1.1,3.08,3.08,0,0,1-1.35,2.11l-.81.63a3.25,3.25,0,0,0-.39.35c-.42.47-.41.58,0,1a1.81,1.81,0,0,1-2,1.22,1.12,1.12,0,0,1,.09-.36,11.7,11.7,0,0,1,1-1.42,5.87,5.87,0,0,0,1.06-1.63,12.3,12.3,0,0,1,1.85-2.88,50.15,50.15,0,0,1,4.75-5.44c2.17-2.12,4.17-4.3,6.47-6.19,1.3-1.07,2.56-2.19,3.82-3.3.7-.61,1.37-1.28,2.07-1.89a11.56,11.56,0,0,1,1.06-.78c.39-.25.9-.37,1-.92a3.5,3.5,0,0,1,2.13-1.38.62.62,0,0,0,.39-.22,36.13,36.13,0,0,1,7.9-5.65,7.21,7.21,0,0,1,2-1,3.63,3.63,0,0,1,.45-.1.35.35,0,0,1,.44.23h0v.09a15.38,15.38,0,0,1,.45,3.57,2.19,2.19,0,0,1-.77,1.6Z" transform="translate(0 0)"></path><path d="M59.59,112a7.12,7.12,0,0,0-1.89-.73,8.57,8.57,0,0,0-1.88-.24,11.09,11.09,0,0,0-2.37.25h-.06a2.21,2.21,0,0,0-.84.21,3.4,3.4,0,0,1-.89.27l-.13.08a.79.79,0,0,0,.45.43,1.17,1.17,0,0,0,.61.11c-.22,2.38-.38,4.76-.38,7.13v7.12l-.1.1a.14.14,0,0,0,0,.09V127a2.22,2.22,0,0,0,.84.68,2.59,2.59,0,0,0,1.06.26h.31l.21-.27a10.48,10.48,0,0,0,.12-1.94v-6a5.23,5.23,0,0,0,1.42.19,6.1,6.1,0,0,0,1.94-.35,6.5,6.5,0,0,0,1.85-1A5.85,5.85,0,0,0,61.22,117a3.7,3.7,0,0,0,.53-1.92h0a3,3,0,0,0-.7-1.82A4.56,4.56,0,0,0,59.59,112Zm-1.74,5.34a6.66,6.66,0,0,1-1.52,1,3.83,3.83,0,0,1-1.59.38h-.1v-5.52a3.69,3.69,0,0,0,0-.47,1.11,1.11,0,0,0-.19-.43h2.72a2.69,2.69,0,0,1,1.65.44,2,2,0,0,1,.57,1.64h.12A3.26,3.26,0,0,1,59,116,5.73,5.73,0,0,1,57.85,117.35Z" transform="translate(0 0)"></path><path d="M92.21,118.29a17.17,17.17,0,0,0-.2-1.74,10.9,10.9,0,0,0-.43-1.68,5.77,5.77,0,0,0-.75-1.46,4.08,4.08,0,0,0-1.16-1.07,3.78,3.78,0,0,0-1.63-.53.49.49,0,0,0-.24,0h-.24a.26.26,0,0,0-.12.15.39.39,0,0,1-.08.14,2,2,0,0,0-.79.25c-.24.14-.47.29-.7.44a5.42,5.42,0,0,0-1.48,1.5,10.94,10.94,0,0,0-1.06,2,11.81,11.81,0,0,0-.66,2.17,11.23,11.23,0,0,0-.22,2,7,7,0,0,0,.49,2.6,6.91,6.91,0,0,0,1.36,2.13,6.35,6.35,0,0,0,4.64,2,2,2,0,0,0,1.26-.41,3.82,3.82,0,0,0,.88-1,5.74,5.74,0,0,0,.59-1.45c.14-.54.25-1.08.34-1.63a11.81,11.81,0,0,0,.17-1.56V120A16.07,16.07,0,0,1,92.21,118.29Zm-2.35,1.62a11,11,0,0,1-.13,1.51,14.71,14.71,0,0,1-.3,1.61,6.89,6.89,0,0,1-.5,1.47,3.18,3.18,0,0,1-.78,1.07A1.62,1.62,0,0,1,87,126a.51.51,0,0,1-.29-.13l-.24-.18a3.47,3.47,0,0,1-.84-.91,4.8,4.8,0,0,1-.55-1.14,7.73,7.73,0,0,1-.31-1.26,8.41,8.41,0,0,1,.1-3,11.23,11.23,0,0,1,.52-1.8,10.45,10.45,0,0,1,.8-1.69,8.68,8.68,0,0,1,1.06-1.43,6.06,6.06,0,0,1,.75-.68,4.44,4.44,0,0,0,.69-.68,3.52,3.52,0,0,1,.54,1.16,14.25,14.25,0,0,1,.36,1.57c.1.56.15,1.1.22,1.63a9.73,9.73,0,0,1,.07,1.32l-.06.08C89.86,119.13,89.88,119.4,89.86,119.91Z" transform="translate(0 0)"></path><path d="M29.39,113.13h0l.06.06S29.39,113.14,29.39,113.13Z" transform="translate(0 0)"></path><path d="M40.21,125.2c-.27-.74-.51-1.48-.7-2.21a22,22,0,0,1-.41-2.27c-.12-.9-.23-1.81-.36-2.74s-.27-1.82-.43-2.65a8.63,8.63,0,0,0-.57-2,.67.67,0,0,1,0-.2V113a.76.76,0,0,0,0-.3.66.66,0,0,1,0-.28,1.8,1.8,0,0,0-.71-.66,2.05,2.05,0,0,0-1-.24h-.2l-.2.12-.06.12c-.25,1-.49,2.07-.71,3.12s-.46,2.1-.71,3.15-.56,2.12-.82,3.12a26.38,26.38,0,0,1-1,3l-.2.43c-.1.2-.2.4-.31.6l-.29.56a1.22,1.22,0,0,0-.14.33v.23a1.39,1.39,0,0,0,.27.21,2.13,2.13,0,0,0,.42.23,3.53,3.53,0,0,0,.46.15A1.85,1.85,0,0,0,33,127h.19c.2.06.39,0,.59-.32a7.46,7.46,0,0,0,.55-1,10.73,10.73,0,0,0,.45-1.11q.18-.54.27-.78a4.94,4.94,0,0,1,.93-.12h1.46a2,2,0,0,1,.49,0c.13.34.28.75.43,1.21a7.89,7.89,0,0,0,.57,1.3,3.87,3.87,0,0,0,.8,1,1.66,1.66,0,0,0,1.16.43H41a.16.16,0,0,0,.09-.15h.11l-.06-.1A20.13,20.13,0,0,1,40.21,125.2ZM37,122.68a2.57,2.57,0,0,0-.55-.06h-.57l-.58.06c.28-.86.52-1.73.74-2.6s.42-1.74.62-2.62c.1.88.2,1.77.31,2.67a13,13,0,0,0,.59,2.61Z" transform="translate(0 0)"></path><path d="M49.27,112a7.06,7.06,0,0,0-1.88-.73A8.62,8.62,0,0,0,45.5,111a11.09,11.09,0,0,0-2.37.25h-.06a2.27,2.27,0,0,0-.88.21,3.4,3.4,0,0,1-.89.27l-.13.08a.79.79,0,0,0,.45.43,1.17,1.17,0,0,0,.61.11c-.22,2.38-.38,4.76-.38,7.13v7.12l-.1.1a.14.14,0,0,0,0,.09V127a2.22,2.22,0,0,0,.84.68,2.59,2.59,0,0,0,1.06.26H44l.21-.27a17.88,17.88,0,0,0,.13-1.94v-6a5.16,5.16,0,0,0,1.41.19,5.93,5.93,0,0,0,2-.35,6.58,6.58,0,0,0,1.84-1A5.69,5.69,0,0,0,50.91,117a3.73,3.73,0,0,0,.53-1.9,2.87,2.87,0,0,0-.71-1.81A4.69,4.69,0,0,0,49.27,112Zm-1.75,5.27a6.66,6.66,0,0,1-1.52,1,3.83,3.83,0,0,1-1.59.38v-5.56a3.69,3.69,0,0,0,0-.47,1,1,0,0,0-.19-.43h2.69a2.64,2.64,0,0,1,1.64.44,2,2,0,0,1,.58,1.64h0a3.12,3.12,0,0,1-.48,1.6A5.84,5.84,0,0,1,47.52,117.29Z" transform="translate(0 0)"></path><path d="M51.44,115.12Z" transform="translate(0 0)"></path><path d="M71.73,118.37a14.72,14.72,0,0,0-.2-1.74,12.14,12.14,0,0,0-.42-1.68,5.49,5.49,0,0,0-.76-1.46,4,4,0,0,0-1.15-1.07,3.78,3.78,0,0,0-1.63-.53.49.49,0,0,0-.24,0h-.24A.37.37,0,0,0,67,112a.39.39,0,0,1-.08.14,2,2,0,0,0-.78.25c-.25.14-.48.29-.7.44a5.48,5.48,0,0,0-1.4,1.44,10.94,10.94,0,0,0-1.06,2,10.26,10.26,0,0,0-.66,2.17,10.05,10.05,0,0,0-.22,2,6.82,6.82,0,0,0,.49,2.6,7.05,7.05,0,0,0,1.36,2.16,6.12,6.12,0,0,0,2,1.45,6.23,6.23,0,0,0,2.59.54,2,2,0,0,0,1.25-.41,3.41,3.41,0,0,0,.89-1,6.28,6.28,0,0,0,.58-1.45c.14-.54.26-1.08.35-1.63a11.78,11.78,0,0,0,.16-1.56V120h0ZM69.44,120a11,11,0,0,1-.14,1.51c-.07.51-.17,1.08-.29,1.61a6.89,6.89,0,0,1-.5,1.47,3.18,3.18,0,0,1-.78,1.07,1.64,1.64,0,0,1-1.12.4.52.52,0,0,1-.28-.13l-.24-.18a3.51,3.51,0,0,1-.85-.91,5,5,0,0,1-.55-1.14,6.8,6.8,0,0,1-.3-1.26,8.52,8.52,0,0,1-.1-1.24,9.37,9.37,0,0,1,.19-1.75,12.73,12.73,0,0,1,.52-1.8,10.49,10.49,0,0,1,.81-1.69,7.82,7.82,0,0,1,1-1.43,6,6,0,0,1,.74-.68,5,5,0,0,0,.7-.68,3.31,3.31,0,0,1,.53,1.16,14.3,14.3,0,0,1,.37,1.57c.09.56.15,1.1.22,1.63a9.73,9.73,0,0,1,.07,1.32C69.44,119.1,69.46,119.44,69.44,120Z" transform="translate(0 0)"></path><path d="M29.63,119.44a6,6,0,0,0-1.35-.94,11.14,11.14,0,0,1-1.35-.76,4.3,4.3,0,0,1-1-.9,2.1,2.1,0,0,1-.42-1.39,2.66,2.66,0,0,1,.16-.84,3.56,3.56,0,0,1,.43-.82,3,3,0,0,1,.62-.67,2.1,2.1,0,0,1,.78-.38.21.21,0,0,1,.23.15,1.57,1.57,0,0,1,.18.42,3.94,3.94,0,0,1,.14.49v.33a3.18,3.18,0,0,1-.06.62,3.15,3.15,0,0,0-.06.61,1.18,1.18,0,0,0,.5.49,1.5,1.5,0,0,0,.69.17.29.29,0,0,0,.13,0h.14a1,1,0,0,0,.47-.64,3.76,3.76,0,0,0,.11-.82,1.59,1.59,0,0,0-.1-.57,2.57,2.57,0,0,0-.27-.52,1,1,0,0,0-.15-.2l-.06-.08h0a4.11,4.11,0,0,0-1.25-.94,3.53,3.53,0,0,0-1.62-.4,2.2,2.2,0,0,0-1.22.36,3.36,3.36,0,0,0-.94.9,4.47,4.47,0,0,0-.59,1.2,3.87,3.87,0,0,0-.21,1.26,2,2,0,0,0,.39,1.31,3.67,3.67,0,0,0,1,.84c.41.24.84.46,1.27.66a5.31,5.31,0,0,1,1.27.82,3.86,3.86,0,0,1,1,1.27,4.58,4.58,0,0,1,.39,2,4.83,4.83,0,0,1-.17,1.25,4.3,4.3,0,0,1-.5,1.19,2.89,2.89,0,0,1-.86.88,2.12,2.12,0,0,1-1.22.35,1,1,0,0,1-.73-.35,3.24,3.24,0,0,1-.54-.82,4.4,4.4,0,0,1-.35-1,3.87,3.87,0,0,1-.12-.83,2.44,2.44,0,0,1,.09-.66,2.18,2.18,0,0,1,.22-.55,3.17,3.17,0,0,1,.32-.49c.13-.16.26-.34.4-.53a.87.87,0,0,1,.17-.21l.06-.16a.78.78,0,0,0-.24-.3A2.22,2.22,0,0,0,25,120a2.74,2.74,0,0,0-.48-.17,1.61,1.61,0,0,0-.38-.08,1.51,1.51,0,0,0-.9.27,2.47,2.47,0,0,0-.64.69,3.27,3.27,0,0,0-.39.9,3.87,3.87,0,0,0,.4,2.9A5.37,5.37,0,0,0,24,126a6.5,6.5,0,0,0,1.85,1,6.2,6.2,0,0,0,2,.36,2.86,2.86,0,0,0,1.46-.37,3.18,3.18,0,0,0,1-1,4.34,4.34,0,0,0,.63-1.32,5.29,5.29,0,0,0,.21-1.48,5.2,5.2,0,0,0-.45-2.3A5.05,5.05,0,0,0,29.63,119.44Z" transform="translate(0 0)"></path><path d="M80.28,112a7.12,7.12,0,0,0-1.89-.73,8.42,8.42,0,0,0-2-.24,11.19,11.19,0,0,0-2.38.25h-.07a2.18,2.18,0,0,0-.87.21,4.67,4.67,0,0,1-.9.27l-.13.08a.86.86,0,0,0,.45.43,1.2,1.2,0,0,0,.62.11c-.23,2.39-.39,4.76-.39,7.13v7.12a.25.25,0,0,0-.15.23V127a2.22,2.22,0,0,0,.84.68,2.64,2.64,0,0,0,1,.26h.16l.2-.27a17.88,17.88,0,0,0,.13-1.94v-6a3.88,3.88,0,0,0,.49.11,4.26,4.26,0,0,0,.5.06,6.11,6.11,0,0,1,.38.65c.11.22.23.45.34.69l-.06-.15.44.81v-.06c.19.36.39.78.6,1.25a11.78,11.78,0,0,0,.72,1.36,4,4,0,0,0,.93,1.08,1.91,1.91,0,0,0,1.27.44h.26c.13,0,.2-.06.2-.13a1.88,1.88,0,0,0-.2-.62c-.13-.28-.31-.62-.52-1L79.53,123c-.27-.44-.53-.86-.8-1.27L78,120.62a5.08,5.08,0,0,0-.58-.72l.08-.08a5.69,5.69,0,0,0,1.66-.55,7.19,7.19,0,0,0,1.65-1.07,4.8,4.8,0,0,0,1.1-1.43,3.6,3.6,0,0,0,.42-1.7,2.85,2.85,0,0,0-.58-1.8A4.63,4.63,0,0,0,80.28,112Zm-3.49,6.39a3.87,3.87,0,0,1-1.6.38h-.1a5.42,5.42,0,0,0,0-.57v-5a3.69,3.69,0,0,0,0-.47,1,1,0,0,0-.19-.43h2.8a2.73,2.73,0,0,1,1.64.44,2,2,0,0,1,.57,1.64h0a3.1,3.1,0,0,1-.44,1.57,5.66,5.66,0,0,1-1.12,1.41A6.21,6.21,0,0,1,76.79,118.41Z" transform="translate(0 0)"></path></svg> 