<?xml version="1.0" encoding="UTF-8"?> <svg xmlns="http://www.w3.org/2000/svg" xmlns:xlink="http://www.w3.org/1999/xlink" id="Layer_1" viewBox="0 0 260.9 115.86"><defs><style>.cls-1{fill:none;}.cls-2{clip-path:url(#clippath);}.cls-3{fill:#7ecad0;}</style><clipPath id="clippath"><rect class="cls-1" x="-35.76" y="-34.57" width="351.03" height="197.61"></rect></clipPath></defs><g class="cls-2"><path class="cls-3" d="M252.39,26.31c-1.67,.36-3.56-.13-4.95-1.92-1.45-1.86-1.95-3.97-.96-6.18,.61-1.38,1.43-2.68,2.29-3.92,1.24-1.77,3.07-2.62,5.2-2.76,.65-.04,1.35,.09,1.98,.27,2.31,.65,4.64,5.18,3.63,7.62-.52,1.25-1.05,2.5-1.76,3.64-1.23,2-2.62,2.81-5.44,3.25"></path><path class="cls-3" d="M140.44,77.44c.09-2.8,.75-5.6,1.5-8.42,1.8-6.79,3.98-13.47,6.71-19.9,4.63-10.89,10.52-21.12,18.16-30.23,2.19-2.61,4.73-4.93,7.21-7.27,1.37-1.3,3.05-2.19,4.92-2.66,1.35-.34,2.66-.28,4.04,.08,2.79,.72,4.36,2.53,5.09,5.2,.68,2.49,1.06,4.99,.68,7.6-.47,3.22-1.12,6.37-2.16,9.47-2.87,8.53-7.29,16.17-13.05,23.06-2.3,2.75-4.64,5.48-7.08,8.11-1.51,1.62-3.14,3.16-4.89,4.51-2.45,1.89-4.54,4.14-6.74,6.29-.98,.96-1,2.04-.54,3.29,.78,2.14,2.02,3.94,3.58,5.56,.74,.76,1.63,1.21,2.67,1.4,3.14,.57,6.04,.15,8.87-1.52,3.87-2.28,7.28-5.08,10.33-8.34,1.28-1.36,2.43-2.85,3.64-4.27,.28-1.85,.58-3.7,.85-5.55,.88-6.09,2.12-12.11,3.68-18.07,.22-.82,.47-1.65,.82-2.42,1.76-3.89,3.32-7.9,5.4-11.62,4.68-8.39,10.43-16.05,17.07-22.99,2.12-2.21,4.62-4.05,6.95-6.06,1.2-1.04,2.63-1.53,4.15-1.88,3.77-.86,7.13,1.93,7.83,4.91,.61,2.59,.64,5.08-.05,7.58-1.72,6.27-3.84,12.39-6.74,18.25-2.21,4.46-4.88,8.62-7.39,12.89-1.21,2.06-2.63,3.99-4.22,5.79-2.37,2.69-4.55,5.55-6.93,8.23-2.83,3.19-5.79,6.28-8.7,9.41-.12,.13-.3,.25-.32,.39-.07,.48-.29,1.12-.07,1.43,2.27,3.23,5.27,5.21,9.32,5.62,5.59,.57,10.55-.44,14.42-4.85,.22-.26,.48-.5,.76-.69,1.34-.92,1.97-2.26,2.47-3.77,1.68-5.07,4.23-9.7,7.42-13.98,1.53-2.06,3.07-4.1,4.62-6.15,1.77-2.34,3.88-4.32,6.31-5.96,.42-.29,.86-.55,1.31-.79,1.56-.82,3.76,.35,3.83,2.11,.11,3.11-.33,6.16-1.83,8.93-.97,1.79-2.16,3.48-3.31,5.17-.96,1.41-2.06,2.73-3.03,4.13-1.18,1.71-1.85,3.65-2.27,5.68-.25,1.2-.15,2.39,.2,3.55,.26,.85,.82,1.5,1.6,1.92,1.23,.65,2.55,1.02,3.95,.89,3.12-.29,6.05-1.1,8.55-3.1,1.6-1.28,3.15-2.63,4.79-3.86,.94-.71,2-1.29,3.04-1.85,.71-.38,1.8,.51,1.74,1.33-.09,1.21-.33,2.4-1.08,3.37-1.37,1.75-2.78,3.46-4.26,5.11-1.48,1.65-3.02,3.25-4.61,4.8-4,3.9-8.59,6.73-14.25,7.52-2.45,.34-4.76-.28-7-1.17-.98-.39-1.66-1.22-2.15-2.13-.66-1.2-1.23-2.44-1.82-3.67-.8-1.66-3.42-2.01-4.88-.66-.74,.68-1.26,1.59-1.86,2.42-2.75,3.83-6.3,6.7-10.52,8.75-2.05,.99-4.17,1.39-6.46,1.24-3.62-.25-7.13-.76-10.33-2.63-1.49-.87-2.85-1.84-3.86-3.29-.78-1.12-1.73-2.11-2.62-3.15-.37-.43-1.47-.33-1.85,.16-.63,.81-1.22,1.65-1.86,2.45-4.14,5.21-9.32,8.97-15.57,11.28-3.5,1.29-7,1.33-10.55,.23-4.86-1.49-8.87-4.31-12.49-7.78-.36-.35-.72-.71-1.09-1.05-.29-.27-1.19-.2-1.42,.11-.41,.54-.84,1.07-1.2,1.64-1.96,3.05-4.39,5.69-7.14,8.02-2.69,2.28-5.86,3.42-9.41,3.42-.51,0-1.03,0-1.54-.03-3.31-.24-6.43-.89-8.64-3.74-.55-.71-1.57-.56-2.25,.11-.12,.12-.25,.24-.35,.37-2.2,2.79-5.35,4.21-8.43,5.66-1.2,.57-2.63,.83-3.97,.89-3.1,.15-6.18-.21-9-1.58-4.33-2.1-6.91-5.39-6.93-10.44-.02-3.68,1.09-7.06,2.39-10.42,.49-1.27,.93-2.56,1.34-3.86,.23-.72-.54-1.78-1.31-1.91-.34-.06-.67-.15-1.01-.15-2.98,.02-5.7-1.03-8.4-2.11-1.42-.57-2.82-1.2-4.24-1.78-.52-.21-1.55,.22-1.78,.71-.22,.46-.51,.91-.63,1.4-.9,3.65-1.87,7.29-2.6,10.97-.7,3.55-1.75,6.96-3.28,10.21-1.09,2.32-2.21,4.64-3.53,6.83-1.05,1.75-2.27,3.44-3.68,4.91-3.35,3.51-7.57,5.16-12.4,5.26-1.57,.03-3.02-.48-4.44-1.1-2.91-1.25-5.2-3.24-7.11-5.72-.23-.3-1.19-.31-1.41,0-1.61,2.28-3.99,3.71-6.09,5.42-3.37,2.75-7.27,4.38-11.62,4.97-4.05,.55-6.54-1.83-7.72-4.61-1.22-2.87-1.64-5.92-1.25-9.05,.11-.85,.19-1.71,.39-2.53,2.15-8.7,5.32-16.96,10.81-24.17,1.35-1.77,2.76-3.49,4.7-4.68,.58-.35,1.18-.69,1.81-.93,2.11-.81,3.44,.43,3.68,2.3,.31,2.39,.09,4.72-1.49,6.81-1.86,2.45-3.43,5.11-5.29,7.57-2.01,2.67-3.04,5.72-3.88,8.87-.54,2.01-.3,4.08,.06,6.11,.26,1.51,1.63,2.76,3.19,2.87,1,.07,2.08,.09,3.03-.18,3.18-.94,5.9-2.66,8.14-5.12,.72-.8,1.18-1.74,1.14-2.78-.07-2.06,.1-4.09,.28-6.13,.55-6.4,3.46-11.73,7.39-16.61,1.19-1.48,2.76-2.53,4.56-3.21,1.32-.49,2.83,.33,3.19,1.72,.49,1.9,.25,3.77-.39,5.55-.75,2.09-1.71,4.1-2.61,6.13-.56,1.25-1.26,2.43-1.77,3.7-.44,1.1-.82,2.26-.99,3.43-.43,2.78,.64,5.06,2.78,6.78,1.88,1.5,3.97,1.88,6.22,.66,2.15-1.17,3.92-2.72,5.13-4.87,1.69-2.99,2.94-6.17,3.96-9.44,1.48-4.73,2.84-9.5,4.37-14.21,.69-2.1,1.67-4.11,2.55-6.15,.42-.97,1.17-1.66,2.11-2.15,1.02-.53,2.14-.54,2.85,.19,1.55,1.61,3.31,2.96,5.15,4.21,1.72,1.17,3.59,1.93,5.61,2.41,2.69,.63,5.42,.71,8.15,.7,2.09-.01,3.98-.67,5.61-2.15,2.04-1.86,4.5-3.11,7.09-3.99,3.23-1.1,6.47-2.26,9.79-3,1.95-.44,4.07-.18,6.11-.11,1.01,.04,2.07,.23,3,.61,1.83,.75,3.63,.78,5.53,.38,1.75-.37,3.39,.05,4.92,.95,1.25,.74,2,1.82,2.21,3.28,.32,2.13-.17,4.12-1.23,5.91-1.75,2.93-3.2,6.04-5.26,8.8-1.01,1.36-1.78,2.91-2.58,4.41-.31,.59-.47,1.28-.59,1.95-.49,2.69,2.27,5.08,4.87,4.18,3.41-1.18,6.6-2.76,9.32-5.22,1.9-1.72,4-3.22,5.4-5.61M220.37,17.78c-.15-2.79-2.39-4.16-4.46-3.22-.77,.35-1.54,.75-2.24,1.23-2,1.36-3.56,3.14-5.01,5.08-5.5,7.35-9.02,15.64-11.43,24.42-1.08,3.95-1.94,7.95-2.87,11.94-.07,.31-.04,.7,.08,.99,.12,.28,.44,.67,.65,.66,.66-.03,1.44-.04,1.93-.39,2.8-1.98,5.26-4.34,7.31-7.09,1.83-2.47,3.55-5.02,5.43-7.45,1.99-2.58,3.71-5.32,5.22-8.2,2.72-5.18,4.72-10.59,5.29-16.46,.07-.68,.08-1.36,.09-1.49m-40.24,6.08c-.32-3.03-2.78-4.38-5.01-3.31-.61,.29-1.23,.63-1.7,1.1-2.66,2.64-5.22,5.36-6.63,8.96-.62,1.58-1.37,3.12-2.13,4.64-2.21,4.42-4.04,9-5.56,13.71-1.1,3.4-2.28,6.77-3.39,10.17-.32,.97-.53,1.97-.75,2.96-.22,.99,.95,2.02,1.95,1.64,.77-.29,1.61-.66,2.17-1.24,4.35-4.58,8.16-9.59,11.51-14.93,1.54-2.45,2.96-4.98,4.35-7.51,1.72-3.13,3.37-6.3,4.4-9.75,.69-2.31,1.13-4.63,.79-6.42M111.93,62.43c-1.19,.36-2.34,.66-3.46,1.07-.63,.23-1.24,.57-1.79,.95-1.4,.96-2.84,1.89-4.13,2.97-3.61,3.03-6.16,6.8-7.35,11.38-.38,1.45-.5,3.03-.41,4.53,.21,3.69,2.49,5.35,6.23,4.9,2.64-.32,4.78-1.64,6.91-3.07,1.81-1.21,2.95-2.77,3.05-5.01,.12-2.95,1.11-5.64,2.51-8.21,1.06-1.94,2.04-3.92,3-5.91,1-2.1,.15-3.1-2.06-3.59-.8-.18-1.68-.01-2.49,0"></path></g></svg> 