<?xml version="1.0" encoding="UTF-8"?> <svg xmlns="http://www.w3.org/2000/svg" id="Layer_1" viewBox="0 0 337.73 96.57"><defs><style>.cls-1,.cls-2{fill:#937d77;}.cls-2{stroke:#937d77;stroke-miterlimit:10;stroke-width:2px;}</style></defs><g><path class="cls-2" d="M117.87,83.15v-4.79c0-6.98-.14-12.42-.44-16.35l-.22-2.69c-.19-1.21-.29-2.28-.29-3.2,0-1.65,.05-3.15,.15-4.5l.15-4.5c0-1.5-.1-2.64-.29-3.42-.97,.68-3.9,10.87-8.79,30.59l-.07,1.09c-.15,1.21-.34,2.18-.58,2.91-.15,.53-.35,.95-.62,1.24-.27,.29-.57,.44-.91,.44-.78,0-1.33-.19-1.67-.58-.34-.39-.51-.99-.51-1.82,0-1.31-.62-4.7-1.85-10.17-1.24-5.47-2.57-10.73-4-15.77-1.43-5.04-2.41-7.82-2.94-8.36-.05,1.7-.24,5.69-.58,11.99-.68,11.14-1.02,19.91-1.02,26.3l.07,2.91c-.19,.63-.7,.95-1.53,.95-.15,0-.39-.13-.73-.4-.34-.27-.51-.47-.51-.62,0-4.36,.39-12.01,1.16-22.96,.73-10.17,1.09-17.8,1.09-22.89,0-.24-.05-.48-.15-.73-.15-.29-.22-.51-.22-.65,0-.73,.63-1.09,1.89-1.09,.82,0,1.31,.36,1.45,1.09,.19,.97,.29,1.7,.29,2.18l.07,.87c.24,1.26,.94,3.2,2.11,5.81,.92,2.08,1.62,3.9,2.11,5.45,.29,1.16,.56,2.11,.8,2.83,.77,2.81,1.28,4.89,1.53,6.25l.95,1.89c.14,.73,.44,1.91,.87,3.56,.44,1.84,.75,3.34,.95,4.5,.19,1.16,.29,2.28,.29,3.34,.53-.82,2.05-5.78,4.54-14.86,2.49-9.08,3.96-14.88,4.4-17.4,.05-.1,.08-.23,.11-.4,.02-.17,.06-.4,.11-.69,.1-.63,.31-1.57,.65-2.83,.39-.97,.97-1.45,1.74-1.45,.34,0,.73,.15,1.16,.44,.44,.29,.65,.58,.65,.87,0,20.2,.31,30.88,.94,32.04v3.78c-.05,1.12-.07,2.4-.07,3.85,0,3.1,.17,5.43,.51,6.98,.05,.05,.08,.12,.11,.22,.02,.1,.06,.22,.11,.36,.05,.19,.07,.41,.07,.65,0,.53-.16,1.06-.47,1.6-.32,.53-.69,.8-1.13,.8-.97,0-1.45-1.55-1.45-4.65Zm-.94-39.89h-.07l-.15,.07,.22,.07v-.15Z"></path><path class="cls-2" d="M133.56,83.3c-.24,0-.44,.03-.58,.07h-.58c-1.07,0-1.74-.24-2.03-.73,0-.34,.19-.63,.58-.87l.36-.36h2.11l.29-.29,.14-.65,.07-.87c0-2.95-.07-5.59-.22-7.92l-.15-2.69-.15-5.3c0-1.89,.07-4.72,.22-8.5l.15-8.43c0-3.68-.12-6.49-.36-8.43-.44-.15-1.16-.22-2.18-.22l-.8,.07c-.29,.05-.61,.07-.94,.07-.92,0-1.38-.41-1.38-1.24,0-.19,.22-.39,.65-.58,.44-.19,.8-.29,1.09-.29,1.84,0,3.68,.1,5.52,.29,1.11,.05,2.23,.27,3.34,.65,.87,.29,1.31,.7,1.31,1.24,0,.1-.07,.29-.22,.58l-1.67,.15c-.34-.29-1.04-.44-2.11-.44l-.36,.22c.15,.44,.22,1.72,.22,3.85,0,3.2-.03,6.08-.07,8.65l-.15,8.65c0,2.18,.1,4.82,.29,7.92,.15,3.54,.22,6.2,.22,7.99v.94c-.05,.34-.07,.78-.07,1.31,0,1.12,.07,1.79,.22,2.04l-.07,.15c0,.48,.53,.73,1.6,.73,.44,0,.8-.02,1.09-.07h1.09c1.41,0,2.11,.34,2.11,1.02,0,.44-.15,.79-.44,1.05-.29,.27-.68,.4-1.16,.4-.44,0-.82-.05-1.16-.15-.39-.05-.8-.07-1.24-.07-.29,0-.73,.12-1.31,.36-.58,.29-1.02,.44-1.31,.44-1.12,0-1.77-.24-1.96-.73Z"></path><path class="cls-2" d="M166.55,84.32s-.08-.15-.25-.44c-.17-.29-.33-.73-.47-1.31-.05-.39-.15-.73-.29-1.02l.07-.22c-.39-2.28-1.21-5.06-2.47-8.36l-1.31-3.78c-.1-.1-.56-1.33-1.38-3.71l-.58-1.74c-4.36-13.47-7.1-20.75-8.21-21.87-.39,1.31-.58,3-.58,5.09,0,1.12,.02,2.08,.07,2.91l.07,2.83-.07,1.74c-.05,.53-.07,1.11-.07,1.74,0,1.07,.05,1.99,.14,2.76l.15,2.32h-.22c0,8.09,.17,12.55,.51,13.37v6.54c.19,.39,.29,.9,.29,1.53,0,.39-.13,.73-.4,1.02-.27,.29-.59,.44-.98,.44-1.02,0-1.53-1.31-1.53-3.92l.15-2.33c.1-.73,.15-1.53,.15-2.4,0-2.33-.07-5.81-.22-10.46-.15-4.65-.22-8.14-.22-10.46,0-1.4,.07-3.56,.22-6.47,.15-2.86,.22-4.99,.22-6.39v-.94c0-2.37,.44-3.92,1.31-4.65l.22,.22,.73-.15c.19,.05,.41,.19,.65,.44,.19,.19,.29,.41,.29,.65l.14,.44c0,.1,.02,.22,.07,.36,.77,3.44,2.52,8.26,5.23,14.46,2.76,6.54,4.48,10.88,5.16,13.01,.48,1.7,.87,3.2,1.16,4.5,.92,4.12,2.01,7.29,3.27,9.52l.14-.22c1.11-10.75,1.67-23.95,1.67-39.6l-.07-.87c-.05-.24-.07-.56-.07-.94,0-1.02,.34-1.53,1.02-1.53,.44,0,.81,.22,1.13,.65,.31,.44,.47,.92,.47,1.45v4.87l-.36,.58c0,4.6-.27,12.16-.8,22.67-.53,10.51-1.04,16.23-1.53,17.15l-1.24,.29v.07l-.07-.07-.73,.22h-.58Z"></path><path class="cls-2" d="M183.77,83.3c-.24,0-.44,.03-.58,.07h-.58c-1.07,0-1.74-.24-2.03-.73,0-.34,.19-.63,.58-.87l.36-.36h2.11l.29-.29,.14-.65,.07-.87c0-2.95-.07-5.59-.22-7.92l-.15-2.69-.15-5.3c0-1.89,.07-4.72,.22-8.5l.15-8.43c0-3.68-.12-6.49-.36-8.43-.44-.15-1.16-.22-2.18-.22l-.8,.07c-.29,.05-.61,.07-.94,.07-.92,0-1.38-.41-1.38-1.24,0-.19,.22-.39,.65-.58,.44-.19,.8-.29,1.09-.29,1.84,0,3.68,.1,5.52,.29,1.11,.05,2.23,.27,3.34,.65,.87,.29,1.31,.7,1.31,1.24,0,.1-.07,.29-.22,.58l-1.67,.15c-.34-.29-1.04-.44-2.11-.44l-.36,.22c.15,.44,.22,1.72,.22,3.85,0,3.2-.03,6.08-.07,8.65l-.15,8.65c0,2.18,.1,4.82,.29,7.92,.15,3.54,.22,6.2,.22,7.99v.94c-.05,.34-.07,.78-.07,1.31,0,1.12,.07,1.79,.22,2.04l-.07,.15c0,.48,.53,.73,1.6,.73,.44,0,.8-.02,1.09-.07h1.09c1.41,0,2.11,.34,2.11,1.02,0,.44-.15,.79-.44,1.05-.29,.27-.68,.4-1.16,.4-.44,0-.82-.05-1.16-.15-.39-.05-.8-.07-1.24-.07-.29,0-.73,.12-1.31,.36-.58,.29-1.02,.44-1.31,.44-1.12,0-1.77-.24-1.96-.73Z"></path><path class="cls-2" d="M210.51,84.28c-.49-.31-.75-.69-.8-1.13l.36-.58c.19,0,.63,.07,1.31,.22,.53,.19,.97,.29,1.31,.29,1.06,0,2.01-.42,2.83-1.27,.82-.85,1.45-1.95,1.89-3.31,.68-2.52,1.02-4.89,1.02-7.12,0-3.34-1.02-6.93-3.05-10.75-1.26-2.23-2.23-4-2.91-5.3-.68-1.31-1.28-2.81-1.82-4.5-.63-1.99-.95-3.9-.95-5.74,0-1.74,.44-3.8,1.31-6.18,.44-1.11,1.05-2.02,1.85-2.72s1.66-1.05,2.58-1.05c.63,0,1.25,.22,1.85,.65,.61,.44,.91,.9,.91,1.38,0,.39-.32,.58-.94,.58-.19,0-.44-.07-.73-.22-.29-.15-.56-.22-.8-.22-.73,0-1.38,.29-1.96,.87-.58,.58-1.02,1.33-1.31,2.25-.58,1.79-.87,3.44-.87,4.94,0,.92,.12,1.87,.36,2.83,.05,.29,.1,.53,.15,.73,.05,.19,.07,.34,.07,.44l.44,1.45,.36,1.31,.58,1.31c.15,.34,.3,.64,.47,.91,.17,.27,.33,.52,.47,.76l.87,1.53c.19,.29,.6,.98,1.24,2.07,.63,1.09,1.21,2.24,1.74,3.45,.48,1.02,.85,1.97,1.09,2.87,.24,.9,.46,1.97,.65,3.23,.15,1.21,.22,2.54,.22,4,0,2.33-.32,4.5-.94,6.54-.87,2.42-2.13,4.12-3.78,5.09-.92,.58-1.99,.87-3.2,.87l-.36,.15c-.53-.1-1.04-.3-1.53-.62Zm7.34-46.75s-.02-.07-.07-.07v.07h.07Z"></path><path class="cls-2" d="M233.68,83.01l-.07-2.69c-.05-.77-.07-1.65-.07-2.62,0-.48,.02-.9,.07-1.24l.07-1.31c0-.48-.1-1.06-.29-1.74,0-3.24-.24-9.27-.73-18.09-.49-8.52-.75-14.31-.8-17.36-3,0-5.01-.07-6.03-.22-.97-.24-1.45-.63-1.45-1.16,.24-.53,.7-.8,1.38-.8,1.45,0,3.56,.1,6.32,.29,2.52,.24,4.62,.36,6.32,.36h1.53l1.53-.07c.87,0,1.31,.32,1.31,.94,0,.29-.16,.52-.47,.69-.32,.17-.69,.25-1.13,.25-.97,0-1.99-.05-3.05-.15l-3.12-.14c-.19,0-.29,.07-.29,.22-.05,.15-.07,.61-.07,1.38,0,4.7,.29,11.82,.87,21.36,.53,9.88,.8,16.98,.8,21.29,0,.34-.21,.65-.62,.94-.41,.29-.81,.44-1.2,.44l-.8-.58Z"></path><path class="cls-2" d="M254.46,84.82c-.24-.19-.39-.36-.44-.51,.44-1.16,.65-5.4,.65-12.72,0-1.4-.07-3.42-.22-6.03l-.36-5.16-.44-.95,.22-.87c-.29-.68-.73-1.82-1.31-3.42-.58-1.6-1.16-3.22-1.74-4.87-1.74-4.6-2.88-7.92-3.42-9.95-.29-.97-.51-1.86-.65-2.69l1.02-.8c.48,.1,1.19,1.65,2.11,4.65,.73,2.13,1.38,4.24,1.96,6.32l.87,2.76c.87,3,1.5,4.55,1.89,4.65l.29-1.31-.15-.36c.39-.48,.87-2.2,1.45-5.16,.63-3.39,1.24-6.25,1.82-8.57,.63-2.71,1.26-4.07,1.89-4.07,.24,0,.46,.07,.65,.22,.19,.14,.29,.32,.29,.51,0,.73-.73,3.59-2.18,8.57-.73,2.37-1.33,4.6-1.82,6.68-.58,2.47-.87,4.67-.87,6.61,.24,.49,.36,.9,.36,1.24,0,.24-.07,.58-.22,1.02-.14,.44-.22,.8-.22,1.09,0,.24,.1,1.33,.29,3.27,.19,1.31,.29,2.42,.29,3.34,0,2.13,.02,4.04,.07,5.74v6.1c0,3.29-.51,4.94-1.53,4.94-.14,0-.34-.1-.58-.29Z"></path><path class="cls-2" d="M269.5,83.3c.1-.29,.15-1.09,.15-2.4,0-4.46,.07-11.07,.22-19.84,.15-8.72,.22-15.01,.22-18.89l.14-2.62,.22-2.18c0-.34,.17-.51,.51-.51,.24,0,.58,.07,1.02,.22l.22,.07c0,1.07-.02,2.03-.07,2.91v10.75c.05,2.32,.07,4.96,.07,7.92-.05,.24-.07,.78-.07,1.6l-.07,1.53c-.05,.97-.07,1.96-.07,2.98,0,1.12,.02,2.13,.07,3.05l.07,3.12-.22,.58,.07-.07c0,.15-.03,.24-.07,.29v.29c0,.39,.07,.73,.22,1.02l-.22,6.97v.44c0,.82,.02,1.31,.07,1.45,0,.24,.12,.36,.36,.36l3.78,.15c1.11,0,1.88,.01,2.29,.04,.41,.02,.67,.04,.76,.04h.22c.24,0,.48,.13,.73,.4,.24,.27,.36,.54,.36,.84,0,.58-.39,.9-1.16,.94-.82-.05-2.83-.07-6.03-.07l.15,.07c-.48,0-.94,.02-1.38,.07-.39,.1-.82,.15-1.31,.15-.68,0-1.09-.56-1.24-1.67Z"></path><path class="cls-2" d="M289.27,83.3c-.24,0-.44,.03-.58,.07h-.58c-1.07,0-1.74-.24-2.03-.73,0-.34,.19-.63,.58-.87l.36-.36h2.11l.29-.29,.14-.65,.07-.87c0-2.95-.07-5.59-.22-7.92l-.15-2.69-.15-5.3c0-1.89,.07-4.72,.22-8.5l.15-8.43c0-3.68-.12-6.49-.36-8.43-.44-.15-1.16-.22-2.18-.22l-.8,.07c-.29,.05-.61,.07-.94,.07-.92,0-1.38-.41-1.38-1.24,0-.19,.22-.39,.65-.58,.44-.19,.8-.29,1.09-.29,1.84,0,3.68,.1,5.52,.29,1.11,.05,2.23,.27,3.34,.65,.87,.29,1.31,.7,1.31,1.24,0,.1-.07,.29-.22,.58l-1.67,.15c-.34-.29-1.04-.44-2.11-.44l-.36,.22c.15,.44,.22,1.72,.22,3.85,0,3.2-.03,6.08-.07,8.65l-.15,8.65c0,2.18,.1,4.82,.29,7.92,.15,3.54,.22,6.2,.22,7.99v.94c-.05,.34-.07,.78-.07,1.31,0,1.12,.07,1.79,.22,2.04l-.07,.15c0,.48,.53,.73,1.6,.73,.44,0,.8-.02,1.09-.07h1.09c1.41,0,2.11,.34,2.11,1.02,0,.44-.15,.79-.44,1.05-.29,.27-.68,.4-1.16,.4-.44,0-.82-.05-1.16-.15-.39-.05-.8-.07-1.24-.07-.29,0-.73,.12-1.31,.36-.58,.29-1.02,.44-1.31,.44-1.12,0-1.77-.24-1.96-.73Z"></path><path class="cls-2" d="M303.58,84.28c-.49-.31-.75-.69-.8-1.13l.36-.58c.19,0,.63,.07,1.31,.22,.53,.19,.97,.29,1.31,.29,1.06,0,2.01-.42,2.83-1.27,.82-.85,1.45-1.95,1.89-3.31,.68-2.52,1.02-4.89,1.02-7.12,0-3.34-1.02-6.93-3.05-10.75-1.26-2.23-2.23-4-2.91-5.3-.68-1.31-1.28-2.81-1.82-4.5-.63-1.99-.95-3.9-.95-5.74,0-1.74,.44-3.8,1.31-6.18,.44-1.11,1.05-2.02,1.85-2.72s1.66-1.05,2.58-1.05c.63,0,1.25,.22,1.85,.65,.61,.44,.91,.9,.91,1.38,0,.39-.32,.58-.94,.58-.19,0-.44-.07-.73-.22-.29-.15-.56-.22-.8-.22-.73,0-1.38,.29-1.96,.87-.58,.58-1.02,1.33-1.31,2.25-.58,1.79-.87,3.44-.87,4.94,0,.92,.12,1.87,.36,2.83,.05,.29,.1,.53,.15,.73,.05,.19,.07,.34,.07,.44l.44,1.45,.36,1.31,.58,1.31c.15,.34,.3,.64,.47,.91,.17,.27,.33,.52,.47,.76l.87,1.53c.19,.29,.6,.98,1.24,2.07,.63,1.09,1.21,2.24,1.74,3.45,.48,1.02,.85,1.97,1.09,2.87,.24,.9,.46,1.97,.65,3.23,.15,1.21,.22,2.54,.22,4,0,2.33-.32,4.5-.94,6.54-.87,2.42-2.13,4.12-3.78,5.09-.92,.58-1.99,.87-3.2,.87l-.36,.15c-.53-.1-1.04-.3-1.53-.62Zm7.34-46.75s-.02-.07-.07-.07v.07h.07Z"></path><path class="cls-2" d="M332.86,84.1c-.24-8.96-.36-15.45-.36-19.47l-.22-.29,.29-.65c0-.87-.1-1.77-.29-2.69l-1.09-.29c-.44,.15-.92,.22-1.45,.22-.39,0-1.19-.12-2.4-.36-.82-.24-1.58-.36-2.25-.36l-.8,.29c0,1.7-.03,3.22-.07,4.58-.05,1.36-.07,2.88-.07,4.58l.15,.29c0,1.36,.07,3.39,.22,6.1,.15,2.66,.22,4.67,.22,6.03,0,.53-.1,.98-.29,1.34-.19,.36-.49,.54-.87,.54-1.07,0-1.6-1.45-1.6-4.36,0-2.47,.02-4.7,.07-6.68l.07-6.61c0-4.41-.07-6.78-.22-7.12,.24-.48,.36-2.08,.36-4.8,0-2.33-.1-5.16-.29-8.5l-.15-2.83-.15-5.67c0-.34,.12-.65,.36-.94s.53-.44,.87-.44c.97,0,1.45,1.41,1.45,4.21,0,3.29-.02,6.27-.07,8.94-.1,2.67-.15,5.59-.15,8.79,0,.58,1.84,.87,5.52,.87h.29c.92,0,1.59-.18,2-.54,.41-.36,.62-.98,.62-1.85,0-2.57-.17-5.91-.51-10.03-.29-4.46-.44-7.8-.44-10.03,0-.29,.12-.54,.36-.76,.24-.22,.53-.33,.87-.33l.65,.22c.34,.05,.56,.12,.65,.22,0,3.78,.15,9.42,.44,16.93,.29,7.56,.44,13.22,.44,17,0,5.72,.17,10.51,.51,14.39l-.51,.8c0-.48-.73-.73-2.18-.73Zm-2.4-26.3l.15,.15h-.15v-.15Z"></path></g><g><path class="cls-1" d="M69.31,90.24c-1.35-.16-2.7-.37-4.06-.44l-4.07-.24c-1.36-.07-2.71-.03-4.07-.05-1.36-.02-2.71,0-4.07,.06-2.71,.1-5.41,.3-8.11,.53-2.69,.31-5.38,.58-8.05,1.03-5.34,.84-10.65,1.91-15.82,3.51l16.08-1.19c5.34-.37,10.67-.74,16-.88,5.32-.2,10.65-.27,15.95,0,5.3,.29,10.59,.78,15.85,2.07-4.84-2.48-10.27-3.67-15.64-4.4Z"></path><path class="cls-1" d="M85.94,7.88l.42-6.53-3.04,5.8-14.26,27.22c-4.3,8.15-8.51,16.36-12.74,24.54l-12.76-30.38-1.37-3.27-1.13,3.35-7.33,21.73-6.55,19.74L3.19,36.94l-1.83-2.52,.52,3.06,8.11,47.38L3.73,40.25l22.92,32.85,1.22,1.75,.71-2.03,7.56-21.66,6.3-18.34,12.42,30.03,1.18,2.84,1.43-2.73c4.74-9.08,9.54-18.13,14.22-27.24l11.13-21.53c-.58,10.7-1.06,21.4-1.38,32.11-.2,6.44-.26,12.89-.19,19.34,.04,3.23,.12,6.46,.31,9.7,.1,1.62,.23,3.24,.43,4.88,.11,.82,.23,1.64,.42,2.47,.01,.05,.02,.09,.03,.14-.34-.11-.68-.23-1.03-.33-1.56-.47-3.13-.88-4.71-1.26-3.15-.76-6.34-1.38-9.54-1.88-6.4-1.02-12.87-1.52-19.33-1.51-12.91,.02-25.92,2.06-37.85,6.98,12.11-4.41,25.04-6.14,37.83-5.79,6.4,.18,12.78,.85,19.08,1.94,3.15,.55,6.28,1.21,9.37,2.01,1.54,.4,3.08,.83,4.59,1.31,.76,.24,1.51,.49,2.24,.76,.12,.04,.23,.09,.35,.14,.07,.08,.13,.15,.21,.23,.11,.13,.44,.27,.67,.35,.16,.03,.23,.05,.45,.07h.09c.06,0,.13,0,.19-.01,.24-.17,.18,.22,.78-.6,.26-.7-.21-1.04-.17-1.05-.28-.28-.29-.23-.38-.3-.14-.08-.24-.12-.35-.17-.06-.03-.12-.05-.18-.07-.05-.1-.1-.22-.13-.34-.11-.32-.2-.68-.27-1.05-.16-.74-.26-1.51-.35-2.29-.17-1.56-.27-3.15-.34-4.74-.13-3.19-.16-6.39-.15-9.6,.03-6.41,.26-12.83,.46-19.26,.45-12.84,1.13-25.69,1.95-38.51Zm-1.61,77.72s0,0,0,0c0,0,.02,.01,0,0Z"></path></g></svg> 