<?xml version="1.0" encoding="UTF-8"?> <svg xmlns="http://www.w3.org/2000/svg" id="Layer_1" viewBox="0 0 1590 423"><defs><style>.cls-1{fill:#1d1d1b;}</style></defs><path class="cls-1" d="m1562.11,77.14c1.1.11,2.37.11,3.8,0,1.43-.11,2.75-.33,3.97-.66,1.21-.33,2.04-.71,2.48-1.16,0-4.41.17-9.26.5-14.55.33-5.29.77-10.52,1.32-15.71.55-5.18,1.16-9.97,1.82-14.38.66-4.41,1.21-7.93,1.65-10.58-7.5-.44-17.31-1.43-29.43-2.97-12.12-1.54-24.69-2.32-37.69-2.32-13.89,0-26.29,1.21-37.2,3.64-10.91,2.43-20.89,5.84-29.92,10.25-18.3,9.04-31.91,21.55-40.83,37.53-8.93,15.98-13.39,33.34-13.39,52.08,0,35.93,10.41,62.88,31.24,80.84,20.83,17.97,49.76,26.95,86.79,26.95,12.12,0,22.04-.88,29.76-2.65,7.71-1.77,14.33-3.52,19.84-5.29,2.2-1.54,4.68-4.18,7.44-7.94,2.75-3.74,5.4-7.93,7.93-12.56,2.53-4.63,4.79-9.26,6.78-13.89,1.98-4.63,3.52-8.6,4.63-11.9-.88-1.54-2.43-2.98-4.63-4.3-2.21-1.32-3.97-2.2-5.29-2.64-3.75,6.4-7.83,12.56-12.23,18.52-4.41,5.95-8.71,10.8-12.9,14.55-5.07,4.41-10.47,7.22-16.2,8.43-5.73,1.21-11.03,1.82-15.87,1.82-13.22,0-24.52-2.75-33.89-8.27-9.37-5.51-16.92-12.67-22.65-21.49-5.73-8.81-9.92-18.79-12.56-29.92-2.65-11.13-3.97-22.32-3.97-33.56,0-14.99,1.43-27.94,4.3-38.85,2.86-10.91,6.89-19.95,12.07-27.11,5.18-7.16,11.41-12.45,18.68-15.87,7.27-3.42,15.32-5.12,24.14-5.12,6.61,0,13.17.55,19.67,1.65,6.5,1.11,12.84,3.42,19.01,6.94,3.31,1.98,6,4.25,8.1,6.78,2.09,2.54,3.8,5.46,5.12,8.76,1.32,3.31,2.37,6.94,3.14,10.91.77,3.97,1.6,8.38,2.48,13.23.22.44.88.72,1.98.83m-290.63-44.8c2.64.44,5.51,1.11,8.6,1.98,5.07,1.77,7.82,6.28,8.27,13.56.22,3.53.38,7.27.5,11.24.11,3.97.22,8.49.33,13.56.11,5.07.17,10.86.17,17.36v66.79c0,7.17-.06,13.67-.17,19.51-.11,5.84-.28,10.2-.5,13.06-.44,6.61-1.44,11.03-2.98,13.23-1.54,2.21-4.41,3.75-8.6,4.63-1.77.44-3.86.88-6.28,1.32-2.43.44-5.4.88-8.93,1.32-.88.66-1.32,2.54-1.32,5.62s.44,4.96,1.32,5.62c3.08,0,6.17-.06,9.26-.16,3.08-.11,6.56-.22,10.42-.33,3.85-.11,8.37-.22,13.56-.33,5.18-.11,11.52-.17,19.01-.17,11.68,0,21.16.11,28.43.33,7.27.22,14.33.44,21.16.66.22-.22.5-.88.83-1.98.33-1.1.6-2.26.83-3.47.22-1.21.33-2.37.33-3.47s-.11-1.87-.33-2.31c-3.31-.66-6.78-1.27-10.42-1.82-3.64-.55-6.45-1.16-8.43-1.82-4.63-1.1-7.39-3.25-8.27-6.45-.88-3.19-1.44-6.33-1.65-9.42-.45-6.39-.61-15.81-.5-28.27.11-12.45.16-28.71.16-48.77,0-14.33-.06-27-.16-38.02-.11-11.02.05-19.06.5-24.14.22-4.85.66-8.54,1.32-11.08.66-2.53,2.86-4.46,6.61-5.79,2.2-.66,4.79-1.27,7.77-1.82,2.98-.55,6.12-1.04,9.42-1.49.66-.88.94-2.81.83-5.79-.11-2.97-.39-4.79-.83-5.46-1.77,0-3.86.06-6.28.17-2.43.11-5.57.22-9.42.33-3.86.11-8.6.22-14.22.33-5.62.11-12.4.17-20.33.17-11.46,0-21.05-.17-28.77-.5-7.72-.33-14.55-.5-20.5-.5-.66.66-.99,2.48-.99,5.46s.22,4.91.66,5.79c3.74.45,6.94.88,9.59,1.32m-187.63,0c3.19.44,5.79.99,7.77,1.65,3.74,1.11,6.22,2.81,7.44,5.12,1.21,2.31,1.93,5.12,2.15,8.43.22,3.31.38,6.94.5,10.91.11,3.97.17,8.65.17,14.05v43.81c0,8.38-.06,16.75-.17,25.13-.11,8.38-.22,16.09-.33,23.14-.11,7.06-.22,13.12-.33,18.19-.11,5.07-.28,8.49-.5,10.25-.44,3.97-1.32,6.94-2.65,8.93-1.32,1.98-3.53,3.53-6.61,4.63-3.09.88-5.73,1.49-7.94,1.82-2.21.33-5.95.83-11.24,1.49-.66.66-.99,2.43-.99,5.29s.33,4.85.99,5.95c3.08,0,6.23-.06,9.42-.16,3.19-.11,6.78-.22,10.75-.33,3.97-.11,8.43-.22,13.39-.33,4.96-.11,10.63-.17,17.03-.17s13.33.11,20.83.33c7.49.22,15.09.38,22.81.5,7.71.11,15.37.27,22.98.5,7.6.22,14.82.33,21.66.33,7.27,0,12.23-.45,14.88-1.32,2.65-.88,4.19-1.98,4.63-3.31,1.98-3.09,4.08-7.6,6.28-13.56,2.2-5.95,4.3-12.01,6.28-18.18,1.98-6.17,3.69-11.96,5.12-17.36,1.43-5.4,2.26-9.09,2.48-11.08-.22-.66-.88-1.27-1.98-1.82-1.1-.55-2.31-1.04-3.64-1.49-1.32-.44-2.59-.77-3.8-.99-1.21-.22-2.04-.22-2.48,0-1.32,3.31-2.92,6.78-4.79,10.42-1.88,3.64-3.86,7.27-5.95,10.91-2.1,3.64-4.13,7.06-6.12,10.25-1.98,3.2-3.86,5.9-5.62,8.1-3.09,4.41-6.17,7.33-9.26,8.76-3.09,1.44-6.17,2.15-9.26,2.15h-11.9c-4.19,0-8.16-.05-11.9-.17-3.75-.11-7.22-.27-10.41-.5-3.2-.22-5.79-.55-7.77-.99-1.32-.44-2.65-1.49-3.97-3.14-1.32-1.65-2.1-4.02-2.31-7.11-.22-2.2-.39-6.17-.5-11.9-.11-5.73-.22-12.51-.33-20.33-.11-7.82-.17-16.14-.17-24.96v-25.79c0-16.53.05-30.03.17-40.5.11-10.47.27-17.03.5-19.67.22-4.41.77-7.61,1.65-9.59.88-1.98,3.19-3.52,6.94-4.63,1.76-.44,3.75-.88,5.95-1.32,2.2-.44,5.51-.99,9.92-1.65.44-.88.71-2.81.83-5.79.11-2.97-.17-4.79-.83-5.46-6.17.22-12.9.44-20.17.66-7.27.22-16.86.33-28.77.33-6.83,0-12.62-.05-17.36-.17-4.74-.11-8.93-.22-12.56-.33-3.64-.11-7-.22-10.08-.33-3.09-.11-6.28-.17-9.59-.17-.66.44-1.16,2.15-1.49,5.12-.33,2.98-.17,5.02.5,6.12,3.31.45,6.56.88,9.75,1.32m-208.3-.33c3.19.44,6,1.21,8.43,2.31,3.08,1.11,5.23,2.65,6.45,4.64,1.21,1.99,2.04,5.19,2.48,9.6.22,4.42.38,9.06.5,13.92.11,4.86.16,10.1.16,15.73v87.95c0,12.15-.22,20.43-.66,24.84-.44,4.64-1.32,8.07-2.64,10.27-1.32,2.21-3.2,3.76-5.62,4.63-2.65,1.11-5.57,1.94-8.76,2.49-3.2.55-7.33,1.16-12.4,1.82-.45.22-.78.81-.99,1.77-.22.96-.33,2.03-.33,3.21s.11,2.35.33,3.53c.22,1.18.44,1.98.66,2.41,5.51,0,12.73.11,21.66.33,8.93.22,18.02.38,27.28.5,9.26.11,17.8.27,25.62.5,7.82.22,13.61.33,17.36.33,9.92,0,19.95-.77,30.09-2.31,10.14-1.54,18.95-3.97,26.45-7.27,13.22-5.95,23.14-13.44,29.76-22.48,6.61-9.04,9.92-20.05,9.92-33.06,0-14.55-4.74-25.62-14.22-33.23-9.48-7.6-21.71-12.95-36.7-16.04-.44-.22-.66-.55-.66-.99s.22-.77.66-.99c11.9-3.31,20.99-8.76,27.28-16.37,6.28-7.6,9.42-15.92,9.42-24.96s-1.93-17.14-5.79-22.98c-3.86-5.84-8.88-10.42-15.04-13.72-6.17-3.31-13.12-5.56-20.83-6.78-7.72-1.21-15.43-1.82-23.14-1.82-2.21,0-5.29.06-9.26.17-3.97.11-8.49.22-13.56.33-5.07.11-10.64.22-16.7.33-6.07.11-12.29.17-18.68.17-12.56,0-22.6-.17-30.09-.5-7.5-.33-13.22-.5-17.19-.5-.44.44-.72,2.21-.83,5.29-.11,3.09.17,5.07.83,5.95,2.65.22,5.56.55,8.76,1m106.63,13.39c6.61,7.83,9.92,17.8,9.92,29.92,0,13.01-4.19,22.04-12.56,27.11-1.77,1.1-4.63,1.88-8.6,2.31-3.97.45-8.49.66-13.56.66h-9.42c-2.54,0-4.58-.11-6.12-.33-1.1,0-1.65-.55-1.65-1.65v-36.54c0-6.06.05-11.57.16-16.53.11-4.96.27-8.65.5-11.08.22-.88.55-1.76.99-2.65.44-.88.88-1.43,1.32-1.65,1.1-.44,2.31-.77,3.64-.99,1.32-.22,2.53-.33,3.64-.33,14.55,0,25.13,3.91,31.74,11.74m-19.18,164.49c-1.77-.22-3.69-.66-5.79-1.33-2.1-.66-4.19-1.55-6.28-2.66-2.1-1.11-3.92-2.54-5.46-4.31-1.1-1.11-2.15-2.71-3.14-4.81-.99-2.1-1.49-4.04-1.49-5.81-.22-3.76-.39-8.41-.5-13.93-.11-5.53-.16-11.39-.16-17.59v-37.84c0-1.32.55-1.99,1.65-1.99,1.32-.22,2.92-.33,4.79-.33h5.46c15.87,0,27.94,4.1,36.21,12.28,8.27,8.18,12.4,19.36,12.4,33.51s-3.09,25.78-9.26,33.52c-6.17,7.74-14.33,11.61-24.47,11.61-.88,0-2.21-.11-3.97-.33M637.16,32.5c3.19.55,5.79,1.16,7.77,1.82,3.97,1.1,6.72,3.03,8.27,5.79,1.54,2.76,2.42,6.34,2.65,10.75v31.08c0,10.8.11,21.33.33,31.58.22,10.25.5,19.89.83,28.93.33,9.04.83,16.53,1.49,22.48.88,7.93,2.92,15.6,6.12,22.98,3.19,7.39,7.99,13.89,14.38,19.51,6.39,5.62,14.66,10.14,24.8,13.56,10.14,3.41,22.7,5.12,37.69,5.12,12.78,0,24.41-1.49,34.88-4.46,10.47-2.97,19.51-7.99,27.11-15.04,7.61-7.05,13.61-16.31,18.02-27.77,4.41-11.46,6.94-25.68,7.6-42.65.22-5.51.44-12.18.66-20,.22-7.82.44-15.65.66-23.47.22-7.82.44-15.04.66-21.66.22-6.61.44-11.24.66-13.89.44-8.15,1.49-13.77,3.14-16.86,1.65-3.08,4.57-5.18,8.76-6.28,2.2-.66,4.46-1.21,6.78-1.65,2.31-.44,4.68-.88,7.11-1.32.88-.88,1.32-2.75,1.32-5.62s-.44-4.74-1.32-5.62c-1.98,0-3.97.06-5.95.17-1.98.11-4.46.22-7.44.33-2.98.11-6.61.22-10.91.33-4.3.11-9.54.17-15.7.17-7.72,0-14.94-.17-21.66-.5-6.73-.33-13.17-.5-19.34-.5-.66,1.11-.99,2.98-.99,5.62s.22,4.52.66,5.62c3.74.45,7.33.94,10.75,1.49,3.41.55,6.33,1.16,8.76,1.82,5.51,1.1,9.14,3.31,10.91,6.61,1.76,3.31,2.86,8.16,3.31,14.55.22,4.41.44,10.7.66,18.85.22,8.16.33,16.86.33,26.12s-.17,18.35-.5,27.28c-.33,8.93-.72,16.48-1.16,22.65-.88,11.24-2.92,20.28-6.12,27.11-3.2,6.84-7.11,12.12-11.74,15.87-4.63,3.75-9.75,6.23-15.37,7.44-5.62,1.21-11.19,1.82-16.7,1.82-16.32,0-28.6-3.47-36.87-10.42-8.27-6.94-13.39-16.14-15.38-27.61-1.11-5.95-1.82-12.84-2.15-20.66-.33-7.82-.5-14.93-.5-21.33,0-4.41-.06-9.47-.17-15.21-.11-5.73-.17-11.74-.17-18.02s.05-12.62.17-19.01c.11-6.39.27-12.56.5-18.52.22-5.07,1.1-9.09,2.64-12.07,1.54-2.98,4.41-5.01,8.6-6.12,1.98-.44,4.24-.88,6.78-1.32,2.53-.44,5.34-.88,8.43-1.32.66-1.1.99-3.03.99-5.79s-.33-4.57-.99-5.46c-6.83,0-14.5.17-22.98.5-8.49.33-18.24.5-29.26.5-10.14,0-19.62-.17-28.43-.5-8.82-.33-16.32-.5-22.48-.5-.44.88-.72,2.7-.83,5.46-.11,2.76.05,4.69.5,5.79,3.08.45,6.23.94,9.42,1.49m-104.97,110.27c2.42.22,5.29.33,8.6.33,7.27,0,14.49-.99,21.66-2.98,7.16-1.98,13.94-4.85,20.33-8.6,7.71-4.63,14.43-11.41,20.17-20.33,5.73-8.93,8.6-20,8.6-33.23,0-11.46-2.21-21-6.61-28.6-4.41-7.61-9.7-13.61-15.87-18.02-3.53-2.65-7.27-4.68-11.24-6.12-3.97-1.43-7.93-2.53-11.9-3.31-3.97-.77-7.72-1.27-11.24-1.49-3.53-.22-6.5-.33-8.93-.33h-17.36c-5.18,0-10.31.06-15.37.17-5.07.11-10.2.22-15.38.33-5.18.11-10.86.17-17.03.17-8.82,0-17.36-.17-25.62-.5-8.27-.33-14.83-.5-19.67-.5-.44.66-.72,2.43-.83,5.29-.11,2.87.05,4.85.5,5.95,3.08.45,5.95.88,8.6,1.32,2.64.44,5.18.88,7.61,1.32,4.41,1.1,7.22,3.03,8.43,5.79,1.21,2.76,1.93,6.89,2.15,12.4.44,5.07.66,12.46.66,22.15v40.67c0,20.06-.06,35.93-.17,47.61-.11,11.69-.28,20.72-.5,27.11-.22,4.41-.83,8.16-1.82,11.24-.99,3.09-3.47,5.18-7.44,6.28-2.87.66-5.68,1.21-8.43,1.65-2.76.44-5.79.88-9.09,1.32-.44.66-.66,2.43-.66,5.29s.22,4.85.66,5.95c8.6,0,17.24-.16,25.96-.5,8.7-.33,17.47-.5,26.29-.5,9.26,0,18.79.17,28.6.5,9.81.33,18.13.5,24.96.5,1.1-1.1,1.7-3.03,1.82-5.79.11-2.75-.06-4.57-.5-5.46-4.41-.44-8.38-.88-11.9-1.32-3.53-.44-6.84-1.21-9.92-2.31-4.19-1.1-6.84-3.14-7.94-6.12-1.11-2.98-1.77-6.45-1.98-10.41-.22-4.63-.39-10.36-.5-17.19-.11-6.83-.17-13.94-.17-21.33v-86.96c0-5.84.05-10.69.17-14.55.11-3.85.27-7,.5-9.42,0-1.1.27-2.09.83-2.98.55-.88.93-1.43,1.16-1.65,1.32-.66,2.92-1.1,4.79-1.32,1.87-.22,3.25-.33,4.13-.33,13.22,0,23.42,4.74,30.58,14.22,7.16,9.48,10.85,21.82,11.08,37.03,0,10.58-1.38,18.96-4.13,25.13-2.76,6.17-6.67,10.91-11.74,14.22-4.41,2.87-9.92,4.3-16.53,4.3-4.41,0-7.5-.22-9.26-.66-.88.88-1.32,2.1-1.32,3.64.22,1.11.88,2.81,1.98,5.12,1.1,2.32,2.42,3.92,3.97,4.79,1.76.44,3.85.78,6.28.99M251.32,32.17c2.98.33,5.67.94,8.1,1.82,3.08,1.11,5.29,2.54,6.61,4.3,1.32,1.77,2.2,4.96,2.64,9.59.22,3.09.38,6.89.5,11.41.11,4.52.22,9.54.33,15.04.11,5.51.17,11.3.17,17.36v18.35c0,18.96-.06,34.61-.17,46.95-.11,12.35-.39,23.26-.83,32.73,0,5.29-.77,9.04-2.31,11.24-1.55,2.21-3.86,3.75-6.94,4.63-2.43.66-5.68,1.32-9.75,1.98-4.08.66-8.98,1.44-14.71,2.32-.44.88-.66,2.65-.66,5.29s.22,4.63.66,5.95c9.04,0,19.01-.16,29.92-.5,10.91-.33,20.77-.5,29.59-.5,17.63,0,34.33.22,50.09.66,15.76.44,30.58.66,44.47.66,7.05,0,11.51-.5,13.39-1.49,1.87-.99,3.14-2.26,3.8-3.8,1.54-2.86,3.08-6.61,4.63-11.24,1.54-4.63,3.03-9.42,4.46-14.38,1.43-4.96,2.7-9.53,3.8-13.72,1.1-4.18,1.87-7.27,2.31-9.26-.44-.44-1.16-.93-2.15-1.49-.99-.55-2.15-1.04-3.47-1.49-1.32-.44-2.59-.77-3.8-.99-1.21-.22-2.15-.33-2.81-.33-2.43,5.73-5.18,11.3-8.27,16.7-3.09,5.4-6.17,9.98-9.26,13.72-1.77,2.21-3.47,3.97-5.12,5.29-1.65,1.32-3.47,2.31-5.46,2.97-1.98.66-4.25,1.11-6.78,1.32-2.54.22-5.68.33-9.42.33-9.26,0-17.64-.22-25.13-.66-7.5-.44-12.79-.99-15.87-1.65-1.98-.44-3.64-1.71-4.96-3.8-1.32-2.09-1.98-4.46-1.98-7.11v-58.19c0-.44.27-1.04.83-1.82.55-.77,1.04-1.16,1.49-1.16h22.15c4.18,0,8.04.06,11.57.17,3.52.11,6.06.28,7.6.5,3.31.44,5.73,1.54,7.27,3.31,1.54,1.77,2.86,3.86,3.97,6.28l3.31,13.56c.88.45,3.03.61,6.45.5,3.41-.11,5.56-.38,6.45-.83-.22-4.63-.39-10.25-.5-16.86-.11-6.61-.17-12.12-.17-16.53,0-5.29.22-10.96.66-17.03.44-6.06.77-11.08.99-15.04-.45-.22-1.27-.44-2.48-.66-1.21-.22-2.59-.38-4.13-.5-1.55-.11-2.92-.11-4.13,0-1.21.11-2.04.28-2.48.5-.44,2.21-.88,4.3-1.32,6.28-.44,1.98-.88,3.86-1.32,5.62-1.1,4.19-2.48,7.11-4.13,8.76-1.65,1.65-4.25,2.59-7.77,2.81-2.64.22-5.9.33-9.75.33h-32.24c-1.54,0-2.31-.88-2.31-2.65,0-11.24-.06-22.1-.17-32.57-.11-10.47-.06-20.99.17-31.58,0-.88.33-2.04.99-3.47.66-1.43,1.43-2.26,2.31-2.48,1.32-.22,4.08-.33,8.27-.33h13.56c4.85,0,9.53.06,14.05.17,4.52.11,7.88.28,10.08.5,2.42.22,4.85.88,7.27,1.98,2.42,1.11,4.51,3.31,6.28,6.61,1.32,2.65,2.42,5.84,3.31,9.59.88,3.75,1.87,8.71,2.98,14.88.88.45,2.92.55,6.12.33,3.19-.22,5.34-.66,6.45-1.32.22-4.63.5-9.37.83-14.22.33-4.85.66-9.47.99-13.89.33-4.41.71-8.48,1.16-12.23.44-3.75.99-6.94,1.65-9.59,0-.88-.33-1.32-.99-1.32-5.73.88-12.73,1.44-20.99,1.65-8.27.22-15.6.33-21.99.33h-66.46c-3.97,0-8.21-.05-12.73-.17-4.52-.11-8.98-.22-13.39-.33-4.41-.11-8.65-.22-12.73-.33-4.08-.11-7.77-.17-11.08-.17-.44.22-.77.88-.99,1.98-.22,1.11-.33,2.26-.33,3.47v3.47c0,1.11.22,1.88.66,2.31,3.08.45,6.12.83,9.09,1.16m-234.92.33c3.08.55,5.62,1.05,7.6,1.49,5.95,1.32,9.04,6.28,9.26,14.88.44,7.27.66,16.2.66,26.78v59.02c0,7.61-.06,15.16-.17,22.65-.11,7.5-.22,14.33-.33,20.5-.11,6.17-.28,10.58-.5,13.23-.22,5.07-.99,8.82-2.31,11.24-1.32,2.43-3.75,4.08-7.27,4.96-2.21.44-4.52.88-6.94,1.32-2.43.44-5.18.88-8.27,1.32-.44.44-.72,1.16-.83,2.15-.11.99-.17,2.15-.17,3.47s.11,2.54.33,3.64c.22,1.1.55,1.76.99,1.98,3.52,0,9.14-.16,16.86-.5,7.71-.33,18.52-.5,32.4-.5s23.81.17,31.74.5c7.94.33,13.77.5,17.52.5.44-.22.83-.88,1.16-1.98.33-1.1.5-2.32.5-3.64s-.06-2.59-.16-3.8c-.11-1.21-.39-1.82-.83-1.82-4.41-.66-7.66-1.16-9.75-1.49-2.1-.33-4.69-.94-7.77-1.82-3.53-1.1-5.9-2.75-7.11-4.96-1.21-2.2-1.93-5.73-2.15-10.58-.22-7.05-.39-15.43-.5-25.13-.11-9.7-.17-19.72-.17-30.09,0-.44.11-.88.33-1.32.22-.44.55-.66.99-.66h7.93c2.42.22,4.35.83,5.79,1.82,1.43.99,2.7,2.37,3.8,4.13,2.65,4.41,5.56,9.37,8.76,14.88,3.19,5.51,6.5,11.08,9.92,16.7,3.41,5.62,6.89,11.08,10.41,16.37,3.52,5.29,6.94,9.92,10.25,13.89,1.1,1.54,3.14,3.75,6.12,6.61,2.98,2.87,6.45,5.29,10.42,7.27,3.31,1.54,7.77,2.76,13.39,3.64,5.62.88,11.57,1.6,17.85,2.15,6.28.55,12.57.83,18.85.83s11.85-.22,16.7-.66c.22-.22.55-.94.99-2.15.44-1.21.77-2.48.99-3.8.22-1.32.38-2.59.5-3.8.11-1.21.05-1.93-.17-2.15-4.19-.44-7.6-.93-10.25-1.49-2.65-.55-4.96-1.27-6.94-2.15-1.98-.88-3.97-2.15-5.95-3.8-1.98-1.65-4.41-3.91-7.27-6.78-3.97-3.97-8.65-9.37-14.05-16.2-5.4-6.83-10.69-13.89-15.87-21.16-5.18-7.27-9.87-14.16-14.05-20.67-4.19-6.5-7.06-11.29-8.6-14.38-.45-1.1-.33-1.98.33-2.65,11.02-4.41,20.22-10.58,27.61-18.51,7.38-7.94,11.08-18.4,11.08-31.41,0-14.99-5.35-27.16-16.04-36.54-10.69-9.37-26.29-14.05-46.79-14.05-9.92,0-19.73.17-29.43.5-9.7.33-20.83.5-33.39.5-3.09,0-6.89-.05-11.41-.17-4.52-.11-9.04-.22-13.56-.33-4.52-.11-8.71-.22-12.56-.33-3.86-.11-6.78-.17-8.76-.17-.88.44-1.44,2.15-1.65,5.12-.22,2.98,0,5.02.66,6.12,3.08.45,6.17.94,9.26,1.49m105.64,14.38c7.16,8.6,10.75,19.84,10.75,33.73,0,10.58-1.38,18.3-4.13,23.14-2.76,4.85-6.34,8.38-10.75,10.58-1.54.88-3.58,1.6-6.12,2.15-2.54.55-5.4.99-8.6,1.32-3.2.33-6.61.55-10.25.66-3.64.11-7.22.06-10.75-.17-1.32,0-1.98-.88-1.98-2.65v-51.41c0-12.23.22-20.22.66-23.97,0-.66.22-1.54.66-2.65.44-1.1.99-1.87,1.65-2.31,1.1-.44,2.59-.77,4.46-.99,1.87-.22,3.36-.33,4.46-.33,12.78,0,22.76,4.3,29.92,12.89"></path><path class="cls-1" d="m1226.98,288.49h41.63c18.83,0,28.25,7.49,28.25,22.49,0,4.15-.58,7.69-1.73,10.61-1.15,2.92-2.98,5.29-5.48,7.09-2.5,1.81-5.71,3.11-9.63,3.92s-8.61,1.21-14.07,1.21h-38.98v-45.32Zm79.22,81.53c-4.69-12.84-11.65-20.79-20.87-23.87,4.54-1.15,8.63-2.75,12.28-4.79,3.65-2.04,6.75-4.55,9.28-7.55,2.54-3,4.5-6.42,5.88-10.26,1.38-3.84,2.07-8.03,2.07-12.57,0-3.92-.54-7.71-1.61-11.36-1.08-3.65-2.58-6.99-4.5-10.03-1.92-3.04-4.23-5.65-6.92-7.84-2.69-2.19-5.65-3.79-8.88-4.79-3.23-1-6.94-1.73-11.13-2.19-4.19-.46-8.82-.69-13.9-.69h-58.35v131.81h17.41v-56.39h32.29c3.3,0,6.47.52,9.51,1.56,3.04,1.04,5.8,2.5,8.3,4.38,2.5,1.89,4.69,4.13,6.57,6.75,1.88,2.61,3.4,5.46,4.56,8.53l12.34,35.17h18.91l-13.26-35.86Zm-196.62-18.1l22.14-61.12,23.18,61.12h-45.32Zm31.71-77.84h-18.8l-50.74,131.81h18.45l14.65-40.13h55.24l15.22,40.13h19.72l-53.74-131.81Zm-79.11,116.12h-80.84v-44.63h72.76v-15.57h-72.76v-40.36h77.84v-15.57h-95.25v131.81h98.25v-15.68Zm-133.31-116.12l-26.29,107.36-29.75-107.36h-20.87l-29.75,107.36-26.29-107.36h-18.45l36.44,131.81h16.72l31.83-114.62,31.6,114.62h16.72l36.56-131.81h-18.45Zm-157.64,0h-104.48v15.57h43.24v116.24h17.53v-116.24h43.71v-15.57Zm-198.17,115.49c-5.5-2.42-10.24-5.92-14.24-10.49-4-4.57-7.11-10.15-9.34-16.72-2.23-6.57-3.34-14.05-3.34-22.43s1.13-15.87,3.4-22.49c2.27-6.61,5.42-12.18,9.45-16.72,4.04-4.53,8.82-7.99,14.36-10.38,5.54-2.38,11.57-3.57,18.1-3.57s12.41,1.19,17.87,3.57c5.46,2.38,10.17,5.86,14.13,10.44,3.96,4.58,7.05,10.15,9.28,16.72,2.23,6.57,3.34,14.05,3.34,22.43s-1.12,15.86-3.34,22.43c-2.23,6.57-5.34,12.15-9.34,16.72-4,4.58-8.75,8.07-14.24,10.49-5.5,2.42-11.51,3.63-18.05,3.63s-12.55-1.21-18.05-3.63m-7.27-112.9c-7.73,3.27-14.4,7.88-20.01,13.84-5.61,5.96-9.98,13.13-13.09,21.51-3.11,8.38-4.67,17.68-4.67,27.91s1.56,19.53,4.67,27.91c3.11,8.38,7.48,15.57,13.09,21.56,5.61,6,12.28,10.63,20.01,13.9,7.73,3.27,16.2,4.9,25.43,4.9s17.58-1.63,25.31-4.9c7.73-3.27,14.38-7.9,19.95-13.9,5.57-6,9.92-13.18,13.03-21.56,3.11-8.38,4.67-17.68,4.67-27.91s-1.56-19.53-4.67-27.91c-3.11-8.38-7.46-15.55-13.03-21.51-5.57-5.96-12.22-10.57-19.95-13.84-7.73-3.27-16.16-4.9-25.31-4.9s-17.7,1.63-25.43,4.9m-136.07,112.9c-5.5-2.42-10.24-5.92-14.24-10.49-4-4.57-7.11-10.15-9.34-16.72-2.23-6.57-3.34-14.05-3.34-22.43s1.13-15.87,3.4-22.49c2.27-6.61,5.42-12.18,9.46-16.72,4.04-4.53,8.82-7.99,14.36-10.38,5.54-2.38,11.57-3.57,18.1-3.57s12.41,1.19,17.87,3.57c5.46,2.38,10.17,5.86,14.13,10.44,3.96,4.58,7.05,10.15,9.28,16.72,2.23,6.57,3.34,14.05,3.34,22.43s-1.11,15.86-3.34,22.43c-2.23,6.57-5.34,12.15-9.34,16.72-4,4.58-8.75,8.07-14.24,10.49-5.5,2.42-11.51,3.63-18.05,3.63s-12.55-1.21-18.05-3.63m-7.27-112.9c-7.73,3.27-14.4,7.88-20.01,13.84-5.61,5.96-9.98,13.13-13.09,21.51-3.11,8.38-4.67,17.68-4.67,27.91s1.56,19.53,4.67,27.91c3.11,8.38,7.48,15.57,13.09,21.56,5.61,6,12.28,10.63,20.01,13.9,7.73,3.27,16.2,4.9,25.43,4.9s17.59-1.63,25.31-4.9c7.73-3.27,14.37-7.9,19.95-13.9,5.57-6,9.92-13.18,13.03-21.56,3.11-8.38,4.67-17.68,4.67-27.91s-1.56-19.53-4.67-27.91c-3.11-8.38-7.46-15.55-13.03-21.51-5.58-5.96-12.22-10.57-19.95-13.84-7.73-3.27-16.16-4.9-25.31-4.9s-17.7,1.63-25.43,4.9m-55.29-2.6h-88.91v131.81h17.41v-59.73h62.04v-15.68h-62.04v-40.82h71.5v-15.57Z"></path></svg> 