<?xml version="1.0" encoding="UTF-8"?> <svg xmlns="http://www.w3.org/2000/svg" id="Layer_1" viewBox="0 0 246.62 51.77"><defs><style>.cls-1{fill:#1d1d1b;}</style></defs><path class="cls-1" d="M191.7,42.55l.9,7.33-3.14,.48,.94-7.81h-4.05s.17-2.43,.17-2.43l9.24,.02-.17,2.42h-3.89Z"></path><path class="cls-1" d="M45.47,47.53c1.08,0,1.89,.85,1.89,2.12,0,1.21-.81,2.12-1.9,2.11s-1.89-.91-1.89-2.12c0-1.27,.82-2.12,1.9-2.12Zm.01-6.54c1.08,0,1.89,.85,1.89,2.12,0,1.21-.82,2.12-1.9,2.11s-1.89-.91-1.89-2.12c0-1.27,.81-2.12,1.9-2.12Z"></path><path class="cls-1" d="M83.96,40.1c1.08,0,1.89,.85,1.89,2.12,0,1.21-.81,2.12-1.9,2.11s-1.89-.91-1.89-2.12c0-1.27,.82-2.12,1.9-2.11Z"></path><path class="cls-1" d="M150.42,46.38c1.08,0,1.89,.85,1.89,2.12,0,1.21-.81,2.12-1.9,2.11s-1.89-.91-1.89-2.12c0-1.27,.82-2.12,1.9-2.11Zm.01-6.54c1.08,0,1.89,.85,1.89,2.12,0,1.21-.82,2.12-1.9,2.11s-1.89-.91-1.89-2.12c0-1.27,.81-2.12,1.9-2.11Z"></path><path class="cls-1" d="M14.28,43.44l-9.24-.02,.17-2.42,9.24,.02-.17,2.42Z"></path><g><path class="cls-1" d="M18.33,24.9c0,2.58-.89,4.77-2.64,6.58-1.76,1.81-3.87,2.71-6.33,2.71-1.45,0-3.17-.5-5.18-1.49-.53-.27-.94-.41-1.2-.41-.32,0-.52,.41-.6,1.24-.03,.43-.2,.64-.52,.64-.27,0-.4-.18-.4-.54,0-.24,.01-.42,.04-.54,.22-1.83,.33-3.52,.33-5.08,0-.3-.02-1.14-.07-2.52-.03-.18-.04-.42-.04-.72,0-.45,.16-.67,.48-.67,.27,0,.45,.36,.56,1.09,.69,5.39,2.94,8.09,6.77,8.1,1.63,0,2.9-.51,3.8-1.54,.9-1.03,1.35-2.49,1.35-4.38,0-1.68-.43-3.11-1.3-4.3-.87-1.19-2.36-2.37-4.47-3.54-2.54-1.41-4.3-2.78-5.29-4.1-.99-1.32-1.48-2.95-1.48-4.9,0-2.49,.73-4.54,2.16-6.16,1.44-1.62,3.25-2.42,5.45-2.42,.91,0,2.17,.35,3.77,1.04,.56,.24,.98,.36,1.24,.36,.29,0,.49-.06,.58-.18,.09-.12,.18-.43,.26-.94,.05-.3,.2-.45,.44-.45,.27,0,.4,.18,.4,.54,0,.24-.01,.42-.04,.54-.08,.72-.12,1.59-.13,2.61,0,1.44,.06,2.58,.19,3.42l.04,.72c.03,.33-.1,.49-.36,.49-.3,0-.49-.35-.6-1.04-.29-1.77-.98-3.25-2.08-4.43-1.09-1.19-2.32-1.78-3.69-1.78-1.34,0-2.4,.47-3.19,1.43-.79,.96-1.19,2.26-1.19,3.91,0,1.92,.57,3.46,1.72,4.63,.64,.66,2.03,1.59,4.17,2.8,2.51,1.41,4.32,2.85,5.41,4.31,1.09,1.46,1.64,3.11,1.64,4.97Z"></path><path class="cls-1" d="M59.9,33.46c0,.26-.2,.38-.6,.38-.27,0-.51-.02-.72-.05l-5.1-.19-5.1,.17c-.19,.03-.39,.04-.6,.04-.54,0-.8-.16-.8-.47,0-.35,.36-.52,1.09-.52,2.36-.02,3.53-.29,3.54-.79,0-.03-.03-.15-.08-.35l-.32-1.19-.2-.63c-.24-.93-.82-2.99-1.75-6.17l-8.58-.02c-1.62,4.79-2.42,7.55-2.42,8.27,0,.42,.16,.67,.48,.76,.08,.03,.75,.09,2.01,.18,.78,.03,1.16,.18,1.16,.45,0,.3-.35,.45-1.05,.45-1.23,0-2.66-.07-4.29-.19-.4-.03-.82-.05-1.25-.05-.43,0-.84,.05-1.25,.15-.21,.05-.39,.07-.52,.07-.37,0-.56-.14-.56-.41,0-.27,.42-.42,1.27-.45,.84-.03,1.45-.17,1.83-.42,.37-.25,.67-.74,.89-1.46,3.47-11.06,6.29-19.94,8.46-26.64,.06-.35,.19-.75,.38-1.19l.17-.82c.08-.33,.19-.49,.32-.49,.08,0,.15,.09,.2,.27,.35,1.17,1.13,3.61,2.35,7.33,.96,2.91,3.34,10.21,7.14,21.91,.21,.68,.49,1.11,.82,1.3,.33,.19,1.02,.3,2.07,.33,.7,.03,1.04,.17,1.04,.43Zm-10.85-10.79c-.43-1.35-1.15-3.59-2.15-6.71l-1.92-6.24c-1.14,3.31-2.5,7.62-4.1,12.92l8.16,.02Z"></path><path class="cls-1" d="M94.8,30.27c0,.78-.04,2.07-.13,3.87h-.44c-.16,0-.55-.03-1.16-.09-.61-.06-1.31-.09-2.08-.09l-16.67-.17c-.45,0-.68-.14-.68-.41,0-.21,.36-.34,1.09-.4,1.02-.06,1.63-.18,1.83-.38,.2-.19,.3-.76,.3-1.69l.05-25.27c0-1.11-.1-1.75-.3-1.93s-.92-.27-2.15-.27c-.51,0-.76-.17-.76-.5,0-.27,.16-.4,.48-.4h.36c.88,.09,2.63,.14,5.26,.15,.24,0,.71-.02,1.41-.06,.7-.04,1.27-.06,1.73-.06h.44c.48,0,.72,.15,.72,.45,0,.18-.07,.29-.22,.34-.15,.04-.61,.08-1.38,.11-.78,.03-1.24,.17-1.39,.42-.15,.25-.22,1.04-.23,2.36l-.06,26.53c.72,.03,1.73,.05,3.01,.05,3.13,0,5.34-.17,6.63-.53,1.29-.36,2.16-1.03,2.61-2.02,.46-.99,.73-2.32,.81-4,.03-.39,.18-.58,.46-.58,.34,0,.49,.23,.46,.68v1.12c0,.06,0,.2,0,.4,0,.21,0,.42,0,.63v1.75Z"></path><path class="cls-1" d="M121.21,33.5c0,.25-.16,.38-.48,.38h-.4c-.16-.09-1.98-.14-5.46-.15-.67,0-1.34,.03-2.01,.09-.35,.03-.88,.04-1.61,.04-.35,0-.52-.14-.52-.41,0-.24,.35-.37,1.05-.4,1.07-.03,1.7-.17,1.89-.42,.19-.26,.28-1.12,.29-2.59l.05-23.72c0-1.47-.06-2.3-.2-2.48-.16-.3-.91-.48-2.23-.55-.52-.03-.77-.13-.77-.32,0-.24,.16-.36,.49-.36h5.46c.4,.01,1.19,.03,2.35,.06l1.54-.04c.43,0,.65,.13,.65,.38,0,.23-.6,.37-1.79,.42-.68,.03-1.09,.16-1.24,.4s-.22,.87-.23,1.89l-.05,24.01c0,1.71,.06,2.64,.2,2.79,.29,.33,1.16,.53,2.61,.59,.29,0,.44,.13,.44,.38Z"></path><path class="cls-1" d="M162.59,3.17c0,.3-.34,.43-1,.4h-.88s-.72,0-.72,0c-.43,0-.68,.08-.76,.25-.08,.16-.12,.67-.12,1.5l-.05,25.86c0,1.59-.02,2.51-.05,2.78-.03,.27-.11,.4-.24,.4-.16,0-.35-.17-.56-.5l-5.11-8.43c-2.96-4.91-6.57-11.05-10.81-18.4l-.05,25.18c.03,.39,.23,.64,.61,.75,.38,.11,1.28,.18,2.72,.21,.35,0,.53,.12,.53,.36,0,.3-.35,.45-1.05,.45-.24,0-1-.05-2.29-.14-.43-.03-.84-.05-1.25-.05,.03,0-.21,.03-.7,.09-.5,.06-1.25,.09-2.27,.08h-.4c-.62,0-.92-.14-.92-.41,0-.27,.27-.4,.8-.4,1.58-.03,2.5-.14,2.75-.33,.25-.2,.38-.83,.38-1.91l.05-22.2c0-2.49-.45-4.05-1.35-4.69-.43-.3-1.19-.45-2.29-.45-.7,0-1.04-.16-1.04-.48,0-.28,.2-.42,.6-.42,.54,0,1.22,.03,2.05,.09,.83,.06,1.27,.09,1.32,.09,.08,0,.45-.01,1.12-.04,.88,0,1.74-.04,2.57-.13l13.8,23.18,.04-20.01c0-.93-.01-1.49-.04-1.69-.03-.19-.13-.34-.32-.45-.19-.11-.83-.16-1.93-.16-.96,0-1.45-.14-1.44-.41,0-.3,.32-.45,.96-.45h1.41c.35,0,.72,0,1.12,0,.43,0,.68,0,.76,0,.03,0,.27,0,.72,0,.43,0,.83,0,1.2,0h1.24c.59,0,.88,.15,.88,.45Z"></path><path class="cls-1" d="M205.36,33.7c0,.27-.19,.4-.56,.4h-.32s-4.82-.01-4.82-.01h-4.7c-.16-.01-.33-.01-.52-.01-.51,0-.76-.11-.76-.34s.34-.37,1-.42c1.39-.15,2.09-.4,2.09-.76,0-.39-3.64-5.27-10.93-14.63l-.03,12.96c0,1.05,.14,1.7,.44,1.95,.29,.25,1.08,.38,2.37,.39,.29,0,.44,.15,.44,.45,0,.27-.19,.4-.56,.4-.27,0-.51,0-.72,0h-5.58c-.35-.01-.76-.01-1.22-.01s-.94,0-1.43,0h-.36c-.4,0-.6-.13-.6-.39,0-.28,.5-.44,1.49-.47,.91-.03,1.45-.25,1.61-.67,.08-.15,.12-1.09,.13-2.83l.05-25.04c-.03-.63-.77-.95-2.22-.95-.66,0-.99-.17-.99-.5,0-.27,.23-.4,.69-.4,.14,0,.31,.02,.53,.05,.43,.06,1.63,.09,3.6,.1,2.1,0,3.44-.02,4.01-.08,.3-.03,.61-.04,.93-.04,.49,0,.73,.17,.73,.5,0,.18-.07,.29-.22,.34-.15,.04-.62,.08-1.4,.11-.79,.03-1.25,.15-1.4,.36-.15,.21-.23,.88-.23,2.02l-.02,10.97,3.42-3.81c5.18-5.8,7.77-8.82,7.77-9.06,0-.39-.63-.57-1.89-.55-.8,.03-1.2-.12-1.2-.45,0-.21,.19-.33,.56-.36,.37-.03,1.67-.04,3.89-.04h2.21c.94,0,1.47,.02,1.61,.05,.27,.06,.4,.21,.4,.45,0,.33-.3,.49-.89,.49-1.24-.03-2.03,0-2.37,.09-.35,.09-.7,.34-1.05,.75-1.74,2.04-4.39,5.1-7.95,9.18l-1.07,1.13-.52,.64c.16,.21,.83,1.02,2,2.43,2.24,2.61,5.46,6.8,9.65,12.57,.88,1.2,1.49,1.92,1.82,2.16,.33,.24,.98,.39,1.95,.45,.78,.06,1.16,.21,1.16,.45Z"></path><path class="cls-1" d="M244.67,33.85c0,.26-.2,.38-.6,.38-.27,0-.51-.02-.72-.05l-5.1-.19-5.1,.17c-.19,.03-.39,.04-.6,.04-.54,0-.8-.16-.8-.47,0-.35,.36-.52,1.09-.52,2.36-.02,3.53-.29,3.54-.79,0-.03-.03-.15-.08-.35l-.32-1.19-.2-.63c-.24-.93-.82-2.99-1.75-6.17l-8.58-.02c-1.62,4.79-2.42,7.55-2.42,8.27,0,.42,.16,.67,.48,.77,.08,.03,.75,.09,2.01,.18,.78,.03,1.16,.18,1.16,.45,0,.3-.35,.45-1.05,.45-1.23,0-2.66-.07-4.29-.19-.4-.03-.82-.05-1.25-.05-.43,0-.84,.05-1.25,.15-.21,.05-.39,.07-.52,.07-.37,0-.56-.14-.56-.41,0-.27,.42-.42,1.27-.45,.84-.03,1.45-.17,1.83-.42,.37-.25,.67-.74,.89-1.46,3.47-11.06,6.29-19.94,8.46-26.64,.06-.35,.19-.75,.38-1.19l.17-.82c.08-.33,.19-.49,.32-.49,.08,0,.15,.09,.2,.27,.35,1.17,1.13,3.61,2.35,7.33,.96,2.91,3.34,10.21,7.14,21.91,.21,.68,.49,1.11,.82,1.3,.33,.19,1.02,.3,2.07,.33,.7,.03,1.04,.17,1.04,.43Zm-10.85-10.79c-.43-1.35-1.15-3.58-2.15-6.71l-1.92-6.24c-1.14,3.31-2.5,7.62-4.1,12.92l8.16,.02Z"></path></g></svg> 