<?xml version="1.0" encoding="UTF-8"?> <svg xmlns="http://www.w3.org/2000/svg" xmlns:xlink="http://www.w3.org/1999/xlink" width="270.18" height="56.181" viewBox="0 0 270.18 56.181"><defs><clipPath id="clip-path"><rect id="Rectangle_105" data-name="Rectangle 105" width="56.37" height="56.181" fill="none"></rect></clipPath><clipPath id="clip-path-2"><path id="Path_61" data-name="Path 61" d="M30.707,48.349h0ZM45.634,15.313l.291-.32ZM30.711,10.923h0a29.936,29.936,0,0,0-8.529,1.943C18.857,14,15.2,15.484,11.582,16.849a17.562,17.562,0,0,1-6.135.945c-.889,0-1.794-.053-2.7-.125a27.468,27.468,0,0,0,0,23.927c.911-.072,1.816-.117,2.707-.117a17.553,17.553,0,0,1,6.135.946c3.622,1.364,7.274,2.845,10.6,3.984a29.949,29.949,0,0,0,8.528,1.941h.214a17.911,17.911,0,0,0,13.254-5.993A19.277,19.277,0,0,0,49.365,29.65v-.028a19.278,19.278,0,0,0-5.187-12.707,17.913,17.913,0,0,0-13.254-5.993h-.212M4.217,15.032c.408.018.825.05,1.222.05h.025a15.328,15.328,0,0,0,5.313-.8c3.586-1.349,7.252-2.838,10.665-4.007a31.853,31.853,0,0,1,9.241-2.065h0l.239,0h0a20.294,20.294,0,0,1,15,6.784,22.087,22.087,0,0,1,5.917,14.643h0a22.087,22.087,0,0,1-5.917,14.643,20.294,20.294,0,0,1-15,6.784h0l-.239,0h0A31.861,31.861,0,0,1,21.441,49c-3.412-1.169-7.079-2.658-10.665-4.007a15.324,15.324,0,0,0-5.318-.8H5.442c-.4,0-.819.021-1.233.039a27.421,27.421,0,1,0,.008-29.2" transform="translate(-0.001 -2.215)" fill="none"></path></clipPath></defs><g id="Group_11143" data-name="Group 11143" transform="translate(-602.927 -9.862)"><g id="Group_11141" data-name="Group 11141" transform="translate(602.927 9.862)"><g id="Group_11138" data-name="Group 11138" transform="translate(0 0)"><g id="Group_11137" data-name="Group 11137" clip-path="url(#clip-path)"><path id="Path_59" data-name="Path 59" d="M22.181,46.407a29.949,29.949,0,0,0,8.528,1.942h.213a17.912,17.912,0,0,0,13.255-5.994A19.274,19.274,0,0,0,49.364,29.65v-.028a19.274,19.274,0,0,0-5.186-12.706,17.914,17.914,0,0,0-13.255-5.994H30.71a29.931,29.931,0,0,0-8.529,1.943C18.857,14,15.2,15.483,11.582,16.848a17.563,17.563,0,0,1-6.135.946c-.889,0-1.794-.053-2.7-.125a27.461,27.461,0,0,0,0,23.926c.91-.071,1.816-.117,2.706-.117a17.554,17.554,0,0,1,6.135.946c3.622,1.364,7.274,2.845,10.6,3.983M54.842,29.636a27.418,27.418,0,0,0-50.625-14.6c.408.017.825.05,1.222.05h.024a15.3,15.3,0,0,0,5.313-.8c3.586-1.349,7.252-2.838,10.665-4.007a31.893,31.893,0,0,1,9.241-2.065h.243a20.292,20.292,0,0,1,15,6.784l-.291.32.291-.32a22.081,22.081,0,0,1,5.917,14.642h0a22.081,22.081,0,0,1-5.917,14.643,20.293,20.293,0,0,1-15,6.784h-.243A31.9,31.9,0,0,1,21.441,49c-3.412-1.169-7.079-2.658-10.665-4.007a15.31,15.31,0,0,0-5.318-.8H5.442c-.4,0-.819.021-1.232.039A27.418,27.418,0,0,0,54.842,29.636" transform="translate(0 -0.876)" fill="#b7c91c"></path></g></g><g id="Group_11140" data-name="Group 11140" transform="translate(0.001 1.339)"><g id="Group_11139" data-name="Group 11139" clip-path="url(#clip-path-2)"><path id="Path_60" data-name="Path 60" d="M37.483,13.235l.129-.16-.207-.149.088-.158-.045-.323-.418-.051-.115-.189-.442.006-.319.2-.209.157-.208-.074.045-.23.382-.14L36.626,12l.176-.192-.311-.013-.33-.146-.414-.1-.282-.219-.312-.218-.141-.2.16-.039.034-.144-.31-.339-.359-.368-.509-.637L33.854,9.1l-.265.377c.016.109.024.218.036.328l-.32.125-.2.229-.32-.014L32.7,9.931l-.221-.158-.311.071.073-.364c-.008-.16-.015-.319-.024-.476l-.03-.252-.363-.016-.287-.183-.26-.262-.444-.279-.166.13-.38-.019-.152-.1-.426,0-.19.177.135.262-.094.347.028.236.124.325-.236,0-.01.311-.17.171.2.143.3.23.067.411q-.016.235-.029.473l-.261.328-.35.256-.467.053.227.415c-.015.175-.026.354-.041.533l.112.311-.1.25-.236.312-.479.052-.23-.453-.285-.39c.011-.108.025-.216.036-.325L27.721,12l.1-.373-.556-.081-.417-.025-.194-.133-.494-.138-.149-.221-.385-.246-.386-.261-.615.129-.071-.236-.077-.535-.23-.148-.109-.21.279-.628.425-.458.4-.4.374-.135.322-.2-.031-.224-.355-.1L25.177,7.2l.475.091.379.118.206-.043.119-.229.307.129.215-.042.07-.183.151-.075.139-.241-.229-.034-.3-.036-.065-.137-.285-.155.224.019.333.111.217.095.275-.085.23-.217-.126-.178.242,0,.1.163-.171.172-.2.326c-.037.135-.075.273-.109.412l-.288.089.024.188.278.022a.311.311,0,0,0-.008.178,1.029,1.029,0,0,0,.349-.033l.152-.217.355.022.189.033.18.1.288,0,.063-.234-.273-.065-.08-.294-.326-.035-.21-.23-.225-.063c.013-.056.027-.11.042-.166l.21.05.127-.118,0-.132.262,0,.137-.189.281-.182.109-.156-.1-.169-.056-.279.225-.037.1-.2-.118-.2-.194-.106-.227-.16.3.005.061-.1.216.028.154.117.252-.01.236-.05L29.726,4.4l.135-.037.167.219.224.027.075.209.168.041.088.158.184.082.095.2.219.082.184.209.041.253-.279.271-.247.276.122.268-.437.058-.228-.06-.247,0-.326.222c-.011.081-.018.163-.026.243L30,7.191l.3-.016.081-.137.14-.076.188.046.356.108.351.343.078.188.224.24h.318l.351.321.5.016.34.143.01-.195-.567-.4L32.445,7.6l-.12-.188.352.171.611.3.328.175c-.01-.1-.026-.193-.037-.289l.132-.253-.3-.155L33.3,6.974,32.9,6.84l-.486-.475.132-.132.126-.117.631.437.248.282.26.044.012-.33.28-.123.014-.131.2,0,.05-.147L34.3,5.931l-.389,0-.023-.114L33.62,5.64l-.167-.027L33.192,5.5l-.188,0-.078-.152-.085-.135-.313,0L32.4,5.208c-.008-.077-.017-.153-.025-.228l.216,0,.1-.1-.3-.079.025-.091.133-.027-.18-.154-.221-.062.066-.14-.233-.1-.243.011L31.7,4.125l-.2-.012-.082-.024.156-.109-.213-.072-.268.071-.171-.192-.015-.106-.159-.013V3.54L30.5,3.447l-.318,0-.061.1-.169.021-.15-.036-.078.126-.161.01.028-.162.128-.147-.1-.2-.018-.174-.264,0-.168.128-.186.009-.16.085-.1.177.05.2-.131.126.083.252-.149.022-.112-.218.049-.279.057-.183.2-.184.241-.148c-.082,0-.161,0-.242,0l-.274.027-.343.212-.307.313-.209.408.22.054.166.016.012.161-.182-.042-.235.059.091.2.248,0,.144-.047.125.129.286.119-.219.061-.071.183.106.133-.345.359-.2.261-.244.206-.143-.087-.018-.32.194-.188-.192-.3-.33.221-.152-.415-.089-.056.123-.2.069-.227-.125-.029.089-.181-.1-.21-.248-.019-.115.117-.118.01-.238.189-.037.163-.11.125.094.221.135.148-.174.195-.215-.06L25.8,5.1l.218-.008.319-.154c-.042.08-.082.16-.12.242l-.543.233-.146.362-.172-.2.2-.246L25.39,5.32l.115-.229.152.005.14-.332-.238-.206-.223.23-.258.1.178.265-.25.142-.172.192-.655,0-.216-.162-.2-.051-.142-.213-.31.138-.435.149-.1.238-.314.363.13-.444-.17-.177-.392.063-.625-.119.1-.122.334-.094-.119-.242H21.5l-.326-.256.048-.173-.192-.054-.153,0-.223.134-.174.027.251-.32-.419.267-.1-.051.319-.368-.073-.073-.352.224-.293.14-.2.023-.345.093-.411.146.487-.235.264-.059.223-.064L20.04,4.1l-.033-.03-.348.089-.436.138h-.145l-.111-.012-.541.2-.158-.063.175-.255-.238-.061.094-.134-.054-.066-.262.048.1-.133-.14-.024.013-.12-.122-.024-.068-.015a29.045,29.045,0,0,0-5.48,4.074l.229-.058-.044.143-.387.153-.265.212-.121.122L11.5,8.5l.545-.26.264-.047a1.477,1.477,0,0,1,.383-.385l.152.045-.086.265-.018.221.093.125.236-.057.036.134.133.017-.053.234.053.229c0,.1.011.247.016.352l.17-.051.023.171-.086.252.16.129-.213.221.118.184-.193.209.091.1.133.053L13.3,10.9l-.054.283-.166.316-.115.3.2.058-.152.362.044.363-.074.255.147.213.185.158.169.115-.06.2.16.277.111.235-.1.487c-.059.127-.114.256-.171.384l-.054-.257-.044-.334.05-.2-.132-.215-.115-.091.128-.316-.177-.016L13,13.305l-.092-.089-.1-.07-.175.025-.007.265.094.17.068.232.2.387-.048.391-.071.5-.18.388-.245.534c-.08.2-.161.4-.237.607l-.19.135c-.05.135-.1.268-.148.4l.017.44-.2.4-.061.33.037.29-.141.418.073.364.163.3-.007.612.154.264-.024.317.123.378.308.022.175.264.309.229.187.337v.4l.06.4.065.661.181.3.236.343.046.241-.25.2.118.27.256.274.339.307.184.322-.06.26.06.221.282.159.258.3.181.252,0,.29.166-.088.057-.313-.095-.365-.25-.157-.013-.314-.276-.277-.08-.41-.076-.386-.222-.3-.031-.381-.234-.131-.088-.476-.222-.411.041-.515.225-.008.294.179.147.29-.042.443.272.6.314.489.3.351.209.345.025.383.345.255.239.373.178.392.4.55.148.469.222.227-.236.161-.071.288.472.461.4.383.491.191.515.365.609.316.683.389.56.19.356-.013.112-.193.4-.035.454.255.5.427.281.348.413.01.161,0,.235.1.259.368.515.18.02-.242.282.152c.845,1.161.845,1.161.776,1.4l.168.193.209-.092.288.144c.57.525.57.525.836.508l.719.359.385.167-.03-.372.184-.233.669.054.076.233.216-.019.117-.3-.242-.287-.7-.005-.454-.029-.668-.054-.312-.215-.434-.456.017-.36c0-.158,0-.318,0-.479l.136-.6c0-.137,0-.275,0-.412l-.219-.322-.426-.228-.638.039-.447-.107-.494.187-.327-.224.3-.24v-.443l.118-.268.167-.437q0-.245.008-.491l.285-.187.053-.366-.208-.146-.7.034-.441.061-.194.337-.193.508-.212.458-.369.042-.528.133-.543.06-.246-.352-.447-.256-.152-.4-.3-.521L19.98,27.4l-.037-.628.247-.476.142-.545-.181-.576.432-.531.332-.014.351-.271.358-.32.462.083.327.126.276-.112.206.31.407.01.318-.018-.055-.235.137-.373.5-.01.348-.04.637.078.236.334.209,0,.149-.186.185-.045.292.287.268.356c-.006.133-.01.268-.016.4l.155.237.064.263.208.195.108.286.258.146.019.311.236.075.149-.213.123-.334-.132-.405-.128-.617-.292-.545c.008-.235.016-.469.053-.819.044-.112.1-.26.151-.37l.276-.508.4-.155.477-.388.446-.293.426-.158.074-.294.328-.181-.266-.5-.2-.228.1-.265-.175-.248.323-.155.263.359.167-.358.189-.308.2-.2.211-.658.6,0,.38-.217.449-.042-.115-.261-.028-.539.3-.405h.351l.108-.235.456.021.4-.233.244-.319a2.2,2.2,0,0,1,1.064.09l-.136.135c-.189,0-.378,0-.576.012-.093.07-.216.163-.311.232a1.489,1.489,0,0,0,.045.334l.248.1.254-.215.186-.131.365-.108.378-.193.386-.089.269-.362.273-.253.011-.289-.4.107-.235.439-.473.027-.4-.184-.429-.31-.252-.533.338-.266-.056-.424-.52-.037-.552.164-.611.348-.591.576-.485.33.187-.308.289-.331.187-.162-.484-.122h.605l.137-.285.322-.262.389-.021.148-.323.317-.12.511,0L35.191,14l.479.074.365-.024.329-.264.27-.359.571-.067ZM23.594,2.991l.266-.066.163-.136.024-.175-.084-.028-.251.073-.047-.081-.025-.09L23.5,2.455l-.275.015-.158.1-.262.184-.469.279-.759.368.1.134-.249.315.345-.157.169.013.25-.109a4.639,4.639,0,0,1,.929-.473Zm-.1,2.081.144-.173-.365.081-.42.159.175.064.261-.1Zm1.383-.5.125-.113-.079-.132-.233-.15V3.967l.2-.2-.028-.135.217-.264L25.14,3.2l-.089-.1-.16-.008c-.067.062-.131.123-.2.186l-.1.137-.1.186-.134.079-.06-.016.008-.085.119-.137.072-.115.063-.182-.11-.018-.1.122-.058.1-.145-.007-.1.089-.148.017.137-.1.172-.12L24.113,3.2l-.057-.062-.135.005-.16.119-.073-.027.117-.076.161-.152-.024-.036L23.8,2.968l-.23.1-.162.05-.182.036-.237.092L22.82,3.4l-.281.105-.107.093.1.006-.042.1.19-.05.189-.012-.017.109L22.62,3.8l-.2.039-.178.091.068.12.2.011.242-.011c.066,0,.129.007.195.015l.073.1a.582.582,0,0,1-.143.113l-.318-.031-.3-.017-.343.111-.135.261.229.027.2.011-.123.253.045.114.28.014h.274l.278-.111.247-.056.294-.122.169-.071.014.092.135-.02.162.2.2.022L24.4,4.93l.2-.167-.05-.147.129-.008Zm.933-2.984.224-.1L26,1.441l-.209.077-.123-.008L25.6,1.5c-.245.085-.481.2-.724.287l-.1-.007-.206.053-.155.107,0,.072.206-.086L24.574,2l.157-.048.135-.07.093,0,.2-.1.187-.065-.143.114.118-.032.183-.044Zm-1.229.548.363-.178L24.755,2l-.241.105Zm1.174-.415.1.024.133-.084a.682.682,0,0,1-.128.008l-.007-.017Zm.333.577.282-.2.034-.074-.076,0-.118.082-.037-.049.044-.124.12-.088.111-.1-.091,0-.128.058-.107.022-.1.07C26,1.975,26,1.975,25.8,2.1l.076.027a.188.188,0,0,1-.193.078l-.138-.008.018-.079.123-.15-.019-.059-.085,0,.008-.066-.03-.02-.2.044-.264.12-.209.086-.231.1-.165.114.134.017.071.047.144-.013.172-.041.126.048.119.005a.494.494,0,0,1-.218.051L24.9,2.386l-.172.053-.106.089.018.055.183.011.3-.081L25.39,2.4l.154-.013.179.008c.059,0,.119.005.18.007Zm.221-.9.066.013.174-.1.009-.049-.063,0-.125.077Zm.524,0,.156-.068-.065,0L26.8,1.318l-.132.026L26.48,1.4l-.189.148.029.019.115-.03.139,0,.131-.063.063-.073Zm.349-.16c.109-.061.114-.071.115-.076l-.01-.048-.1,0-.131.025-.236.082.091,0,.12.007.149.007ZM25.064,2.978l.156-.1-.11.007-.137.07Zm.347.174L25.6,2.99l.007-.077-.2-.063-.167.091c-.005.1.013.118.019.125s.015.019-.031.169Zm.929.618.218-.184.026-.151L26.558,3.3,26.5,3.2c.324-.115.324-.115.284-.322l.01-.085-.145.005-.117.115-.06,0L26.4,2.857l-.166.037-.079.117v.135c-.314.273-.318.233-.327.067l-.115.007-.126.122.05.108.038.083.123.051a.666.666,0,0,1-.056.169l-.015.041.139.118.241-.137ZM27.823,3.1c.057-.048.142-.106.2-.153-.062-.073-.086-.079-.109-.084l-.158,0-.117-.067c-.255.006-.255.006-.284.048-.089.14-.1.154-.25.2-.065.089-.127.18-.19.274-.12.259-.12.259-.141.3l.209-.029.191-.1.119-.158.164.051.174-.1Zm2.7,2.692.131-.195-.095-.209a2.539,2.539,0,0,0-.4.021,1.165,1.165,0,0,0-.209.224l.1.183.225.03Zm-3.5-4.118.123-.038.115-.141.015-.074a.514.514,0,0,0-.253.254m-.609.654-.019-.073-.032.013-.094.035-.09.108.109-.007.126-.077m1.209-.279.057-.093-.044-.079a.387.387,0,0,0-.142.059l-.016-.11-.108,0c-.016.1-.068.349-.184.263l.044-.176-.1,0-.114.106-.1.119-.014-.1.149-.18-.072-.085-.193.147-.065.1a.4.4,0,0,1-.021.164l.089.073L26.9,2.2,27,2.189l-.028.088-.116.176.128-.046.14,0,.109-.017.1-.106.143-.153.139-.082M27.6,1.511l.122-.03.016-.073-.121,0-.1.086Zm.369-.037.114-.069.1-.094.016-.062.092-.088-.018-.048.011-.049-.082.01.034-.057L28.249.96l-.078.012-.21.034-.083.07.064,0,0,.036-.12.088-.09,0-.092.083.071-.007-.034.055.115-.036.044.01.112.021-.048.119Zm.788-.585.1-.031L28.97.77,28.957.742H28.9L28.78.815l.067,0Zm-.16.491.089-.06,0-.093-.114-.019.008-.09-.115.048-.056.082-.131.138.08.027.117-.013Zm.041.174.073-.081-.135,0-.122,0-.143.069-.067.065.162,0,.105-.022Zm-.493.472.16-.1.059-.081-.013-.1-.128,0L28.188,1.7l-.145.02-.127.112.044.093.05.083Zm-.375.547.14-.148-.051-.082.021-.108-.116.016-.222.072-.112.1.008.132.123,0,.071.063Zm-.8.091.117,0,.027-.093Zm3.109-.189h0l.015-.157-.19-.069-.207-.059-.195.063-.282.063-.17.016-.2-.052-.188.005L28.6,2.14,28.676,2l.037-.127c-.059,0-.117,0-.177,0l-.137.022a.867.867,0,0,0-.14.363l-.183.154.009.12.081.125.244-.015.161-.074c.106.169.106.169.331.146.1,0,.2,0,.294,0l.149-.039.088-.071.059.082c.452-.023.452-.023.463-.112.007-.04.012-.068.117-.1m-1.213-.779.152-.057a.625.625,0,0,0,.01-.125l-.172.028-.155.115Zm1.05-.63.074-.1c-.1-.06-.1-.06-.112-.069L29.9.826l.045-.051L29.928.735c-.058.036-.067.038-.08.04L29.9.681,29.841.619,29.869.57c.053-.091.055-.1.061-.11l0-.007-.026,0a.364.364,0,0,0-.138.045h.052L29.821.5c-.066.06-.1.052-.112.048l-.069,0c-.069.019-.074.021-.073.056,0,.009,0,.018-.07.057L29.442.653l-.06.01-.1.077-.1.037-.106.075.053.008L29.02.945,29.03,1,29.116.99l.1-.025.1,0-.032.071a.666.666,0,0,1-.122.031l-.089,0-.109.041.021.066-.055.1.126.05.148-.019.088.04.089-.06h.054c.012,0,.029-.008.068-.073l.075-.081.05.045.077-.062.045,0,.061.018a.356.356,0,0,0,.095-.06M31.849.277,31.785.229l-.027.018L31.712.237,31.665.2,31.584.157l-.019.016h-.046L31.48.2,31.462.16,31.41.166,31.376.134,31.3.111l0,.051-.015.006L31.257.131l-.03.009-.011.044L31.155.129,31.1.118c-.007,0-.028.017-.042.083h-.022L31.016.157H30.98l-.025.031-.039,0a.538.538,0,0,0-.123.027l-.068.051.059.011.059.045-.019.057-.048,0L30.76.321h-.067L30.676.312,30.7.248l-.051.007V.223H30.63l-.036.008L30.48.321h-.038L30.423.3H30.4a.572.572,0,0,1-.128.053h-.06l-.061.039L30.1.381l-.069.045.027.01.009.012L29.977.51l.033.021-.03.06.138.047.1-.066.058-.039.084-.01-.094.05-.095.066-.053.072c.209,0,.209,0,.316-.073l.07.012.1,0L30.7.595l.063-.049L30.8.509c.036,0,.039,0,.116-.037l.056.01-.043.005c-.056.033-.109.068-.161.1l.089,0L30.892.6,30.926.6l-.039.047H30.8l-.075,0-.057.022c-.057.008-.109.03-.164.041h-.052l-.06.01-.038.061L30.4.8l.021.04-.01.065.121.029-.064.011-.082-.01C30.3.773,30.3.773,30.192.761L30.074.741,30.008.81l0,.058.016.08.062.112.063.051.141.018-.134.077-.042.089-.08-.128-.083-.024-.128.013-.1.021-.122.05-.059.082-.041.061.079.025.135,0,.121-.014-.147.07-.017.088c.122.026.137.028.362-.115l-.087.1-.149.091-.125.007-.15-.091-.06-.066a.605.605,0,0,0-.169,0c-.074.213-.074.213-.248.247l-.121.093.013.135.094.065a1.258,1.258,0,0,1,.193-.07c.085-.011.143.068.228.065.063,0,.094-.066.155-.074.032.041.032.041.244.029h.117c0,.022,0,.022-.048.094l0,.015a.249.249,0,0,0,.166-.007h.092c.271-.115.271-.115.326-.195l-.01-.1-.132.06V1.7l.126-.024.062-.117-.01-.105h.077c.183.015.183.015.2-.006.061-.07-.027-.126-.029-.189l.015,0h.165c0-.016.011-.046-.041-.111-.059,0-.1-.054-.166-.051l-.084.05-.073.044V1.117l.1-.043c0-.018,0-.018.095-.076h.077l.029.055c.133.026.133.026.263-.068L31.093.9l.1-.006.037.06.085-.007.094-.04L31.362.814,31.3.783h.17L31.5.727,31.567.7c.052-.062.143-.093.169-.177L31.8.513l.017-.032-.058-.05-.084.054C31.632.46,31.632.46,31.538.467l0-.045L31.591.4h.073l.076,0,.088-.051.059-.011L31.849.277m2.8.047C34.547.3,34.437.3,34.331.285l-.084,0h0a1.371,1.371,0,0,1,.321.106A1.124,1.124,0,0,0,34.4.368a.9.9,0,0,1,.175.063h-.011l.016.01c.109.045.223.083.332.132-.167-.04-.319-.12-.485-.164-.051-.015-.1-.029-.178-.049a2.448,2.448,0,0,0-.4-.1l-.027.014L33.77.269a2.7,2.7,0,0,1,.35.095l-.052,0,.046.027c-.073-.021-.149-.044-.221-.068L33.882.3,33.732.3a.642.642,0,0,0-.107.015l.048.027h0l.007.01h0l.011.021a1.216,1.216,0,0,1-.273-.1l.129-.017L33.486.234l.121-.015L33.5.187,33.47.168c-.054-.01-.109-.023-.165-.033L33.3.141h0s-.2-.03-.34-.047l.043.011h-.045L32.826.089l-.033,0h-.031L32.75.1,32.8.11l-.056,0L32.677.1H32.7L32.593.071c.059,0,.113-.007.157-.012-.13-.024-.158-.027-.228-.035H32.5L32.386.017l-.027,0h-.125l.091.028-.029,0L32.3.053a1.131,1.131,0,0,1,.229.07L32.478.111h-.043a1.107,1.107,0,0,0-.17-.031l.045.025-.031,0-.054,0,0,0,.02.018L32.3.142l.025.007.014,0,.04.01.028.007.026.008.127.046L32.541.218,32.518.21,32.493.2h0l-.011,0h-.011L32.445.192h0l-.022,0h-.008l-.012,0h-.022l.011.006L32.406.2l.063.024.025.008.09.024.01,0,.016,0,.024,0h.011l.011,0,.02.007.064.018.081.027.029.011.027.009L32.9.346l.068.031L32.929.371l-.018,0H32.9L32.851.353l-.015,0-.013,0L32.781.336,32.67.31l-.013,0L32.631.3l-.013,0L32.591.285,32.567.279,32.512.26h-.006l-.016,0-.01,0-.016,0h-.022l-.111,0,.11.041h.006l.015,0,.063.026.019.006.03.012.068.027.018.01L32.73.4l.025.015h-.017l-.013,0-.012,0L32.689.405,32.666.4,32.645.388,32.63.383,32.6.375,32.579.364,32.506.338l-.015,0L32.474.327,32.419.307h-.01L32.378.3,32.359.291l-.024-.01L32.314.272,32.285.264l-.019,0h-.022L32.312.3l.1.051.018.013.016.01.015.01.067.053.015.013L32.467.431,32.421.4,32.389.366,32.38.356l-.012-.01L32.352.337,32.331.328,32.3.314,32.285.305,32.269.3,32.219.27,32.2.264l-.019-.01L32.162.248,32.126.239l0,.009.006.016.007.01V.282h-.007V.291L32.124.3l-.007,0h-.036l0,0,0,0-.006.01h-.049l0,0h0l0,.01.01.01.014.008.009,0,.018,0h.006l.015.005.015.007.018.01.015.01.016.009.021.013.036.012h.02l.013,0,.047.021.012,0,.045.019.006.011h-.028l-.017,0-.008,0L32.259.461l-.019-.01L32.223.443,32.208.436l-.044-.01-.009,0h-.005L32.1.4,32.052.388,32.036.377l-.019-.01L32.006.359,31.991.35l-.025.008v0l0,0V.376h0L31.951.4l0,0,.033.039L32,.449l.014.01.009.01.075.09L32.021.55,32.008.542,31.991.531l-.1,0,0,.031-.05.053-.01.036,0,.007-.04,0-.008,0h-.011l-.007.009-.007.01,0,.009-.007,0,0,.016-.006.008h-.01l-.009,0-.006.042V.774l0,.04.067.013.011.01.013.012h.033L31.9.839l.007,0,.044.005.02.049L31.98.9l.01.013L32,.931,32.033,1l0,.057-.007.013-.045.011h-.011L31.9,1.1l-.028.015h-.057l-.057-.011-.094.012V1.14l-.015.048-.01.007-.091.018-.158.016-.017.007-.016,0-.011.008-.005.015,0,.015,0,.015-.007.016-.011.008h-.068c-.039.057-.039.057.047.162.088,0,.092.007.138.062h.136l.057.032.021.005.1.037h.046l.043-.021.016-.009.083,0,.051-.015.044,0,.01,0a.435.435,0,0,1,.011.1l-.01.008-.05.047h-.03l-.019-.008h-.018l-.018-.011-.016,0h-.043l-.033,0-.056.021h-.02l-.1-.021h-.023l-.01.047h-.089l-.026.04.04.042.019.018a1.864,1.864,0,0,1,.242.093l-.025.015-.014.013v.018l.015.018.048.018.016.019.018.018.008.018.017.01.022.01.018.008.062.028.021.01.023.019.078.018h.029l.013-.013-.013-.019-.041-.074h.051l.1.017.021.01.015,0,.023.011.012-.007-.01-.036h.066l.021.013L32.5,2.1l0-.019.013-.01.013-.01.013,0h.017l.015-.005.007-.019.116.013.019.01.047,0,.054.005h.015l.085.035.023.019.024.008.02,0H33.1l.019,0,.086.037.072.017h.034l.074.057.059.019.056.008.068.048.076.141.041.034.022.019.029.02.02.005h.028l.03.014.027.009.031.015.059.059.015.021.077.056.034.021.031.029.025.021c.016.009.016.009.106.1l.091.09.028.016.088.06.02.05c.015.036.015.036.112.128l.064.128.019.1.1,0,.01.093-.043.031c.025.064.081.112.1.181h-.082l.053.1c.047.05.056.06.156.075a.39.39,0,0,1,.095.009l.054.012a.614.614,0,0,0,.21-.03l-.022-.052c.222-.143.315.216.522.213h.02l.008,0a.743.743,0,0,1,.286.178l.014.051-.1,0-.059-.011-.094,0h-.011c-.211.016-.395-.17-.615-.062a2.178,2.178,0,0,0,.226.195l-.028.045-.053.008s-.143.075,0,.2c.119.1.293.079.421.163l.068-.016.052-.1a.934.934,0,0,1,.169-.007.544.544,0,0,0-.128-.18c-.056,0-.112-.011-.168-.013L35.766,4.5l-.109-.014,0-.052c.033,0,.063,0,.128,0a.7.7,0,0,0,.265.078l.142,0a.194.194,0,0,1,.147.087l.016.027-.025.045.027.046-.022.054.026.043a.741.741,0,0,1,.186.14l.083.157-.142,0-.06-.008-.04.094h-.061l-.068,0-.047-.022-.05.02a.54.54,0,0,1,.076.259l-.119-.024c-.019.07-.019.07-.12.1l-.021.047L36,5.625l.024.055c.125.137.374.122.441.33l-.1.065s.2.47.473.36l.018-.057h.053L37,6.389c.056.041.056.041.072.135l-.062.005-.04.033c.236.459.236.459.321.459.051-.052.051-.131.1-.186l.117.009a2.116,2.116,0,0,1,.1.261l-.112.115c-.2.245,1.57,1.588,1.787,1.571l.1-.023.1-.034h.032c.386.079.971.776,1.152.27l-.027-.051c-.011-.022-.022-.045-.052-.106-.086-.187.038-.4-.09-.586-.11-.155-.279-.267-.354-.447l-.015-.051.109-.044a.3.3,0,0,0,.1-.019l.106-.036c-.1-.169-.1-.169-.047-.258h.053l.027-.047c-.059-.105-.121-.208-.18-.32.045-.219-.234-.229-.286-.389.157-.028.157-.028.2-.086-.024-.073-.076-.129-.1-.2l.308-.013a1.312,1.312,0,0,1-.154-.217c.056,0,.114,0,.169-.008a1.756,1.756,0,0,0,.177.244.439.439,0,0,1,.172-.007c.044-.085.008-.187.066-.271l.051,0a.142.142,0,0,0,.143-.065L41,5.981c-.025-.092-.025-.092.023-.185l-.036-.108.033-.03c-.024-.06-.024-.06-.065-.157L41,5.454l-.051-.062-.011-.053.037-.042a.913.913,0,0,0-.161-.188l0-.009.057,0,.015.007.019.006.012,0,.039.019.016.005.05.029c.379.108.379.108.505.071.043-.086-.006-.169-.008-.252l.106-.028.088-.053.015-.05.037-.028c0-.118-.126-.192-.106-.312a.828.828,0,0,0,.2-.033.275.275,0,0,0-.112-.193l-.054.008.015.049.01.067h-.048c-.1-.027-.18-.112-.29-.125l-.034,0a.641.641,0,0,1-.458-.153l-.071-.115h.006a.241.241,0,0,0,.153-.038l-.047-.109c.2.05.319.228.5.305l.053-.031-.073-.092L41.551,4a6.75,6.75,0,0,0-1.218-.648L40.321,3.3c.19.095.19.095.234.1a.685.685,0,0,0,.083-.011c-.079-.059-.158-.117-.238-.174l-.071-.048c-.16-.126-.238-.189-.355-.138L40,3.073l-.114-.012-.054-.1a.849.849,0,0,0-.206-.076L39.6,2.855l.115-.008c.06.037.117.076.175.115L40,2.938,40,2.885l.062,0,.115.006a.831.831,0,0,0-.426-.232l-.024.045c-.15-.039-.162-.057-.2-.113.093.018.1.014.161-.019l-.053-.063.053.017.051-.041c-.239-.123-.5-.19-.733-.329l-.011-.024.056-.008c-.067-.036-.135-.071-.236-.122-.266-.112-.558-.159-.819-.285l-.053-.039-.049-.032.047-.022.085,0a1.664,1.664,0,0,1,.175.062l.035.017a2.658,2.658,0,0,0,.439.213l-.007-.02c-.189-.092-.377-.183-.581-.28l-.1-.059-.052-.022c-.054-.021-.111-.042-.168-.063l-.051.024a.68.68,0,0,1-.076,0c-.075-.033-.148-.065-.221-.106l.055.014.022-.024s-.262-.111-.374-.068l.1.06a2.8,2.8,0,0,1-.314-.135c-.011-.021-.011-.021-.453-.2l.048,0c-.17-.064-.17-.064-.219-.1L36.269.912c-.269-.1-.519-.245-.8-.334L35.379.553l-.1.009L35.119.5l.108.018L35.213.5c-.22-.065-.22-.065-.279-.086L34.943.4c-.091-.027-.153-.042-.29-.072M35.5,14.505l.006-.013-.151-.073-.09,0a.247.247,0,0,1-.14-.011.479.479,0,0,1-.221-.145c-.058-.07-.09-.083-.133-.084l-.117.008-.16.079a.93.93,0,0,1,.172.079l.117.144.043.03.154.1.122.107.1.049c.05.012.135.033.293-.268m3.424.459.022-.044-.077-.161c-.2-.005-.2-.005-.258-.036a1.733,1.733,0,0,1-.348-.219l-.12-.093c-.109-.034-.224-.01-.334-.035a1.336,1.336,0,0,1-.18-.077c.041-.264.041-.264.068-.32l.12-.051a.205.205,0,0,0-.013-.271l-.057-.076-.126-.007-.183.091.027.139a1.386,1.386,0,0,1-.007.194l-.008.071a3.913,3.913,0,0,1-.476.665.874.874,0,0,0-.177.247.451.451,0,0,0-.029.235,1.969,1.969,0,0,0,.068.193c.4-.006.81-.012,1.214-.02.1.008.148.016.3.155a1.328,1.328,0,0,0,.475.326c.02-.028.024-.033.086-.061.033-.014.12-.051,0-.418a.39.39,0,0,1,.021-.426m6.93-8.429c-.083-.079-.163-.158-.248-.236a1.009,1.009,0,0,0-.155-.111c-.149-.059-.149-.059-.172-.048l-.025,0a1.852,1.852,0,0,1-.206-.225c-.056-.055-.122-.1-.181-.147l-.163.016c-.059.014-.042.056-.032.08l-.011.12.022.047c-.1.015-.183-.044-.278-.035-.141.01-.138.073-.137.113l-.039.057-.149.011-.115-.117-.113-.111a1.99,1.99,0,0,0-.172-.11l-.048.034.112.113c-.158-.049-.158-.049-.17-.047-.045,0-.187.024-.2.085-.014.113.216.325.3.273l.01-.055c.182-.04.36.133.5.272a.619.619,0,0,0-.411.031c.055.053.126.123.181.178l.058-.036.167-.013.049.028c.07.08.142.16.213.241l.148.118.086,0a.542.542,0,0,1,.221-.05L44.991,7c.147-.039.21.1.315.141a.4.4,0,0,0,.307,0l-.022-.134c-.069-.121-.069-.121-.077-.158V6.791h.067c.018-.073-.087-.142-.012-.212.022-.022.022-.022.288-.042M28.865,28.959l1.5.009a1.662,1.662,0,0,0-.779-.614h-.213a1.781,1.781,0,0,1-.638-.013c-.141-.056-.2-.2-.311-.283a5.342,5.342,0,0,0-.573-.3c-.224-.117-.224-.117-.256-.195-.026-.06-.046-.112-.175-.12-.154,0-.311,0-.463.011-.026,0-.026,0-.2.086-.089.044-.16-.03-.239-.039l-.428-.007c-.366-.021-.366-.021-.414.016-.421.318.236.889.739.643.12-.058.2-.177.332-.214a1.689,1.689,0,0,1,.355.021s.4.132.452.333c.018.079.031.085.091.112a2.177,2.177,0,0,0,.475.131.2.2,0,0,1,.23.117.709.709,0,0,0,.513.3m.591,1.132.025-.028c-.027-.062.02-.142-.049-.2-.05-.038-.114-.019-.17-.039s-.109-.076-.172-.1l-.059-.01-.57-.005c.037.059.063.123.1.18l.053.051c.042.03.05.029.157.012.091-.016.265.1.266.1.034.027.034.054.034.12l.015.08c.065-.011.128.033.195,0,.042-.018.042-.018.171-.17m5.255-.215.026-.011c-.055-.051-.157-.019-.2-.1-.048-.094.014-.187,0-.281a2.262,2.262,0,0,1-.591.091h-.2c-.1-.019-.19-.088-.3-.1h-.1c-.085.026-.117.122-.2.148l-.34,0c-.137,0-.192-.145-.318-.169-.157-.03-.25-.183-.416-.192l-.7-.033a1.816,1.816,0,0,0-.377.048c0,.2,0,.392,0,.587a1.674,1.674,0,0,0,.394.343H31.6c.251.013.386-.25.634-.25.114,0,.216.056.331.056s.218-.051.333-.047a2.938,2.938,0,0,0,.75-.08.21.21,0,0,1,.2,0,3.019,3.019,0,0,0,.492.071c.069,0,.134,0,.2,0s.116-.058.173-.088m12.234,11.01c.07-.906-.054-.972-.2-1.047a4.172,4.172,0,0,1-.456,0c-.435-.124-.522-.878-1.1-.676-.168.008-.337.013-.562.018-.358-.187-.616-.325-.689.027-.1.063-.206.129-.467-.039.03-.091.03-.091.263-.251-.615-.4-.615-.4-.934-.446a.458.458,0,0,1-.188-.045.566.566,0,0,0-.5-.065c-.018.138-.036.276-.053.414l-.373.01a1.273,1.273,0,0,1,.065-.275l.168-.166.123-.085-.033-.117s-.2-.056-.5-.158l-.1,0-.1,0-.106.069c-.027.232-.043.385-.41.337a1.419,1.419,0,0,1,.052-.262c.608-.65.608-.65.464-.953-.075,0-.175,0-.252,0,.015-.161.03-.325.044-.487a3.838,3.838,0,0,0-.215-.556s-.967-.452-1.221-.6c-.246-.12-.476.047-.714.037-.051,0-.105,0-.182,0-.889-.149-.952-.346-1.126-.867-.067-.005-.067-.005-.552-.262l-.019-.1c-.341-.047-.323-.246-.306-.438a1,1,0,0,0-.2.024c-.4.114-.4.114-.5.1a2.122,2.122,0,0,1-.034-.354.622.622,0,0,0,.222-.1c-.093-.127-.112-.153-.438-.206l-.222.166-.076-.01a.491.491,0,0,0-.385-.06c-.206.423-.206.423-.36.455-.2-.131-.344-.353-.612-.4a3.077,3.077,0,0,1-.606-.045c-.074-.016-.17-.036-.247-.049a.346.346,0,0,0-.093-.282c-.292-.017-.5-.34-.832-.215a.35.35,0,0,1-.141.337.537.537,0,0,0-.438.178c-.12.281.122.556.011.835-.48-.262-.064-.758-.286-1.091.043-.181.433-.47.439-.473l-.048-.1h-.215c-.294.062-.343.083-.327.406a6.3,6.3,0,0,0-.64.025,1.332,1.332,0,0,1-.963.33,2.81,2.81,0,0,1-.044.589.435.435,0,0,1-.372.117,1.024,1.024,0,0,0-.177.444c-.369.247-.452.452-.467.552a.7.7,0,0,0,.222.093c-.012.38.434.848-.038,1.138-.071.566-.071.566-.187.687-.08,0-.187.01-.267.018.019.094.044.221.054.316-.085.044-.2.1-.275.152l-.018.181c-.266.056-.412.086-.4.525a.7.7,0,0,0-.378.066,4.888,4.888,0,0,0,.032.741l.115.056a.506.506,0,0,1,.377-.03.751.751,0,0,1-.036.26,2.374,2.374,0,0,0-.38.125c.007.194.007.194-.268.367-.042.206-.042.206.147.44l.005.085c.039.834,1.2.88,1.283,1.686a1.376,1.376,0,0,0,.016.195c1.447,2.1,1.447,2.1,1.632,2.116a2.8,2.8,0,0,1,1.417.986c.075,0,.178,0,.254,0-.008.256-.014.508-.02.758a.749.749,0,0,0-.021.252l-.022.036a.764.764,0,0,0,0,.116l.029.126a.445.445,0,0,1-.045.135.547.547,0,0,0-.025.229l-.021.021a.336.336,0,0,0,.03.138l0,.116v.037c0,.023,0,.047-.064.154a.561.561,0,0,0,.053.234l0,.067a.242.242,0,0,1-.031.108c-.048.237-.251.42-.256.672a8.161,8.161,0,0,1-.322.934l0,.063c.161.9.2,1.085-.233,1.44a1.112,1.112,0,0,0,.008.143l-.008.12.018.035c-.081.185-.259.3-.352.48.207.345.151.457-.019.789l.048.109a.367.367,0,0,1,.045.186l-.123.033c-.083.239-.083.239-.058.331l.108.052h.169l.032-.4h.209a.408.408,0,0,1-.034.178l-.1.072a1.5,1.5,0,0,1-.015.251c-.019.023-.019.023-.082.443l-.148-.125a1.161,1.161,0,0,0-.019-.125c0,.007,0,.014-.075.02,0,.042,0,.083.1.189a.65.65,0,0,1,.078.219c-.086-.042-.163-.1-.253-.14,0,.041,0,.08-.1.157l0,.119a.61.61,0,0,1,.233.076l-.022.117.117.021.037.111c-.241.022-.241.022-.351.09a.64.64,0,0,0,.033.1l.086.087s0,.01,0,.126a.435.435,0,0,0,.126.19l-.077.03.062.031c.026,0,.052,0,.063.1l.122.03,0,.023-.022.036c.081.141.238.207.34.327l.124.011c0,.009,0,.018.07.071.071.011.167.027.239.04a.348.348,0,0,1,.1.025c.088,0,.175,0,.326-.009l.141-.09a1.671,1.671,0,0,0-.237-.039c0-.018.01-.037-.1-.063-.01-.07-.03-.163-.046-.231l.005-.029a1.428,1.428,0,0,0-.035-.232l-.01-.061a1.62,1.62,0,0,1,.041-.182,1.151,1.151,0,0,0,.212-.016l.015-.117a4.989,4.989,0,0,1,.583-.411c.008-.025.015-.05-.076-.083l-.122-.019c-.183-.18-.183-.18-.2-.272l.033-.074a1,1,0,0,1,.23-.119c.1,0,.2,0,.3,0a.909.909,0,0,1,.111-.291.838.838,0,0,0,.193-.314c.226.018.226.018.328-.1,0-.015.007-.03-.036-.09h-.022l-.028.006a.413.413,0,0,1-.227.049c0-.073,0-.168-.006-.241l.028-.146a.742.742,0,0,1,.21.034l.1.071a.551.551,0,0,0,.363-.1c0-.016.009-.032.034-.109l.1-.065a.705.705,0,0,0,0-.236l.028-.115c.095,0,.19,0,.351-.016l.136,0a1.954,1.954,0,0,0,.244-.054,1.764,1.764,0,0,1,.389.031s.486-.326.7-.511l.1-.1c.019-.053.037-.108.057-.164a.591.591,0,0,1-.123-.01c.013-.036.025-.072.056-.183a.863.863,0,0,0-.276-.232l-.019-.115.261,0c.964.158.964.158,1.362-.189,1.106-.972,1.106-.972,1.115-.971a1.288,1.288,0,0,0-.138.2c.094,0,1.409-.937,1.384-1.388-.013-.25-.027-.485,1.154-1.144.118,0,.238-.008.354-.012a2.791,2.791,0,0,0,.425-.267,4.267,4.267,0,0,0,.911-.1.548.548,0,0,1,.15-.18c.128-.034.128-.034,1.089-1.152.056-.013.056-.013.427-.689a.506.506,0,0,1,.08-.14,1.728,1.728,0,0,0,.307-.528,1.208,1.208,0,0,0,.048-.187l.015-.117a1.276,1.276,0,0,0,.059-.245,1.209,1.209,0,0,1,.261-.5s.818-.668,1.039-.873l.73-.839a1.093,1.093,0,0,0,.254-.464M60.535,23.632l-.452-2.154a5.426,5.426,0,0,0-.331-.611c-.07.448.2.837.227,1.268-.006,0-.013.009-.076-.034a1.639,1.639,0,0,0-.159-.307,1.56,1.56,0,0,1-.158.068l-1.441-2.75c-.1.208-.33.3-.45.493-.183-.259-.183-.259-.363-.288a1.418,1.418,0,0,0-.152.426,1.03,1.03,0,0,0-.352.109c.037.357.037.357,0,.479l-.166.009-.1.114-.039,0-.159-.024-.036.007a.358.358,0,0,1-.425-.129l-.115-.05a3.468,3.468,0,0,0,.12.816,1.238,1.238,0,0,1-.323.042c.065.25.127.5.187.753a.391.391,0,0,0-.339.184c.061.4.093.807.158,1.209.021.109.044.217.061.326l-.31.033a2.6,2.6,0,0,1-.178.816c-.77.478-.1,1.425-.692,1.962l-.054.028-.154.04a9.344,9.344,0,0,1-.274,1.435c.006.112.011.225.016.339.171.022.345.014.519.033l.065.16a4.363,4.363,0,0,0-.106,1.581c0,.065,0,.131,0,.319-.053.206-.053.206-.251.4.007.22.064.435.085.654,0,.063-.007.128-.012.19-.015.424.059.521.377.922l.16.013a3.053,3.053,0,0,1,.129.484l.164.021c-.1.788-.1.788.533,1.152-.016.161-.041.321-.057.481.233.2.34.531.679.627.1-.135.157-.291.242-.435.1-.01.223-.028.32-.045L56.9,34.8a.761.761,0,0,1,.32.015l.062.16c.44-.069.462-.717.992-.657.013,0,.025,0,.081-.073A.9.9,0,0,1,58.577,34l.142.075c-.04.649-.04.649.052.77.171-.039.329-.076.472-.116-.041.189-.085.377-.162.671-1.195,4.49-1.195,4.49-1.414,4.914-.026.056-.053.113-.079.169a31.408,31.408,0,0,1-3.136,5.2c-.194.247-.392.489-.593.727a19.71,19.71,0,0,1-2.144,2.36c-.022.022-.046.043-.122.111-.229.2-.229.2-.373.333v.008c-.275.239-.275.239-.369.328l.06-.044c.868-.782,1.978-1.873,2.789-2.707a26.725,26.725,0,0,0,2.721-3.532,26.3,26.3,0,0,0,2.134-3.917A25.894,25.894,0,0,0,60.038,35.1a31.312,31.312,0,0,0,.879-6.847,25.379,25.379,0,0,0-.382-4.625M51.478,11.26l-.319-.345c-.067-.063-.091-.051-.1-.043l-.079-.05h-.026l-.05.057.022.124c-.069-.042-.133-.092-.2-.135l-.077.029c.088.12.163.25.254.366l-.022.007-.009.033-.048.016-.034.057-.076-.051-.035.024c.118.174.237.35.354.527a.334.334,0,0,0,.137-.016c.052.078.1.157.152.235a.464.464,0,0,1-.089.029l.049.147c.027.059.076.1.1.161l-.018.034c.06.193.243.28.272.236.047-.077.053-.085.149-.019.028-.015.028-.015-.021-.275l.334-.041-.071-.107-.065-.077c-.073-.074-.07-.088-.068-.1l.018-.013a2.737,2.737,0,0,0-.338-.533l-.1-.149H51.5a.13.13,0,0,0-.018-.132m-.561,0h0l-.019,0Zm2.473.827a1.7,1.7,0,0,0-.122-.159c-.119-.083-.2-.2-.32-.287l-.016.023c.027.036.11.144.081.21-.024-.01-.024-.01-.348-.413l-.091.016c-.137-.207-.281-.42-.374-.391l-.072-.07a1.843,1.843,0,0,1-.247-.193c-.108-.074-.169-.191-.273-.267s-.235-.054-.331-.135l-.082-.207.036-.022-.063-.079c-.064-.072-.065-.17-.122-.244-.077-.094-.155-.186-.235-.28l-.308.044c-.245-.436-.274-.482-.328-.5l-.025.011-.054.017c-.031.023-.057.023-.15.015a3.044,3.044,0,0,1,.207.29c.058.085.166.136.195.245-.09.049-.142-.06-.221-.047a.419.419,0,0,0,.341.317l.038.073.057.071a1.2,1.2,0,0,1,.157.215c-.072.064-.072.064.064.225l.074-.024,0-.024.181.132.071-.009a.593.593,0,0,1-.093-.145,1.5,1.5,0,0,1,.323.36l-.019.01-.011.045a.9.9,0,0,0,.134.143c.059-.009.118-.016.174-.025l-.021-.065c.229.079.266.347.475.443.077.132.263.2.242.388-.079-.013-.144-.067-.227-.045l-.029,0-.025,0,.027.079.037.081-.069.005c.08.112.083.119.128.124.107-.105.149-.018.213.117l-.036.011.033.137-.039.02h-.022c.03.055.13.232.2.222l.037-.086.3.051s.194.183-.042.2l0,.132h-.022l-.055.048c.152.239.152.239.1.372l.057.045.085-.071c0-.013,0-.013-.015-.124a.644.644,0,0,1,.112.047l.106-.015c-.1-.169-.1-.175-.111-.211l.1-.018c.021.008.048.019.14,0a.191.191,0,0,0-.027-.123l.015-.021c.083.018.131.091.206.113l.025-.013.108-.036-.03-.139.045-.007.011-.044a2.113,2.113,0,0,0-.218-.259l-.025-.039c-.039-.057-.039-.057-.039-.089l.044-.018s-.049-.083-.091-.153ZM49.806,9.235l-.014-.018-.024.051.019.1-.019.021V9.4l.041.064.035.122.072.093.063.03.008-.041-.018-.037c-.05-.094-.048-.1-.044-.107l.031,0,.022-.029-.057-.061-.011-.037a.95.95,0,0,0-.1-.155m5.38,2.174c-.816-.983-1.95-2.262-2.837-3.185a.141.141,0,0,1,.03.2l-.025.028.022.012h0v0c.12.1.174.257.32.334-.028-.067-.028-.067-.14-.188.1.044.1.044.68.668l.008.027a1.345,1.345,0,0,1-.2-.186L53,9.091l-.1-.1-.046-.026c.36.41.681.849,1.073,1.23l.057.075-.12-.03c.014.022.014.022.317.373l.008.024c-.108-.091-.212-.191-.322-.282a3.16,3.16,0,0,0,.2.409l-.044.05.029.056-.063.022a1.574,1.574,0,0,1-.217-.241l-.06-.025.027.062-.062.041c.019.075.019.075.153.244l-.038.011c-.083-.03-.083-.03-.225-.2l-.01.021-.038.011-.1-.127-.085-.1.044-.065c.018,0,.018,0,.177.1,0-.125-.343-.51-.492-.669L53,9.933c-.021.067-.021.067.082.222l-.006.021h0c-.069-.055-.069-.055-.217-.262l-.122-.143-.065,0a3.864,3.864,0,0,0-.493-.538c0,.155.219.226.177.4l.094.1.07.074c.217.261.406.543.646.785l.067.082c.042.056.082.111.121.166.08.091.169.172.252.262.054.07.089.117.128.164l-.032.008-.041.052-.041.011-.123.006.021.119-.029.06a2.384,2.384,0,0,1,.133.258h-.07l-.027.006-.024,0a.185.185,0,0,0,.052.16l.106.063c.059.082.115.163.175.245-.068.072-.068.072,0,.358l-.023.053-.061.013a3.14,3.14,0,0,0,.264.466l-.12.058a.867.867,0,0,0,.121.267l-.121.019-.051-.032-.128,0-.05-.077-.114-.056a1.377,1.377,0,0,0,.129.246c.073.035.123.141.161.21l.065.077.057.1a.434.434,0,0,1-.4-.092l-.111.067c-.042.092-.062.143.067.282l.041,0c.145.159.225.14.265.133l.046-.007c.145.113.279.236.422.353.077.141.15.282.226.424a2.33,2.33,0,0,1,.742,1.4l-.035.132c-.062.04-.074.042-.086.044-.148-.08-.328-.091-.456-.211a3.863,3.863,0,0,0-.415.039c-.2-.017-.2-.017-.264-.073h-.033l-.026.056.046.129a.528.528,0,0,1-.221.059l.013.087c.227.269.236.645.485.9.08.195.145.364.209.532a2.746,2.746,0,0,0,.189.78l.073.105.03.088.028.089c-.014.119,0,.166.095.417a.285.285,0,0,0,.151.014l.125-.044c.047.041.082.1.141.125l.106-.079c.086.049.165.1.251.15a1.791,1.791,0,0,0,.215.309l0-.1-.049-.016.032-.052c.282-.027.076-.432.353-.464.152-.19.126-.477.372-.616-.037-.1-.073-.195-.109-.291a1.492,1.492,0,0,1-.282-.755l-.03-.137.091-.087c-.027-.168-.027-.168.093-.36l.121-.038a2.164,2.164,0,0,0-.1-.259l-.038-.085c-.231-.451-.347-.678-.057-.584l.007,0h.008l0,0h0c.056.039.108.083.168.117a.871.871,0,0,0,.1-.011l.033-.056a1.156,1.156,0,0,1-.1-.314L56.541,16l.048-.044a1.079,1.079,0,0,0-.04-.252c.414.1.4.537.65.761a.509.509,0,0,1,.148.195A4.856,4.856,0,0,1,58.513,18.3c-.018.027-.018.027-.025.264a.437.437,0,0,0-.2.049l.047.1c.114.106.131.279.276.363a.248.248,0,0,0,.143-.016c-.04-.11-.081-.221-.122-.331a3.261,3.261,0,0,0-.209-.955l-.041-.1-.039.03-.062-.1-.052-.131.056-.026a.476.476,0,0,1,.126.159c-.076-.366-.39-.6-.563-.908-.152-.047-.588-.692-.615-.735l-.03-.014a2.988,2.988,0,0,1-.142-.267l-.063,0a.6.6,0,0,1-.142-.2l-.025-.088-.013-.065-.024-.042a2.2,2.2,0,0,1-.161-.27L56.689,15a10.094,10.094,0,0,1,.947,1.111,8.4,8.4,0,0,1,.535.823c.391.812.391.812.456.855.067.132.114.248.16.363l-.023.018-.024-.065c0,.051,0,.12.187.419l-.026-.117-.011-.061c.086.194.165.395.252.588l.036.019a.675.675,0,0,0-.064-.253c-.025-.065-.036-.094-.049-.122A1.472,1.472,0,0,1,59,18.386l.037.048h.013a2.706,2.706,0,0,0-.129-.357.822.822,0,0,0-.1-.248,2.014,2.014,0,0,0,.074.209c-.1-.13-.371-.709-.372-.713l-.036-.084-.025-.066.018.012.064.11.015-.018.006-.006a1.371,1.371,0,0,1-.14-.369c.074.095.106.213.175.313l.067.144c.08.233.2.452.287.68L59,18.16c.031.079.04.1.051.128l.088.22.015.042.01.019.015.042.017.038.011.028c.023.063.046.124.067.189l.017.045.021.058c.031.082.059.166.09.25l.013.042.013.028-.052-.151-.041-.112c-.019-.059-.042-.118-.065-.177l-.046-.13,0-.007,0,.007,0,.014c-.452-1.09-1.092-2.528-1.62-3.585a26.705,26.705,0,0,0-2.425-3.74m-3-2.839a3.312,3.312,0,0,1-.415.148c.082.08.182.141.264.222l.031.034c.186.209.186.209.25.255a1.42,1.42,0,0,1,.2.152l.064.068.061.067a2.195,2.195,0,0,0,.321.275,1.663,1.663,0,0,1,.221.265l.03.035.129.138.105-.037c-.227-.273-.227-.273-.248-.327l.007,0,.019-.005L53.3,9.9c-.018-.047-.089-.07-.073-.134l.009,0c-.057-.072-.118-.141-.185-.21l.048-.021-.159-.17-.021.011.006.019-.006.006-.1-.077a4.08,4.08,0,0,0-.4-.466,1.216,1.216,0,0,1-.226-.28m-.563.192,0,0c-.108.028-.225.056-.357.083l.008.009.045.06.074.065.048.05.025-.01h.021l.016-.009h.007l.043.032.124.1.01-.045.025.008.019.008.056.024,0-.07-.021-.029L51.743,9l.017-.036a1.282,1.282,0,0,0-.136-.2M48.017,4.756,46.408,3.77h0l-.158-.089.018.011.2.112.021.015-.245-.14-.059-.033c-.088-.047-.173-.093-.259-.141l.011.011.114.063-.153-.068-.1-.054L45.6,3.35c-.113-.057-.23-.1-.344-.16l.006.007c.084.044.171.088.253.133a1.391,1.391,0,0,1-.151-.071l-.142-.077-.1-.05,0,.023c.216.108.218.109.354.182l.084.044.071.038h-.008c-.194-.1-.262-.141-.374-.191l-.008,0-.215-.109-.024-.005.02.008c.143.08.424.25.427.252l.006.01a1.4,1.4,0,0,1-.226-.112L45.2,3.268a1.46,1.46,0,0,0,.444.243c.08.038.141.071.2.106l-.005.006-.118-.031-.018,0c.326.178.352.2.415.236-.188-.093-.188-.093-.568-.27l.153.1a4.865,4.865,0,0,1,.541.319c-.048-.008-.048-.008-.273-.137.077.059.271.191.273.193.072.04.153.069.224.112l.082.048.065.045A5.239,5.239,0,0,1,46.132,4c.1.071.18.121.259.169l.031.024-.042-.013c.062.089.169.117.255.176l-.028.025.128.1.011.016a1.241,1.241,0,0,0,.145.106l-.013,0,.074.057.034,0c-.126-.137-.126-.137-.126-.15l-.07-.051-.016-.022L46.749,4.4l.006-.035a.483.483,0,0,1,.173.091c.042.112,1.5,1.235,1.511,1.246l-.067-.047a2.633,2.633,0,0,0,.316.356L48.747,6c.043.037.043.037.551.606l-.086-.021h-.056l.119.106.157.118,0,.037-.013.023h-.008c0,.012,0,.012.311.438l-.033.017c.113.286.407.414.6.628l-.011.018.053.065.132.129.06-.011c.354-.034.221.5.57.479.14.146.14.146.16.191a1.63,1.63,0,0,0,.367-.06c-.046-.063-.091-.125-.14-.186l.035-.014L51.5,8.524l-.132-.135c.027,0,.1.019.4.328a2.447,2.447,0,0,0,.411-.153,2.452,2.452,0,0,0-.374-.449l-.07-.068c-.17-.156-.395-.245-.558-.406-.2-.179-.385-.345-.575-.508A15.794,15.794,0,0,0,48.574,5.32l.024-.013h0c.079.05.158.1.238.154l-.1-.083a1.792,1.792,0,0,1,.26.163c.092.068.175.127.255.184l-.008.014a5.316,5.316,0,0,1,.548.429l-.037-.006c.186.181.186.181,1.317,1.158l.073.062c.134.115.334.262.667.5h.012l-.129-.146.036.015-.107-.125-.03-.031-.006-.044-.059-.057-.016-.021.149.13.007-.008.068.061c.162.151.312.314.47.471a.564.564,0,0,1-.129-.1l.079.135-.035-.015a2.239,2.239,0,0,0,.24.257c.064-.048.056-.115-.012-.182L52.2,8.083a28.431,28.431,0,0,0-3.49-2.856l-.443-.3c-.17-.115-.17-.115-.53-.343.083.049.272.173.276.174Zm-2.338-1.3c-.123-.068-.251-.135-.38-.2l-.007,0,.017.013,0,.008.044.021.328.174Zm6.675,4.993.025-.028-.023-.011v.008L52.3,8.373l-.063-.063-.006,0h0l0,.007s.008.034.13.137M39.586,1.024,39.49,1C39.34.959,39.328.956,39.3.951l.017.007a3.363,3.363,0,0,1-.333-.083L38.98.888c-.21-.056-.419-.1-.628-.151,0,0-.3-.062-.358-.071a.465.465,0,0,0,.085.026L37.97.675,37.724.619c-.219.034-.4-.088-.608-.11h-.008c.1.025.192.044.286.065l.094.021c.4.09.4.09.473.112a1.85,1.85,0,0,1-.27-.057l-.1-.022L37.5.606,37.4.585a1.878,1.878,0,0,0-.2-.038c.1.028.2.05.3.077V.632L37.341.595c-.085-.021-.166-.043-.253-.06.011,0,.039.013.186.047l-.014.013c.412.152.849.193,1.27.314-.152-.031-.3-.077-.452-.1.072.025.59.155.655.163A1.893,1.893,0,0,0,38.44.881a1.447,1.447,0,0,1,.349.08l.019,0C38.775.941,38.515.864,38.42.84L38.266.8,38.252.791c.122.027.122.027.359.09l.016-.007L38.494.833l.072.017c.08.02.158.044.24.061l.082.023-.019,0-.008,0-.037,0A.317.317,0,0,0,38.9.963c.011.026.011.026.165.069.067.021.134.039.2.059l-.033-.017.007,0,.057.008c-.022-.018-.022-.018-.185-.073L39.1,1l.379.119v0l-.054,0a7.125,7.125,0,0,0,1.018.288l-.021-.01-.838-.284c-.159-.055-.313-.1-.47-.143A2.748,2.748,0,0,0,38.523.81L38.542.8c.649.166.649.166,1.2.325l.005,0c-.079-.033-.158-.056-.241-.082a2.983,2.983,0,0,1,.349.1l0-.006c-.035-.013-.035-.013-.221-.068l0-.015ZM37.723.618l-.05-.011.051.011ZM37.215.443,36.971.4l.073.017v0C36.9.395,36.766.372,36.626.348c.12.029.242.04.36.075L36.914.411,36.7.368,36.648.36l-.1-.018.121.025h0L36.62.36l0,0c.334.061.435.084.536.1-.134-.018-.262-.05-.393-.071-.085-.015-.089-.016-.113,0,.111.027.346.074.453.089h0l.078.011-.06-.018c.057.006.106.016.22.039l-.014.011.214.045c.059.01.12.025.179.031l.011-.008L37.706.584c.071,0,.131.057.2.032-.072-.036-.158-.027-.233-.062l.095.015c-.04-.013-.04-.013-.556-.126M36.072.16,35.891.134,35.615.095,35.576.089c.114.016.232.029.345.051h-.014l.112.018h0l-.067-.01.267.041L36.1.174l.011,0c.111.016.222.038.336.051C36.365.212,36.282.2,36.2.184l.025,0-.028,0c.084.013.169.021.251.041.065.011.129.023.192.032l.164.03L36.912.3c-.088-.018-.238-.044-.459-.082L36.365.208,36.322.2l.014,0h-.005L36.072.16M35.3.047h0l.048.007C35.237.039,35.119.024,35,.01L34.914,0l.064.007h.013c.141.019.285.033.428.054l-.015,0,.008,0h.01l.323.045L35.9.132l.17.026h0l.15.024.1.016.057.01c-.069-.011-.316-.052-.612-.1l.044.007L35.623.091,35.452.068l.03,0Zm-4.926,3.23.247-.066-.212-.176-.362-.024-.247,0-.01.2.024.157.4.026ZM28.424,7.993l.015-.016-.01-.126-.12.084c-.025.014-.025.014-.1.027a.844.844,0,0,0-.241.109l-.119.062.116.1a.3.3,0,0,0,.137-.011.81.81,0,0,0,.22-.112c.026-.017.026-.017.1-.113m.9.449.015-.129c0-.076-.01-.152-.007-.229l-.25-.034-.265.128.052.328.319,0Zm31.311,15.78a13.4,13.4,0,0,1,.159,1.339c-.043-.467-.1-.913-.159-1.339m.284,4.018v0m0,.019v0m0,.125v0m-1.409,8.5-.006.023a17.491,17.491,0,0,0,.537-1.807h0q-.241.931-.536,1.8Zm-1.891,4.354h0a16.759,16.759,0,0,0,.935-1.894l-.03.062q-.432.959-.905,1.832m-2.183,3.439-.109.146a18.313,18.313,0,0,0,1.1-1.563c-.178.269-.506.77-.987,1.417M52.3,8.184c.057.057.118.114.175.172l-.125-.132-.056-.044Zm2.915,3.26h0l-.026-.037Zm2.4,3.7h0c-.388-.713-.571-1.053-.93-1.6q.428.682.807,1.375c.042.075.085.149.123.221m1.481,3.245c.082.2.158.4.23.594l-.018-.047-.041-.122-.011-.031-.015-.039,0-.016c-.047-.11-.09-.224-.14-.34m.233.6.018.049,0-.013ZM52.293,8.179l-.091-.1c-.44-.42-.864-.8-1.254-1.13L50.772,6.8c.528.423.816.7,1.43,1.279l.147.14-.056-.044M35.637.094h.006l-.16-.023h-.008l.163.024M35.708.1l.125.018h-.006L35.772.113,35.708.1m.135.019h0M36.32.2l.089.016L36.32.2" transform="translate(-4.549 -1.339)" fill="#282e33"></path></g></g></g><g id="Group_11142" data-name="Group 11142" transform="translate(667.736 25.979)"><path id="Path_53" data-name="Path 53" d="M189.22,116.4a8.812,8.812,0,0,1,2.476,1.481,7.765,7.765,0,0,1,1.806,2.254,8.913,8.913,0,0,1,.954,2.82H178.222a8.912,8.912,0,0,1,.954-2.82,7.748,7.748,0,0,1,1.806-2.254,8.887,8.887,0,0,1,2.456-1.481,7.914,7.914,0,0,1,5.783,0m-5.783,15.14a8.862,8.862,0,0,1-2.456-1.481,7.833,7.833,0,0,1-1.806-2.233,8.684,8.684,0,0,1-.954-2.841h18.264v-1.014a10.2,10.2,0,1,0-10.146,10.146,9.51,9.51,0,0,0,3.206-.548,10.959,10.959,0,0,0,2.82-1.481,10.261,10.261,0,0,0,2.233-2.232,10.58,10.58,0,0,0,1.481-2.841h-2.233a8.058,8.058,0,0,1-2.922,3.693,7.845,7.845,0,0,1-4.586,1.38,7.7,7.7,0,0,1-2.9-.547m-23.825-16.9a10.067,10.067,0,0,0-3.206,2.211,10.708,10.708,0,0,0-2.151,3.227,9.693,9.693,0,0,0-.792,3.9V134.12h2.03V123.973a7.754,7.754,0,0,1,.649-3.146,8.231,8.231,0,0,1,4.323-4.323,7.947,7.947,0,0,1,6.29,0,8.231,8.231,0,0,1,4.323,4.323,7.754,7.754,0,0,1,.649,3.146V134.12h2.03V123.973a9.477,9.477,0,0,0-.812-3.9,10.656,10.656,0,0,0-5.438-5.438,9.475,9.475,0,0,0-3.9-.812,9.818,9.818,0,0,0-4,.812m-21.876,16.8a8.231,8.231,0,0,1-4.323-4.323,7.947,7.947,0,0,1,0-6.29,8.231,8.231,0,0,1,4.323-4.323,7.947,7.947,0,0,1,6.29,0,8.231,8.231,0,0,1,4.323,4.323,7.948,7.948,0,0,1,0,6.29,8.231,8.231,0,0,1-4.323,4.323,7.947,7.947,0,0,1-6.29,0m-.853-16.824a10.147,10.147,0,0,0,4,19.5,9.691,9.691,0,0,0,3.9-.792A10.706,10.706,0,0,0,148,131.177a10.05,10.05,0,0,0,2.211-3.206,10.2,10.2,0,0,0,0-7.976A10.021,10.021,0,0,0,148,116.768a10.707,10.707,0,0,0-3.227-2.151,9.691,9.691,0,0,0-3.9-.792,10.044,10.044,0,0,0-4,.792m-8.584-.792H109.223v2.03h16.235l-16.235,16.032v2.232H128.3v-2.03H112.064L128.3,115.856Z" transform="translate(8.885 -110.172)" fill="#b7c91c"></path><path id="Path_54" data-name="Path 54" d="M101.062,116.129h14.611V114.1H101.062a5.861,5.861,0,0,0-2.254.427A5.615,5.615,0,0,0,97,115.7a5.347,5.347,0,0,0-1.623,3.877,5.644,5.644,0,0,0,.426,2.171,5.478,5.478,0,0,0,1.2,1.806,6.028,6.028,0,0,0,1.806,1.238,5.418,5.418,0,0,0,2.254.466h9.132a3.457,3.457,0,0,1,2.415.954,3.239,3.239,0,0,1,1.035,2.5,3.565,3.565,0,0,1-1.035,2.6,3.278,3.278,0,0,1-2.415,1.055H95.379v2.03h14.814a4.948,4.948,0,0,0,2.13-.467,5.907,5.907,0,0,0,1.745-1.238,5.722,5.722,0,0,0,1.6-3.977,5.351,5.351,0,0,0-.426-2.131,5.514,5.514,0,0,0-2.923-2.922,5.346,5.346,0,0,0-2.13-.426h-9.132a3.6,3.6,0,0,1-3.653-3.653,3.2,3.2,0,0,1,1.054-2.5,3.738,3.738,0,0,1,2.6-.954m-8.118-5.682h-2.03v2.03h2.03Zm0,3.653h-2.03v20.294h2.03Zm-18.609.812a10.053,10.053,0,0,0-3.206,2.212,10.674,10.674,0,0,0-2.151,3.227,9.691,9.691,0,0,0-.792,3.9v10.147h2.029V124.247a7.741,7.741,0,0,1,.65-3.146,8.237,8.237,0,0,1,4.322-4.322,7.938,7.938,0,0,1,6.291,0A8.237,8.237,0,0,1,85.8,121.1a7.759,7.759,0,0,1,.65,3.146v10.147h2.03V124.247a9.493,9.493,0,0,0-.812-3.9,10.671,10.671,0,0,0-5.439-5.439,9.492,9.492,0,0,0-3.9-.812,9.831,9.831,0,0,0-4,.812m-22.729,0a10.053,10.053,0,0,0-3.206,2.212,10.673,10.673,0,0,0-2.151,3.227,9.692,9.692,0,0,0-.792,3.9v10.147h2.029V124.247a7.741,7.741,0,0,1,.65-3.146,8.237,8.237,0,0,1,4.322-4.322,7.938,7.938,0,0,1,6.291,0,8.237,8.237,0,0,1,4.322,4.322,7.759,7.759,0,0,1,.65,3.146v10.147h2.03V124.247a9.493,9.493,0,0,0-.812-3.9,10.671,10.671,0,0,0-5.439-5.439,9.492,9.492,0,0,0-3.9-.812,9.83,9.83,0,0,0-4,.812m-15.849,1.766a8.827,8.827,0,0,1,2.476,1.481,7.778,7.778,0,0,1,1.806,2.252,8.936,8.936,0,0,1,.954,2.821H24.757a8.909,8.909,0,0,1,.954-2.821,7.764,7.764,0,0,1,1.807-2.252,8.882,8.882,0,0,1,2.455-1.481,7.9,7.9,0,0,1,5.784,0m-5.784,15.139a8.857,8.857,0,0,1-2.455-1.481,7.835,7.835,0,0,1-1.807-2.232,8.69,8.69,0,0,1-.954-2.842H43.023v-1.014a10.2,10.2,0,1,0-10.147,10.147,9.5,9.5,0,0,0,3.206-.548,10.982,10.982,0,0,0,2.821-1.481,10.261,10.261,0,0,0,2.232-2.233,10.5,10.5,0,0,0,1.481-2.841H40.384a8.073,8.073,0,0,1-2.922,3.694,7.85,7.85,0,0,1-4.587,1.38,7.691,7.691,0,0,1-2.9-.548m-11.709-7.569a7.755,7.755,0,0,1-.65,3.146,8.237,8.237,0,0,1-4.322,4.322,7.938,7.938,0,0,1-6.291,0,8.237,8.237,0,0,1-4.322-4.322,7.737,7.737,0,0,1-.65-3.146v-4.058H7.508v-2.03H2.029v-7.1H0v13.191a10.061,10.061,0,0,0,10.146,10.147,9.692,9.692,0,0,0,3.9-.792,10.676,10.676,0,0,0,3.227-2.152,10.053,10.053,0,0,0,2.212-3.206,9.827,9.827,0,0,0,.812-4Z" transform="translate(0 -110.447)" fill="#282e33"></path></g></g></svg> 