<?xml version="1.0" encoding="UTF-8"?> <svg xmlns="http://www.w3.org/2000/svg" xmlns:xlink="http://www.w3.org/1999/xlink" id="Group_12966" data-name="Group 12966" width="671.896" height="109.066" viewBox="0 0 671.896 109.066"><defs><clipPath id="clip-path"><rect id="Rectangle_239" data-name="Rectangle 239" width="671.896" height="109.066"></rect></clipPath></defs><path id="Path_1713" data-name="Path 1713" d="M0,0V12.857H16.954v96.209H31.364V12.857H47.822V0Z" transform="translate(0 0)"></path><path id="Path_1714" data-name="Path 1714" d="M90.957,0V42.666H69.412V0H54.719V109.066H69.412V55.1H90.957v53.969H105.65V0Z" transform="translate(13.523 0)"></path><path id="Path_1715" data-name="Path 1715" d="M118.9,0V109.066h39.063V96.635h-24.37V59.406h21.615V46.975H133.591V12.432h24.37V0Z" transform="translate(29.384 0)"></path><g id="Group_12964" data-name="Group 12964" transform="translate(0 0)"><g id="Group_12963" data-name="Group 12963" clip-path="url(#clip-path)"><path id="Path_1716" data-name="Path 1716" d="M210.687,0H223.26l9.607,44.5q1.766,8.336,3.214,16.705t2.649,17.553q.142-1.2.212-1.872a7.331,7.331,0,0,1,.142-.953l2.048-12.5,1.837-11.867,1.624-7.841L253.14,0h12.715l10.031,109.066H261.829l-2.473-37.015q-.142-2.823-.247-4.874T259,63.786l-.636-14.621-.353-13.422c0-.094-.012-.293-.035-.6s-.06-.717-.106-1.237l-.353,2.19q-.567,3.887-1.025,6.782t-.812,4.874l-1.837,9.96-.706,3.744-9.183,47.611h-9.89L225.45,67.954q-1.766-8.123-3.144-16.493T219.8,33.906l-4.239,75.16H201.716Z" transform="translate(49.852 0)"></path><path id="Path_1717" data-name="Path 1717" d="M297.955,0H309.4l23.381,109.066H318.227L314.13,87.8H292.515l-4.168,21.262H274.219Zm14.056,76.431-3.249-17.378q-3.251-17.729-5.3-37.862-.99,9.819-2.543,19.884t-3.673,21.368l-2.684,13.987Z" transform="translate(67.77 0)"></path><path id="Path_1718" data-name="Path 1718" d="M337.946,0H357.3q12.008,0,17.872,5.722,7.417,7.417,7.418,22.674,0,11.727-3.921,18.826a16.814,16.814,0,0,1-11.2,8.795l20.06,53.05h-14.9l-19.99-53.4v53.4H337.946Zm14.693,48.317q8.545,0,12.08-3.956T368.25,31.01a43.808,43.808,0,0,0-.742-8.689,15.61,15.61,0,0,0-2.331-5.863,9.4,9.4,0,0,0-4.1-3.32,15.3,15.3,0,0,0-5.97-1.06h-2.472Z" transform="translate(83.52 0)"></path><path id="Path_1719" data-name="Path 1719" d="M396.685,0h14.693V52.838L431.863,0H446.7L425.224,52.838l23.169,56.229h-16.53L411.378,52.838v56.229H396.685Z" transform="translate(98.037 0)"></path><path id="Path_1720" data-name="Path 1720" d="M455.37,0h39.063V12.433h-24.37V46.975h21.615V59.407H470.063V96.633h24.37v12.433H455.37Z" transform="translate(112.54 0)"></path><path id="Path_1721" data-name="Path 1721" d="M500.4,0h47.823V12.857h-16.46v96.209h-14.41V12.857H500.4Z" transform="translate(123.67 0)"></path></g></g></svg> 