<svg xmlns="http://www.w3.org/2000/svg" width="34" height="34" viewBox="0 0 34 34"><g data-name="Group 4335" transform="translate(-168 -3469)"><circle data-name="Ellipse 80" cx="17" cy="17" r="17" transform="translate(168 3469)" fill="#4577e4"/><g data-name="instagram (6)" transform="translate(176.001 3477)" fill="#fff"><path data-name="Path 3" d="M8.503 4.135a4.362 4.362 0 1 0 4.361 4.362 4.361 4.361 0 0 0-4.362-4.362zm0 7.193a2.831 2.831 0 1 1 2.831-2.831 2.83 2.83 0 0 1-2.831 2.831z"/><path data-name="Path 4" d="M12 .054c-1.564-.073-5.437-.069-7 0a5.08 5.08 0 0 0-3.566 1.375C-.2 3.064.008 5.266.008 8.5c0 3.306-.184 5.458 1.426 7.068C3.075 17.205 5.31 16.99 8.5 16.99c3.275 0 4.406 0 5.564-.446 1.575-.611 2.763-2.019 2.879-4.546.074-1.565.069-5.437 0-7C16.8 2.011 15.2.2 12 .054zm2.475 14.429c-1.072 1.072-2.558.976-6 .976-3.541 0-4.962.052-6-.987-1.193-1.188-.977-3.1-.977-5.987 0-3.913-.4-6.732 3.526-6.933.9-.032 1.168-.042 3.439-.042l.032.021c3.774 0 6.736-.4 6.914 3.531.04.9.05 1.165.05 3.433 0 3.5.066 4.929-.987 5.987z"/><circle data-name="Ellipse 1" cx="1.019" cy="1.019" r="1.019" transform="translate(12.017 2.944)"/></g></g></svg>