<?xml version="1.0" encoding="UTF-8"?>
<svg width="36px" height="36px" viewBox="0 0 36 36" version="1.1" xmlns="http://www.w3.org/2000/svg" xmlns:xlink="http://www.w3.org/1999/xlink">
    <!-- Generator: Sketch 64 (93537) - https://sketch.com -->
    <title>instagram</title>
    <desc>Created with Sketch.</desc>
    <defs>
        <linearGradient x1="6.71416922%" y1="93.4850191%" x2="93.6081727%" y2="6.61873642%" id="linearGradient-1">
            <stop stop-color="#FFDD55" offset="0%"></stop>
            <stop stop-color="#FF543E" offset="50%"></stop>
            <stop stop-color="#C837AB" offset="100%"></stop>
        </linearGradient>
    </defs>
    <g id="Page-1" stroke="none" stroke-width="1" fill="none" fill-rule="evenodd">
        <g id="hp-hovers" transform="translate(-4.000000, -792.000000)" fill-rule="nonzero">
            <g id="instagram" transform="translate(4.000000, 792.000000)">
                <circle id="Oval" fill="url(#linearGradient-1)" cx="18" cy="18" r="18"></circle>
                <g id="instagram-(5)" transform="translate(8.000000, 8.000000)" fill="#FFFFFF">
                    <path d="M14.93625,0 L5.54375,0 C2.486875,0 0,2.486875 0,5.54375 L0,14.9364062 C0,17.993125 2.486875,20.48 5.54375,20.48 L14.9364062,20.48 C17.993125,20.48 20.48,17.993125 20.48,14.9364062 L20.48,5.54375 C20.48,2.486875 17.993125,0 14.93625,0 Z M19.279375,14.9364062 C19.279375,17.3310938 17.3310938,19.279375 14.93625,19.279375 L5.54375,19.279375 C3.14890624,19.279375 1.200625,17.3310938 1.200625,14.9364062 L1.200625,5.54375 C1.200625,3.14890624 3.14890624,1.200625 5.54375,1.200625 L14.9364062,1.200625 C17.3310938,1.200625 19.279375,3.14890624 19.279375,5.54375 L19.279375,14.9364062 Z" id="Shape"></path>
                    <path d="M10.24,4.64015624 C7.15218752,4.64015624 4.64015624,7.15218752 4.64015624,10.24 C4.64015624,13.3278125 7.15218752,15.8398438 10.24,15.8398438 C13.3278125,15.8398438 15.8398438,13.3278125 15.8398438,10.24 C15.8398438,7.15218752 13.3278125,4.64015624 10.24,4.64015624 Z M10.24,14.6392188 C7.814375,14.6392188 5.84078124,12.6657812 5.84078124,10.24 C5.84078124,7.814375 7.814375,5.84078124 10.24,5.84078124 C12.6657812,5.84078124 14.6392188,7.814375 14.6392188,10.24 C14.6392188,12.6657812 12.6657812,14.6392188 10.24,14.6392188 Z" id="Shape"></path>
                    <path d="M15.97375,2.65140624 C15.06125,2.65140624 14.3190625,3.39375 14.3190625,4.30609376 C14.3190625,5.21859376 15.06125,5.96093752 15.97375,5.96093752 C16.88625,5.96093752 17.6285938,5.21859376 17.6285938,4.30609376 C17.6285938,3.39359376 16.88625,2.65140624 15.97375,2.65140624 Z M15.97375,4.76015624 C15.7234375,4.76015624 15.5196875,4.55640624 15.5196875,4.30609376 C15.5196875,4.055625 15.7234375,3.85203124 15.97375,3.85203124 C16.2242188,3.85203124 16.4279688,4.055625 16.4279688,4.30609376 C16.4279688,4.55640624 16.2242188,4.76015624 15.97375,4.76015624 Z" id="Shape"></path>
                </g>
            </g>
        </g>
    </g>
</svg>