<svg xmlns="http://www.w3.org/2000/svg" width="266.94" height="583.6" viewBox="0 0 266.94 583.6"><defs><style>.cls-1{fill:#e2f1ff;fill-rule:evenodd;opacity:.42}</style></defs><path class="cls-1" d="M480.33 15.82C447.76-1.16 406.98-6.76 374.5 10.48c-58.31 30.95-64.26 116.18-116.28 156.81-26.38 20.61-61 26.78-94.21 31.02-21.1 2.7-42.69 5.02-63.13 10.55h-.01a147.338 147.338 0 0 0-33.71 13.36c-1.12.63-2.18 1.28-3.22 1.95-29.64 16.7-44.53 38.43-52.4 55.91a109.194 109.194 0 0 0-8.8 27.16.01.01 0 0 0-.01.01 165.263 165.263 0 0 0-2.65 36.14c2.43 78.19 44.27 154.13 109.09 197.96s150.96 54.45 224.58 27.68c70.24-25.54 125.53-81.38 168.63-142.42 44.93-63.63 79.97-137.33 81.88-215.14S549.37 51.83 480.33 15.82z"/></svg>